<svg width="48" height="48" viewBox="0 0 48 48" fill="none" xmlns="http://www.w3.org/2000/svg">
<path d="M24 48C37.2548 48 48 37.2548 48 24C48 10.7452 37.2548 0 24 0C10.7452 0 0 10.7452 0 24C0 37.2548 10.7452 48 24 48Z" fill="#E5EBEC"/>
<g clip-path="url(#clip0_27_12)">
<path d="M36 24.0723C35.9996 21.7649 35.3422 19.506 34.1056 17.5629C32.8689 15.6198 31.1048 14.0739 29.0221 13.1083C26.9394 12.1426 24.6254 11.7976 22.3538 12.1142C20.0823 12.4307 17.9485 13.3954 16.205 14.8942C14.4616 16.3931 13.1814 18.3631 12.5161 20.5712C11.8508 22.7794 11.8283 25.133 12.4511 27.3537C13.074 29.5743 14.3162 31.5688 16.0306 33.1011C17.7451 34.6335 19.86 35.6395 22.125 36V27.5632H19.0785V24.0723H22.125V21.4129C22.125 18.3868 23.916 16.7146 26.658 16.7146C27.9705 16.7146 29.343 16.95 29.343 16.95V19.9233H27.831C26.34 19.9233 25.875 20.853 25.875 21.8099V24.0738H29.2035L28.671 27.5632H25.875V36C28.6976 35.5501 31.268 34.1017 33.124 31.9152C34.9801 29.7287 35.9998 26.9477 36 24.0723Z" fill="#2A2A2A"/>
</g>
<defs>
<clipPath id="clip0_27_12">
<rect width="24" height="24" fill="white" transform="translate(12 12)"/>
</clipPath>
</defs>
</svg>
