<svg width="48" height="48" viewBox="0 0 48 48" fill="none" xmlns="http://www.w3.org/2000/svg">
<circle cx="24" cy="24" r="24" fill="#E5EBEC"/>
<path d="M28.82 24.5C28.82 25.3544 28.5666 26.1896 28.0919 26.9001C27.6173 27.6105 26.9426 28.1642 26.1532 28.4912C25.3638 28.8181 24.4952 28.9037 23.6572 28.737C22.8192 28.5703 22.0495 28.1589 21.4453 27.5547C20.8411 26.9505 20.4297 26.1808 20.263 25.3428C20.0963 24.5048 20.1819 23.6362 20.5088 22.8468C20.8358 22.0574 21.3895 21.3827 22.0999 20.9081C22.8104 20.4334 23.6456 20.18 24.5 20.18C25.6453 20.1813 26.7434 20.6369 27.5533 21.4467C28.3631 22.2566 28.8187 23.3547 28.82 24.5ZM38 18.56V30.44C37.9977 32.4443 37.2005 34.3659 35.7832 35.7832C34.3659 37.2005 32.4443 37.9977 30.44 38H18.56C16.5557 37.9977 14.6341 37.2005 13.2168 35.7832C11.7995 34.3659 11.0023 32.4443 11 30.44V18.56C11.0023 16.5557 11.7995 14.6341 13.2168 13.2168C14.6341 11.7995 16.5557 11.0023 18.56 11H30.44C32.4443 11.0023 34.3659 11.7995 35.7832 13.2168C37.2005 14.6341 37.9977 16.5557 38 18.56ZM30.98 24.5C30.98 23.2184 30.6 21.9655 29.8879 20.8999C29.1759 19.8343 28.1639 19.0037 26.9798 18.5133C25.7957 18.0228 24.4928 17.8945 23.2358 18.1445C21.9788 18.3945 20.8242 19.0117 19.9179 19.9179C19.0117 20.8242 18.3945 21.9788 18.1445 23.2358C17.8945 24.4928 18.0228 25.7957 18.5133 26.9798C19.0037 28.1639 19.8343 29.1759 20.8999 29.8879C21.9655 30.6 23.2184 30.98 24.5 30.98C26.218 30.9781 27.8651 30.2947 29.0799 29.0799C30.2947 27.8651 30.9781 26.218 30.98 24.5ZM33.14 17.48C33.14 17.1596 33.045 16.8464 32.867 16.58C32.689 16.3136 32.436 16.1059 32.1399 15.9833C31.8439 15.8607 31.5182 15.8286 31.204 15.8911C30.8897 15.9536 30.601 16.1079 30.3745 16.3345C30.1479 16.561 29.9936 16.8497 29.9311 17.164C29.8686 17.4782 29.9007 17.8039 30.0233 18.0999C30.1459 18.396 30.3536 18.649 30.62 18.827C30.8864 19.005 31.1996 19.1 31.52 19.1C31.9497 19.1 32.3617 18.9293 32.6655 18.6255C32.9693 18.3217 33.14 17.9097 33.14 17.48Z" fill="#212121"/>
</svg>
