<svg width="16" height="17" viewBox="0 0 16 17" fill="none" xmlns="http://www.w3.org/2000/svg">
<g id="phone 2" clip-path="url(#clip0_1116_13017)">
<g id="Group">
<path id="Vector" d="M15.0855 10.9003L11.9485 9.50832C11.6382 9.37105 11.2913 9.33996 10.9615 9.41987C10.6317 9.49978 10.3375 9.68623 10.1245 9.95032L9.1775 11.1353C7.64285 10.159 6.34121 8.85772 5.3645 7.32332L6.5485 6.37732C6.81352 6.16452 7.00075 5.87008 7.08105 5.53983C7.16135 5.20958 7.13022 4.86204 6.9925 4.55132L5.5995 1.41432C5.45152 1.08113 5.19006 0.811288 4.8617 0.652875C4.53333 0.494463 4.1594 0.457765 3.8065 0.549319L1.1545 1.23832C0.78863 1.3339 0.470514 1.56034 0.260414 1.87475C0.0503132 2.18917 -0.0371816 2.56972 0.0145026 2.94432C0.505618 6.36153 2.09045 9.52772 4.5317 11.9688C6.97295 14.4099 10.1393 15.9945 13.5565 16.4853C13.6267 16.4953 13.6976 16.5003 13.7685 16.5003C14.1099 16.5001 14.4417 16.3867 14.7118 16.1779C14.9819 15.9691 15.1753 15.6767 15.2615 15.3463L15.9495 12.6933C16.0424 12.3405 16.0064 11.9662 15.848 11.6375C15.6897 11.3089 15.4193 11.0475 15.0855 10.9003Z" fill="#666666"/>
</g>
</g>
<defs>
<clipPath id="clip0_1116_13017">
<rect width="16" height="16" fill="white" transform="translate(0 0.5)"/>
</clipPath>
</defs>
</svg>
