<svg width="48" height="48" viewBox="0 0 48 48" fill="none" xmlns="http://www.w3.org/2000/svg">
<circle cx="24" cy="24" r="24" fill="#E5EBEC"/>
<path fill-rule="evenodd" clip-rule="evenodd" d="M23.814 9C15.5985 9 9 15.652 9 23.9377C9 30.0878 12.6105 35.2341 17.8395 37.6194C17.8395 34.8181 17.82 35.1792 19.9545 26.0706C18.7815 23.7034 19.6935 19.7952 22.32 19.7952C25.965 19.7952 23.4885 25.1993 23.067 27.3259C22.6935 28.958 23.9385 30.2139 25.4325 30.2139C28.296 30.2139 30.162 26.5728 30.162 22.3059C30.162 19.0418 27.9225 16.6567 24.063 16.6567C17.2005 16.6567 15.4605 24.2993 17.8395 26.6982C18.438 27.6043 17.8395 27.6467 17.8395 28.8325C17.424 30.0864 14.1045 28.2638 14.1045 23.5613C14.1045 19.2928 17.5905 14.2727 24.6855 14.2727C30.2865 14.2727 34.0215 18.4144 34.0215 22.8083C34.0215 28.7073 30.7845 32.9758 26.055 32.9758C24.4365 32.9758 22.9425 32.0964 22.4445 31.092C21.54 34.6102 21.357 36.3939 19.9545 38.3723C21.324 38.7489 22.6935 39 24.1875 39C32.403 39 39 32.348 39 24.0637C38.628 15.6524 32.0295 9 23.814 9Z" fill="#212121"/>
</svg>
