<svg width="16" height="17" viewBox="0 0 16 17" fill="none" xmlns="http://www.w3.org/2000/svg">
<g id="send-message 1" clip-path="url(#clip0_1116_13023)">
<g id="Group">
<path id="Vector" d="M15.7068 0.792637C15.4338 0.520636 15.0268 0.427637 14.6638 0.558637L0.663812 5.55864C0.286812 5.69264 0.0258123 6.03964 0.00181231 6.43864C-0.0221877 6.83864 0.193812 7.21364 0.552812 7.39364L5.13881 9.68564L9.77981 6.37164C10.0098 6.20764 10.2928 6.49064 10.1288 6.72064L6.81381 11.3626L9.10581 15.9486C9.27681 16.2876 9.62381 16.5006 10.0008 16.5006C10.0218 16.5006 10.0418 16.4996 10.0618 16.4986C10.4618 16.4746 10.8088 16.2146 10.9438 15.8366L15.9428 1.83564C16.0718 1.47264 15.9798 1.06564 15.7068 0.792637Z" fill="#666666"/>
</g>
</g>
<defs>
<clipPath id="clip0_1116_13023">
<rect width="16" height="16" fill="white" transform="translate(0 0.5)"/>
</clipPath>
</defs>
</svg>
