<svg width="48" height="48" viewBox="0 0 48 48" fill="none" xmlns="http://www.w3.org/2000/svg">
<path d="M24 48C37.2548 48 48 37.2548 48 24C48 10.7452 37.2548 0 24 0C10.7452 0 0 10.7452 0 24C0 37.2548 10.7452 48 24 48Z" fill="#E5EBEC"/>
<path d="M35.775 19.675C35.775 19.675 35.55 18.025 34.8 17.275C33.9 16.3 32.85 16.3 32.4 16.225C29.025 16 24 16 24 16C24 16 18.975 16 15.6 16.225C15.15 16.3 14.1 16.3 13.2 17.275C12.45 18.025 12.225 19.675 12.225 19.675C12.225 19.675 12 21.625 12 23.575V25.375C12 27.325 12.225 29.275 12.225 29.275C12.225 29.275 12.45 30.925 13.2 31.675C14.1 32.65 15.3 32.575 15.825 32.725C17.775 32.875 24 32.95 24 32.95C24 32.95 29.025 32.95 32.4 32.725C32.85 32.65 33.9 32.65 34.8 31.675C35.55 30.925 35.775 29.275 35.775 29.275C35.775 29.275 36 27.325 36 25.375V23.575C36 21.625 35.775 19.675 35.775 19.675ZM21.525 27.625V20.875L27.975 24.25L21.525 27.625Z" fill="#212121"/>
</svg>
