<svg width="46" height="46" viewBox="0 0 46 46" fill="none" xmlns="http://www.w3.org/2000/svg">
<g style="mix-blend-mode:luminosity" clip-path="url(#clip0_547_2199)">
<path d="M23 46C35.7025 46 46 35.7025 46 23C46 10.2975 35.7025 0 23 0C10.2975 0 0 10.2975 0 23C0 35.7025 10.2975 46 23 46Z" fill="#F6C863"/>
<path d="M27.5675 18.4034L24.0564 17.6738L23.3232 19.9918L25.4436 21.1382L27.5675 18.4034Z" fill="#828A9E"/>
<path d="M31.4744 19.2516L29.8932 17.7782C29.6718 17.5728 29.4087 17.4176 29.1219 17.3234C28.835 17.2292 28.5312 17.198 28.2311 17.2322C27.9311 17.2663 27.642 17.3649 27.3837 17.5211C27.1253 17.6774 26.9038 17.8877 26.7342 18.1375L25.0524 20.6064C24.8959 20.8368 24.7869 21.0961 24.7318 21.3691C24.6767 21.6421 24.6766 21.9234 24.7315 22.1964C24.7864 22.4694 24.8951 22.7288 25.0514 22.9593C25.2077 23.1898 25.4084 23.3869 25.6417 23.5389L27.3991 24.6853L27.6722 20.9011L30.1267 19.345L31.4744 19.2516Z" fill="#62667C"/>
<path d="M37.9143 24.1354C37.9143 25.2692 37.578 26.3776 36.948 27.3203C36.318 28.263 35.4226 28.9977 34.375 29.4314C33.3273 29.8651 32.1746 29.9784 31.0626 29.757C29.9506 29.5355 28.9293 28.9892 28.1278 28.1872C27.3263 27.3852 26.7807 26.3636 26.5599 25.2514C26.3391 24.1393 26.4532 22.9866 26.8876 21.9393C27.3219 20.892 28.0572 19.997 29.0003 19.3676C29.9434 18.7382 31.052 18.4026 32.1858 18.4033C33.7054 18.4043 35.1625 19.0086 36.2367 20.0835C37.3108 21.1583 37.9143 22.6157 37.9143 24.1354Z" fill="#575B6D"/>
<path d="M32.1857 28.3903C31.341 28.3917 30.5149 28.1425 29.8119 27.6743C29.1088 27.206 28.5605 26.5397 28.2362 25.7597C27.912 24.9797 27.8264 24.1211 27.9903 23.2924C28.1543 22.4638 28.5603 21.7024 29.1571 21.1046C29.7539 20.5068 30.5146 20.0994 31.343 19.9341C32.1714 19.7688 33.0302 19.8529 33.8107 20.1759C34.5913 20.4988 35.2585 21.046 35.7279 21.7482C36.1974 22.4505 36.4479 23.2762 36.4479 24.1209C36.447 25.2517 35.9979 26.336 35.199 27.1363C34.4 27.9365 33.3165 28.3875 32.1857 28.3903Z" fill="#69B0EE"/>
<path d="M32.1859 26.2054C31.7763 26.2061 31.3758 26.0853 31.0349 25.8583C30.694 25.6313 30.4281 25.3083 30.2709 24.9301C30.1137 24.5519 30.0722 24.1356 30.1516 23.7338C30.2311 23.332 30.428 22.9628 30.7173 22.673C31.0067 22.3831 31.3755 22.1856 31.7771 22.1055C32.1788 22.0253 32.5952 22.0661 32.9736 22.2227C33.3521 22.3792 33.6756 22.6445 33.9032 22.985C34.1308 23.3255 34.2523 23.7259 34.2523 24.1354C34.2514 24.6835 34.0335 25.2089 33.6462 25.5968C33.259 25.9847 32.734 26.2035 32.1859 26.2054Z" fill="#419BE9"/>
<path d="M31.0934 23.1722C30.5184 23.7436 29.8284 23.9808 29.5481 23.7005C29.2678 23.4202 29.5014 22.7266 30.0764 22.1516C30.6514 21.5766 31.3414 21.343 31.6253 21.6233C31.9092 21.9036 31.6648 22.5972 31.0934 23.1722Z" fill="#EEEFEE"/>
<path d="M18.4326 18.4034L21.9437 17.6738L22.6768 19.9918L20.5565 21.1382L18.4326 18.4034Z" fill="#828A9E"/>
<path d="M14.5264 19.2516L16.1076 17.7782C16.3289 17.5728 16.592 17.4176 16.8789 17.3234C17.1658 17.2292 17.4696 17.198 17.7696 17.2322C18.0696 17.2663 18.3587 17.3649 18.6171 17.5211C18.8755 17.6774 19.097 17.8877 19.2665 18.1375L20.9484 20.6064C21.1049 20.8368 21.2138 21.0961 21.2689 21.3691C21.324 21.6421 21.3241 21.9234 21.2693 22.1964C21.2144 22.4694 21.1056 22.7288 20.9493 22.9593C20.793 23.1898 20.5924 23.3869 20.359 23.5389L18.6017 24.6853L18.3286 20.9011L15.8848 19.345L14.5264 19.2516Z" fill="#62667C"/>
<path d="M8.08594 24.1354C8.08594 25.2692 8.42221 26.3776 9.05221 27.3203C9.68221 28.263 10.5776 28.9977 11.6252 29.4314C12.6728 29.8651 13.8256 29.9784 14.9376 29.757C16.0496 29.5355 17.0709 28.9892 17.8724 28.1872C18.6739 27.3852 19.2195 26.3636 19.4403 25.2514C19.6611 24.1393 19.547 22.9866 19.1126 21.9393C18.6782 20.892 17.943 19.997 16.9999 19.3676C16.0568 18.7382 14.9482 18.4026 13.8144 18.4033C12.2948 18.4043 10.8377 19.0086 9.76354 20.0835C8.68935 21.1583 8.08594 22.6157 8.08594 24.1354Z" fill="#575B6D"/>
<path d="M13.814 28.3903C14.6593 28.3917 15.486 28.1422 16.1894 27.6733C16.8927 27.2044 17.441 26.5372 17.7648 25.7564C18.0887 24.9756 18.1734 24.1162 18.0083 23.2871C17.8432 22.4581 17.4357 21.6967 16.8375 21.0995C16.2393 20.5023 15.4772 20.0961 14.6479 19.9324C13.8186 19.7687 12.9593 19.8549 12.179 20.18C11.3987 20.5051 10.7325 21.0546 10.2648 21.7587C9.79709 22.4629 9.54894 23.29 9.55178 24.1353C9.55652 25.2636 10.0073 26.3442 10.8058 27.1413C11.6043 27.9385 12.6857 28.3875 13.814 28.3903Z" fill="#69B0EE"/>
<path d="M13.8145 26.2054C14.224 26.2061 14.6246 26.0853 14.9655 25.8583C15.3063 25.6313 15.5722 25.3083 15.7294 24.9301C15.8867 24.5519 15.9282 24.1356 15.8487 23.7338C15.7692 23.332 15.5724 22.9628 15.283 22.673C14.9937 22.3831 14.6248 22.1856 14.2232 22.1055C13.8216 22.0253 13.4052 22.0661 13.0267 22.2227C12.6483 22.3792 12.3248 22.6445 12.0972 22.985C11.8695 23.3255 11.748 23.7259 11.748 24.1354C11.749 24.6835 11.9669 25.2089 12.3541 25.5968C12.7413 25.9847 13.2664 26.2035 13.8145 26.2054Z" fill="#419BE9"/>
<path d="M14.9064 23.1722C15.4814 23.7436 16.1714 23.9808 16.4517 23.7005C16.732 23.4202 16.4984 22.7266 15.9234 22.1516C15.3484 21.5766 14.6584 21.343 14.3745 21.6233C14.0906 21.9036 14.335 22.5972 14.9064 23.1722Z" fill="#EEEFEE"/>
<path d="M25.2389 18.3717C25.2396 18.8156 25.1086 19.2496 24.8625 19.6189C24.6163 19.9883 24.2661 20.2763 23.8562 20.4464C23.4463 20.6166 22.9951 20.6613 22.5598 20.5749C22.1245 20.4885 21.7246 20.2748 21.4107 19.961C21.0969 19.6472 20.8832 19.2473 20.7968 18.8119C20.7104 18.3766 20.7551 17.9254 20.9253 17.5155C21.0955 17.1056 21.3835 16.7554 21.7528 16.5092C22.1221 16.2631 22.5562 16.1321 23 16.1328C23.5938 16.1328 24.1633 16.3687 24.5831 16.7886C25.003 17.2085 25.2389 17.7779 25.2389 18.3717Z" fill="#62667C"/>
<path d="M23 19.6364C22.7497 19.6372 22.5048 19.5636 22.2963 19.425C22.0878 19.2864 21.9251 19.0891 21.8288 18.858C21.7325 18.6269 21.7069 18.3725 21.7553 18.1269C21.8037 17.8812 21.9239 17.6555 22.1007 17.4782C22.2775 17.301 22.5028 17.1801 22.7483 17.131C22.9938 17.0819 23.2483 17.1068 23.4797 17.2024C23.7111 17.298 23.9088 17.4602 24.048 17.6683C24.1872 17.8764 24.2614 18.1211 24.2614 18.3714C24.2605 18.706 24.1274 19.0267 23.8912 19.2636C23.6549 19.5005 23.3346 19.6345 23 19.6364Z" fill="#828A9E"/>
</g>
<defs>
<clipPath id="clip0_547_2199">
<rect width="46" height="46" fill="white"/>
</clipPath>
</defs>
</svg>
