<svg width="20" height="20" viewBox="0 0 20 20" fill="none" xmlns="http://www.w3.org/2000/svg">
<path d="M17.5003 1.25H10.417V9.58333H18.7503V2.5C18.7503 2.16848 18.6186 1.85054 18.3842 1.61612C18.1498 1.3817 17.8318 1.25 17.5003 1.25ZM16.3366 6.58042C16.3764 6.61885 16.4081 6.66483 16.43 6.71566C16.4518 6.7665 16.4633 6.82117 16.4638 6.8765C16.4642 6.93182 16.4537 6.98669 16.4328 7.0379C16.4118 7.0891 16.3809 7.13563 16.3417 7.17475C16.3026 7.21387 16.2561 7.24481 16.2049 7.26576C16.1537 7.28671 16.0988 7.29725 16.0435 7.29677C15.9882 7.29629 15.9335 7.2848 15.8827 7.26296C15.8318 7.24112 15.7858 7.20938 15.7474 7.16958L14.5837 6.00583L13.4199 7.16958C13.3413 7.24548 13.2361 7.28748 13.1268 7.28653C13.0176 7.28558 12.9131 7.24176 12.8358 7.16451C12.7586 7.08725 12.7147 6.98275 12.7138 6.8735C12.7128 6.76425 12.7548 6.659 12.8307 6.58042L13.9945 5.41667L12.8307 4.25292C12.7548 4.17433 12.7128 4.06908 12.7138 3.95983C12.7147 3.85058 12.7586 3.74608 12.8358 3.66883C12.9131 3.59157 13.0176 3.54775 13.1268 3.5468C13.2361 3.54585 13.3413 3.58785 13.4199 3.66375L14.5837 4.8275L15.7474 3.66375C15.826 3.58785 15.9312 3.54585 16.0405 3.5468C16.1497 3.54775 16.2542 3.59157 16.3315 3.66883C16.4088 3.74608 16.4526 3.85058 16.4535 3.95983C16.4545 4.06908 16.4125 4.17433 16.3366 4.25292L15.1728 5.41667L16.3366 6.58042Z" fill="#666666"/>
<path d="M2.5 1.25C2.16848 1.25 1.85054 1.3817 1.61612 1.61612C1.3817 1.85054 1.25 2.16848 1.25 2.5V9.58333H9.58333V1.25H2.5ZM7.08333 5.83333H3.75C3.63949 5.83333 3.53351 5.78943 3.45537 5.71129C3.37723 5.63315 3.33333 5.52717 3.33333 5.41667C3.33333 5.30616 3.37723 5.20018 3.45537 5.12204C3.53351 5.0439 3.63949 5 3.75 5H7.08333C7.19384 5 7.29982 5.0439 7.37796 5.12204C7.4561 5.20018 7.5 5.30616 7.5 5.41667C7.5 5.52717 7.4561 5.63315 7.37796 5.71129C7.29982 5.78943 7.19384 5.83333 7.08333 5.83333Z" fill="#666666"/>
<path d="M10.417 10.418V18.7513H17.5003C17.8318 18.7513 18.1498 18.6196 18.3842 18.3852C18.6186 18.1508 18.7503 17.8328 18.7503 17.5013V10.418H10.417ZM16.2503 15.8346H12.917C12.8065 15.8346 12.7005 15.7907 12.6224 15.7126C12.5442 15.6345 12.5003 15.5285 12.5003 15.418C12.5003 15.3075 12.5442 15.2015 12.6224 15.1233C12.7005 15.0452 12.8065 15.0013 12.917 15.0013H16.2503C16.3608 15.0013 16.4668 15.0452 16.545 15.1233C16.6231 15.2015 16.667 15.3075 16.667 15.418C16.667 15.5285 16.6231 15.6345 16.545 15.7126C16.4668 15.7907 16.3608 15.8346 16.2503 15.8346ZM16.2503 14.168H12.917C12.8065 14.168 12.7005 14.1241 12.6224 14.0459C12.5442 13.9678 12.5003 13.8618 12.5003 13.7513C12.5003 13.6408 12.5442 13.5348 12.6224 13.4567C12.7005 13.3785 12.8065 13.3346 12.917 13.3346H16.2503C16.3608 13.3346 16.4668 13.3785 16.545 13.4567C16.6231 13.5348 16.667 13.6408 16.667 13.7513C16.667 13.8618 16.6231 13.9678 16.545 14.0459C16.4668 14.1241 16.3608 14.168 16.2503 14.168Z" fill="#666666"/>
<path d="M1.25 10.418V17.5013C1.25 17.8328 1.3817 18.1508 1.61612 18.3852C1.85054 18.6196 2.16848 18.7513 2.5 18.7513H9.58333V10.418H1.25ZM7.08333 15.0013H5.83333V16.2513C5.83333 16.3618 5.78943 16.4678 5.71129 16.5459C5.63315 16.6241 5.52717 16.668 5.41667 16.668C5.30616 16.668 5.20018 16.6241 5.12204 16.5459C5.0439 16.4678 5 16.3618 5 16.2513V15.0013H3.75C3.63949 15.0013 3.53351 14.9574 3.45537 14.8793C3.37723 14.8011 3.33333 14.6951 3.33333 14.5846C3.33333 14.4741 3.37723 14.3681 3.45537 14.29C3.53351 14.2119 3.63949 14.168 3.75 14.168H5V12.918C5 12.8075 5.0439 12.7015 5.12204 12.6233C5.20018 12.5452 5.30616 12.5013 5.41667 12.5013C5.52717 12.5013 5.63315 12.5452 5.71129 12.6233C5.78943 12.7015 5.83333 12.8075 5.83333 12.918V14.168H7.08333C7.19384 14.168 7.29982 14.2119 7.37796 14.29C7.4561 14.3681 7.5 14.4741 7.5 14.5846C7.5 14.6951 7.4561 14.8011 7.37796 14.8793C7.29982 14.9574 7.19384 15.0013 7.08333 15.0013Z" fill="#666666"/>
</svg>
