<svg width="14" height="13" viewBox="0 0 14 13" fill="none" xmlns="http://www.w3.org/2000/svg">
<path d="M4.28276 5.521L4.80426 5.78233L5.46634 4.45816L8.99434 6.97816C9.05786 7.02392 9.13002 7.05626 9.20645 7.07321C9.28287 7.09016 9.36194 7.09136 9.43884 7.07675C9.51563 7.06266 9.5888 7.0333 9.65403 6.99042C9.71926 6.94753 9.77522 6.89199 9.81859 6.82708L13.3186 1.57708C13.4045 1.44836 13.4357 1.29081 13.4054 1.13907C13.3751 0.987341 13.2857 0.853861 13.157 0.767997C13.0283 0.682133 12.8707 0.650919 12.719 0.681222C12.5673 0.711525 12.4338 0.800862 12.3479 0.92958L9.18218 5.6785L5.58884 3.11183C5.52022 3.06281 5.44179 3.02925 5.35895 3.01346C5.27611 2.99767 5.19083 3.00003 5.10899 3.02038C5.02715 3.04073 4.9507 3.07858 4.8849 3.13133C4.81909 3.18408 4.76551 3.25046 4.72784 3.32591L3.71051 5.36116C3.90892 5.38172 4.10241 5.43577 4.28276 5.521Z" fill="#0037B7"/>
<path d="M3.08692 8.83691H1.97275L0.644501 11.4928C0.610259 11.5614 0.589856 11.636 0.584458 11.7125C0.579059 11.7889 0.588771 11.8657 0.613038 11.9384C0.637305 12.0111 0.675652 12.0783 0.72589 12.1361C0.776128 12.194 0.837273 12.2414 0.905834 12.2757C0.974395 12.3099 1.04903 12.3303 1.12548 12.3357C1.20192 12.3411 1.27868 12.3314 1.35138 12.3071C1.42407 12.2829 1.49127 12.2445 1.54914 12.1943C1.60701 12.144 1.65443 12.0829 1.68867 12.0143L3.23917 8.91275L3.08692 8.83691Z" fill="#0037B7"/>
<path d="M9.33325 10.5863C9.24278 10.5862 9.15355 10.5652 9.0725 10.525L3.36225 7.6696H1.16659C1.01188 7.6696 0.863503 7.60814 0.754106 7.49874C0.64471 7.38935 0.583252 7.24097 0.583252 7.08626C0.583252 6.93155 0.64471 6.78318 0.754106 6.67378C0.863503 6.56439 1.01188 6.50293 1.16659 6.50293H3.49992C3.59041 6.50285 3.67968 6.52381 3.76067 6.56418L9.29125 9.32976L12.5095 7.18426C12.5732 7.14175 12.6447 7.1122 12.7199 7.09731C12.795 7.08242 12.8724 7.08248 12.9475 7.09749C13.0226 7.11249 13.0941 7.14215 13.1577 7.18476C13.2214 7.22737 13.2761 7.28211 13.3186 7.34585C13.3611 7.40958 13.3906 7.48107 13.4055 7.55622C13.4204 7.63137 13.4204 7.70872 13.4054 7.78385C13.3904 7.85898 13.3607 7.93042 13.3181 7.99409C13.2755 8.05776 13.2207 8.11241 13.157 8.15493L9.657 10.4883C9.56113 10.5522 9.44848 10.5863 9.33325 10.5863Z" fill="#0037B7"/>
</svg>
