<svg width="16" height="12" viewBox="0 0 16 12" fill="none" xmlns="http://www.w3.org/2000/svg">
<g clip-path="url(#clip0_544_2164)">
<path d="M8 7.5C8.82843 7.5 9.5 6.82843 9.5 6C9.5 5.17157 8.82843 4.5 8 4.5C7.17157 4.5 6.5 5.17157 6.5 6C6.5 6.82843 7.17157 7.5 8 7.5Z" fill="#666666"/>
<path d="M2 7.5C2.82843 7.5 3.5 6.82843 3.5 6C3.5 5.17157 2.82843 4.5 2 4.5C1.17157 4.5 0.5 5.17157 0.5 6C0.5 6.82843 1.17157 7.5 2 7.5Z" fill="#666666"/>
<path d="M14 7.5C14.8284 7.5 15.5 6.82843 15.5 6C15.5 5.17157 14.8284 4.5 14 4.5C13.1716 4.5 12.5 5.17157 12.5 6C12.5 6.82843 13.1716 7.5 14 7.5Z" fill="#666666"/>
</g>
<defs>
<clipPath id="clip0_544_2164">
<rect width="15" height="12" fill="white" transform="translate(0.5)"/>
</clipPath>
</defs>
</svg>
