<svg width="22" height="16" viewBox="0 0 22 16" fill="none" xmlns="http://www.w3.org/2000/svg">
<path d="M8.25891 3.44556C8.68456 2.8761 9.23846 2.41501 9.87567 2.09971C10.5129 1.7844 11.2155 1.62377 11.9264 1.63084H16.4679C17.6699 1.63084 18.8227 2.10832 19.6726 2.95825C20.5225 3.80818 21 4.96092 21 6.1629C21 7.36488 20.5225 8.51763 19.6726 9.36755C18.8227 10.2175 17.6699 10.695 16.4679 10.695H11.9264C10.8831 10.6944 9.87203 10.334 9.06369 9.67454C8.25535 9.01506 7.69928 8.0969 7.48932 7.07502" stroke="#0052CC" stroke-width="2" stroke-miterlimit="10"/>
<path d="M14.5107 8.92769C14.3007 7.9058 13.7446 6.98764 12.9363 6.32816C12.128 5.66868 11.1169 5.30826 10.0736 5.30774H5.53206C4.33009 5.30774 3.17734 5.78522 2.32741 6.63515C1.47748 7.48508 1 8.63782 1 9.8398C1 11.0418 1.47748 12.1945 2.32741 13.0445C3.17734 13.8944 4.33009 14.3719 5.53206 14.3719H10.0736C10.6679 14.3729 11.2566 14.2568 11.806 14.0302C12.3554 13.8036 12.8548 13.4709 13.2755 13.0512C13.4303 12.9002 13.5703 12.7348 13.6936 12.5571" stroke="#0052CC" stroke-width="2" stroke-miterlimit="10"/>
</svg>
