<svg width="12" height="11" viewBox="0 0 12 11" fill="none" xmlns="http://www.w3.org/2000/svg">
<path d="M3.5 0.50293H0.5C0.223858 0.50293 0 0.726787 0 1.00293V2.00293C0 2.27907 0.223858 2.50293 0.5 2.50293H3.5C3.77614 2.50293 4 2.27907 4 2.00293V1.00293C4 0.726787 3.77614 0.50293 3.5 0.50293Z" fill="#0037B7"/>
<path d="M9.5 4.50293H2.5C2.22386 4.50293 2 4.72679 2 5.00293V6.00293C2 6.27907 2.22386 6.50293 2.5 6.50293H9.5C9.77614 6.50293 10 6.27907 10 6.00293V5.00293C10 4.72679 9.77614 4.50293 9.5 4.50293Z" fill="#0037B7"/>
<path d="M11.5 8.50293H8.5C8.22386 8.50293 8 8.72679 8 9.00293V10.0029C8 10.2791 8.22386 10.5029 8.5 10.5029H11.5C11.7761 10.5029 12 10.2791 12 10.0029V9.00293C12 8.72679 11.7761 8.50293 11.5 8.50293Z" fill="#0037B7"/>
</svg>
