<svg width="14" height="14" viewBox="0 0 14 14" fill="none" xmlns="http://www.w3.org/2000/svg">
<g clip-path="url(#clip0_544_1700)">
<path d="M5.13125 1.58551C5.73737 1.40432 6.36706 1.31169 7 1.31251C10.5864 1.30926 13.4967 4.21476 13.5 7.80113C13.5 8.43407 13.409 9.06376 13.227 9.66988C13.1246 10.0144 12.8077 10.25 12.4486 10.25H9.96725C10.0201 9.76738 10.0737 9.21244 10.1265 8.62501H11.8059C11.8522 8.35688 11.875 8.08469 11.875 7.81251C11.875 5.11988 9.69262 2.93751 7 2.93751C4.30737 2.93751 2.125 5.11988 2.125 7.81251C2.125 8.08469 2.14775 8.35688 2.19406 8.62501H5.0435C4.65594 9.36438 4.35856 9.97294 4.27812 10.237C4.2765 10.2411 4.2765 10.2451 4.27569 10.25H1.55137C1.19225 10.25 0.875376 10.0144 0.773001 9.66988C-0.255625 6.23382 1.69519 2.61413 5.13125 1.58551Z" fill="#43A833"/>
<path d="M5.44446 10.5898C5.64677 9.92189 8.13221 5.52871 8.41496 5.02983C8.50758 4.86571 8.69933 4.78689 8.88621 4.84133C9.06821 4.89658 9.18683 5.07046 9.17383 5.25977C9.13158 5.83177 8.75702 10.8652 8.55471 11.5331C8.34183 12.2335 7.6959 12.686 6.99877 12.686C6.84277 12.686 6.68433 12.6633 6.52752 12.6161C5.67033 12.3561 5.18527 11.4478 5.44446 10.5898Z" fill="#43A833"/>
</g>
<defs>
<clipPath id="clip0_544_1700">
<rect width="13" height="13" fill="white" transform="matrix(-1 0 0 1 13.5 0.5)"/>
</clipPath>
</defs>
</svg>
