<svg width="14" height="14" viewBox="0 0 14 14" fill="none" xmlns="http://www.w3.org/2000/svg">
<g clip-path="url(#clip0_544_2347)">
<path d="M8.86875 1.58551C8.26263 1.40432 7.63294 1.31169 7 1.31251C3.41363 1.30926 0.50325 4.21476 0.5 7.80113C0.5 8.43407 0.591 9.06376 0.773 9.66988C0.875375 10.0144 1.19225 10.25 1.55138 10.25H4.03275C3.97994 9.76738 3.92631 9.21244 3.8735 8.625H2.19406C2.14775 8.35688 2.125 8.08469 2.125 7.8125C2.125 5.11988 4.30738 2.93751 7 2.93751C9.69263 2.93751 11.875 5.11988 11.875 7.8125C11.875 8.08469 11.8523 8.35688 11.8059 8.625H8.9565C9.34406 9.36438 9.64144 9.97294 9.72188 10.237C9.7235 10.2411 9.7235 10.2451 9.72431 10.25H12.4486C12.8078 10.25 13.1246 10.0144 13.227 9.66988C14.2556 6.23382 12.3048 2.61413 8.86875 1.58551Z" fill="#E85C51"/>
<path d="M8.55554 10.5907C8.35323 9.92287 5.86779 5.52968 5.58504 5.03081C5.49242 4.86668 5.30067 4.78787 5.11379 4.84231C4.93179 4.89756 4.81317 5.07143 4.82617 5.26075C4.86842 5.83275 5.24298 10.8662 5.44529 11.5341C5.65817 12.2344 6.3041 12.687 7.00123 12.687C7.15723 12.687 7.31567 12.6642 7.47248 12.6171C8.32967 12.3571 8.81473 11.4487 8.55554 10.5907Z" fill="#E85C51"/>
</g>
<defs>
<clipPath id="clip0_544_2347">
<rect width="13" height="13" fill="white" transform="translate(0.5 0.5)"/>
</clipPath>
</defs>
</svg>
