<svg width="20" height="19" viewBox="0 0 20 19" fill="none" xmlns="http://www.w3.org/2000/svg">
<path fill-rule="evenodd" clip-rule="evenodd" d="M18.5 3.25H14.75V2.5C14.75 1.25736 13.7426 0.25 12.5 0.25H8C6.75736 0.25 5.75 1.25736 5.75 2.5V3.25H2C1.17157 3.25 0.5 3.92157 0.5 4.75V16.75C0.5 17.5784 1.17157 18.25 2 18.25H18.5C19.3284 18.25 20 17.5784 20 16.75V4.75C20 3.92157 19.3284 3.25 18.5 3.25ZM7.25 2.5C7.25 2.08579 7.58579 1.75 8 1.75H12.5C12.9142 1.75 13.25 2.08579 13.25 2.5V3.25H7.25V2.5ZM18.5 4.75V8.65094C15.9685 10.0289 13.1322 10.7505 10.25 10.75C7.36794 10.7505 4.53165 10.0292 2 8.65187V4.75H18.5ZM18.5 16.75H2V10.3413C4.56868 11.5977 7.3905 12.2506 10.25 12.25C13.1096 12.2501 15.9313 11.5969 18.5 10.3403V16.75ZM8 8.5C8 8.08579 8.33579 7.75 8.75 7.75H11.75C12.1642 7.75 12.5 8.08579 12.5 8.5C12.5 8.91421 12.1642 9.25 11.75 9.25H8.75C8.33579 9.25 8 8.91421 8 8.5Z" fill="#0037B7"/>
</svg>
