<svg xmlns="http://www.w3.org/2000/svg" viewBox="0 0 28 28" width="28" height="28" fill="currentColor"><path fill-rule="evenodd" d="M22 3h1v1h-1V3Zm0 2V4h-1v1h-1v1h-1v1h-1v1h-1v1h-1v1h-1V9h-1V8h-1V7h-1V6h-1V5h-1v1H9v1H8v1H7v1H6v1H5v1H4v1h1v1H4v1h1v-1h1v-1h1v-1h1v-1h1V9h1V8h1v1h1v1h1v1h1v1h1v1h1v-1h1v-1h1v-1h1V9h1V8h1V7h1V6h1V5h-1Zm-1 1V5h1v1h-1Zm-1 1V6h1v1h-1Zm-1 1V7h1v1h-1Zm-1 1V8h1v1h-1Zm-1 1V9h1v1h-1Zm-1 1v-1h1v1h-1Zm-1 0v-1h-1V9h-1V8h-1V7h-1V6h-1v1H9v1H8v1H7v1H6v1H5v1h1v-1h1v-1h1V9h1V8h1V7h1v1h1v1h1v1h1v1h1Zm0 0h1v1h-1v-1Zm.84 6.37 7.5-7-.68-.74-7.15 6.67-4.66-4.65-.33-.34-.36.32-5.5 5 .68.74 5.14-4.68 4.67 4.66.34.35.35-.33ZM6 23H5v1h1v-1Zm0-1H5v-1h1v1Zm1 0v1H6v-1h1Zm0-1H6v-1h1v1Zm1 0v1H7v-1h1Zm0-1H7v-1h1v1Zm1 0v1H8v-1h1Zm0-1H8v-1h1v1Zm1 0v1H9v-1h1Zm0-1H9v-1h1v1Zm1 0h-1v1h1v1h1v1h1v1h1v1h1v1h1v-1h1v-1h1v-1h1v-1h1v-1h1v-1h1v-1h1v-1h1v-1h-1v-1h1v-1h-1v1h-1v1h-1v1h-1v1h-1v1h-1v1h-1v1h-1v1h-1v-1h-1v-1h-1v-1h-1v-1h-1v-1h-1v1h1v1Zm0 0h1v1h-1v-1Zm2 2v1h1v1h1v1h1v-1h1v-1h1v-1h1v-1h1v-1h1v-1h1v-1h1v-1h-1v1h-1v1h-1v1h-1v1h-1v1h-1v1h-1v1h-1v-1h-1v-1h-1Zm0 0v-1h-1v1h1Z"></path></svg>