<svg width="12" height="12" viewBox="0 0 12 12" fill="none" xmlns="http://www.w3.org/2000/svg">
<g id="pen 1" clip-path="url(#clip0_5251_132260)">
<g id="Group">
<g id="Group_2">
<path id="Vector" d="M6.61431 2.67773L1.14431 8.14673C1.0891 8.20301 1.04798 8.27154 1.02431 8.34673L0.0243078 11.3467C6.24303e-05 11.4216 -0.00615823 11.5012 0.00615207 11.5789C0.0184624 11.6567 0.0489558 11.7304 0.0951507 11.7942C0.141346 11.8579 0.201937 11.9098 0.271993 11.9457C0.342049 11.9816 0.419591 12.0005 0.498308 12.0007C0.552059 12.001 0.605468 11.9922 0.656308 11.9747L3.65631 10.9747C3.7315 10.9511 3.80003 10.9099 3.85631 10.8547L9.32531 5.38473L6.61431 2.67773Z" fill="#0037B7"/>
<path id="Vector_2" d="M11.8528 2.14689L9.85278 0.146894C9.80634 0.100331 9.75116 0.0633877 9.69041 0.0381813C9.62967 0.0129748 9.56455 0 9.49878 0C9.43301 0 9.36789 0.0129748 9.30715 0.0381813C9.2464 0.0633877 9.19123 0.100331 9.14478 0.146894L7.67578 1.61689L10.3828 4.32389L11.8528 2.85489C11.8993 2.80845 11.9363 2.75327 11.9615 2.69253C11.9867 2.63178 11.9997 2.56666 11.9997 2.50089C11.9997 2.43513 11.9867 2.37001 11.9615 2.30926C11.9363 2.24851 11.8993 2.19334 11.8528 2.14689Z" fill="#0037B7"/>
</g>
</g>
</g>
<defs>
<clipPath id="clip0_5251_132260">
<rect width="12" height="12" fill="white"/>
</clipPath>
</defs>
</svg>
