<svg width="17" height="16" viewBox="0 0 22 11" fill="none" xmlns="http://www.w3.org/2000/svg">
<path d="M5 8.08715H7.61029C7.95063 8.08715 8.28888 8.12765 8.61881 8.20865L11.3769 8.87888C11.9753 9.02467 12.5988 9.03885 13.2035 8.9214L16.253 8.32811C17.0585 8.17119 17.7996 7.78544 18.3803 7.2205L20.5379 5.12171C21.154 4.52336 21.154 3.55243 20.5379 2.95306C19.9832 2.41343 19.1047 2.35269 18.4771 2.81031L15.9626 4.64485C15.6025 4.90809 15.1643 5.04983 14.7137 5.04983H12.2855L13.8311 5.04976C14.7022 5.04976 15.4079 4.36333 15.4079 3.51591V3.20915C15.4079 2.5055 14.9156 1.89196 14.2141 1.72187L11.8286 1.14174C11.4404 1.04758 11.0428 1 10.6431 1C9.67833 1 7.93189 1.79881 7.93189 1.79881L5 3.02488M1 2.6L1 8.4C1 8.96005 1 9.24008 1.10899 9.45399C1.20487 9.64215 1.35785 9.79513 1.54601 9.891C1.75992 10 2.03995 10 2.6 10H3.4C3.96005 10 4.24008 10 4.45399 9.89101C4.64215 9.79513 4.79513 9.64215 4.89101 9.45399C5 9.24008 5 8.96005 5 8.4V2.6C5 2.03995 5 1.75992 4.89101 1.54601C4.79513 1.35785 4.64215 1.20487 4.45399 1.10899C4.24008 1 3.96005 1 3.4 1H2.6C2.03995 1 1.75992 1 1.54601 1.10899C1.35785 1.20487 1.20487 1.35785 1.10899 1.54601C1 1.75992 1 2.03995 1 2.6Z" stroke="black" stroke-width="1.6" stroke-linecap="round" stroke-linejoin="round"/>
</svg>
