<svg width="16" height="16" viewBox="0 0 16 16" fill="none" xmlns="http://www.w3.org/2000/svg">
<g id="Frame 1000005336" clip-path="url(#clip0_5251_132128)">
<g id="Group 1000005535">
<circle id="Ellipse 18" cx="8" cy="8" r="7.4" stroke="#4C4C4C" stroke-width="1.2"/>
<g id="Group 1000005400">
<path id="&#226;&#130;&#185;" d="M11.1702 5.73047L10.8577 6.81083H5.02734L5.33538 5.73047H11.1702ZM8.36216 12.6858L5.14342 8.77065L5.13002 7.93583H6.72824C7.133 7.93583 7.47526 7.87481 7.75502 7.75279C8.03776 7.63077 8.25205 7.45219 8.39788 7.21708C8.54669 6.98196 8.62109 6.69029 8.62109 6.34208C8.62109 5.8272 8.46782 5.42095 8.16127 5.12333C7.85472 4.82273 7.37705 4.67243 6.72824 4.67243H5.02734L5.34431 3.54297H6.72824C7.46336 3.54297 8.06752 3.66202 8.54074 3.90011C9.01693 4.13523 9.37109 4.46112 9.60324 4.87779C9.83538 5.29446 9.95145 5.77065 9.95145 6.30636C9.95145 6.7885 9.85175 7.22749 9.65234 7.62333C9.45591 8.01618 9.14193 8.33612 8.71038 8.58315C8.27883 8.8272 7.71038 8.96261 7.00502 8.9894L6.96484 8.99833L9.9202 12.6099V12.6858H8.36216ZM11.1702 3.54297L10.8577 4.63225L6.21931 4.601L6.53181 3.54297H11.1702Z" fill="#4C4C4C"/>
</g>
</g>
</g>
<defs>
<clipPath id="clip0_5251_132128">
<rect width="16" height="16" fill="white"/>
</clipPath>
</defs>
</svg>
