<svg width="16" height="16" viewBox="0 0 16 16" fill="none" xmlns="http://www.w3.org/2000/svg">
<g id="privacy-settings 1" clip-path="url(#clip0_5251_132139)">
<g id="Group">
<g id="Group_2">
<path id="Vector" d="M13.2072 7.99972C13.2072 7.66583 13.1728 7.33276 13.1045 7.00543L14.8588 5.75972L13.4391 3.38258L11.4388 4.23012C10.921 3.7881 10.317 3.45052 9.66225 3.23721L9.42137 1.14258H6.58198L6.3411 3.23721C5.68635 3.45052 5.08235 3.7881 4.56458 4.23012L2.56423 3.38258L1.14453 5.75972L2.89881 7.00635C2.76204 7.66262 2.76204 8.33865 2.89881 8.99492L1.14453 10.2397L2.56423 12.6169L4.56458 11.7702C5.08235 12.2123 5.68635 12.5498 6.3411 12.7631L6.58198 14.8569H9.42137L9.66225 12.7622C10.317 12.5489 10.921 12.2113 11.4388 11.7693L13.4391 12.6169L14.8588 10.2397L13.1045 8.99309C13.1728 8.66608 13.2072 8.33331 13.2072 7.99972Z" stroke="#4C4C4C" stroke-width="1.2" stroke-miterlimit="10" stroke-linecap="square"/>
<path id="Vector_2" d="M8 8.91406V10.2855" stroke="#4C4C4C" stroke-width="1.2" stroke-miterlimit="10" stroke-linecap="square"/>
<path id="Vector_3" d="M8.00173 8.91473C8.78581 8.91473 9.42143 8.30072 9.42143 7.5433C9.42143 6.78588 8.78581 6.17188 8.00173 6.17188C7.21765 6.17188 6.58203 6.78588 6.58203 7.5433C6.58203 8.30072 7.21765 8.91473 8.00173 8.91473Z" stroke="#4C4C4C" stroke-width="1.2" stroke-miterlimit="10" stroke-linecap="square"/>
</g>
</g>
</g>
<defs>
<clipPath id="clip0_5251_132139">
<rect width="16" height="16" fill="white"/>
</clipPath>
</defs>
</svg>
