<svg width="28" height="28" viewBox="0 0 28 28" fill="none" xmlns="http://www.w3.org/2000/svg">
<g clip-path="url(#clip0_31_2)">
<path d="M0 0V12.7826H12.7826V0H0ZM10.9565 10.9565H1.82607V1.82607H10.9565V10.9565Z" fill="black"/>
<path d="M9.13046 3.65219H3.6522V9.13046H9.13046V3.65219Z" fill="black"/>
<path d="M15.2174 0V12.7826H28V0H15.2174ZM26.1739 10.9565H17.0435V1.82607H26.1739V10.9565Z" fill="black"/>
<path d="M24.3478 3.65219H18.8695V9.13046H24.3478V3.65219Z" fill="black"/>
<path d="M0 15.2174V28H12.7826V15.2174H0ZM10.9565 26.1739H1.82607V17.0435H10.9565V26.1739Z" fill="black"/>
<path d="M9.13046 18.8695H3.6522V24.3478H9.13046V18.8695Z" fill="black"/>
<path d="M18.8695 17.0435V15.2174H15.2174V28H18.8695V26.1739H17.0435V22.5217H18.8695V20.6957H17.0435V17.0435H18.8695Z" fill="black"/>
<path d="M28 15.2174H26.1739V17.0435H28V15.2174Z" fill="black"/>
<path d="M26.1739 19.4783V26.1739H24.3478V28H28V19.4783H26.1739Z" fill="black"/>
<path d="M24.3479 15.2174H20.6957V17.0435H24.3479V15.2174Z" fill="black"/>
<path d="M24.3478 20.6957V18.8695H20.6957V24.3478H24.3478V22.5217H22.5217V20.6957H24.3478Z" fill="black"/>
<path d="M22.5217 26.1739H20.6957V28H22.5217V26.1739Z" fill="black"/>
</g>
<defs>
<clipPath id="clip0_31_2">
<rect width="28" height="28" fill="white"/>
</clipPath>
</defs>
</svg>
