<svg width="20" height="20" viewBox="0 0 20 20" fill="none" xmlns="http://www.w3.org/2000/svg">
<g id="Component 3">
<path id="Vector" d="M10 0C4.5 0 0 4.5 0 10C0 15.5 4.5 20 10 20C15.5 20 20 15.5 20 10C20 4.5 15.5 0 10 0ZM14.6337 8.38375L9.63375 13.3837C9.39 13.6275 9.07 13.75 8.75 13.75C8.43 13.75 8.11 13.6275 7.86625 13.3837L5.36625 10.8837C4.8775 10.395 4.8775 9.605 5.36625 9.11625C5.855 8.6275 6.645 8.6275 7.13375 9.11625L8.75 10.7325L12.8663 6.61625C13.355 6.1275 14.145 6.1275 14.6337 6.61625C15.1225 7.105 15.1225 7.895 14.6337 8.38375Z" fill="#43A833"/>
</g>
</svg>
