<svg width="100" height="100" viewBox="0 0 100 100" fill="none" xmlns="http://www.w3.org/2000/svg">
<g id="icons8-refresh 2">
<path id="Vector" d="M90.0699 49.7876C89.5137 48.9423 88.6027 48.4376 87.6356 48.4376H84.3371C83.5137 28.1251 67.0277 12.4985 46.8746 12.4985C26.1965 12.4985 9.37305 29.322 9.37305 50.0001C9.37305 70.6782 26.1965 87.5017 46.8746 87.5017C56.6668 87.5017 65.9309 83.7517 72.9621 76.9407L70.7887 74.6938C64.3434 80.9376 55.8496 84.3767 46.8746 84.3767C27.9199 84.3767 12.498 68.9548 12.498 50.0001C12.498 31.0454 27.9199 15.6235 46.8746 15.6235C65.3059 15.6235 80.3902 31.2501 81.2105 48.4376H77.9902C77.023 48.4376 76.1121 48.9423 75.5543 49.7876C74.934 50.7329 74.8262 51.9704 75.2777 53.0204L78.8215 61.2751C79.559 62.9938 81.0871 64.061 82.8121 64.061C84.5371 64.061 86.0652 62.9923 86.8027 61.2751L90.3465 53.0204C90.798 51.972 90.6918 50.7329 90.0699 49.7876ZM87.4746 51.7892L83.9309 60.0438C83.4418 61.1798 82.1824 61.1798 81.6934 60.0438L78.1496 51.7892C78.1137 51.7017 78.1246 51.6173 78.1402 51.5626H87.4855C87.5027 51.6173 87.5121 51.7017 87.4746 51.7892Z" fill="#CCCCCC"/>
<path id="Vector_2" d="M46.6625 38.5062C47.2172 38.8718 47.875 39.0593 48.5359 39.0593C48.9984 39.0593 49.4625 38.9687 49.8937 38.7828L58.15 35.239C59.8703 34.5031 60.9375 32.9734 60.9375 31.2499C60.9375 29.5265 59.8687 27.9968 58.1516 27.2593L49.8953 23.7156C48.8469 23.2656 47.6078 23.3703 46.6641 23.9921C45.8172 24.5484 45.3125 25.4578 45.3125 26.4265V29.7671C34.375 30.5687 26.5625 39.3265 26.5625 49.9999C26.5625 61.1999 35.675 70.3124 46.875 70.3124C58.075 70.3124 67.1875 60.9374 67.1875 49.9999H64.0625C64.0625 59.3749 56.3516 67.1874 46.875 67.1874C37.3984 67.1874 29.6875 59.4765 29.6875 49.9999C29.6875 41.0499 35.9375 33.6843 45.3125 32.8906V36.0718C45.3125 37.0406 45.8172 37.9499 46.6625 38.5062ZM48.4375 26.5765C48.4375 26.5578 48.5734 26.5499 48.6625 26.5874L56.9188 30.1312C57.4859 30.3749 57.8125 30.7828 57.8125 31.2499C57.8125 31.7171 57.4859 32.1249 56.9188 32.3687L48.6625 35.9124C48.5734 35.9484 48.4375 35.9406 48.4375 35.9218V26.5765Z" fill="#CCCCCC"/>
<path id="Vector_3" d="M46.875 43.75C45.2174 43.75 43.6277 44.4085 42.4556 45.5806C41.2835 46.7527 40.625 48.3424 40.625 50C40.625 51.6576 41.2835 53.2473 42.4556 54.4194C43.6277 55.5915 45.2174 56.25 46.875 56.25C48.5326 56.25 50.1223 55.5915 51.2944 54.4194C52.4665 53.2473 53.125 51.6576 53.125 50C53.125 48.3424 52.4665 46.7527 51.2944 45.5806C50.1223 44.4085 48.5326 43.75 46.875 43.75Z" fill="#CCCCCC"/>
</g>
</svg>
