<svg width="17" height="16" viewBox="0 0 17 16" fill="none" xmlns="http://www.w3.org/2000/svg">
<g id="user 1">
<g id="Group">
<g id="Group_2">
<path id="Vector" d="M15.0077 12.9793C15.0079 12.8322 14.9709 12.6873 14.8998 12.5568C14.8287 12.4262 14.7256 12.314 14.5994 12.2296C12.8701 11.1614 10.8356 10.6323 8.77729 10.7155C6.71897 10.6323 4.68444 11.1614 2.95521 12.2296C2.82894 12.314 2.7259 12.4262 2.65481 12.5568C2.58373 12.6873 2.5467 12.8322 2.54688 12.9793V15.287H15.0077V12.9793Z" stroke="#4C4C4C" stroke-width="1.2" stroke-linecap="round" stroke-linejoin="round"/>
<path id="Vector_2" d="M8.77671 7.97227C10.6295 7.97227 12.1316 6.53958 12.1316 4.77227C12.1316 3.00495 10.6295 1.57227 8.77671 1.57227C6.92389 1.57227 5.42188 3.00495 5.42188 4.77227C5.42188 6.53958 6.92389 7.97227 8.77671 7.97227Z" stroke="#4C4C4C" stroke-width="1.2" stroke-linecap="round" stroke-linejoin="round"/>
</g>
</g>
</g>
</svg>
