<svg width="55" height="55" viewBox="0 0 55 55" fill="none" xmlns="http://www.w3.org/2000/svg">
<path d="M46.8602 9.90411C43.3096 9.04963 37.5846 7.894 35.9851 11.8693C31.0968 21.9392 28.2904 32.4784 26.178 37.0004C26.3999 37.1528 36.1363 43.8714 36.825 44.2688C39.0139 45.5322 42.6683 44.9637 44.2251 41.6242C48.5438 32.3603 47.446 34.7721 52.0347 25.3196C55 19.2111 51.2926 10.9706 46.8602 9.90411Z" fill="#EA4335"/>
<path d="M16.1403 50.7852C13.7561 47.5412 12.0072 41.0512 14.1021 37.4165C20.2221 24.8089 25.1213 17.1768 28.9744 9.52661C31.0174 10.9296 39.2038 16.4524 39.7489 17.0214C41.5779 18.9296 43.093 22.5758 41.4399 25.849C36.8536 34.9294 34.9718 39.0387 30.3104 48.6415C27.3444 54.7516 19.1187 54.8378 16.1403 50.7852Z" fill="#FDBD00"/>
<path d="M38.0919 3.47689C33.3224 0.162176 30.8709 0.5966 28.306 1.08583C25.9742 1.77909 22.8212 3.79452 21.4922 6.38377C18.1393 12.9153 14.9635 19.3784 10.8494 28.1369C9.58229 30.8344 10.5228 34.1486 11.6922 35.4638C12.4847 36.3556 18.3157 40.1818 19.3916 40.732C20.9135 41.5101 23.1932 40.9687 24.5684 39.2853C24.9482 38.8203 33.647 21.0499 36.0967 15.8086C37.1307 13.5969 38.0621 12.3729 39.6084 11.193C42.5956 9.3287 44.9278 9.08821 48.5002 10.6418C48.5002 10.6418 40.7252 5.28188 38.0919 3.47689Z" fill="#2DA94F"/>
<path d="M7.40413 45.181C2.6056 41.9259 1.69613 39.1837 0.76989 36.297C0.108927 33.549 -3.66543e-06 29.2936 1.22082 26.6296C4.30062 19.9108 4.27848 19.8767 8.59901 11.2598C9.92966 8.6059 12.8133 7.91769 14.3558 8.46438C15.4012 8.83469 21.1027 12.9275 22.0413 13.7607C23.369 14.9392 24.1145 17.558 23.5764 19.8163C23.4276 20.4399 17.9773 31.8163 15.386 36.9605C14.2922 39.1313 13.8668 40.7024 13.7809 42.8849C13.9169 46.894 14.9078 49.4165 17.8254 52.3194C17.8254 52.3194 10.035 46.9908 7.40413 45.181Z" fill="#297AEC"/>
</svg>
