<svg width="10" height="6" viewBox="0 0 10 6" fill="none" xmlns="http://www.w3.org/2000/svg">
<g clip-path="url(#clip0_60_77)">
<path d="M9.96624 1.77042C9.87548 1.27389 9.62808 0.917337 9.33756 0.917337H9.33148C9.1426 0.917337 8.97236 1.06772 8.8512 1.30917C8.72984 1.06772 8.5596 0.917337 8.37092 0.917337H8.36484C8.1988 0.917337 8.04704 1.03366 7.93048 1.22614V1.12826C7.92648 1.03076 7.88456 0.954148 7.8328 0.954148H7.38712C7.3326 0.954148 7.2886 1.03841 7.2886 1.14303V5.77359C7.2886 5.87828 7.33264 5.96246 7.38712 5.96246H7.8328C7.88248 5.96246 7.92336 5.89144 7.92988 5.79961L7.92968 2.47542C7.92968 2.46379 7.92988 2.453 7.93052 2.44213C7.93764 2.29374 7.99444 2.17183 8.0842 2.15652H8.16636C8.20388 2.16295 8.23556 2.1882 8.26048 2.22632C8.29928 2.28524 8.32084 2.37593 8.32084 2.47542L8.32252 5.78323C8.32252 5.88792 8.36676 5.97257 8.42104 5.97257H8.86672C8.91932 5.97257 8.96212 5.89236 8.96464 5.79249L8.96444 2.47106C8.96424 2.36193 8.99064 2.26328 9.03696 2.20473C9.0598 2.17665 9.08728 2.15782 9.11892 2.15216H9.20108C9.29752 2.16823 9.3558 2.3082 9.3556 2.47106L9.35728 5.77443C9.35728 5.87912 9.40152 5.96331 9.4558 5.96331H9.90148C9.95576 5.96331 10 5.87905 10 5.77443V2.22165C10 1.97935 9.98576 1.87627 9.96624 1.77042ZM6.94904 0.96624H6.69412V0.173689C6.69412 0.0786377 6.65388 0.00164795 6.6042 0.00164795C6.59832 0.00164795 6.59268 0.00325509 6.5872 0.00524489C6.3046 0.153638 6.3612 0.90249 5.84532 0.96624H5.7952C5.78764 0.96624 5.78052 0.96823 5.7736 0.971061H5.7732L5.7736 0.971444C5.72956 0.99027 5.69644 1.06489 5.69644 1.15473V2.00752C5.69644 2.11137 5.74068 2.19601 5.79516 2.19601H6.06412L6.06372 5.81185C6.06372 5.91494 6.10732 5.99836 6.1612 5.99836H6.60184C6.65552 5.99836 6.69912 5.91494 6.69912 5.81185L6.69932 2.19601H6.949C7.00328 2.19601 7.04752 2.11137 7.04752 2.00752V1.15481C7.0476 1.05088 7.00336 0.96624 6.94904 0.96624Z" fill="#54C1F0"/>
<path d="M5.34552 0.966233H4.89984C4.84556 0.966233 4.80152 1.05088 4.80152 1.15473V2.91792C4.80048 3.02705 4.75436 3.11445 4.69712 3.11445H4.51056C4.45272 3.11445 4.40596 3.02544 4.40596 2.9147L4.40428 1.15473C4.40428 1.05088 4.36004 0.966233 4.30576 0.966233H3.86004C3.80552 0.966233 3.76152 1.05088 3.76152 1.15473V3.0872C3.76152 3.82121 4.03508 4.3446 4.41892 4.3446C4.41892 4.3446 4.70696 4.3446 4.71576 4.34781C4.76776 4.35906 4.8082 4.44248 4.8082 4.54519C4.8082 4.64667 4.76856 4.7297 4.7172 4.7421C4.71468 4.74287 4.71236 4.74409 4.70964 4.74493L4.05788 4.74937C4.00336 4.74937 3.95936 4.83401 3.95936 4.93787V5.79019C3.95936 5.8945 4.0034 5.97868 4.05788 5.97868H4.78656C5.1706 5.97868 5.44396 5.45567 5.44396 4.72128V1.1548C5.44404 1.05088 5.40004 0.966233 5.34552 0.966233ZM1.0708 0.96608H0.09664C0.0432 0.96608 0 1.04904 0 1.15098V1.98646C0 1.98807 0.0002 1.98968 0.0002 1.99128C0.0002 1.99526 0 1.99932 0 2.00292V5.78429C0 5.887 0.04024 5.9708 0.09016 5.97317H0.54424C0.59852 5.97317 0.64276 5.88891 0.64276 5.78468L0.64444 4.48878H1.07084C1.42764 4.48878 1.67628 4.01514 1.67628 3.32965V2.12682C1.67624 1.44133 1.4276 0.96608 1.0708 0.96608ZM1.0316 3.05491C1.0316 3.16519 0.98484 3.25503 0.9272 3.25503L0.6444 3.25542V2.20098H0.9272C0.98484 2.20098 1.0316 2.28998 1.0316 2.40072V3.05491ZM2.80996 0.970901H2.19156C2.13684 0.970901 2.0926 1.05034 2.0926 1.14776V1.47945C2.0926 1.48144 2.0928 1.48389 2.0928 1.48588C2.0928 1.48825 2.0926 1.4907 2.0926 1.49307V1.94751C2.0926 2.05059 2.13956 2.13478 2.1974 2.13478H2.78628C2.8328 2.14878 2.86972 2.21376 2.87496 2.31524V2.42514C2.86972 2.52179 2.83324 2.59236 2.7888 2.60039H2.4972C2.10936 2.60039 1.83308 3.09332 1.83308 3.78562V4.77707C1.83308 5.46531 2.0706 5.95503 2.45568 5.95503H3.26384C3.40892 5.95503 3.52652 5.74488 3.52652 5.48613V2.2508C3.52652 1.46628 3.3152 0.970901 2.80996 0.970901ZM2.88084 4.66373C2.88084 4.6746 2.88 4.68501 2.87916 4.69503C2.87811 4.70445 2.87671 4.71371 2.87496 4.72274C2.86112 4.79736 2.82212 4.85146 2.7758 4.85146H2.59028C2.53244 4.85146 2.48524 4.7672 2.48524 4.66373V4.50287C2.48524 4.50088 2.48504 4.49889 2.48504 4.49682L2.48524 4.06886V3.93493L2.48544 3.93371C2.48564 3.83062 2.5324 3.7472 2.59024 3.7472H2.77576C2.83384 3.7472 2.8808 3.831 2.8808 3.93493V4.66373H2.88084Z" fill="#233266"/>
</g>
<defs>
<clipPath id="clip0_60_77">
<rect width="10" height="6" fill="white"/>
</clipPath>
</defs>
</svg>
