<svg width="55" height="55" viewBox="0 0 55 55" fill="none" xmlns="http://www.w3.org/2000/svg">
<g clip-path="url(#clip0_60_77)">
<path d="M54.8143 16.2289C54.3151 11.6773 52.9544 8.40889 51.3566 8.40889H51.3231C50.2843 8.40889 49.348 9.7874 48.6816 12.0007C48.0141 9.7874 47.0778 8.40889 46.0401 8.40889H46.0066C45.0934 8.40889 44.2587 9.47522 43.6176 11.2396V10.3423C43.5956 9.44856 43.3651 8.74633 43.0804 8.74633H40.6292C40.3293 8.74633 40.0873 9.51871 40.0873 10.4777V52.9245C40.0873 53.8842 40.3295 54.6559 40.6292 54.6559H43.0804C43.3536 54.6559 43.5785 54.0049 43.6143 53.163L43.6132 22.6914C43.6132 22.5847 43.6143 22.4858 43.6179 22.3862C43.657 21.0259 43.9694 19.9084 44.4631 19.7681H44.915C45.1213 19.827 45.2956 20.0585 45.4326 20.4079C45.646 20.948 45.7646 21.7794 45.7646 22.6914L45.7739 53.0129C45.7739 53.9726 46.0172 54.7485 46.3157 54.7485H48.767C49.0563 54.7485 49.2917 54.0133 49.3055 53.0978L49.3044 22.6514C49.3033 21.651 49.4485 20.7467 49.7033 20.21C49.8289 19.9526 49.98 19.78 50.1541 19.7281H50.6059C51.1364 19.8754 51.4569 21.1585 51.4558 22.6514L51.465 52.9322C51.465 53.8919 51.7084 54.6636 52.0069 54.6636H54.4581C54.7567 54.6636 55 53.8912 55 52.9322V20.3651C55 18.144 54.9217 17.1991 54.8143 16.2289ZM38.2197 8.85717H36.8177V1.59212C36.8177 0.720815 36.5963 0.0150757 36.3231 0.0150757C36.2908 0.0150757 36.2597 0.0298078 36.2296 0.0480476C34.6753 1.40832 34.9866 8.27279 32.1493 8.85717H31.8736C31.832 8.85717 31.7929 8.87541 31.7548 8.90136H31.7526L31.7548 8.90487C31.5126 9.07745 31.3304 9.76144 31.3304 10.585V18.4022C31.3304 19.3542 31.5737 20.1301 31.8734 20.1301H33.3527L33.3505 53.2753C33.3505 54.2202 33.5903 54.9849 33.8866 54.9849H36.3101C36.6054 54.9849 36.8452 54.2202 36.8452 53.2753L36.8463 20.1301H38.2195C38.518 20.1301 38.7614 19.3542 38.7614 18.4022V10.5857C38.7618 9.63306 38.5185 8.85717 38.2197 8.85717Z" fill="#54C1F0"/>
<path d="M29.4004 8.85718H26.9491C26.6506 8.85718 26.4084 9.63307 26.4084 10.585V26.7476C26.4026 27.748 26.149 28.5491 25.8342 28.5491H24.8081C24.49 28.5491 24.2328 27.7333 24.2328 26.7181L24.2235 10.585C24.2235 9.63307 23.9802 8.85718 23.6817 8.85718H21.2302C20.9304 8.85718 20.6884 9.63307 20.6884 10.585V28.2994C20.6884 35.0278 22.1929 39.8255 24.3041 39.8255C24.3041 39.8255 25.8883 39.8255 25.9367 39.855C26.2227 39.9581 26.4451 40.7228 26.4451 41.6643C26.4451 42.5945 26.2271 43.3556 25.9446 43.4693C25.9307 43.4763 25.918 43.4875 25.903 43.4952L22.3183 43.5359C22.0185 43.5359 21.7765 44.3118 21.7765 45.2638V53.0768C21.7765 54.0329 22.0187 54.8046 22.3183 54.8046H26.3261C28.4383 54.8046 29.9418 50.0104 29.9418 43.2785V10.5857C29.9422 9.63307 29.7002 8.85718 29.4004 8.85718ZM5.8894 8.85577H0.53152C0.2376 8.85577 0 9.61623 0 10.5507V18.2093C0 18.224 0.0011 18.2387 0.0011 18.2535C0.0011 18.29 0 18.3271 0 18.3601V53.0227C0 53.9642 0.22132 54.7324 0.49588 54.7541H2.99332C3.29186 54.7541 3.53518 53.9817 3.53518 53.0262L3.54442 41.1472H5.88962C7.85202 41.1472 9.21954 36.8055 9.21954 30.5218V19.4959C9.21932 13.2123 7.8518 8.85577 5.8894 8.85577ZM5.6738 28.0033C5.6738 29.0143 5.41662 29.8379 5.0996 29.8379L3.5442 29.8414V20.1757H5.0996C5.41662 20.1757 5.6738 20.9916 5.6738 22.0067V28.0033ZM15.4548 8.89997H12.0536C11.7526 8.89997 11.5093 9.62816 11.5093 10.5212V13.5616C11.5093 13.5799 11.5104 13.6023 11.5104 13.6206C11.5104 13.6423 11.5093 13.6648 11.5093 13.6865V17.8522C11.5093 18.7972 11.7676 19.5688 12.0857 19.5688H15.3245C15.5804 19.6972 15.7835 20.2928 15.8123 21.2231V22.2305C15.7835 23.1165 15.5828 23.7633 15.3384 23.837H13.7346C11.6015 23.837 10.0819 28.3555 10.0819 34.7016V43.7899C10.0819 50.0988 11.3883 54.5878 13.5062 54.5878H17.9511C18.7491 54.5878 19.3959 52.6614 19.3959 50.2896V20.6324C19.3959 13.441 18.2336 8.89997 15.4548 8.89997ZM15.8446 42.7509C15.8446 42.8505 15.84 42.946 15.8354 43.0379C15.8296 43.1242 15.8219 43.209 15.8123 43.2918C15.7362 43.9758 15.5217 44.4718 15.2669 44.4718H14.2465C13.9284 44.4718 13.6688 43.6994 13.6688 42.7509V41.2763C13.6688 41.2581 13.6677 41.2398 13.6677 41.2209L13.6688 37.2979V36.0703L13.6699 36.059C13.671 35.1141 13.9282 34.3494 14.2463 34.3494H15.2667C15.5861 34.3494 15.8444 35.1176 15.8444 36.0703V42.7509H15.8446Z" fill="#233266"/>
</g>
<defs>
<clipPath id="clip0_60_77">
<rect width="55" height="55" fill="white"/>
</clipPath>
</defs>
</svg>
