<svg width="55" height="55" viewBox="0 0 55 55" fill="none" xmlns="http://www.w3.org/2000/svg">
<g clip-path="url(#clip0_57_38)">
<path d="M54.2588 33.8191C57.7485 19.0405 48.5971 4.23113 33.8185 0.74143C19.0399 -2.74827 4.23053 6.40319 0.740835 21.1818C-2.74886 35.9604 6.40259 50.7697 21.1812 54.2594C35.9598 57.7491 50.7691 48.5977 54.2588 33.8191Z" fill="#5F259F"/>
<path d="M39.9785 20.3245C39.9785 19.2495 39.0573 18.3272 37.9822 18.3272H34.2952L25.8477 8.65025C25.0792 7.72889 23.8505 7.42145 22.6218 7.72889L19.7032 8.65025C19.2421 8.80386 19.0884 9.41875 19.3958 9.72522L28.6125 18.481H14.6347C14.1735 18.481 13.8662 18.7883 13.8662 19.2495V20.7847C13.8662 21.8607 14.7884 22.7819 15.8634 22.7819H18.0134V30.1552C18.0134 35.6849 20.9321 38.91 25.8478 38.91C27.3831 38.91 28.6128 38.7563 30.1479 38.1424V43.0573C30.1479 44.4398 31.2239 45.5157 32.6063 45.5157H34.7563C35.2175 45.5157 35.6777 45.0546 35.6777 44.5934V22.6282H39.2111C39.6722 22.6282 39.9786 22.3209 39.9786 21.8607V20.3245H39.9785ZM30.1479 33.5339C29.2267 33.9949 27.9979 34.1487 27.0766 34.1487C24.6182 34.1487 23.3895 32.92 23.3895 30.1551V22.7818H30.1479V33.5339Z" fill="white"/>
</g>
<defs>
<clipPath id="clip0_57_38">
<rect width="55" height="55" fill="white"/>
</clipPath>
</defs>
</svg>
