<svg width="12" height="12" viewBox="0 0 12 12" fill="none" xmlns="http://www.w3.org/2000/svg">
<path id="Vector" d="M7.40099 10C7.1651 10.5887 6.62671 11 6.00033 11C5.37394 11 4.83616 10.5887 4.59966 10.0007M8.75032 4.19733V4C8.75032 2.34333 7.51894 1 6.00033 1C4.48171 1 3.25033 2.34333 3.25033 4V4.19733C3.25033 5.146 2.78771 6.028 2.03299 6.5C1.64127 6.74533 1.41699 7.02933 1.41699 7.33333C1.41699 8.254 3.4691 9 6.00033 9C8.53155 9 10.5837 8.254 10.5837 7.33333C10.5837 7.02933 10.3594 6.74533 9.96766 6.5C9.21294 6.02867 8.75032 5.146 8.75032 4.19733Z" stroke="#666666" stroke-width="1.2" stroke-miterlimit="10" stroke-linecap="round" stroke-linejoin="round"/>
</svg>
