<svg width="14" height="14" viewBox="0 0 14 14" fill="none" xmlns="http://www.w3.org/2000/svg">
<mask id="mask0_317_49" style="mask-type:luminance" maskUnits="userSpaceOnUse" x="0" y="0" width="14" height="14">
<path d="M14 0H0V14H14V0Z" fill="white"/>
</mask>
<g mask="url(#mask0_317_49)">
<path d="M6.77263 0.947065C6.86547 0.758747 7.13436 0.758304 7.22761 0.947265L8.80661 4.14674C8.98927 4.51689 9.3424 4.77335 9.7508 4.83264L13.2818 5.34574C13.4903 5.3761 13.5731 5.63205 13.4226 5.7787L10.8675 8.26925C10.5723 8.55719 10.4371 8.97237 10.5071 9.37926L11.1102 12.8957C11.1457 13.1028 10.928 13.2613 10.7415 13.1634L7.58346 11.5032C7.21827 11.3114 6.78171 11.3115 6.41653 11.5033L3.25844 13.1635C3.07228 13.2614 2.8544 13.1031 2.89002 12.8956L3.49306 9.379C3.56296 8.97218 3.42772 8.55702 3.13257 8.26915L0.577584 5.7787C0.426701 5.63144 0.5105 5.37587 0.718382 5.34574L4.24934 4.83264C4.65774 4.77335 5.01087 4.51689 5.19353 4.14674L6.77263 0.947065Z" stroke="#666666"/>
</g>
</svg>
