<svg width="20" height="20" viewBox="0 0 20 20" fill="none" xmlns="http://www.w3.org/2000/svg">
<path d="M2.31747 8.56794C2.2003 8.45074 2.13448 8.29179 2.13448 8.12607C2.13448 7.96034 2.2003 7.8014 2.31747 7.68419L8.12497 1.87544L8.21247 1.80169C8.33289 1.71899 8.47847 1.68109 8.62393 1.69456C8.76939 1.70803 8.90554 1.77203 9.00872 1.87544L9.08122 1.96294C9.16417 2.08341 9.20234 2.22912 9.18909 2.37479C9.17585 2.52046 9.11204 2.6569 9.00872 2.76044L4.26872 7.50044H18.125C18.2907 7.50044 18.4497 7.56629 18.5669 7.6835C18.6841 7.80071 18.75 7.95968 18.75 8.12544C18.75 8.2912 18.6841 8.45017 18.5669 8.56738C18.4497 8.68459 18.2907 8.75044 18.125 8.75044H2.75872C2.59328 8.75041 2.4346 8.68478 2.31747 8.56794ZM1.24997 11.8754C1.24997 11.7097 1.31582 11.5507 1.43303 11.4335C1.55024 11.3163 1.70921 11.2504 1.87497 11.2504H17.2412C17.3647 11.2505 17.4855 11.2871 17.5882 11.3557C17.6909 11.4243 17.771 11.5218 17.8184 11.6359C17.8657 11.75 17.8782 11.8755 17.8542 11.9967C17.8303 12.1179 17.7709 12.2292 17.6837 12.3167L11.875 18.1254L11.7875 18.1992C11.6588 18.286 11.5026 18.3219 11.349 18.3C11.1954 18.2782 11.0553 18.2001 10.956 18.0808C10.8567 17.9616 10.8052 17.8098 10.8115 17.6547C10.8178 17.4997 10.8814 17.3525 10.99 17.2417L15.735 12.5004H1.87497C1.70921 12.5004 1.55024 12.4346 1.43303 12.3174C1.31582 12.2002 1.24997 12.0412 1.24997 11.8754Z" fill="#666666"/>
</svg>
