<svg width="80" height="80" viewBox="0 0 80 80" fill="none" xmlns="http://www.w3.org/2000/svg">
<g id="Forex">
<path id="Vector" d="M40 40C49.665 40 57.5 32.165 57.5 22.5C57.5 12.835 49.665 5 40 5C30.335 5 22.5 12.835 22.5 22.5C22.5 32.165 30.335 40 40 40Z" fill="#EFD358"/>
<path id="&#226;&#130;&#185;" d="M44.7344 18.8136L44.29 20.8618H36L36.438 18.8136H44.7344ZM40.7417 31.9998L36.165 24.5773L36.146 22.9946H38.4185C38.994 22.9946 39.4806 22.879 39.8784 22.6476C40.2804 22.4163 40.5851 22.0777 40.7925 21.632C41.0041 21.1863 41.1099 20.6333 41.1099 19.9731C41.1099 18.997 40.8919 18.2268 40.4561 17.6626C40.0202 17.0927 39.341 16.8078 38.4185 16.8078H36L36.4507 14.6665H38.4185C39.4637 14.6665 40.3228 14.8922 40.9956 15.3436C41.6727 15.7893 42.1763 16.4072 42.5063 17.1971C42.8364 17.987 43.0015 18.8898 43.0015 19.9054C43.0015 20.8195 42.8597 21.6517 42.5762 22.4022C42.2969 23.147 41.8504 23.7535 41.2368 24.2218C40.6232 24.6845 39.8149 24.9412 38.812 24.992L38.7549 25.009L42.957 31.856V31.9998H40.7417ZM44.7344 14.6665L44.29 16.7316L37.6948 16.6724L38.1392 14.6665H44.7344Z" fill="#B2500D"/>
<path id="Vector_2" d="M20 46.25H15V40H12.5V46.25H7.5C7.16848 46.25 6.85054 46.3817 6.61612 46.6161C6.3817 46.8505 6.25 47.1685 6.25 47.5V60C6.25 60.3315 6.3817 60.6495 6.61612 60.8839C6.85054 61.1183 7.16848 61.25 7.5 61.25H12.5V67.5H15V61.25H20C20.3315 61.25 20.6495 61.1183 20.8839 60.8839C21.1183 60.6495 21.25 60.3315 21.25 60V47.5C21.25 47.1685 21.1183 46.8505 20.8839 46.6161C20.6495 46.3817 20.3315 46.25 20 46.25Z" fill="#009E77"/>
<path id="Vector_3" d="M55 47.5H50V41.25H47.5V47.5H42.5C42.1685 47.5 41.8505 47.6317 41.6161 47.8661C41.3817 48.1005 41.25 48.4185 41.25 48.75V61.25C41.25 61.5815 41.3817 61.8995 41.6161 62.1339C41.8505 62.3683 42.1685 62.5 42.5 62.5H47.5V68.75H50V62.5H55C55.3315 62.5 55.6495 62.3683 55.8839 62.1339C56.1183 61.8995 56.25 61.5815 56.25 61.25V48.75C56.25 48.4185 56.1183 48.1005 55.8839 47.8661C55.6495 47.6317 55.3315 47.5 55 47.5Z" fill="#009E77"/>
<path id="Vector_4" d="M37.5 55H32.5V48.75H30V55H25C24.6685 55 24.3505 55.1317 24.1161 55.3661C23.8817 55.6005 23.75 55.9185 23.75 56.25V68.75C23.75 69.0815 23.8817 69.3995 24.1161 69.6339C24.3505 69.8683 24.6685 70 25 70H30V76.25H32.5V70H37.5C37.8315 70 38.1495 69.8683 38.3839 69.6339C38.6183 69.3995 38.75 69.0815 38.75 68.75V56.25C38.75 55.9185 38.6183 55.6005 38.3839 55.3661C38.1495 55.1317 37.8315 55 37.5 55Z" fill="#FF4D6C"/>
<path id="Vector_5" d="M72.5 55H67.5V48.75H65V55H60C59.6685 55 59.3505 55.1317 59.1161 55.3661C58.8817 55.6005 58.75 55.9185 58.75 56.25V68.75C58.75 69.0815 58.8817 69.3995 59.1161 69.6339C59.3505 69.8683 59.6685 70 60 70H65V76.25H67.5V70H72.5C72.8315 70 73.1495 69.8683 73.3839 69.6339C73.6183 69.3995 73.75 69.0815 73.75 68.75V56.25C73.75 55.9185 73.6183 55.6005 73.3839 55.3661C73.1495 55.1317 72.8315 55 72.5 55Z" fill="#FF4D6C"/>
</g>
</svg>
