<svg width="28" height="28" viewBox="0 0 28 28" fill="none" xmlns="http://www.w3.org/2000/svg">
<path d="M24.5 19.8333V9.33333H8.16667V19.8333H24.5ZM24.5 3.5C25.1188 3.5 25.7123 3.74583 26.1499 4.18342C26.5875 4.621 26.8333 5.2145 26.8333 5.83333V19.8333C26.8333 20.4522 26.5875 21.0457 26.1499 21.4832C25.7123 21.9208 25.1188 22.1667 24.5 22.1667H8.16667C6.87167 22.1667 5.83333 21.1167 5.83333 19.8333V5.83333C5.83333 5.2145 6.07917 4.621 6.51675 4.18342C6.95434 3.74583 7.54783 3.5 8.16667 3.5H9.33333V1.16667H11.6667V3.5H21V1.16667H23.3333V3.5H24.5ZM20.4517 12.9033L15.2717 18.0833L12.145 14.9567L13.3817 13.72L15.2717 15.61L19.215 11.6667L20.4517 12.9033ZM3.5 24.5H19.8333V26.8333H3.5C2.205 26.8333 1.16667 25.7833 1.16667 24.5V10.5H3.5V24.5Z" fill="black"/>
</svg>