<svg xmlns="http://www.w3.org/2000/svg" width="28" height="28" viewBox="0 0 28 28" fill="none">
<path d="M23.2884 3.22169L23.6419 2.86813L23.2884 2.51458L21.4855 0.711692C21.4072 0.633432 21.4626 0.5 21.5731 0.5H27.3759C27.4445 0.5 27.5 0.555516 27.5 0.624089V6.42693C27.5 6.53745 27.3666 6.59279 27.2883 6.51454L25.4854 4.71165L25.1319 4.35809L24.7783 4.71165L13.2431 16.247L13.2295 16.2574C13.2228 16.2624 13.2126 16.2702 13.2017 16.2789L13.1794 16.2966L13.1593 16.3167L12.6572 16.8188C12.5183 16.9577 12.2933 16.9577 12.1544 16.8188L7.48963 12.154L7.13607 11.8005L6.78252 12.154L2.09441 16.8422C1.95554 16.9811 1.73048 16.9811 1.59161 16.8422L0.604153 15.8547C0.465282 15.7158 0.465282 15.4908 0.604153 15.3519L6.88482 9.07152L6.88483 9.07151C7.0237 8.93264 7.24875 8.93264 7.38762 9.07151L8.37508 10.059L12.0596 13.7435L12.4131 14.097L12.7667 13.7435L23.2884 3.22169Z" fill="white" stroke="#666666"/>
<path d="M20.917 27.1444V11.9671L24.3603 8.52382V27.1444C24.3603 27.3409 24.2012 27.5 24.0047 27.5H21.2726C21.0761 27.5 20.917 27.3409 20.917 27.1444Z" fill="white" stroke="#666666"/>
<path d="M15.1581 27.1444V17.7264L18.6013 14.2831V27.1444C18.6013 27.3409 18.4422 27.5 18.2458 27.5H15.5136C15.3172 27.5 15.1581 27.3409 15.1581 27.1444Z" fill="white" stroke="#666666"/>
<path d="M10.4574 18.5159C10.4574 18.5159 10.4574 18.5159 10.4574 18.5159C10.9773 19.0359 11.6707 19.3232 12.406 19.3232C12.5537 19.3232 12.6994 19.3113 12.8421 19.2882V27.1444C12.8421 27.3409 12.683 27.5 12.4865 27.5H9.75439C9.55795 27.5 9.39883 27.3409 9.39883 27.1444V17.4576L10.4574 18.5159Z" fill="white" stroke="#666666"/>
<path d="M3.79177 18.5389L7.08313 15.2476V27.1444C7.08313 27.3409 6.92401 27.5 6.72758 27.5H3.99541C3.79898 27.5 3.63986 27.3409 3.63986 27.1444V18.679C3.69151 18.635 3.7423 18.5884 3.79177 18.5389Z" fill="white" stroke="#666666"/>
</svg>