<svg width="32" height="32" viewBox="0 0 32 32" fill="none" xmlns="http://www.w3.org/2000/svg">
<path d="M14.6667 4.00002H10.4C8.15979 4.00002 7.03969 4.00002 6.18404 4.43599C5.43139 4.81949 4.81947 5.43141 4.43597 6.18406C4 7.03971 4 8.15981 4 10.4V21.6C4 23.8402 4 24.9603 4.43597 25.816C4.81947 26.5686 5.43139 27.1806 6.18404 27.564C7.03969 28 8.15979 28 10.4 28H21.6C23.8402 28 24.9603 28 25.816 27.564C26.5686 27.1806 27.1805 26.5686 27.564 25.816C28 24.9603 28 23.8402 28 21.6V17.3334M16 10.6667H21.3333V16M20.6667 4.66669V2.66669M25.9191 6.0809L27.3333 4.66669M27.347 11.3334H29.347M4 17.7962C4.86925 17.9304 5.75983 18 6.66667 18C12.5151 18 17.6871 15.1035 20.8262 10.6667" stroke="black" stroke-width="2" stroke-linecap="round" stroke-linejoin="round"/>
</svg>
