<svg width="32" height="32" viewBox="0 0 32 32" fill="none" xmlns="http://www.w3.org/2000/svg">
<path d="M19.1879 24.0199C19.7597 26.1537 18.4934 28.3471 16.3595 28.9188C14.2256 29.4906 12.0323 28.2243 11.4605 26.0904M14.522 7.65462C14.9276 6.92488 15.0612 6.04288 14.828 5.17275C14.3516 3.39453 12.5238 2.33926 10.7456 2.81573C8.96733 3.29221 7.91206 5.12 8.38853 6.89822C8.62168 7.76834 9.17839 8.46537 9.89453 8.89454M21.6478 12.5939C21.1719 10.8177 19.9013 9.33241 18.1156 8.46477C16.3299 7.59712 14.1754 7.41819 12.1259 7.96734C10.0765 8.51648 8.30005 9.74872 7.18741 11.393C6.07477 13.0372 5.71707 14.9588 6.19299 16.735C6.98043 19.6737 6.82753 22.0182 6.33025 23.7997C5.7635 25.8302 5.48012 26.8454 5.55668 27.0493C5.64427 27.2825 5.70763 27.3466 5.93994 27.4366C6.14299 27.5152 6.99602 27.2867 8.70207 26.8295L24.5222 22.5906C26.2282 22.1334 27.0812 21.9049 27.2178 21.7352C27.3739 21.5411 27.3968 21.454 27.356 21.2082C27.3204 20.9934 26.5674 20.2558 25.0613 18.7808C23.7399 17.4866 22.4352 15.5326 21.6478 12.5939Z" stroke="black" stroke-width="2" stroke-linecap="round" stroke-linejoin="round"/>
</svg>
