<svg width="32" height="29" viewBox="0 0 32 29" fill="none" xmlns="http://www.w3.org/2000/svg">
<path d="M31 8.98395C31 12.2977 28.3137 14.9839 25 14.9839C21.6863 14.9839 19 12.2977 19 8.98395C19 5.67024 21.6863 2.98395 25 2.98395C28.3137 2.98395 31 5.67024 31 8.98395Z" stroke="black" stroke-width="2"/>
<path d="M8 17.9839H18V27.9839H8V17.9839Z" stroke="black" stroke-width="2"/>
<mask id="path-3-inside-1_471_66" fill="white">
<path d="M15.5 12.984H0.500001C0.410749 12.984 0.323123 12.9601 0.246221 12.9148C0.16932 12.8695 0.105946 12.8044 0.0626789 12.7263C0.0194121 12.6483 -0.00217037 12.5601 0.000172305 12.4708C0.00251498 12.3816 0.0286974 12.2946 0.0760012 12.219L7.576 0.218962C7.62406 0.151268 7.68764 0.0960658 7.7614 0.057972C7.83517 0.0198781 7.91698 0 8 0C8.08302 0 8.16483 0.0198781 8.2386 0.057972C8.31237 0.0960658 8.37594 0.151268 8.424 0.218962L15.924 12.219C15.9713 12.2946 15.9975 12.3816 15.9998 12.4708C16.0022 12.5601 15.9806 12.6483 15.9373 12.7263C15.8941 12.8044 15.8307 12.8695 15.7538 12.9148C15.6769 12.9601 15.5893 12.984 15.5 12.984Z"/>
</mask>
<path d="M15.5 12.984L15.5 10.984H15.5V12.984ZM0.500001 12.984V10.984H0.499996L0.500001 12.984ZM0.0760012 12.219L1.772 13.279L1.772 13.279L0.0760012 12.219ZM7.576 0.218962L5.94523 -0.938877L5.91118 -0.890916L5.88 -0.841036L7.576 0.218962ZM8.424 0.218962L10.12 -0.841036L10.0888 -0.890916L10.0548 -0.938877L8.424 0.218962ZM15.924 12.219L14.228 13.279L14.228 13.279L15.924 12.219ZM15.5 10.984H0.500001V14.984H15.5V10.984ZM0.499996 10.984C0.767754 10.984 1.03063 11.0556 1.26134 11.1915L-0.768893 14.638C-0.384385 14.8645 0.0537435 14.984 0.500006 14.984L0.499996 10.984ZM1.26134 11.1915C1.49204 11.3274 1.68216 11.5226 1.81196 11.7568L-1.68661 13.6959C-1.47027 14.0862 -1.1534 14.4115 -0.768893 14.638L1.26134 11.1915ZM1.81196 11.7568C1.94176 11.991 2.00651 12.2557 1.99948 12.5233L-1.99914 12.4183C-2.01085 12.8645 -1.90294 13.3056 -1.68661 13.6959L1.81196 11.7568ZM1.99948 12.5233C1.99246 12.791 1.91391 13.0519 1.772 13.279L-1.61999 11.159C-1.85652 11.5374 -1.98743 11.9722 -1.99914 12.4183L1.99948 12.5233ZM1.772 13.279L9.272 1.27896L5.88 -0.841036L-1.62 11.159L1.772 13.279ZM9.20677 1.3768C9.06998 1.56947 8.88904 1.72658 8.67909 1.835L6.84371 -1.71906C6.48623 -1.53445 6.17815 -1.26693 5.94523 -0.938877L9.20677 1.3768ZM8.67909 1.835C8.46915 1.94342 8.23629 2 8 2V-2C7.59767 -2 7.20118 -1.90367 6.84371 -1.71906L8.67909 1.835ZM8 2C7.76371 2 7.53085 1.94342 7.32091 1.835L9.15629 -1.71906C8.79882 -1.90367 8.40233 -2 8 -2V2ZM7.32091 1.835C7.11096 1.72658 6.93003 1.56947 6.79323 1.3768L10.0548 -0.938877C9.82185 -1.26693 9.51377 -1.53445 9.15629 -1.71906L7.32091 1.835ZM6.728 1.27896L14.228 13.279L17.62 11.159L10.12 -0.841036L6.728 1.27896ZM14.228 13.279C14.0861 13.0519 14.0075 12.791 14.0005 12.5233L17.9991 12.4183C17.9874 11.9722 17.8565 11.5374 17.62 11.159L14.228 13.279ZM14.0005 12.5233C13.9935 12.2557 14.0582 11.991 14.188 11.7568L17.6866 13.6959C17.9029 13.3056 18.0109 12.8645 17.9991 12.4183L14.0005 12.5233ZM14.188 11.7568C14.3178 11.5226 14.508 11.3274 14.7387 11.1915L16.7689 14.638C17.1534 14.4115 17.4703 14.0862 17.6866 13.6959L14.188 11.7568ZM14.7387 11.1915C14.9694 11.0556 15.2322 10.984 15.5 10.984L15.5 14.984C15.9463 14.984 16.3844 14.8645 16.7689 14.638L14.7387 11.1915Z" fill="black" mask="url(#path-3-inside-1_471_66)"/>
</svg>
