<svg width="28" height="28" viewBox="0 0 28 28" fill="none" xmlns="http://www.w3.org/2000/svg">
<path d="M23.1126 13.9995C23.1126 13.4152 23.0524 12.8323 22.9329 12.2595L26.0029 10.0795L23.5184 5.91951L20.0179 7.40271C19.1117 6.62917 18.0547 6.03841 16.9089 5.66511L16.4874 1.99951H11.5185L11.0969 5.66511C9.95111 6.03841 8.89411 6.62917 7.98801 7.40271L4.4874 5.91951L2.00293 10.0795L5.07292 12.2611C4.83357 13.4096 4.83357 14.5926 5.07292 15.7411L2.00293 17.9195L4.4874 22.0796L7.98801 20.5978C8.89411 21.3715 9.95111 21.9621 11.0969 22.3354L11.5185 25.9996H16.4874L16.9089 22.3338C18.0547 21.9606 19.1117 21.3698 20.0179 20.5963L23.5184 22.0796L26.0029 17.9195L22.9329 15.7379C23.0524 15.1656 23.1126 14.5833 23.1126 13.9995Z" stroke="black" stroke-width="1" stroke-miterlimit="10" stroke-linecap="square"/>
<path d="M14 15.5996V17.9996" stroke="black" stroke-width="1" stroke-miterlimit="10" stroke-linecap="square"/>
<path d="M14.003 15.6008C15.3752 15.6008 16.4875 14.5263 16.4875 13.2008C16.4875 11.8753 15.3752 10.8008 14.003 10.8008C12.6309 10.8008 11.5186 11.8753 11.5186 13.2008C11.5186 14.5263 12.6309 15.6008 14.003 15.6008Z" stroke="black" stroke-width="1" stroke-miterlimit="10" stroke-linecap="square"/>
</svg>
