<svg width="32" height="29" viewBox="0 0 32 29" fill="none" xmlns="http://www.w3.org/2000/svg">
<path fill-rule="evenodd" clip-rule="evenodd" d="M24 0C28.4183 0 32 3.58172 32 8V17C32 21.4183 28.4183 25 24 25H9.34431C8.47987 25 7.63869 25.28 6.94674 25.7982L3.19879 28.6047C2.31463 29.2668 1.06116 29.0867 0.39909 28.2026C0.14002 27.8566 0 27.436 0 27.0038V8C0 3.58172 3.58172 0 8 0H24ZM21.428 10.0965C20.9289 9.86008 20.3326 10.0731 20.0962 10.5722C19.4191 12.0021 17.7712 13.0002 15.9965 13.0002C14.2231 13.0002 12.5836 12.0097 11.9023 10.5837C11.6642 10.0854 11.0672 9.87441 10.5689 10.1125C10.0706 10.3506 9.8596 10.9476 10.0977 11.4459C11.1177 13.5809 13.467 15.0002 15.9965 15.0002C18.5294 15.0002 20.889 13.571 21.9038 11.4282C22.1402 10.9291 21.9271 10.3328 21.428 10.0965Z" fill="#0037B7"/>
</svg>
