<svg width="28" height="30" viewBox="0 0 28 30" fill="none" xmlns="http://www.w3.org/2000/svg">
<path d="M26.44 24.2886C26.4404 23.9883 26.3649 23.6924 26.2197 23.426C26.0746 23.1594 25.8641 22.9303 25.6064 22.758C22.0759 20.5772 17.9223 19.497 13.72 19.6668C9.51774 19.497 5.36405 20.5772 1.83365 22.758C1.57586 22.9303 1.36549 23.1594 1.22035 23.426C1.07523 23.6924 0.999634 23.9883 1 24.2886V29H26.44V24.2886Z" stroke="black" stroke-width="1.8" stroke-linecap="round" stroke-linejoin="round"/>
<path d="M13.7188 14.0662C17.5015 14.0662 20.5682 11.1413 20.5682 7.53312C20.5682 3.92496 17.5015 1 13.7188 1C9.93611 1 6.8696 3.92496 6.8696 7.53312C6.8696 11.1413 9.93611 14.0662 13.7188 14.0662Z" stroke="black" stroke-width="1.8" stroke-linecap="round" stroke-linejoin="round"/>
</svg>
