<svg width="28" height="28" viewBox="0 0 28 28" fill="none" xmlns="http://www.w3.org/2000/svg">
<path d="M7.00058 3.5H3.50058C2.21141 3.5 1.16724 4.54417 1.16724 5.83333C1.16724 7.1225 2.21141 8.16667 3.50058 8.16667" stroke="black" stroke-width="1.6" stroke-miterlimit="10" stroke-linecap="square"/>
<path d="M7 8.16723V1.16724H23.3333V8.16723" stroke="black" stroke-width="1.6" stroke-miterlimit="10" stroke-linecap="square"/>
<path d="M26.834 8.16781H3.50058C2.21141 8.16781 1.16724 7.12364 1.16724 5.83447V23.3345C1.16724 25.2677 2.73408 26.8345 4.66723 26.8345H26.834V8.16781Z" stroke="black" stroke-width="1.6" stroke-miterlimit="10" stroke-linecap="square"/>
<path d="M19.8333 19.834C21.122 19.834 22.1667 18.7892 22.1667 17.5005C22.1667 16.2119 21.122 15.1672 19.8333 15.1672C18.5447 15.1672 17.5 16.2119 17.5 17.5005C17.5 18.7892 18.5447 19.834 19.8333 19.834Z" stroke="black" stroke-width="1.6" stroke-miterlimit="10" stroke-linecap="square"/>
</svg>
