<svg width="46" height="46" viewBox="0 0 46 46" fill="none" xmlns="http://www.w3.org/2000/svg">
<g style="mix-blend-mode:luminosity" clip-path="url(#clip0_1_154)">
<path d="M23 46C35.7025 46 46 35.7025 46 23C46 10.2975 35.7025 0 23 0C10.2975 0 0 10.2975 0 23C0 35.7025 10.2975 46 23 46Z" fill="#F6C863"/>
<path d="M27.5677 18.4036L24.0566 17.6741L23.3235 19.992L25.4438 21.1384L27.5677 18.4036Z" fill="#828A9E"/>
<path d="M31.4741 19.2517L29.8928 17.7783C29.6715 17.5729 29.4084 17.4178 29.1215 17.3235C28.8347 17.2293 28.5308 17.1982 28.2308 17.2323C27.9308 17.2664 27.6417 17.365 27.3833 17.5213C27.125 17.6775 26.9034 17.8878 26.7339 18.1376L25.052 20.6066C24.8956 20.8369 24.7866 21.0962 24.7315 21.3692C24.6764 21.6422 24.6763 21.9235 24.7312 22.1965C24.786 22.4696 24.8948 22.7289 25.0511 22.9594C25.2074 23.19 25.4081 23.387 25.6414 23.5391L27.3988 24.6855L27.6719 20.9012L30.1264 19.3451L31.4741 19.2517Z" fill="#62667C"/>
<path d="M37.914 24.1356C37.914 25.2694 37.5778 26.3778 36.9478 27.3205C36.3178 28.2632 35.4223 28.9979 34.3747 29.4316C33.3271 29.8654 32.1744 29.9787 31.0624 29.7572C29.9504 29.5358 28.9291 28.9895 28.1276 28.1875C27.3261 27.3855 26.7805 26.3638 26.5597 25.2517C26.3389 24.1395 26.4529 22.9869 26.8873 21.9396C27.3217 20.8922 28.057 19.9973 29.0001 19.3678C29.9432 18.7384 31.0518 18.4029 32.1856 18.4036C33.7052 18.4045 35.1623 19.0088 36.2364 20.0837C37.3106 21.1586 37.914 22.616 37.914 24.1356Z" fill="#575B6D"/>
<path d="M32.1856 28.3907C31.3409 28.3921 30.5148 28.1429 29.8117 27.6747C29.1087 27.2064 28.5604 26.5401 28.2361 25.7601C27.9119 24.9801 27.8263 24.1215 27.9902 23.2928C28.1541 22.4641 28.5602 21.7027 29.157 21.1049C29.7538 20.5071 30.5145 20.0998 31.3429 19.9345C32.1712 19.7692 33.03 19.8533 33.8106 20.1762C34.5911 20.4992 35.2583 21.0464 35.7278 21.7486C36.1972 22.4509 36.4478 23.2766 36.4478 24.1213C36.4469 25.2521 35.9977 26.3364 35.1988 27.1366C34.3999 27.9369 33.3164 28.3878 32.1856 28.3907Z" fill="#69B0EE"/>
<path d="M32.1856 26.2057C31.7761 26.2064 31.3755 26.0856 31.0346 25.8586C30.6937 25.6315 30.4279 25.3085 30.2706 24.9303C30.1134 24.5521 30.0719 24.1358 30.1514 23.734C30.2308 23.3323 30.4277 22.9631 30.717 22.6732C31.0064 22.3834 31.3752 22.1859 31.7769 22.1057C32.1785 22.0255 32.5949 22.0663 32.9734 22.2229C33.3518 22.3795 33.6753 22.6448 33.9029 22.9853C34.1305 23.3258 34.252 23.7261 34.252 24.1357C34.2511 24.6838 34.0332 25.2092 33.646 25.5971C33.2587 25.985 32.7337 26.2038 32.1856 26.2057Z" fill="#419BE9"/>
<path d="M31.0931 23.1725C30.5181 23.7439 29.8281 23.9811 29.5478 23.7008C29.2675 23.4204 29.5011 22.7268 30.0761 22.1518C30.6511 21.5768 31.3411 21.3433 31.625 21.6236C31.9089 21.9039 31.6645 22.5975 31.0931 23.1725Z" fill="#EEEFEE"/>
<path d="M18.4323 18.4036L21.9434 17.6741L22.6766 19.992L20.5562 21.1384L18.4323 18.4036Z" fill="#828A9E"/>
<path d="M14.5259 19.2517L16.1072 17.7783C16.3285 17.5729 16.5916 17.4178 16.8785 17.3235C17.1653 17.2293 17.4692 17.1982 17.7692 17.2323C18.0692 17.2664 18.3583 17.365 18.6167 17.5213C18.875 17.6775 19.0966 17.8878 19.2661 18.1376L20.948 20.6066C21.1044 20.8369 21.2134 21.0962 21.2685 21.3692C21.3236 21.6422 21.3237 21.9235 21.2688 22.1965C21.214 22.4696 21.1052 22.7289 20.9489 22.9594C20.7926 23.19 20.5919 23.387 20.3586 23.5391L18.6013 24.6855L18.3281 20.9012L15.8844 19.3451L14.5259 19.2517Z" fill="#62667C"/>
<path d="M8.08594 24.1356C8.08594 25.2694 8.42221 26.3778 9.05221 27.3205C9.68221 28.2632 10.5776 28.9979 11.6252 29.4316C12.6728 29.8654 13.8256 29.9787 14.9376 29.7572C16.0496 29.5358 17.0709 28.9895 17.8724 28.1875C18.6739 27.3855 19.2195 26.3638 19.4403 25.2517C19.6611 24.1395 19.547 22.9869 19.1126 21.9396C18.6782 20.8922 17.943 19.9973 16.9999 19.3678C16.0568 18.7384 14.9482 18.4029 13.8144 18.4036C12.2948 18.4045 10.8377 19.0088 9.76354 20.0837C8.68935 21.1586 8.08594 22.616 8.08594 24.1356Z" fill="#575B6D"/>
<path d="M13.8144 28.3907C14.6597 28.3921 15.4864 28.1425 16.1897 27.6736C16.8931 27.2047 17.4414 26.5376 17.7652 25.7568C18.0891 24.9759 18.1738 24.1165 18.0087 23.2875C17.8436 22.4585 17.4361 21.6971 16.8379 21.0999C16.2396 20.5026 15.4776 20.0964 14.6483 19.9327C13.8189 19.7691 12.9597 19.8552 12.1794 20.1804C11.3991 20.5055 10.7329 21.0549 10.2652 21.7591C9.79749 22.4632 9.54933 23.2904 9.55218 24.1357C9.55692 25.264 10.0077 26.3446 10.8062 27.1417C11.6047 27.9389 12.6861 28.3878 13.8144 28.3907Z" fill="#69B0EE"/>
<path d="M13.8144 26.2057C14.2239 26.2064 14.6245 26.0856 14.9654 25.8586C15.3063 25.6315 15.5721 25.3085 15.7294 24.9303C15.8866 24.5521 15.9281 24.1358 15.8486 23.734C15.7692 23.3323 15.5723 22.9631 15.2829 22.6732C14.9936 22.3834 14.6248 22.1859 14.2231 22.1057C13.8215 22.0255 13.4051 22.0663 13.0266 22.2229C12.6482 22.3795 12.3247 22.6448 12.0971 22.9853C11.8695 23.3258 11.748 23.7261 11.748 24.1357C11.7489 24.6838 11.9668 25.2092 12.354 25.5971C12.7412 25.985 13.2663 26.2038 13.8144 26.2057Z" fill="#419BE9"/>
<path d="M14.9069 23.1725C15.4819 23.7439 16.1719 23.9811 16.4522 23.7008C16.7325 23.4204 16.4989 22.7268 15.9239 22.1518C15.3489 21.5768 14.6589 21.3433 14.375 21.6236C14.0911 21.9039 14.3355 22.5975 14.9069 23.1725Z" fill="#EEEFEE"/>
<path d="M25.2389 18.3712C25.2396 18.8151 25.1086 19.2491 24.8625 19.6185C24.6163 19.9878 24.2661 20.2758 23.8562 20.4459C23.4463 20.6161 22.9951 20.6608 22.5598 20.5744C22.1245 20.488 21.7246 20.2743 21.4107 19.9605C21.0969 19.6467 20.8832 19.2468 20.7968 18.8114C20.7104 18.3761 20.7551 17.9249 20.9253 17.515C21.0955 17.1051 21.3835 16.7549 21.7528 16.5088C22.1221 16.2626 22.5562 16.1316 23 16.1323C23.5938 16.1323 24.1633 16.3682 24.5831 16.7881C25.003 17.208 25.2389 17.7774 25.2389 18.3712Z" fill="#62667C"/>
<path d="M23 19.6362C22.7497 19.6369 22.5047 19.5633 22.2962 19.4248C22.0877 19.2862 21.925 19.0889 21.8287 18.8578C21.7324 18.6267 21.7069 18.3722 21.7553 18.1266C21.8037 17.881 21.9239 17.6553 22.1007 17.478C22.2774 17.3007 22.5028 17.1799 22.7483 17.1308C22.9938 17.0817 23.2483 17.1065 23.4797 17.2021C23.711 17.2978 23.9088 17.4599 24.048 17.668C24.1871 17.8761 24.2614 18.1209 24.2614 18.3712C24.2605 18.7058 24.1274 19.0265 23.8911 19.2634C23.6549 19.5003 23.3346 19.6343 23 19.6362Z" fill="#828A9E"/>
</g>
<defs>
<clipPath id="clip0_1_154">
<rect width="46" height="46" fill="white"/>
</clipPath>
</defs>
</svg>
