<svg width="21" height="21" viewBox="0 0 21 21" fill="none" xmlns="http://www.w3.org/2000/svg">
<g clip-path="url(#clip0_724_971)">
<path d="M8.23486 2.13647C8.23486 2.13647 11.1743 0.0758644 11.6894 3.19708" stroke="#757575" stroke-width="1.4"/>
<path d="M11.4773 2.31842C11.4773 2.31842 12.0227 1.28812 14.6894 1.40933C14.6894 2.25781 13.9015 4.40933 12.7197 4.80327C15.5985 6.50024 17.7197 11.5305 17.7197 14.5608C17.7197 18.2275 14.5985 20.1972 10.75 20.1972C6.90152 20.1972 3.7803 18.2275 3.7803 14.5608C3.7803 11.5608 5.87121 6.50024 8.7803 4.80327C7.59849 4.40933 6.81061 2.25781 6.81061 1.40933C6.81061 1.40933 8.14394 2.59115 9.84091 2.59115" stroke="#757575" stroke-width="1.4"/>
<path d="M8.53787 4.74268H13.2045" stroke="#757575" stroke-width="1.4"/>
<path d="M13.2046 5.13643C13.2046 5.13643 16.5985 5.04552 16.5985 6.95461" stroke="#757575" stroke-width="1.4"/>
<path d="M13.2349 4.56089C13.2349 4.56089 15.9015 4.7124 17.447 3.7124" stroke="#757575" stroke-width="1.4"/>
<path d="M12.7276 9.5H9.48322" stroke="#757575" stroke-linecap="round"/>
<path d="M8.75 9.5H9.6893C10.6078 9.5 11.6206 9.80351 11.6206 11.2013C11.6206 12.7173 10.3347 13.2971 8.97045 13.1438C8.95432 13.1423 8.93812 13.1458 8.92401 13.1537C8.9099 13.1617 8.89854 13.1737 8.89143 13.1883C8.88433 13.2028 8.88181 13.2192 8.88423 13.2352C8.88664 13.2512 8.89387 13.2661 8.90495 13.278L11.8059 16.3946" stroke="#757575" stroke-linecap="round"/>
<path d="M8.79633 11.249H12.75" stroke="#757575" stroke-linecap="round"/>
</g>
<defs>
<clipPath id="clip0_724_971">
<rect width="20" height="20" fill="white" transform="translate(0.75 0.5)"/>
</clipPath>
</defs>
</svg>
