<svg width="20" height="20" viewBox="0 0 20 20" fill="none" xmlns="http://www.w3.org/2000/svg">
<g id="note 3">
<g id="Group">
<path id="Vector" d="M17.1663 2.5H2.83301C1.72844 2.5 0.833008 3.39543 0.833008 4.5V15.5C0.833008 16.6046 1.72844 17.5 2.83301 17.5H17.1663C18.2709 17.5 19.1663 16.6046 19.1663 15.5V4.5C19.1663 3.39543 18.2709 2.5 17.1663 2.5Z" stroke="#212121" stroke-width="1.6" stroke-miterlimit="10" stroke-linecap="square" stroke-linejoin="round"/>
<g id="Group_2">
<path id="Vector_2" d="M12.9664 6.26945L10.125 9.11087C9.65414 9.5817 9.65414 10.3451 10.125 10.8159C10.5958 11.2867 11.3592 11.2867 11.83 10.8159L14.6714 7.97447C15.1422 7.50364 15.1422 6.74028 14.6714 6.26945C14.2006 5.79863 13.4372 5.79863 12.9664 6.26945Z" stroke="#212121" stroke-width="1.6" stroke-miterlimit="10" stroke-linecap="round"/>
<path id="Vector_3" d="M5.30957 17.3508V17.0776C5.30957 15.9731 6.205 15.0776 7.30957 15.0776H10.1291C11.2337 15.0776 12.1291 15.9731 12.1291 17.0776V17.3508" stroke="#212121" stroke-width="1.6" stroke-miterlimit="10" stroke-linecap="round"/>
<path id="Vector_4" d="M5.8709 12.8042H4.16602" stroke="#212121" stroke-width="1.6" stroke-miterlimit="10" stroke-linecap="round"/>
<path id="Vector_5" d="M6.88211 10.3938L5.67676 9.18848" stroke="#212121" stroke-width="1.6" stroke-miterlimit="10" stroke-linecap="round"/>
<path id="Vector_6" d="M4.16602 17.3516H13.2587" stroke="#212121" stroke-width="1.6" stroke-miterlimit="10" stroke-linecap="round"/>
<path id="Vector_7" d="M13.2559 9.39502L16.6656 12.8048" stroke="#212121" stroke-width="1.6" stroke-miterlimit="10" stroke-linecap="round"/>
</g>
</g>
</g>
</svg>
