<svg width="7" height="12" viewBox="0 0 7 12" fill="none" xmlns="http://www.w3.org/2000/svg">
<g id="Vector">
<path d="M3.5086 12C3.32296 12 3.14495 11.9256 3.0137 11.7933L0.213702 8.97184C0.146845 8.90677 0.0935171 8.82893 0.0568308 8.74288C0.0201445 8.65682 0.000834101 8.56426 2.64299e-05 8.4706C-0.000781241 8.37694 0.0169298 8.28406 0.0521264 8.19737C0.087323 8.11068 0.1393 8.03193 0.205025 7.9657C0.27075 7.89947 0.348906 7.84709 0.434934 7.81162C0.520961 7.77616 0.613137 7.75831 0.706083 7.75912C0.799028 7.75994 0.890882 7.7794 0.976285 7.81636C1.06169 7.85333 1.13893 7.90707 1.2035 7.97444L3.5086 10.2972L5.8137 7.97444C5.94572 7.84595 6.12254 7.77485 6.30608 7.77646C6.48962 7.77807 6.66519 7.85225 6.79497 7.98303C6.92476 8.11381 6.99838 8.29073 6.99997 8.47568C7.00157 8.66062 6.93101 8.8388 6.8035 8.97184L4.0035 11.7933C3.87226 11.9256 3.69424 12 3.5086 12Z" fill="#666666"/>
<path d="M3.5086 0C3.32296 3.99505e-05 3.14495 0.0743821 3.0137 0.206674L0.213702 3.02816C0.146845 3.09323 0.0935171 3.17107 0.0568308 3.25712C0.0201445 3.34318 0.000834101 3.43574 2.64299e-05 3.5294C-0.000781241 3.62306 0.0169298 3.71594 0.0521264 3.80263C0.087323 3.88932 0.1393 3.96807 0.205025 4.0343C0.27075 4.10053 0.348906 4.15291 0.434934 4.18838C0.520961 4.22384 0.613137 4.24169 0.706083 4.24088C0.799028 4.24006 0.890882 4.2206 0.976285 4.18364C1.06169 4.14667 1.13893 4.09293 1.2035 4.02556L3.5086 1.70277L5.8137 4.02556C5.94572 4.15405 6.12254 4.22515 6.30608 4.22354C6.48962 4.22193 6.66519 4.14775 6.79497 4.01697C6.92476 3.88619 6.99838 3.70927 6.99997 3.52432C7.00157 3.33938 6.93101 3.1612 6.8035 3.02816L4.0035 0.206674C3.87226 0.0743821 3.69424 3.99505e-05 3.5086 0Z" fill="#666666"/>
</g>
</svg>
