<svg width="9" height="12" viewBox="0 0 9 12" fill="none" xmlns="http://www.w3.org/2000/svg">
<path d="M4.90903 9.14178V8.62209C4.90903 8.2628 4.98283 7.93399 5.13042 7.63565C5.28122 7.3341 5.4994 7.0935 5.78496 6.91386C6.07372 6.73101 6.42345 6.63958 6.83414 6.63958C7.25125 6.63958 7.60098 6.73101 7.88333 6.91386C8.16568 7.0935 8.37904 7.3341 8.52342 7.63565C8.66781 7.93399 8.74 8.2628 8.74 8.62209V9.14178C8.74 9.50107 8.6662 9.83149 8.51861 10.133C8.37423 10.4314 8.15926 10.672 7.8737 10.8548C7.59135 11.0345 7.24483 11.1243 6.83414 11.1243C6.41703 11.1243 6.0657 11.0345 5.78014 10.8548C5.49458 10.672 5.27801 10.4314 5.13042 10.133C4.98283 9.83149 4.90903 9.50107 4.90903 9.14178ZM5.89084 8.62209V9.14178C5.89084 9.44012 5.96142 9.70799 6.1026 9.94537C6.24377 10.1796 6.48762 10.2966 6.83414 10.2966C7.17103 10.2966 7.40846 10.1796 7.54643 9.94537C7.68761 9.70799 7.75819 9.44012 7.75819 9.14178V8.62209C7.75819 8.32375 7.69081 8.05749 7.55606 7.82331C7.4213 7.58593 7.18066 7.46723 6.83414 7.46723C6.49725 7.46723 6.255 7.58593 6.10741 7.82331C5.96303 8.05749 5.89084 8.32375 5.89084 8.62209ZM0 3.5022V2.98251C0 2.62322 0.0737959 2.29441 0.221388 1.99607C0.372188 1.69452 0.590367 1.45393 0.875925 1.27428C1.16469 1.09143 1.51442 1 1.92511 1C2.34222 1 2.69195 1.09143 2.9743 1.27428C3.25664 1.45393 3.47001 1.69452 3.61439 1.99607C3.75878 2.29441 3.83097 2.62322 3.83097 2.98251V3.5022C3.83097 3.86149 3.75717 4.19191 3.60958 4.49346C3.4652 4.7918 3.25023 5.0324 2.96467 5.21525C2.68232 5.39489 2.3358 5.48472 1.92511 5.48472C1.508 5.48472 1.15667 5.39489 0.871112 5.21525C0.585554 5.0324 0.368979 4.7918 0.221388 4.49346C0.0737959 4.19191 0 3.86149 0 3.5022ZM0.981806 2.98251V3.5022C0.981806 3.80054 1.05239 4.06841 1.19357 4.30579C1.33474 4.53997 1.57859 4.65707 1.92511 4.65707C2.262 4.65707 2.49943 4.53997 2.6374 4.30579C2.77858 4.06841 2.84916 3.80054 2.84916 3.5022V2.98251C2.84916 2.68417 2.78178 2.41791 2.64703 2.18373C2.51227 1.94635 2.27163 1.82765 1.92511 1.82765C1.58822 1.82765 1.34597 1.94635 1.19838 2.18373C1.054 2.41791 0.981806 2.68417 0.981806 2.98251ZM0.365771 10.9896L7.14216 1.13473H8.23947L1.46308 10.9896H0.365771Z" fill="#666666"/>
</svg>
