<svg width="11" height="10" viewBox="0 0 11 10" fill="none" xmlns="http://www.w3.org/2000/svg">
<g id="Group 1000005522">
<g id="Group 1000005523">
<path id="Vector" d="M5.5 0C4.5111 0 3.5444 0.293245 2.72215 0.842652C1.89991 1.39206 1.25904 2.17295 0.880604 3.08658C0.502166 4.00021 0.40315 5.00555 0.596076 5.97545C0.789002 6.94536 1.26521 7.83627 1.96447 8.53553C2.66373 9.23479 3.55464 9.711 4.52455 9.90392C5.49445 10.0969 6.49979 9.99783 7.41342 9.6194C8.32705 9.24096 9.10794 8.60009 9.65735 7.77785C10.2068 6.9556 10.5 5.9889 10.5 5C10.5 3.67392 9.97322 2.40215 9.03553 1.46447C8.09785 0.526784 6.82608 0 5.5 0Z" fill="#72C472"/>
</g>
<path id="Vector_2" d="M7.5 5.5H6V7C6 7.13261 5.94732 7.25978 5.85355 7.35355C5.75978 7.44732 5.63261 7.5 5.5 7.5C5.36739 7.5 5.24021 7.44732 5.14645 7.35355C5.05268 7.25978 5 7.13261 5 7V5.5H3.5C3.36739 5.5 3.24021 5.44732 3.14645 5.35355C3.05268 5.25978 3 5.13261 3 5C3 4.86739 3.05268 4.74021 3.14645 4.64645C3.24021 4.55268 3.36739 4.5 3.5 4.5H5V3C5 2.86739 5.05268 2.74021 5.14645 2.64645C5.24021 2.55268 5.36739 2.5 5.5 2.5C5.63261 2.5 5.75978 2.55268 5.85355 2.64645C5.94732 2.74021 6 2.86739 6 3V4.5H7.5C7.63261 4.5 7.75978 4.55268 7.85355 4.64645C7.94732 4.74021 8 4.86739 8 5C8 5.13261 7.94732 5.25978 7.85355 5.35355C7.75978 5.44732 7.63261 5.5 7.5 5.5Z" fill="white"/>
</g>
</svg>
