<svg width="18" height="16" viewBox="0 0 18 16" fill="none" xmlns="http://www.w3.org/2000/svg">
<path fill-rule="evenodd" clip-rule="evenodd" d="M18 8.30566C18 8.71988 17.6642 9.05566 17.25 9.05566H2.56031L8.03063 14.525C8.32368 14.8181 8.32368 15.2932 8.03063 15.5863C7.73757 15.8793 7.26243 15.8793 6.96937 15.5863L0.219375 8.83629C0.0785422 8.69561 -0.000590086 8.50472 -0.000590086 8.30566C-0.000590086 8.10661 0.0785422 7.91572 0.219375 7.77504L6.96937 1.02504C7.26243 0.731983 7.73757 0.731983 8.03063 1.02504C8.32368 1.3181 8.32368 1.79323 8.03063 2.08629L2.56031 7.55566H17.25C17.6642 7.55566 18 7.89145 18 8.30566Z" fill="#141414"/>
</svg>
