<svg width="40" height="40" viewBox="0 0 40 40" fill="none" xmlns="http://www.w3.org/2000/svg">
<g id="Balance Scale">
<path id="Vector" d="M34.5499 24.4251C34.2627 24.4328 33.9816 24.3413 33.7539 24.166C33.5262 23.9907 33.3659 23.7423 33.2999 23.4626L31.2499 14.3501L29.1624 23.4626C29.0879 23.7833 28.8899 24.0616 28.6114 24.2371C28.3329 24.4126 27.9964 24.4712 27.6749 24.4001C27.5137 24.3646 27.3611 24.2976 27.2259 24.2029C27.0907 24.1081 26.9757 23.9875 26.8873 23.8481C26.799 23.7086 26.7392 23.553 26.7113 23.3903C26.6834 23.2276 26.6881 23.061 26.7249 22.9001L29.9999 8.4751C30.0677 8.20481 30.2238 7.96491 30.4435 7.7935C30.6631 7.62208 30.9338 7.52898 31.2124 7.52898C31.4911 7.52898 31.7617 7.62208 31.9814 7.7935C32.2011 7.96491 32.3572 8.20481 32.4249 8.4751L35.7374 22.9001C35.7743 23.061 35.7789 23.2276 35.7511 23.3903C35.7232 23.553 35.6633 23.7086 35.575 23.8481C35.4867 23.9875 35.3716 24.1081 35.2364 24.2029C35.1013 24.2976 34.9487 24.3646 34.7874 24.4001C34.7095 24.4177 34.6298 24.426 34.5499 24.4251ZM12.0499 24.4251C11.7627 24.4328 11.4816 24.3413 11.2539 24.166C11.0262 23.9907 10.8659 23.7423 10.7999 23.4626L8.74993 14.3501L6.66243 23.4626C6.5879 23.7833 6.38988 24.0616 6.11138 24.2371C5.83287 24.4126 5.49637 24.4712 5.17493 24.4001C5.0137 24.3646 4.8611 24.2976 4.72592 24.2029C4.59074 24.1081 4.47566 23.9875 4.38734 23.8481C4.29901 23.7086 4.23918 23.553 4.21131 23.3903C4.18343 23.2276 4.18806 23.061 4.22493 22.9001L7.49993 8.4751C7.49993 8.14358 7.63163 7.82563 7.86605 7.59121C8.10047 7.35679 8.41841 7.2251 8.74993 7.2251C9.08145 7.2251 9.39939 7.35679 9.63381 7.59121C9.86823 7.82563 9.99993 8.14358 9.99993 8.4751L13.3124 22.9001C13.3493 23.061 13.3539 23.2276 13.3261 23.3903C13.2982 23.553 13.2384 23.7086 13.15 23.8481C13.0617 23.9875 12.9466 24.1081 12.8114 24.2029C12.6763 24.2976 12.5237 24.3646 12.3624 24.4001C12.2602 24.4244 12.1548 24.4328 12.0499 24.4251Z" fill="#ECEEF0"/>
<path id="Vector_2" d="M33.75 10H6.25C5.91848 10 5.60054 9.8683 5.36612 9.63388C5.1317 9.39946 5 9.08152 5 8.75C5 8.41848 5.1317 8.10054 5.36612 7.86612C5.60054 7.6317 5.91848 7.5 6.25 7.5H33.75C34.0815 7.5 34.3995 7.6317 34.6339 7.86612C34.8683 8.10054 35 8.41848 35 8.75C35 9.08152 34.8683 9.39946 34.6339 9.63388C34.3995 9.8683 34.0815 10 33.75 10Z" fill="#70564A"/>
<path id="Vector_3" d="M20 32.5C19.6685 32.5 19.3505 32.3683 19.1161 32.1339C18.8817 31.8995 18.75 31.5815 18.75 31.25V3.75C18.75 3.41848 18.8817 3.10054 19.1161 2.86612C19.3505 2.6317 19.6685 2.5 20 2.5C20.3315 2.5 20.6495 2.6317 20.8839 2.86612C21.1183 3.10054 21.25 3.41848 21.25 3.75V31.25C21.25 31.5815 21.1183 31.8995 20.8839 32.1339C20.6495 32.3683 20.3315 32.5 20 32.5Z" fill="#ECEEF0"/>
<path id="Vector_4" d="M20 11.25C21.3807 11.25 22.5 10.1307 22.5 8.75C22.5 7.36929 21.3807 6.25 20 6.25C18.6193 6.25 17.5 7.36929 17.5 8.75C17.5 10.1307 18.6193 11.25 20 11.25Z" fill="#F4D45A"/>
<path id="Vector_5" d="M36.25 22.5V25C36.25 25.663 35.9866 26.2989 35.5178 26.7678C35.0489 27.2366 34.413 27.5 33.75 27.5H28.75C28.087 27.5 27.4511 27.2366 26.9822 26.7678C26.5134 26.2989 26.25 25.663 26.25 25V22.5H36.25Z" fill="#F4D45A"/>
<path id="Vector_6" d="M11.25 27.5H6.25C5.58696 27.5 4.95107 27.2366 4.48223 26.7678C4.01339 26.2989 3.75 25.663 3.75 25V22.5H13.75V25C13.75 25.663 13.4866 26.2989 13.0178 26.7678C12.5489 27.2366 11.913 27.5 11.25 27.5Z" fill="#F4D45A"/>
<path id="Vector_7" d="M15 31.25H25C25.663 31.25 26.2989 31.5134 26.7678 31.9822C27.2366 32.4511 27.5 33.087 27.5 33.75V35C27.5 35.3315 27.3683 35.6495 27.1339 35.8839C26.8995 36.1183 26.5815 36.25 26.25 36.25H13.75C13.4185 36.25 13.1005 36.1183 12.8661 35.8839C12.6317 35.6495 12.5 35.3315 12.5 35V33.75C12.5 33.087 12.7634 32.4511 13.2322 31.9822C13.7011 31.5134 14.337 31.25 15 31.25Z" fill="#654D43"/>
</g>
</svg>
