<svg width="139" height="222" viewBox="0 0 139 222" fill="none" xmlns="http://www.w3.org/2000/svg">
<path opacity="0.1" fill-rule="evenodd" clip-rule="evenodd" d="M193 1C193 1.5523 192.552 2 192 2H1C0.448 2 0 1.5523 0 1C0 0.4477 0.448 0 1 0H192C192.552 0 193 0.4477 193 1ZM193 9C193 9.5523 192.552 10 192 10H1C0.448 10 0 9.5523 0 9C0 8.4477 0.448 8 1 8H192C192.552 8 193 8.4477 193 9ZM193 17C193 17.5523 192.552 18 192 18H1C0.448 18 0 17.5523 0 17C0 16.4477 0.448 16 1 16H192C192.552 16 193 16.4477 193 17ZM193 25C193 25.5523 192.552 26 192 26H1C0.448 26 0 25.5523 0 25C0 24.4477 0.448 24 1 24H192C192.552 24 193 24.4477 193 25ZM193 33C193 33.5523 192.552 34 192 34H1C0.448 34 0 33.5523 0 33C0 32.4477 0.448 32 1 32H192C192.552 32 193 32.4477 193 33ZM193 41C193 41.5523 192.552 42 192 42H1C0.448 42 0 41.5523 0 41C0 40.4477 0.448 40 1 40H192C192.552 40 193 40.4477 193 41ZM193 49C193 49.5523 192.552 50 192 50H1C0.448 50 0 49.5523 0 49C0 48.4477 0.448 48 1 48H192C192.552 48 193 48.4477 193 49ZM193 57C193 57.552 192.552 58 192 58H1C0.448 58 0 57.552 0 57C0 56.448 0.448 56 1 56H192C192.552 56 193 56.448 193 57ZM193 65C193 65.552 192.552 66 192 66H1C0.448 66 0 65.552 0 65C0 64.448 0.448 64 1 64H192C192.552 64 193 64.448 193 65ZM193 73C193 73.552 192.552 74 192 74H1C0.448 74 0 73.552 0 73C0 72.448 0.448 72 1 72H192C192.552 72 193 72.448 193 73ZM193 81C193 81.552 192.552 82 192 82H1C0.448 82 0 81.552 0 81C0 80.448 0.448 80 1 80H192C192.552 80 193 80.448 193 81ZM193 89C193 89.552 192.552 90 192 90H1C0.448 90 0 89.552 0 89C0 88.448 0.448 88 1 88H192C192.552 88 193 88.448 193 89ZM193 97C193 97.552 192.552 98 192 98H1C0.448 98 0 97.552 0 97C0 96.448 0.448 96 1 96H192C192.552 96 193 96.448 193 97ZM193 105C193 105.552 192.552 106 192 106H1C0.448 106 0 105.552 0 105C0 104.448 0.448 104 1 104H192C192.552 104 193 104.448 193 105ZM193 113C193 113.552 192.552 114 192 114H1C0.448 114 0 113.552 0 113C0 112.448 0.448 112 1 112H192C192.552 112 193 112.448 193 113ZM193 121C193 121.552 192.552 122 192 122H1C0.448 122 0 121.552 0 121C0 120.448 0.448 120 1 120H192C192.552 120 193 120.448 193 121ZM193 129C193 129.552 192.552 130 192 130H1C0.448 130 0 129.552 0 129C0 128.448 0.448 128 1 128H192C192.552 128 193 128.448 193 129ZM193 137C193 137.552 192.552 138 192 138H1C0.448 138 0 137.552 0 137C0 136.448 0.448 136 1 136H192C192.552 136 193 136.448 193 137ZM193 145C193 145.552 192.552 146 192 146H1C0.448 146 0 145.552 0 145C0 144.448 0.448 144 1 144H192C192.552 144 193 144.448 193 145ZM193 153C193 153.552 192.552 154 192 154H1C0.448 154 0 153.552 0 153C0 152.448 0.448 152 1 152H192C192.552 152 193 152.448 193 153ZM193 161C193 161.552 192.552 162 192 162H1C0.448 162 0 161.552 0 161C0 160.448 0.448 160 1 160H192C192.552 160 193 160.448 193 161ZM193 169C193 169.552 192.552 170 192 170H1C0.448 170 0 169.552 0 169C0 168.448 0.448 168 1 168H192C192.552 168 193 168.448 193 169ZM193 177C193 177.552 192.552 178 192 178H1C0.448 178 0 177.552 0 177C0 176.448 0.448 176 1 176H192C192.552 176 193 176.448 193 177ZM193 185C193 185.552 192.552 186 192 186H1C0.448 186 0 185.552 0 185C0 184.448 0.448 184 1 184H192C192.552 184 193 184.448 193 185ZM193 193C193 193.552 192.552 194 192 194H1C0.448 194 0 193.552 0 193C0 192.448 0.448 192 1 192H192C192.552 192 193 192.448 193 193Z" fill="white"/>
<path opacity="0.9" d="M97.8154 221.272C57.6005 221.272 24.9999 188.671 24.9999 148.456C24.9999 108.242 57.6005 75.641 97.8154 75.641C138.03 75.641 170.631 108.242 170.631 148.456C170.631 188.671 138.03 221.272 97.8154 221.272Z" fill="#CAAB38"/>
<path opacity="0.9" d="M102.185 217.631C61.9696 217.631 29.369 185.03 29.369 144.815C29.369 104.601 61.9696 72 102.185 72C142.399 72 175 104.601 175 144.815C175 185.03 142.399 217.631 102.185 217.631Z" fill="url(#paint0_radial_1434_305)"/>
<path d="M102.548 199.428C132.91 199.428 157.524 174.814 157.524 144.452C157.524 114.09 132.91 89.4763 102.548 89.4763C72.1857 89.4763 47.5723 114.09 47.5723 144.452C47.5723 174.814 72.1857 199.428 102.548 199.428Z" fill="url(#paint1_linear_1434_305)"/>
<path d="M108.185 177.583C107.728 177.583 107.499 177.583 107.283 177.534C107.091 177.491 106.906 177.419 106.735 177.322C106.542 177.213 106.373 177.059 106.034 176.752L81.8089 154.768C81.4219 154.417 81.2289 154.242 81.0899 154.032C80.9669 153.846 80.8759 153.641 80.8209 153.425C80.7589 153.181 80.7589 152.92 80.7589 152.398V149.746C80.7589 148.626 80.7589 148.066 80.9769 147.638C81.1689 147.261 81.4749 146.955 81.8509 146.764C82.2789 146.546 82.8389 146.546 83.9589 146.546H91.2909C98.4519 146.546 102.572 144.909 104.485 140.986C104.895 140.145 105.1 139.725 105.004 139.106C104.933 138.646 104.551 138.035 104.169 137.769C103.655 137.412 103.04 137.412 101.809 137.412H83.4029C82.0509 137.412 81.3749 137.412 80.9039 137.133C80.4909 136.889 80.1799 136.505 80.0269 136.051C79.8519 135.532 79.9919 134.871 80.2719 133.549L80.5949 132.026C80.7859 131.122 80.8819 130.67 81.1219 130.332C81.3329 130.034 81.6219 129.799 81.9579 129.654C82.3379 129.489 82.7999 129.489 83.7249 129.489H101.191C102.425 129.489 103.042 129.489 103.588 129.055C103.971 128.751 104.342 127.986 104.344 127.497C104.347 126.799 104.088 126.471 103.57 125.814C101.511 123.202 97.8939 122.126 92.2229 122.126H83.4029C82.0509 122.126 81.3749 122.126 80.9039 121.848C80.4909 121.604 80.1799 121.22 80.0269 120.765C79.8519 120.247 79.9919 119.586 80.2719 118.263L80.5949 116.741C80.7859 115.836 80.8819 115.384 81.1219 115.046C81.3329 114.748 81.6219 114.514 81.9579 114.369C82.3379 114.204 82.7999 114.204 83.7249 114.204H123.133C124.484 114.204 125.16 114.204 125.631 114.482C126.044 114.726 126.355 115.111 126.509 115.565C126.683 116.083 126.543 116.744 126.263 118.067L125.941 119.589C125.749 120.494 125.654 120.946 125.414 121.284C125.202 121.582 124.913 121.816 124.578 121.962C124.197 122.126 123.735 122.126 122.81 122.126H118.85C117.31 122.126 116.54 122.126 116.323 122.175C115.015 122.469 114.622 123.021 114.775 124.353C114.8 124.574 115.133 125.532 115.8 127.448C115.993 128.004 116.089 128.282 116.156 128.409C116.484 129.043 116.939 129.367 117.646 129.469C117.788 129.489 117.978 129.489 118.359 129.489H123.133C124.484 129.489 125.16 129.489 125.631 129.768C126.044 130.012 126.355 130.396 126.509 130.85C126.683 131.369 126.543 132.03 126.263 133.352L125.941 134.875C125.749 135.779 125.654 136.231 125.414 136.569C125.202 136.867 124.913 137.102 124.578 137.247C124.197 137.412 123.735 137.412 122.81 137.412H119.784C118.752 137.412 118.236 137.412 117.854 137.578C117.487 137.739 117.246 137.936 117.016 138.264C116.776 138.605 116.659 139.183 116.425 140.339C115.096 146.889 111.097 151.013 104.246 153.016C101.743 153.748 100.492 154.114 100.093 154.638C99.7109 155.14 99.5999 155.624 99.7249 156.243C99.8539 156.888 100.721 157.673 102.453 159.243L116.55 172.011C118.46 173.742 119.416 174.607 119.501 175.357C119.575 176.007 119.326 176.652 118.835 177.084C118.268 177.583 116.979 177.583 114.401 177.583H108.185Z" fill="#915E11"/>
<defs>
<radialGradient id="paint0_radial_1434_305" cx="0" cy="0" r="1" gradientUnits="userSpaceOnUse" gradientTransform="translate(102.185 144.815) rotate(90) scale(72.8155)">
<stop stop-color="#FFDA7A"/>
<stop offset="0.369792" stop-color="#FFC01F"/>
<stop offset="0.536458" stop-color="#FFF39B"/>
</radialGradient>
<linearGradient id="paint1_linear_1434_305" x1="102.548" y1="89.476" x2="102.548" y2="199.427" gradientUnits="userSpaceOnUse">
<stop stop-color="#F0940B"/>
<stop offset="1" stop-color="#FFA149"/>
</linearGradient>
</defs>
</svg>
