<svg width="311" height="201" viewBox="0 0 311 201" fill="none" xmlns="http://www.w3.org/2000/svg">
<rect x="272" y="39" width="28" height="136" fill="#148564"/>
<path d="M289.677 60.5625C289.677 60.6354 289.604 60.7083 289.531 60.7812C289.458 60.8542 289.385 60.9271 289.312 60.9271C289.24 61 289.094 61 289.021 61H282.458C282.021 61 281.729 60.7083 281.729 60.2708C281.729 59.8333 282.021 59.5417 282.458 59.5417H287.271L281.219 53.4896C280.927 53.1979 280.927 52.7604 281.219 52.4687C281.365 52.3229 281.51 52.25 281.729 52.25C281.948 52.25 282.094 52.3229 282.24 52.4687L288.292 58.5208V53.7083C288.292 53.2708 288.583 52.9792 289.021 52.9792C289.458 52.9792 289.75 53.2708 289.75 53.7083V60.2708C289.75 60.3438 289.75 60.4896 289.677 60.5625Z" fill="white"/>
<path d="M276.369 189.93H277.74L280.337 196.277H280.431L283.033 189.93H284.404V197.93H283.33V192.051H283.251L280.849 197.922H279.919L277.517 192.047H277.443V197.93H276.369V189.93ZM287.868 198.063C287.487 198.063 287.144 197.992 286.836 197.852C286.529 197.708 286.286 197.501 286.106 197.23C285.926 196.957 285.836 196.625 285.836 196.234C285.836 195.891 285.902 195.611 286.032 195.395C286.165 195.178 286.342 195.008 286.563 194.883C286.787 194.755 287.036 194.66 287.309 194.598C287.583 194.533 287.861 194.483 288.145 194.449C288.507 194.405 288.8 194.37 289.024 194.344C289.248 194.315 289.412 194.271 289.516 194.211C289.62 194.148 289.672 194.046 289.672 193.902V193.875C289.672 193.521 289.573 193.246 289.375 193.051C289.178 192.855 288.883 192.758 288.493 192.758C288.084 192.758 287.762 192.848 287.528 193.027C287.296 193.204 287.135 193.4 287.043 193.613L286.016 193.344C286.154 192.979 286.349 192.687 286.602 192.469C286.857 192.25 287.146 192.092 287.469 191.996C287.792 191.9 288.125 191.852 288.469 191.852C288.693 191.852 288.937 191.879 289.2 191.934C289.465 191.986 289.715 192.085 289.95 192.23C290.187 192.376 290.381 192.589 290.532 192.867C290.685 193.143 290.762 193.505 290.762 193.953V197.93H289.692V197.113H289.645C289.575 197.257 289.464 197.402 289.313 197.551C289.165 197.697 288.971 197.819 288.731 197.918C288.494 198.014 288.206 198.063 287.868 198.063ZM288.086 197.164C288.422 197.164 288.709 197.098 288.946 196.965C289.183 196.832 289.362 196.659 289.485 196.445C289.61 196.232 289.672 196.005 289.672 195.766V194.969C289.631 195.013 289.549 195.053 289.426 195.09C289.304 195.124 289.165 195.154 289.008 195.18C288.852 195.206 288.698 195.228 288.547 195.246C288.399 195.264 288.277 195.28 288.18 195.293C287.951 195.324 287.74 195.374 287.547 195.441C287.355 195.509 287.2 195.608 287.083 195.738C286.968 195.866 286.911 196.039 286.911 196.258C286.911 196.555 287.021 196.78 287.243 196.934C287.464 197.087 287.745 197.164 288.086 197.164ZM292.835 200.18C292.666 200.18 292.513 200.167 292.375 200.141C292.239 200.115 292.14 200.086 292.078 200.055L292.343 199.145C292.562 199.202 292.755 199.225 292.921 199.215C293.091 199.204 293.24 199.137 293.371 199.012C293.501 198.889 293.618 198.69 293.722 198.414L293.875 197.992L291.671 191.93H292.843L294.406 196.625H294.468L296.031 191.93H297.207L294.71 198.754C294.596 199.066 294.451 199.328 294.277 199.539C294.102 199.753 293.895 199.913 293.656 200.02C293.419 200.126 293.145 200.18 292.835 200.18Z" fill="#666666"/>
<path d="M271.91 24.6222V23.6385L275.021 18.7273H275.82V20.1442H275.326L273.178 23.5426V23.5994H277.485V24.6222H271.91ZM275.369 26V24.3239L275.383 23.88V18.7273H276.54V26H275.369ZM281.042 18.6278C281.38 18.6302 281.711 18.6906 282.033 18.8089C282.357 18.9273 282.649 19.1203 282.91 19.3878C283.173 19.6529 283.381 20.0092 283.535 20.4567C283.691 20.9041 283.769 21.4605 283.769 22.1257C283.769 22.7554 283.704 23.3165 283.574 23.8089C283.444 24.3014 283.255 24.718 283.009 25.0589C282.765 25.3975 282.471 25.6555 282.125 25.8331C281.779 26.0107 281.391 26.0994 280.96 26.0994C280.51 26.0994 280.111 26.0118 279.763 25.8366C279.418 25.6591 279.137 25.4164 278.922 25.1087C278.709 24.8009 278.576 24.4482 278.524 24.0504H279.735C279.804 24.3487 279.942 24.5878 280.151 24.7678C280.361 24.9453 280.631 25.0341 280.96 25.0341C281.474 25.0341 281.873 24.8104 282.157 24.3629C282.441 23.9131 282.583 23.2869 282.583 22.4844H282.53C282.411 22.6903 282.26 22.8679 282.075 23.017C281.893 23.1662 281.686 23.281 281.454 23.3615C281.224 23.442 280.979 23.4822 280.719 23.4822C280.295 23.4822 279.913 23.3804 279.572 23.1768C279.231 22.9709 278.96 22.6892 278.758 22.3317C278.56 21.9742 278.46 21.5658 278.46 21.1065C278.458 20.6378 278.564 20.2164 278.78 19.8423C278.995 19.4659 279.296 19.1688 279.682 18.951C280.07 18.7308 280.523 18.6231 281.042 18.6278ZM281.045 19.6364C280.78 19.6364 280.542 19.7015 280.332 19.8317C280.121 19.9595 279.954 20.1335 279.831 20.3537C279.71 20.5715 279.65 20.8153 279.65 21.0852C279.65 21.3527 279.709 21.5954 279.827 21.8132C279.948 22.031 280.111 22.2038 280.317 22.3317C280.523 22.4595 280.76 22.5234 281.028 22.5234C281.227 22.5234 281.411 22.4856 281.582 22.4098C281.754 22.3317 281.905 22.2251 282.033 22.0902C282.16 21.9553 282.261 21.8002 282.334 21.625C282.408 21.4498 282.443 21.2663 282.441 21.0746C282.441 20.8189 282.381 20.5821 282.26 20.3643C282.139 20.1442 281.973 19.9678 281.763 19.8352C281.552 19.7027 281.313 19.6364 281.045 19.6364ZM285.392 26.0746C285.184 26.0746 285.005 26.0012 284.856 25.8544C284.709 25.7076 284.637 25.5301 284.639 25.3217C284.637 25.1181 284.709 24.9429 284.856 24.7962C285.005 24.6494 285.184 24.576 285.392 24.576C285.594 24.576 285.769 24.6494 285.918 24.7962C286.067 24.9429 286.142 25.1181 286.142 25.3217C286.142 25.4614 286.106 25.5881 286.035 25.7017C285.966 25.8153 285.875 25.9065 285.762 25.9751C285.65 26.0414 285.527 26.0746 285.392 26.0746ZM287.437 26L290.562 19.8139V19.7607H286.94V18.7273H291.834V19.7891L288.712 26H287.437ZM296.771 24.6364V24.2528C296.771 23.9735 296.829 23.7178 296.945 23.4858C297.063 23.2514 297.235 23.0632 297.46 22.9212C297.687 22.7791 297.962 22.7081 298.284 22.7081C298.613 22.7081 298.89 22.7791 299.115 22.9212C299.339 23.0608 299.509 23.2479 299.622 23.4822C299.738 23.7166 299.796 23.9735 299.796 24.2528V24.6364C299.796 24.9157 299.738 25.1726 299.622 25.407C299.506 25.639 299.335 25.826 299.107 25.968C298.883 26.1101 298.608 26.1811 298.284 26.1811C297.957 26.1811 297.681 26.1101 297.456 25.968C297.231 25.826 297.061 25.639 296.945 25.407C296.829 25.1726 296.771 24.9157 296.771 24.6364ZM297.655 24.2528V24.6364C297.655 24.8305 297.701 25.008 297.794 25.169C297.886 25.3277 298.049 25.407 298.284 25.407C298.516 25.407 298.677 25.3277 298.767 25.169C298.856 25.0104 298.901 24.8329 298.901 24.6364V24.2528C298.901 24.0563 298.858 23.8788 298.77 23.7202C298.685 23.5592 298.523 23.4787 298.284 23.4787C298.056 23.4787 297.894 23.5592 297.797 23.7202C297.702 23.8788 297.655 24.0563 297.655 24.2528ZM293.088 20.4744V20.0909C293.088 19.8116 293.147 19.5547 293.266 19.3203C293.384 19.0859 293.556 18.8989 293.781 18.7592C294.008 18.6172 294.283 18.5462 294.605 18.5462C294.934 18.5462 295.209 18.6172 295.432 18.7592C295.657 18.8989 295.826 19.0859 295.94 19.3203C296.056 19.5547 296.114 19.8116 296.114 20.0909V20.4744C296.114 20.7538 296.056 21.0107 295.94 21.245C295.824 21.477 295.653 21.6641 295.428 21.8061C295.204 21.9458 294.929 22.0156 294.605 22.0156C294.276 22.0156 293.999 21.9458 293.774 21.8061C293.549 21.6641 293.378 21.477 293.262 21.245C293.146 21.0107 293.088 20.7538 293.088 20.4744ZM293.98 20.0909V20.4744C293.98 20.6709 294.026 20.8485 294.118 21.0071C294.21 21.1657 294.373 21.245 294.605 21.245C294.837 21.245 294.998 21.1657 295.088 21.0071C295.178 20.8485 295.222 20.6709 295.222 20.4744V20.0909C295.222 19.8944 295.179 19.7169 295.091 19.5582C295.006 19.3973 294.844 19.3168 294.605 19.3168C294.375 19.3168 294.213 19.3973 294.118 19.5582C294.026 19.7192 293.98 19.8968 293.98 20.0909ZM293.465 26L298.465 18.7273H299.338L294.338 26H293.465Z" fill="black"/>
<rect y="175" width="311" height="1" fill="#DDDDDD" fill-opacity="0.866667"/>
<path d="M13.3784 191.273C13.3341 190.896 13.1558 190.603 12.8433 190.395C12.5334 190.186 12.1453 190.082 11.6792 190.082C11.3433 190.082 11.0516 190.135 10.8042 190.242C10.5568 190.346 10.3641 190.491 10.2261 190.676C10.0907 190.861 10.0229 191.072 10.0229 191.309C10.0229 191.507 10.0698 191.677 10.1636 191.82C10.2573 191.961 10.3797 192.079 10.5308 192.176C10.6844 192.27 10.8472 192.348 11.019 192.41C11.1909 192.47 11.3537 192.52 11.5073 192.559L12.2964 192.77C12.5386 192.829 12.7912 192.911 13.0542 193.016C13.3198 193.12 13.5672 193.258 13.7964 193.43C14.0282 193.599 14.217 193.812 14.3628 194.07C14.5086 194.328 14.5815 194.639 14.5815 195.004C14.5815 195.449 14.4657 195.848 14.2339 196.199C14.0047 196.551 13.6714 196.828 13.2339 197.031C12.7964 197.234 12.2651 197.336 11.6401 197.336C11.0516 197.336 10.5412 197.242 10.1089 197.055C9.6766 196.867 9.33805 196.602 9.09326 196.258C8.84847 195.914 8.71305 195.508 8.68701 195.039H9.83154C9.85758 195.331 9.95394 195.573 10.1206 195.766C10.2899 195.958 10.506 196.102 10.769 196.195C11.0347 196.289 11.3237 196.336 11.6362 196.336C11.9878 196.336 12.3003 196.28 12.5737 196.168C12.8498 196.056 13.0672 195.9 13.2261 195.699C13.3875 195.496 13.4683 195.26 13.4683 194.992C13.4683 194.747 13.3979 194.547 13.2573 194.391C13.1193 194.232 12.9331 194.103 12.6987 194.004C12.467 193.905 12.2104 193.816 11.9292 193.738L10.9683 193.473C10.3328 193.296 9.82894 193.039 9.45654 192.703C9.08675 192.367 8.90186 191.923 8.90186 191.371C8.90186 190.915 9.02555 190.517 9.27295 190.176C9.52295 189.835 9.85889 189.569 10.2808 189.379C10.7052 189.189 11.1805 189.094 11.7065 189.094C12.2404 189.094 12.7118 189.187 13.1206 189.375C13.5321 189.562 13.8576 189.82 14.0972 190.148C14.3368 190.477 14.4618 190.852 14.4722 191.273H13.3784ZM18.5298 197.324C17.9438 197.324 17.4386 197.198 17.0142 196.945C16.5897 196.69 16.2629 196.332 16.0337 195.871C15.8071 195.408 15.6938 194.866 15.6938 194.246C15.6938 193.632 15.8071 193.09 16.0337 192.621C16.2629 192.15 16.5832 191.783 16.9946 191.52C17.4087 191.257 17.8918 191.125 18.4438 191.125C18.7746 191.125 19.0962 191.18 19.4087 191.289C19.7238 191.398 20.0063 191.572 20.2563 191.809C20.509 192.046 20.7082 192.355 20.854 192.738C21.0024 193.121 21.0767 193.587 21.0767 194.137V194.543H16.3501V193.691H19.9946C19.9946 193.376 19.9308 193.095 19.8032 192.848C19.6756 192.6 19.4959 192.405 19.2642 192.262C19.0324 192.118 18.7616 192.047 18.4517 192.047C18.1105 192.047 17.8149 192.13 17.5649 192.297C17.3149 192.464 17.1222 192.681 16.9868 192.949C16.8514 193.215 16.7824 193.503 16.7798 193.812V194.445C16.7798 194.865 16.8527 195.22 16.9985 195.512C17.147 195.801 17.3527 196.022 17.6157 196.176C17.8787 196.327 18.186 196.402 18.5376 196.402C18.7668 196.402 18.9738 196.37 19.1587 196.305C19.3462 196.24 19.5076 196.142 19.6431 196.012C19.7785 195.879 19.8826 195.716 19.9556 195.523L20.9985 195.738C20.9074 196.056 20.7485 196.335 20.522 196.574C20.298 196.811 20.0168 196.996 19.6782 197.129C19.3397 197.259 18.9569 197.324 18.5298 197.324ZM22.4126 199.453V191.203H23.4751V192.168H23.5728C23.6431 192.051 23.7407 191.91 23.8657 191.746C23.9907 191.582 24.1665 191.437 24.3931 191.312C24.6222 191.188 24.9256 191.125 25.3032 191.125C25.7928 191.125 26.2277 191.249 26.6079 191.496C26.9907 191.743 27.2902 192.098 27.5063 192.559C27.7251 193.02 27.8345 193.572 27.8345 194.215C27.8345 194.858 27.7264 195.413 27.5103 195.879C27.2941 196.342 26.9959 196.699 26.6157 196.949C26.2381 197.197 25.8045 197.32 25.3149 197.32C24.9425 197.32 24.6405 197.259 24.4087 197.137C24.1795 197.012 23.9998 196.867 23.8696 196.703C23.742 196.539 23.6431 196.396 23.5728 196.273H23.5024V199.453H22.4126ZM23.4829 194.203C23.4829 194.633 23.5454 195.012 23.6704 195.34C23.7954 195.665 23.9777 195.921 24.2173 196.105C24.4569 196.288 24.7498 196.379 25.0962 196.379C25.4556 196.379 25.7563 196.284 25.9985 196.094C26.2407 195.901 26.423 195.641 26.5454 195.312C26.6704 194.982 26.7329 194.612 26.7329 194.203C26.7329 193.799 26.6717 193.436 26.5493 193.113C26.4295 192.79 26.2485 192.535 26.0063 192.348C25.7642 192.16 25.4608 192.066 25.0962 192.066C24.7446 192.066 24.4491 192.156 24.2095 192.336C23.9699 192.513 23.7889 192.762 23.6665 193.082C23.5441 193.402 23.4829 193.776 23.4829 194.203ZM33.0796 189.203V189.937C33.0796 190.156 33.0392 190.388 32.9585 190.633C32.8778 190.875 32.7632 191.108 32.6147 191.332C32.4663 191.556 32.2905 191.75 32.0874 191.914L31.5327 191.5C31.689 191.273 31.8257 191.034 31.9429 190.781C32.0601 190.526 32.1187 190.25 32.1187 189.953V189.203H33.0796ZM34.2563 197.203V196.383L36.9438 193.551C37.2381 193.236 37.4816 192.96 37.6743 192.723C37.867 192.486 38.0103 192.26 38.104 192.047C38.1978 191.833 38.2446 191.608 38.2446 191.371C38.2446 191.1 38.1808 190.867 38.0532 190.672C37.9256 190.474 37.7511 190.322 37.5298 190.215C37.311 190.105 37.0623 190.051 36.7837 190.051C36.492 190.051 36.2368 190.111 36.0181 190.23C35.8019 190.35 35.634 190.52 35.5142 190.738C35.397 190.954 35.3384 191.21 35.3384 191.504H34.2603C34.2603 191.022 34.3709 190.6 34.5923 190.238C34.8136 189.876 35.117 189.595 35.5024 189.395C35.8879 189.194 36.3241 189.094 36.811 189.094C37.3032 189.094 37.7381 189.194 38.1157 189.395C38.4933 189.592 38.7876 189.862 38.9985 190.203C39.2121 190.542 39.3188 190.923 39.3188 191.348C39.3188 191.645 39.2642 191.935 39.1548 192.219C39.048 192.5 38.8592 192.814 38.5884 193.16C38.3201 193.507 37.9465 193.926 37.4673 194.418L35.8149 196.164V196.223H39.4517V197.203H34.2563ZM40.9702 197.203V196.383L43.6577 193.551C43.952 193.236 44.1955 192.96 44.3882 192.723C44.5809 192.486 44.7241 192.26 44.8179 192.047C44.9116 191.833 44.9585 191.608 44.9585 191.371C44.9585 191.1 44.8947 190.867 44.7671 190.672C44.6395 190.474 44.465 190.322 44.2437 190.215C44.0249 190.105 43.7762 190.051 43.4976 190.051C43.2059 190.051 42.9507 190.111 42.7319 190.23C42.5158 190.35 42.3478 190.52 42.228 190.738C42.1108 190.954 42.0522 191.21 42.0522 191.504H40.9741C40.9741 191.022 41.0848 190.6 41.3062 190.238C41.5275 189.876 41.8309 189.595 42.2163 189.395C42.6017 189.194 43.0379 189.094 43.5249 189.094C44.0171 189.094 44.452 189.194 44.8296 189.395C45.2072 189.592 45.5015 189.862 45.7124 190.203C45.9259 190.542 46.0327 190.923 46.0327 191.348C46.0327 191.645 45.978 191.935 45.8687 192.219C45.7619 192.5 45.5731 192.814 45.3022 193.16C45.034 193.507 44.6603 193.926 44.1812 194.418L42.5288 196.164V196.223H46.1655V197.203H40.9702Z" fill="#666666"/>
<rect x="12" y="27" width="28" height="148" fill="#148564"/>
<path d="M13.5099 16.0994C13.0483 16.0994 12.6352 16.0118 12.2706 15.8366C11.906 15.6591 11.6148 15.4176 11.397 15.1122C11.1816 14.8045 11.0668 14.4517 11.0526 14.054H12.2457C12.2694 14.3594 12.402 14.6091 12.6435 14.8033C12.8849 14.995 13.1738 15.0909 13.5099 15.0909C13.7775 15.0909 14.0154 15.0305 14.2237 14.9098C14.4321 14.7867 14.5954 14.6162 14.7138 14.3984C14.8321 14.1806 14.8913 13.9321 14.8913 13.6527C14.8913 13.3686 14.8298 13.1165 14.7067 12.8963C14.5859 12.6761 14.419 12.5033 14.206 12.3778C13.9929 12.2524 13.7479 12.1884 13.4709 12.1861C13.2531 12.1837 13.0365 12.2228 12.821 12.3033C12.6056 12.3838 12.4328 12.4891 12.3026 12.6193L11.1875 12.4418L11.5781 8.72727H15.7116V9.76065H12.5973L12.3807 11.7351H12.4233C12.5606 11.5836 12.75 11.4581 12.9915 11.3587C13.233 11.2592 13.4957 11.2095 13.7798 11.2095C14.2225 11.2095 14.6167 11.3137 14.9624 11.522C15.308 11.7304 15.5803 12.0168 15.7791 12.3814C15.978 12.7436 16.0774 13.1579 16.0774 13.6243C16.0774 14.1025 15.9685 14.5286 15.7507 14.9027C15.5329 15.2744 15.2311 15.5668 14.8452 15.7798C14.4593 15.9929 14.0142 16.0994 13.5099 16.0994ZM19.8384 16.1314C19.2631 16.1314 18.7707 15.9834 18.3611 15.6875C17.9516 15.3916 17.6379 14.9631 17.4201 14.402C17.2023 13.8385 17.0934 13.1603 17.0934 12.3672C17.0934 11.5765 17.2023 10.9029 17.4201 10.3466C17.6402 9.78788 17.9551 9.36174 18.3647 9.06818C18.7766 8.77462 19.2678 8.62784 19.8384 8.62784C20.4113 8.62784 20.9025 8.77462 21.3121 9.06818C21.7217 9.36174 22.0354 9.78788 22.2532 10.3466C22.4733 10.9053 22.5834 11.5788 22.5834 12.3672C22.5834 13.1626 22.4745 13.8409 22.2567 14.402C22.0389 14.9631 21.7252 15.3916 21.3157 15.6875C20.9061 15.9834 20.4137 16.1314 19.8384 16.1314ZM19.8384 15.0874C20.3095 15.0874 20.68 14.8565 20.9499 14.3949C21.2198 13.9332 21.3535 13.2573 21.3512 12.3672C21.3512 11.7801 21.2896 11.2853 21.1665 10.8828C21.0434 10.478 20.8694 10.1726 20.6445 9.96662C20.4196 9.76065 20.1509 9.65767 19.8384 9.65767C19.372 9.65767 19.0027 9.88968 18.7304 10.3537C18.4605 10.8153 18.3256 11.4865 18.3256 12.3672C18.3256 12.959 18.386 13.4574 18.5067 13.8622C18.6298 14.267 18.8038 14.5724 19.0287 14.7784C19.256 14.9844 19.5259 15.0874 19.8384 15.0874ZM24.1933 16.0746C23.985 16.0746 23.8062 16.0012 23.6571 15.8544C23.5103 15.7076 23.4381 15.5301 23.4404 15.3217C23.4381 15.1181 23.5103 14.9429 23.6571 14.7962C23.8062 14.6494 23.985 14.576 24.1933 14.576C24.3945 14.576 24.5697 14.6494 24.7189 14.7962C24.868 14.9429 24.9426 15.1181 24.9426 15.3217C24.9426 15.4614 24.9071 15.5881 24.836 15.7017C24.7674 15.8153 24.6762 15.9065 24.5626 15.9751C24.4513 16.0414 24.3282 16.0746 24.1933 16.0746ZM28.534 16.0994C28.1954 16.0971 27.864 16.0379 27.5397 15.9219C27.2153 15.8035 26.9218 15.6106 26.659 15.343C26.3986 15.0732 26.1914 14.7133 26.0375 14.2635C25.8837 13.8137 25.8067 13.2538 25.8067 12.5838C25.8067 11.9588 25.8718 11.4013 26.002 10.9112C26.1322 10.4212 26.3193 10.0069 26.5631 9.66832C26.8093 9.32978 27.1052 9.07173 27.4509 8.89418C27.7965 8.71662 28.1848 8.62784 28.6157 8.62784C29.0631 8.62784 29.4596 8.71662 29.8053 8.89418C30.1533 9.06937 30.4338 9.31084 30.6469 9.61861C30.8623 9.92401 30.9973 10.2708 31.0517 10.6591H29.8408C29.7721 10.3703 29.6325 10.1371 29.4218 9.95952C29.2111 9.78196 28.9424 9.69318 28.6157 9.69318C28.0996 9.69318 27.7007 9.91809 27.4189 10.3679C27.1372 10.8153 26.9952 11.4344 26.9928 12.2251H27.0425C27.1632 12.0168 27.3159 11.8393 27.5006 11.6925C27.6853 11.5433 27.8924 11.4285 28.1221 11.348C28.3541 11.2675 28.5991 11.2273 28.8571 11.2273C29.2809 11.2273 29.6632 11.3303 30.0042 11.5362C30.3451 11.7398 30.615 12.0204 30.8138 12.3778C31.015 12.7353 31.1157 13.1449 31.1157 13.6065C31.1157 14.08 31.0079 14.5062 30.7925 14.8849C30.5771 15.2614 30.2752 15.5585 29.887 15.7763C29.5011 15.9941 29.0501 16.1018 28.534 16.0994ZM28.5304 15.0909C28.7956 15.0909 29.0335 15.0258 29.2442 14.8956C29.4549 14.7654 29.6206 14.5902 29.7414 14.37C29.8645 14.1499 29.926 13.9025 29.926 13.6278C29.926 13.3603 29.8668 13.1177 29.7485 12.8999C29.6301 12.6821 29.4667 12.5092 29.2584 12.3814C29.0501 12.2512 28.8133 12.1861 28.5482 12.1861C28.3493 12.1861 28.1635 12.2251 27.9907 12.3033C27.8202 12.379 27.6711 12.4844 27.5432 12.6193C27.4154 12.7519 27.3148 12.9058 27.2414 13.081C27.1703 13.2562 27.1337 13.442 27.1313 13.6385C27.1337 13.8989 27.1952 14.1404 27.3159 14.3629C27.4367 14.5831 27.6012 14.7595 27.8096 14.892C28.0203 15.0246 28.2605 15.0909 28.5304 15.0909ZM35.1323 8.72727V16H33.9036V9.93466H33.861L32.1458 11.0426V9.89915L33.9533 8.72727H35.1323ZM40.7843 14.6364V14.2528C40.7843 13.9735 40.8423 13.7178 40.9583 13.4858C41.0766 13.2514 41.2483 13.0632 41.4732 12.9212C41.7005 12.7791 41.9751 12.7081 42.2971 12.7081C42.6261 12.7081 42.9031 12.7791 43.128 12.9212C43.3529 13.0608 43.5222 13.2479 43.6358 13.4822C43.7518 13.7166 43.8098 13.9735 43.8098 14.2528V14.6364C43.8098 14.9157 43.7518 15.1726 43.6358 15.407C43.5198 15.639 43.3482 15.826 43.1209 15.968C42.896 16.1101 42.6214 16.1811 42.2971 16.1811C41.9703 16.1811 41.6945 16.1101 41.4696 15.968C41.2447 15.826 41.0743 15.639 40.9583 15.407C40.8423 15.1726 40.7843 14.9157 40.7843 14.6364ZM41.6685 14.2528V14.6364C41.6685 14.8305 41.7147 15.008 41.807 15.169C41.8993 15.3277 42.0627 15.407 42.2971 15.407C42.5291 15.407 42.69 15.3277 42.78 15.169C42.87 15.0104 42.915 14.8329 42.915 14.6364V14.2528C42.915 14.0563 42.8712 13.8788 42.7836 13.7202C42.6983 13.5592 42.5362 13.4787 42.2971 13.4787C42.0698 13.4787 41.9076 13.5592 41.8105 13.7202C41.7159 13.8788 41.6685 14.0563 41.6685 14.2528ZM37.1017 10.4744V10.0909C37.1017 9.81155 37.1609 9.55469 37.2793 9.32031C37.3977 9.08594 37.5693 8.89891 37.7942 8.75923C38.0215 8.61719 38.2961 8.54616 38.6181 8.54616C38.9471 8.54616 39.223 8.61719 39.4455 8.75923C39.6704 8.89891 39.8397 9.08594 39.9533 9.32031C40.0693 9.55469 40.1273 9.81155 40.1273 10.0909V10.4744C40.1273 10.7538 40.0693 11.0107 39.9533 11.245C39.8373 11.477 39.6668 11.6641 39.4419 11.8061C39.217 11.9458 38.9424 12.0156 38.6181 12.0156C38.289 12.0156 38.012 11.9458 37.7871 11.8061C37.5622 11.6641 37.3917 11.477 37.2757 11.245C37.1597 11.0107 37.1017 10.7538 37.1017 10.4744ZM37.9931 10.0909V10.4744C37.9931 10.6709 38.0392 10.8485 38.1316 11.0071C38.2239 11.1657 38.3861 11.245 38.6181 11.245C38.8501 11.245 39.0111 11.1657 39.101 11.0071C39.191 10.8485 39.236 10.6709 39.236 10.4744V10.0909C39.236 9.89441 39.1922 9.71686 39.1046 9.55824C39.0194 9.39725 38.8572 9.31676 38.6181 9.31676C38.3884 9.31676 38.2263 9.39725 38.1316 9.55824C38.0392 9.71922 37.9931 9.89678 37.9931 10.0909ZM37.4782 16L42.4782 8.72727H43.3517L38.3517 16H37.4782Z" fill="black"/>
<rect x="79" y="19" width="28" height="156" fill="#148564"/>
<path d="M89.4136 189V197H88.3589L84.1987 191.004H84.1245V197H82.9917V189H84.0542L88.2183 195.004H88.2925V189H89.4136ZM93.6294 197.121C93.0721 197.121 92.5851 196.992 92.1685 196.734C91.7544 196.477 91.4315 196.116 91.1997 195.652C90.9705 195.189 90.856 194.647 90.856 194.027C90.856 193.405 90.9705 192.861 91.1997 192.395C91.4315 191.928 91.7544 191.566 92.1685 191.309C92.5851 191.051 93.0721 190.922 93.6294 190.922C94.1841 190.922 94.6685 191.051 95.0825 191.309C95.4992 191.566 95.8221 191.928 96.0513 192.395C96.283 192.861 96.3989 193.405 96.3989 194.027C96.3989 194.647 96.283 195.189 96.0513 195.652C95.8221 196.116 95.4992 196.477 95.0825 196.734C94.6685 196.992 94.1841 197.121 93.6294 197.121ZM93.6294 196.187C94.0096 196.187 94.3234 196.089 94.5708 195.891C94.8182 195.693 95.0018 195.43 95.1216 195.102C95.2414 194.773 95.3013 194.415 95.3013 194.027C95.3013 193.637 95.2414 193.277 95.1216 192.949C95.0018 192.618 94.8182 192.353 94.5708 192.152C94.3234 191.952 94.0096 191.852 93.6294 191.852C93.2492 191.852 92.9341 191.952 92.6841 192.152C92.4367 192.353 92.2531 192.618 92.1333 192.949C92.0135 193.277 91.9536 193.637 91.9536 194.027C91.9536 194.415 92.0135 194.773 92.1333 195.102C92.2531 195.43 92.4367 195.693 92.6841 195.891C92.9341 196.089 93.2492 196.187 93.6294 196.187ZM102.583 191L100.392 197H99.2397L97.0483 191H98.2241L99.7827 195.668H99.8452L101.408 191H102.583Z" fill="#666666"/>
<path d="M97.3021 32.0625C97.3021 31.9896 97.2292 31.9167 97.1563 31.8438C97.0833 31.7708 97.0104 31.6979 96.9375 31.6979C96.8646 31.625 96.7188 31.625 96.6458 31.625H90.0833C89.6458 31.625 89.3542 31.9167 89.3542 32.3542C89.3542 32.7917 89.6458 33.0833 90.0833 33.0833H94.8958L88.8438 39.1354C88.5521 39.4271 88.5521 39.8646 88.8438 40.1563C88.9896 40.3021 89.1354 40.375 89.3542 40.375C89.5729 40.375 89.7187 40.3021 89.8646 40.1563L95.9167 34.1042V38.9167C95.9167 39.3542 96.2083 39.6458 96.6458 39.6458C97.0833 39.6458 97.375 39.3542 97.375 38.9167V32.3542C97.375 32.2812 97.375 32.1354 97.3021 32.0625Z" fill="white"/>
<path d="M78.1799 9.09943C77.7182 9.09943 77.3051 9.01184 76.9405 8.83665C76.5759 8.65909 76.2847 8.41761 76.0669 8.11222C75.8515 7.80445 75.7367 7.4517 75.7225 7.05398H76.9157C76.9393 7.35937 77.0719 7.60914 77.3134 7.80327C77.5549 7.99503 77.8437 8.09091 78.1799 8.09091C78.4474 8.09091 78.6853 8.03054 78.8936 7.9098C79.102 7.7867 79.2653 7.61624 79.3837 7.39844C79.5021 7.18063 79.5613 6.93205 79.5613 6.6527C79.5613 6.36861 79.4997 6.11648 79.3766 5.89631C79.2559 5.67614 79.089 5.50331 78.8759 5.37784C78.6628 5.25237 78.4178 5.18845 78.1408 5.18608C77.923 5.18371 77.7064 5.22277 77.4909 5.30327C77.2755 5.38376 77.1027 5.48911 76.9725 5.61932L75.8574 5.44176L76.248 1.72727H80.3816V2.76065H77.2672L77.0506 4.73509H77.0932C77.2305 4.58357 77.4199 4.4581 77.6614 4.35866C77.9029 4.25923 78.1657 4.20952 78.4498 4.20952C78.8925 4.20952 79.2866 4.31368 79.6323 4.52202C79.9779 4.73035 80.2502 5.01681 80.449 5.38139C80.6479 5.74361 80.7473 6.15791 80.7473 6.62429C80.7473 7.10251 80.6384 7.52865 80.4206 7.9027C80.2028 8.27438 79.901 8.56676 79.5151 8.77983C79.1292 8.9929 78.6841 9.09943 78.1799 9.09943ZM84.5083 9.13139C83.933 9.13139 83.4406 8.98343 83.031 8.6875C82.6215 8.39157 82.3078 7.96307 82.09 7.40199C81.8722 6.83854 81.7633 6.16027 81.7633 5.36719C81.7633 4.57647 81.8722 3.90294 82.09 3.34659C82.3102 2.78788 82.625 2.36174 83.0346 2.06818C83.4465 1.77462 83.9378 1.62784 84.5083 1.62784C85.0812 1.62784 85.5725 1.77462 85.982 2.06818C86.3916 2.36174 86.7053 2.78788 86.9231 3.34659C87.1433 3.9053 87.2533 4.57884 87.2533 5.36719C87.2533 6.16264 87.1444 6.84091 86.9266 7.40199C86.7088 7.96307 86.3951 8.39157 85.9856 8.6875C85.576 8.98343 85.0836 9.13139 84.5083 9.13139ZM84.5083 8.08736C84.9794 8.08736 85.3499 7.85653 85.6198 7.39489C85.8897 6.93324 86.0235 6.25734 86.0211 5.36719C86.0211 4.78007 85.9595 4.28527 85.8364 3.88281C85.7133 3.47798 85.5393 3.17259 85.3144 2.96662C85.0895 2.76065 84.8208 2.65767 84.5083 2.65767C84.0419 2.65767 83.6726 2.88968 83.4004 3.35369C83.1305 3.81534 82.9955 4.48651 82.9955 5.36719C82.9955 5.95904 83.0559 6.45739 83.1766 6.86222C83.2997 7.26705 83.4737 7.57244 83.6987 7.77841C83.9259 7.98437 84.1958 8.08736 84.5083 8.08736ZM88.8632 9.07457C88.6549 9.07457 88.4761 9.00118 88.327 8.8544C88.1802 8.70762 88.108 8.53007 88.1104 8.32173C88.108 8.11813 88.1802 7.94295 88.327 7.79616C88.4761 7.64938 88.6549 7.57599 88.8632 7.57599C89.0644 7.57599 89.2396 7.64938 89.3888 7.79616C89.5379 7.94295 89.6125 8.11813 89.6125 8.32173C89.6125 8.46141 89.577 8.58807 89.506 8.7017C89.4373 8.81534 89.3462 8.90649 89.2325 8.97514C89.1213 9.04143 88.9982 9.07457 88.8632 9.07457ZM93.2039 9.09943C92.8654 9.09706 92.5339 9.03788 92.2096 8.92188C91.8853 8.8035 91.5917 8.61056 91.3289 8.34304C91.0685 8.07315 90.8613 7.7133 90.7075 7.26349C90.5536 6.81368 90.4766 6.25379 90.4766 5.58381C90.4766 4.95881 90.5417 4.40128 90.6719 3.91122C90.8022 3.42116 90.9892 3.00687 91.233 2.66832C91.4792 2.32978 91.7752 2.07173 92.1208 1.89418C92.4665 1.71662 92.8547 1.62784 93.2856 1.62784C93.733 1.62784 94.1296 1.71662 94.4752 1.89418C94.8232 2.06937 95.1038 2.31084 95.3168 2.61861C95.5323 2.92401 95.6672 3.27083 95.7217 3.65909H94.5107C94.4421 3.37026 94.3024 3.13707 94.0917 2.95952C93.881 2.78196 93.6123 2.69318 93.2856 2.69318C92.7695 2.69318 92.3706 2.91809 92.0888 3.3679C91.8071 3.81534 91.6651 4.43442 91.6627 5.22514H91.7124C91.8332 5.01681 91.9859 4.83925 92.1705 4.69247C92.3552 4.54332 92.5623 4.4285 92.792 4.34801C93.024 4.26752 93.269 4.22727 93.5271 4.22727C93.9508 4.22727 94.3332 4.33026 94.6741 4.53622C95.015 4.73982 95.2849 5.02036 95.4837 5.37784C95.685 5.73532 95.7856 6.14489 95.7856 6.60653C95.7856 7.08002 95.6779 7.50616 95.4624 7.88494C95.247 8.26136 94.9451 8.55848 94.5569 8.77628C94.171 8.99408 93.72 9.1018 93.2039 9.09943ZM93.2004 8.09091C93.4655 8.09091 93.7034 8.0258 93.9141 7.8956C94.1248 7.76539 94.2906 7.5902 94.4113 7.37003C94.5344 7.14986 94.596 6.90246 94.596 6.62784C94.596 6.36032 94.5368 6.11766 94.4184 5.89986C94.3 5.68205 94.1367 5.50923 93.9283 5.38139C93.72 5.25118 93.4833 5.18608 93.2181 5.18608C93.0192 5.18608 92.8334 5.22514 92.6606 5.30327C92.4901 5.37902 92.341 5.48438 92.2131 5.61932C92.0853 5.75189 91.9847 5.90578 91.9113 6.08097C91.8403 6.25616 91.8036 6.442 91.8012 6.63849C91.8036 6.89891 91.8651 7.14039 91.9859 7.36293C92.1066 7.5831 92.2711 7.75947 92.4795 7.89205C92.6902 8.02462 92.9305 8.09091 93.2004 8.09091ZM99.5395 9.09943C99.2009 9.09706 98.8695 9.03788 98.5451 8.92188C98.2208 8.8035 97.9272 8.61056 97.6645 8.34304C97.404 8.07315 97.1969 7.7133 97.043 7.26349C96.8891 6.81368 96.8122 6.25379 96.8122 5.58381C96.8122 4.95881 96.8773 4.40128 97.0075 3.91122C97.1377 3.42116 97.3247 3.00687 97.5686 2.66832C97.8148 2.32978 98.1107 2.07173 98.4564 1.89418C98.802 1.71662 99.1903 1.62784 99.6211 1.62784C100.069 1.62784 100.465 1.71662 100.811 1.89418C101.159 2.06937 101.439 2.31084 101.652 2.61861C101.868 2.92401 102.003 3.27083 102.057 3.65909H100.846C100.778 3.37026 100.638 3.13707 100.427 2.95952C100.217 2.78196 99.9478 2.69318 99.6211 2.69318C99.105 2.69318 98.7061 2.91809 98.4244 3.3679C98.1427 3.81534 98.0006 4.43442 97.9983 5.22514H98.048C98.1687 5.01681 98.3214 4.83925 98.5061 4.69247C98.6907 4.54332 98.8979 4.4285 99.1275 4.34801C99.3595 4.26752 99.6046 4.22727 99.8626 4.22727C100.286 4.22727 100.669 4.33026 101.01 4.53622C101.351 4.73982 101.62 5.02036 101.819 5.37784C102.021 5.73532 102.121 6.14489 102.121 6.60653C102.121 7.08002 102.013 7.50616 101.798 7.88494C101.583 8.26136 101.281 8.55848 100.892 8.77628C100.507 8.99408 100.056 9.1018 99.5395 9.09943ZM99.5359 8.09091C99.8011 8.09091 100.039 8.0258 100.25 7.8956C100.46 7.76539 100.626 7.5902 100.747 7.37003C100.87 7.14986 100.931 6.90246 100.931 6.62784C100.931 6.36032 100.872 6.11766 100.754 5.89986C100.636 5.68205 100.472 5.50923 100.264 5.38139C100.056 5.25118 99.8188 5.18608 99.5537 5.18608C99.3548 5.18608 99.169 5.22514 98.9961 5.30327C98.8257 5.37902 98.6765 5.48438 98.5487 5.61932C98.4208 5.75189 98.3202 5.90578 98.2468 6.08097C98.1758 6.25616 98.1391 6.442 98.1368 6.63849C98.1391 6.89891 98.2007 7.14039 98.3214 7.36293C98.4422 7.5831 98.6067 7.75947 98.815 7.89205C99.0257 8.02462 99.266 8.09091 99.5359 8.09091ZM107.114 7.63636V7.25284C107.114 6.97348 107.172 6.7178 107.288 6.4858C107.407 6.25142 107.578 6.06321 107.803 5.92116C108.031 5.77912 108.305 5.7081 108.627 5.7081C108.956 5.7081 109.233 5.77912 109.458 5.92116C109.683 6.06084 109.852 6.24787 109.966 6.48224C110.082 6.71662 110.14 6.97348 110.14 7.25284V7.63636C110.14 7.91572 110.082 8.17259 109.966 8.40696C109.85 8.63897 109.678 8.82599 109.451 8.96804C109.226 9.11009 108.951 9.18111 108.627 9.18111C108.3 9.18111 108.025 9.11009 107.8 8.96804C107.575 8.82599 107.404 8.63897 107.288 8.40696C107.172 8.17259 107.114 7.91572 107.114 7.63636ZM107.999 7.25284V7.63636C107.999 7.83049 108.045 8.00805 108.137 8.16903C108.229 8.32765 108.393 8.40696 108.627 8.40696C108.859 8.40696 109.02 8.32765 109.11 8.16903C109.2 8.01042 109.245 7.83286 109.245 7.63636V7.25284C109.245 7.05634 109.201 6.87879 109.114 6.72017C109.028 6.55919 108.866 6.47869 108.627 6.47869C108.4 6.47869 108.238 6.55919 108.141 6.72017C108.046 6.87879 107.999 7.05634 107.999 7.25284ZM103.432 3.47443V3.09091C103.432 2.81155 103.491 2.55469 103.609 2.32031C103.728 2.08594 103.899 1.89891 104.124 1.75923C104.352 1.61719 104.626 1.54616 104.948 1.54616C105.277 1.54616 105.553 1.61719 105.776 1.75923C106 1.89891 106.17 2.08594 106.283 2.32031C106.399 2.55469 106.457 2.81155 106.457 3.09091V3.47443C106.457 3.75379 106.399 4.01065 106.283 4.24503C106.167 4.47704 105.997 4.66406 105.772 4.80611C105.547 4.94579 105.272 5.01562 104.948 5.01562C104.619 5.01562 104.342 4.94579 104.117 4.80611C103.892 4.66406 103.722 4.47704 103.606 4.24503C103.49 4.01065 103.432 3.75379 103.432 3.47443ZM104.323 3.09091V3.47443C104.323 3.67093 104.369 3.84848 104.462 4.0071C104.554 4.16572 104.716 4.24503 104.948 4.24503C105.18 4.24503 105.341 4.16572 105.431 4.0071C105.521 3.84848 105.566 3.67093 105.566 3.47443V3.09091C105.566 2.89441 105.522 2.71686 105.435 2.55824C105.349 2.39725 105.187 2.31676 104.948 2.31676C104.719 2.31676 104.556 2.39725 104.462 2.55824C104.369 2.71922 104.323 2.89678 104.323 3.09091ZM103.808 9L108.808 1.72727H109.682L104.682 9H103.808Z" fill="black"/>
<rect x="144" y="25" width="28" height="150" fill="#148564"/>
<path d="M161.677 44.5625C161.677 44.6354 161.604 44.7083 161.531 44.7812C161.458 44.8542 161.385 44.9271 161.312 44.9271C161.24 45 161.094 45 161.021 45H154.458C154.021 45 153.729 44.7083 153.729 44.2708C153.729 43.8333 154.021 43.5417 154.458 43.5417H159.271L153.219 37.4896C152.927 37.1979 152.927 36.7604 153.219 36.4687C153.365 36.3229 153.51 36.25 153.729 36.25C153.948 36.25 154.094 36.3229 154.24 36.4687L160.292 42.5208V37.7083C160.292 37.2708 160.583 36.9792 161.021 36.9792C161.458 36.9792 161.75 37.2708 161.75 37.7083V44.2708C161.75 44.3438 161.75 44.4896 161.677 44.5625Z" fill="white"/>
<path d="M143.158 189.195H144.291V194.883C144.291 195.393 144.192 195.829 143.994 196.191C143.796 196.553 143.519 196.829 143.162 197.02C142.805 197.21 142.386 197.305 141.904 197.305C141.456 197.305 141.055 197.224 140.701 197.062C140.35 196.898 140.072 196.663 139.869 196.355C139.666 196.046 139.564 195.672 139.564 195.234H140.686C140.688 195.458 140.742 195.652 140.846 195.816C140.952 195.978 141.098 196.104 141.283 196.195C141.471 196.286 141.684 196.332 141.924 196.332C142.187 196.332 142.41 196.277 142.592 196.168C142.777 196.056 142.917 195.892 143.014 195.676C143.11 195.46 143.158 195.195 143.158 194.883V189.195ZM147.75 197.328C147.37 197.328 147.026 197.258 146.719 197.117C146.411 196.974 146.168 196.767 145.988 196.496C145.809 196.223 145.719 195.891 145.719 195.5C145.719 195.156 145.784 194.876 145.914 194.66C146.047 194.444 146.224 194.273 146.445 194.148C146.669 194.021 146.918 193.926 147.191 193.863C147.465 193.798 147.743 193.749 148.027 193.715C148.389 193.671 148.682 193.635 148.906 193.609C149.13 193.581 149.294 193.536 149.398 193.477C149.503 193.414 149.555 193.311 149.555 193.168V193.141C149.555 192.786 149.456 192.512 149.258 192.316C149.06 192.121 148.766 192.023 148.375 192.023C147.966 192.023 147.645 192.113 147.41 192.293C147.178 192.47 147.017 192.665 146.926 192.879L145.898 192.609C146.036 192.245 146.232 191.953 146.484 191.734C146.74 191.516 147.029 191.358 147.352 191.262C147.674 191.165 148.008 191.117 148.352 191.117C148.576 191.117 148.819 191.145 149.082 191.199C149.348 191.251 149.598 191.35 149.832 191.496C150.069 191.642 150.263 191.854 150.414 192.133C150.568 192.409 150.645 192.771 150.645 193.219V197.195H149.574V196.379H149.527C149.457 196.522 149.346 196.668 149.195 196.816C149.047 196.962 148.853 197.085 148.613 197.184C148.376 197.28 148.089 197.328 147.75 197.328ZM147.969 196.43C148.305 196.43 148.591 196.363 148.828 196.23C149.065 196.098 149.245 195.924 149.367 195.711C149.492 195.497 149.555 195.271 149.555 195.031V194.234C149.513 194.279 149.431 194.319 149.309 194.355C149.186 194.389 149.047 194.419 148.891 194.445C148.734 194.471 148.581 194.493 148.43 194.512C148.281 194.53 148.159 194.546 148.062 194.559C147.833 194.59 147.622 194.639 147.43 194.707C147.237 194.775 147.082 194.874 146.965 195.004C146.85 195.132 146.793 195.305 146.793 195.523C146.793 195.82 146.904 196.046 147.125 196.199C147.346 196.353 147.628 196.43 147.969 196.43ZM153.331 193.617V197.195H152.241V191.195H153.288V192.16H153.366C153.504 191.845 153.719 191.592 154.011 191.402C154.305 191.212 154.677 191.117 155.128 191.117C155.537 191.117 155.894 191.202 156.198 191.371C156.506 191.54 156.744 191.793 156.913 192.129C157.082 192.462 157.167 192.879 157.167 193.379V197.195H156.077V193.496C156.077 193.048 155.961 192.699 155.729 192.449C155.498 192.199 155.179 192.074 154.772 192.074C154.494 192.074 154.246 192.134 154.03 192.254C153.814 192.374 153.644 192.549 153.519 192.781C153.394 193.01 153.331 193.289 153.331 193.617ZM162.683 189.195V189.93C162.683 190.148 162.642 190.38 162.562 190.625C162.481 190.867 162.366 191.1 162.218 191.324C162.069 191.548 161.894 191.742 161.69 191.906L161.136 191.492C161.292 191.266 161.429 191.026 161.546 190.773C161.663 190.518 161.722 190.242 161.722 189.945V189.195H162.683ZM163.859 197.195V196.375L166.547 193.543C166.841 193.228 167.085 192.952 167.277 192.715C167.47 192.478 167.613 192.253 167.707 192.039C167.801 191.826 167.848 191.6 167.848 191.363C167.848 191.092 167.784 190.859 167.656 190.664C167.529 190.466 167.354 190.314 167.133 190.207C166.914 190.098 166.665 190.043 166.387 190.043C166.095 190.043 165.84 190.103 165.621 190.223C165.405 190.342 165.237 190.512 165.117 190.73C165 190.947 164.941 191.202 164.941 191.496H163.863C163.863 191.014 163.974 190.592 164.195 190.23C164.417 189.868 164.72 189.587 165.105 189.387C165.491 189.186 165.927 189.086 166.414 189.086C166.906 189.086 167.341 189.186 167.719 189.387C168.096 189.585 168.391 189.854 168.602 190.195C168.815 190.534 168.922 190.915 168.922 191.34C168.922 191.637 168.867 191.927 168.758 192.211C168.651 192.492 168.462 192.806 168.191 193.152C167.923 193.499 167.549 193.918 167.07 194.41L165.418 196.156V196.215H169.055V197.195H163.859ZM173.331 197.305C172.8 197.305 172.327 197.214 171.913 197.031C171.499 196.849 171.171 196.595 170.929 196.27C170.689 195.944 170.56 195.566 170.542 195.137H171.69C171.709 195.379 171.791 195.589 171.937 195.766C172.085 195.943 172.279 196.081 172.519 196.18C172.761 196.276 173.029 196.324 173.323 196.324C173.646 196.324 173.933 196.268 174.183 196.156C174.433 196.042 174.628 195.884 174.769 195.684C174.912 195.48 174.983 195.246 174.983 194.98C174.983 194.704 174.913 194.461 174.772 194.25C174.634 194.039 174.431 193.874 174.163 193.754C173.897 193.634 173.573 193.574 173.19 193.574H172.526V192.625H173.19C173.493 192.625 173.758 192.572 173.987 192.465C174.219 192.355 174.4 192.203 174.53 192.008C174.663 191.81 174.729 191.578 174.729 191.313C174.729 191.057 174.672 190.836 174.558 190.648C174.443 190.458 174.282 190.31 174.073 190.203C173.868 190.096 173.625 190.043 173.347 190.043C173.084 190.043 172.836 190.091 172.604 190.187C172.373 190.284 172.184 190.422 172.038 190.602C171.895 190.781 171.817 190.997 171.804 191.25H170.71C170.723 190.82 170.851 190.444 171.093 190.121C171.335 189.796 171.653 189.542 172.046 189.359C172.442 189.177 172.881 189.086 173.362 189.086C173.87 189.086 174.308 189.186 174.675 189.387C175.045 189.585 175.328 189.849 175.526 190.18C175.727 190.508 175.826 190.866 175.823 191.254C175.826 191.702 175.703 192.083 175.456 192.398C175.211 192.711 174.882 192.923 174.468 193.035V193.098C174.991 193.181 175.397 193.395 175.687 193.738C175.978 194.079 176.123 194.503 176.12 195.008C176.123 195.445 176.003 195.839 175.761 196.187C175.519 196.534 175.188 196.807 174.769 197.008C174.349 197.206 173.87 197.305 173.331 197.305Z" fill="#666666"/>
<path d="M143.307 15.0994C142.845 15.0994 142.432 15.0118 142.067 14.8366C141.703 14.6591 141.412 14.4176 141.194 14.1122C140.978 13.8045 140.864 13.4517 140.849 13.054H142.043C142.066 13.3594 142.199 13.6091 142.44 13.8033C142.682 13.995 142.971 14.0909 143.307 14.0909C143.574 14.0909 143.812 14.0305 144.021 13.9098C144.229 13.7867 144.392 13.6162 144.511 13.3984C144.629 13.1806 144.688 12.9321 144.688 12.6527C144.688 12.3686 144.627 12.1165 144.504 11.8963C144.383 11.6761 144.216 11.5033 144.003 11.3778C143.79 11.2524 143.545 11.1884 143.268 11.1861C143.05 11.1837 142.833 11.2228 142.618 11.3033C142.402 11.3838 142.23 11.4891 142.099 11.6193L140.984 11.4418L141.375 7.72727H145.509V8.76065H142.394L142.178 10.7351H142.22C142.357 10.5836 142.547 10.4581 142.788 10.3587C143.03 10.2592 143.293 10.2095 143.577 10.2095C144.019 10.2095 144.414 10.3137 144.759 10.522C145.105 10.7304 145.377 11.0168 145.576 11.3814C145.775 11.7436 145.874 12.1579 145.874 12.6243C145.874 13.1025 145.765 13.5286 145.548 13.9027C145.33 14.2744 145.028 14.5668 144.642 14.7798C144.256 14.9929 143.811 15.0994 143.307 15.0994ZM149.635 15.1314C149.06 15.1314 148.568 14.9834 148.158 14.6875C147.748 14.3916 147.435 13.9631 147.217 13.402C146.999 12.8385 146.89 12.1603 146.89 11.3672C146.89 10.5765 146.999 9.90294 147.217 9.34659C147.437 8.78788 147.752 8.36174 148.162 8.06818C148.573 7.77462 149.065 7.62784 149.635 7.62784C150.208 7.62784 150.699 7.77462 151.109 8.06818C151.519 8.36174 151.832 8.78788 152.05 9.34659C152.27 9.9053 152.38 10.5788 152.38 11.3672C152.38 12.1626 152.271 12.8409 152.054 13.402C151.836 13.9631 151.522 14.3916 151.113 14.6875C150.703 14.9834 150.211 15.1314 149.635 15.1314ZM149.635 14.0874C150.106 14.0874 150.477 13.8565 150.747 13.3949C151.017 12.9332 151.15 12.2573 151.148 11.3672C151.148 10.7801 151.086 10.2853 150.963 9.88281C150.84 9.47798 150.666 9.17259 150.441 8.96662C150.216 8.76065 149.948 8.65767 149.635 8.65767C149.169 8.65767 148.8 8.88968 148.527 9.35369C148.257 9.81534 148.122 10.4865 148.122 11.3672C148.122 11.959 148.183 12.4574 148.304 12.8622C148.427 13.267 148.601 13.5724 148.826 13.7784C149.053 13.9844 149.323 14.0874 149.635 14.0874ZM153.99 15.0746C153.782 15.0746 153.603 15.0012 153.454 14.8544C153.307 14.7076 153.235 14.5301 153.237 14.3217C153.235 14.1181 153.307 13.9429 153.454 13.7962C153.603 13.6494 153.782 13.576 153.99 13.576C154.191 13.576 154.367 13.6494 154.516 13.7962C154.665 13.9429 154.739 14.1181 154.739 14.3217C154.739 14.4614 154.704 14.5881 154.633 14.7017C154.564 14.8153 154.473 14.9065 154.359 14.9751C154.248 15.0414 154.125 15.0746 153.99 15.0746ZM158.331 15.0994C157.992 15.0971 157.661 15.0379 157.337 14.9219C157.012 14.8035 156.719 14.6106 156.456 14.343C156.195 14.0732 155.988 13.7133 155.834 13.2635C155.681 12.8137 155.604 12.2538 155.604 11.5838C155.604 10.9588 155.669 10.4013 155.799 9.91122C155.929 9.42116 156.116 9.00687 156.36 8.66832C156.606 8.32978 156.902 8.07173 157.248 7.89418C157.593 7.71662 157.982 7.62784 158.413 7.62784C158.86 7.62784 159.257 7.71662 159.602 7.89418C159.95 8.06937 160.231 8.31084 160.444 8.61861C160.659 8.92401 160.794 9.27083 160.849 9.65909H159.638C159.569 9.37026 159.429 9.13707 159.219 8.95952C159.008 8.78196 158.739 8.69318 158.413 8.69318C157.896 8.69318 157.498 8.91809 157.216 9.3679C156.934 9.81534 156.792 10.4344 156.79 11.2251H156.839C156.96 11.0168 157.113 10.8393 157.297 10.6925C157.482 10.5433 157.689 10.4285 157.919 10.348C158.151 10.2675 158.396 10.2273 158.654 10.2273C159.078 10.2273 159.46 10.3303 159.801 10.5362C160.142 10.7398 160.412 11.0204 160.611 11.3778C160.812 11.7353 160.913 12.1449 160.913 12.6065C160.913 13.08 160.805 13.5062 160.589 13.8849C160.374 14.2614 160.072 14.5585 159.684 14.7763C159.298 14.9941 158.847 15.1018 158.331 15.0994ZM158.327 14.0909C158.592 14.0909 158.83 14.0258 159.041 13.8956C159.252 13.7654 159.418 13.5902 159.538 13.37C159.661 13.1499 159.723 12.9025 159.723 12.6278C159.723 12.3603 159.664 12.1177 159.545 11.8999C159.427 11.6821 159.264 11.5092 159.055 11.3814C158.847 11.2512 158.61 11.1861 158.345 11.1861C158.146 11.1861 157.96 11.2251 157.788 11.3033C157.617 11.379 157.468 11.4844 157.34 11.6193C157.212 11.7519 157.112 11.9058 157.038 12.081C156.967 12.2562 156.931 12.442 156.928 12.6385C156.931 12.8989 156.992 13.1404 157.113 13.3629C157.234 13.5831 157.398 13.7595 157.606 13.892C157.817 14.0246 158.057 14.0909 158.327 14.0909ZM162.053 15V14.1122L164.553 11.6051C164.801 11.3494 165.008 11.1233 165.174 10.9268C165.34 10.728 165.464 10.5374 165.547 10.3551C165.63 10.1728 165.671 9.97869 165.671 9.77273C165.671 9.53835 165.617 9.33594 165.508 9.16548C165.399 8.99503 165.25 8.86364 165.061 8.77131C164.874 8.67898 164.662 8.63281 164.425 8.63281C164.176 8.63281 163.96 8.68371 163.775 8.78551C163.59 8.88731 163.447 9.03172 163.345 9.21875C163.244 9.40341 163.193 9.6224 163.193 9.87571H162.028C162.028 9.42353 162.131 9.02936 162.337 8.69318C162.543 8.35464 162.828 8.09304 163.193 7.90838C163.56 7.72135 163.977 7.62784 164.446 7.62784C164.922 7.62784 165.34 7.71899 165.7 7.90128C166.06 8.08357 166.34 8.33215 166.541 8.64702C166.743 8.96188 166.843 9.31818 166.843 9.71591C166.843 9.98816 166.792 10.2557 166.691 10.5185C166.589 10.7789 166.409 11.0689 166.151 11.3885C165.895 11.7057 165.538 12.0904 165.078 12.5426L163.747 13.9134V13.9666H166.957V15H162.053ZM171.987 13.6364V13.2528C171.987 12.9735 172.045 12.7178 172.161 12.4858C172.28 12.2514 172.451 12.0632 172.676 11.9212C172.904 11.7791 173.178 11.7081 173.5 11.7081C173.829 11.7081 174.106 11.7791 174.331 11.9212C174.556 12.0608 174.725 12.2479 174.839 12.4822C174.955 12.7166 175.013 12.9735 175.013 13.2528V13.6364C175.013 13.9157 174.955 14.1726 174.839 14.407C174.723 14.639 174.551 14.826 174.324 14.968C174.099 15.1101 173.825 15.1811 173.5 15.1811C173.173 15.1811 172.898 15.1101 172.673 14.968C172.448 14.826 172.277 14.639 172.161 14.407C172.045 14.1726 171.987 13.9157 171.987 13.6364ZM172.872 13.2528V13.6364C172.872 13.8305 172.918 14.008 173.01 14.169C173.102 14.3277 173.266 14.407 173.5 14.407C173.732 14.407 173.893 14.3277 173.983 14.169C174.073 14.0104 174.118 13.8329 174.118 13.6364V13.2528C174.118 13.0563 174.074 12.8788 173.987 12.7202C173.901 12.5592 173.739 12.4787 173.5 12.4787C173.273 12.4787 173.111 12.5592 173.014 12.7202C172.919 12.8788 172.872 13.0563 172.872 13.2528ZM168.305 9.47443V9.09091C168.305 8.81155 168.364 8.55469 168.482 8.32031C168.601 8.08594 168.772 7.89891 168.997 7.75923C169.225 7.61719 169.499 7.54616 169.821 7.54616C170.15 7.54616 170.426 7.61719 170.649 7.75923C170.874 7.89891 171.043 8.08594 171.156 8.32031C171.272 8.55469 171.33 8.81155 171.33 9.09091V9.47443C171.33 9.75379 171.272 10.0107 171.156 10.245C171.04 10.477 170.87 10.6641 170.645 10.8061C170.42 10.9458 170.146 11.0156 169.821 11.0156C169.492 11.0156 169.215 10.9458 168.99 10.8061C168.765 10.6641 168.595 10.477 168.479 10.245C168.363 10.0107 168.305 9.75379 168.305 9.47443ZM169.196 9.09091V9.47443C169.196 9.67093 169.242 9.84848 169.335 10.0071C169.427 10.1657 169.589 10.245 169.821 10.245C170.053 10.245 170.214 10.1657 170.304 10.0071C170.394 9.84848 170.439 9.67093 170.439 9.47443V9.09091C170.439 8.89441 170.395 8.71686 170.308 8.55824C170.222 8.39725 170.06 8.31676 169.821 8.31676C169.592 8.31676 169.429 8.39725 169.335 8.55824C169.242 8.71922 169.196 8.89678 169.196 9.09091ZM168.681 15L173.681 7.72727H174.555L169.555 15H168.681Z" fill="black"/>
<rect x="209" y="27" width="28" height="148" fill="#148564"/>
<path d="M226.677 48.5625C226.677 48.6354 226.604 48.7083 226.531 48.7812C226.458 48.8542 226.385 48.9271 226.312 48.9271C226.24 49 226.094 49 226.021 49H219.458C219.021 49 218.729 48.7083 218.729 48.2708C218.729 47.8333 219.021 47.5417 219.458 47.5417H224.271L218.219 41.4896C217.927 41.1979 217.927 40.7604 218.219 40.4687C218.365 40.3229 218.51 40.25 218.729 40.25C218.948 40.25 219.094 40.3229 219.24 40.4687L225.292 46.5208V41.7083C225.292 41.2708 225.583 40.9792 226.021 40.9792C226.458 40.9792 226.75 41.2708 226.75 41.7083V48.2708C226.75 48.3438 226.75 48.4896 226.677 48.5625Z" fill="white"/>
<path d="M213.266 189.469H214.637L217.234 195.816H217.328L219.93 189.469H221.301V197.469H220.227V191.59H220.148L217.746 197.461H216.816L214.414 191.586H214.34V197.469H213.266V189.469ZM224.765 197.602C224.384 197.602 224.041 197.531 223.733 197.391C223.426 197.247 223.183 197.04 223.003 196.77C222.823 196.496 222.733 196.164 222.733 195.773C222.733 195.43 222.799 195.15 222.929 194.934C223.062 194.717 223.239 194.547 223.46 194.422C223.684 194.294 223.933 194.199 224.206 194.137C224.479 194.072 224.758 194.022 225.042 193.988C225.404 193.944 225.697 193.909 225.921 193.883C226.145 193.854 226.309 193.81 226.413 193.75C226.517 193.688 226.569 193.585 226.569 193.441V193.414C226.569 193.06 226.47 192.785 226.272 192.59C226.075 192.395 225.78 192.297 225.39 192.297C224.981 192.297 224.659 192.387 224.425 192.566C224.193 192.743 224.032 192.939 223.94 193.152L222.913 192.883C223.051 192.518 223.246 192.227 223.499 192.008C223.754 191.789 224.043 191.632 224.366 191.535C224.689 191.439 225.022 191.391 225.366 191.391C225.59 191.391 225.834 191.418 226.097 191.473C226.362 191.525 226.612 191.624 226.847 191.77C227.084 191.915 227.278 192.128 227.429 192.406C227.582 192.682 227.659 193.044 227.659 193.492V197.469H226.589V196.652H226.542C226.472 196.796 226.361 196.941 226.21 197.09C226.062 197.236 225.868 197.358 225.628 197.457C225.391 197.553 225.103 197.602 224.765 197.602ZM224.983 196.703C225.319 196.703 225.606 196.637 225.843 196.504C226.08 196.371 226.259 196.198 226.382 195.984C226.507 195.771 226.569 195.544 226.569 195.305V194.508C226.528 194.552 226.446 194.592 226.323 194.629C226.201 194.663 226.062 194.693 225.905 194.719C225.749 194.745 225.595 194.767 225.444 194.785C225.296 194.803 225.174 194.819 225.077 194.832C224.848 194.863 224.637 194.913 224.444 194.98C224.252 195.048 224.097 195.147 223.979 195.277C223.865 195.405 223.808 195.578 223.808 195.797C223.808 196.094 223.918 196.319 224.14 196.473C224.361 196.626 224.642 196.703 224.983 196.703ZM229.256 197.469V191.469H230.311V192.406H230.373C230.482 192.094 230.676 191.845 230.955 191.66C231.236 191.473 231.554 191.379 231.908 191.379C231.979 191.379 232.063 191.382 232.162 191.387C232.264 191.389 232.343 191.395 232.4 191.402V192.465C232.359 192.452 232.279 192.437 232.162 192.422C232.045 192.404 231.926 192.395 231.807 192.395C231.525 192.395 231.274 192.453 231.053 192.57C230.834 192.687 230.661 192.85 230.533 193.059C230.408 193.264 230.346 193.5 230.346 193.766V197.469H229.256Z" fill="#666666"/>
<path d="M208.468 19.0994C208.006 19.0994 207.593 19.0118 207.229 18.8366C206.864 18.6591 206.573 18.4176 206.355 18.1122C206.14 17.8045 206.025 17.4517 206.011 17.054H207.204C207.227 17.3594 207.36 17.6091 207.601 17.8033C207.843 17.995 208.132 18.0909 208.468 18.0909C208.735 18.0909 208.973 18.0305 209.182 17.9098C209.39 17.7867 209.553 17.6162 209.672 17.3984C209.79 17.1806 209.849 16.9321 209.849 16.6527C209.849 16.3686 209.788 16.1165 209.665 15.8963C209.544 15.6761 209.377 15.5033 209.164 15.3778C208.951 15.2524 208.706 15.1884 208.429 15.1861C208.211 15.1837 207.994 15.2228 207.779 15.3033C207.564 15.3838 207.391 15.4891 207.261 15.6193L206.146 15.4418L206.536 11.7273H210.67V12.7607H207.555L207.339 14.7351H207.381C207.519 14.5836 207.708 14.4581 207.949 14.3587C208.191 14.2592 208.454 14.2095 208.738 14.2095C209.181 14.2095 209.575 14.3137 209.92 14.522C210.266 14.7304 210.538 15.0168 210.737 15.3814C210.936 15.7436 211.035 16.1579 211.035 16.6243C211.035 17.1025 210.927 17.5286 210.709 17.9027C210.491 18.2744 210.189 18.5668 209.803 18.7798C209.417 18.9929 208.972 19.0994 208.468 19.0994ZM214.796 19.1314C214.221 19.1314 213.729 18.9834 213.319 18.6875C212.91 18.3916 212.596 17.9631 212.378 17.402C212.16 16.8385 212.051 16.1603 212.051 15.3672C212.051 14.5765 212.16 13.9029 212.378 13.3466C212.598 12.7879 212.913 12.3617 213.323 12.0682C213.735 11.7746 214.226 11.6278 214.796 11.6278C215.369 11.6278 215.861 11.7746 216.27 12.0682C216.68 12.3617 216.993 12.7879 217.211 13.3466C217.431 13.9053 217.541 14.5788 217.541 15.3672C217.541 16.1626 217.433 16.8409 217.215 17.402C216.997 17.9631 216.683 18.3916 216.274 18.6875C215.864 18.9834 215.372 19.1314 214.796 19.1314ZM214.796 18.0874C215.268 18.0874 215.638 17.8565 215.908 17.3949C216.178 16.9332 216.312 16.2573 216.309 15.3672C216.309 14.7801 216.248 14.2853 216.125 13.8828C216.001 13.478 215.827 13.1726 215.603 12.9666C215.378 12.7607 215.109 12.6577 214.796 12.6577C214.33 12.6577 213.961 12.8897 213.688 13.3537C213.419 13.8153 213.284 14.4865 213.284 15.3672C213.284 15.959 213.344 16.4574 213.465 16.8622C213.588 17.267 213.762 17.5724 213.987 17.7784C214.214 17.9844 214.484 18.0874 214.796 18.0874ZM219.151 19.0746C218.943 19.0746 218.764 19.0012 218.615 18.8544C218.468 18.7076 218.396 18.5301 218.398 18.3217C218.396 18.1181 218.468 17.9429 218.615 17.7962C218.764 17.6494 218.943 17.576 219.151 17.576C219.353 17.576 219.528 17.6494 219.677 17.7962C219.826 17.9429 219.901 18.1181 219.901 18.3217C219.901 18.4614 219.865 18.5881 219.794 18.7017C219.725 18.8153 219.634 18.9065 219.521 18.9751C219.409 19.0414 219.286 19.0746 219.151 19.0746ZM223.529 19.0994C223.068 19.0994 222.655 19.0118 222.29 18.8366C221.925 18.6591 221.634 18.4176 221.416 18.1122C221.201 17.8045 221.086 17.4517 221.072 17.054H222.265C222.289 17.3594 222.421 17.6091 222.663 17.8033C222.904 17.995 223.193 18.0909 223.529 18.0909C223.797 18.0909 224.035 18.0305 224.243 17.9098C224.451 17.7867 224.615 17.6162 224.733 17.3984C224.851 17.1806 224.911 16.9321 224.911 16.6527C224.911 16.3686 224.849 16.1165 224.726 15.8963C224.605 15.6761 224.438 15.5033 224.225 15.3778C224.012 15.2524 223.767 15.1884 223.49 15.1861C223.272 15.1837 223.056 15.2228 222.84 15.3033C222.625 15.3838 222.452 15.4891 222.322 15.6193L221.207 15.4418L221.597 11.7273H225.731V12.7607H222.617L222.4 14.7351H222.443C222.58 14.5836 222.769 14.4581 223.011 14.3587C223.252 14.2592 223.515 14.2095 223.799 14.2095C224.242 14.2095 224.636 14.3137 224.982 14.522C225.327 14.7304 225.6 15.0168 225.798 15.3814C225.997 15.7436 226.097 16.1579 226.097 16.6243C226.097 17.1025 225.988 17.5286 225.77 17.9027C225.552 18.2744 225.25 18.5668 224.865 18.7798C224.479 18.9929 224.034 19.0994 223.529 19.0994ZM227.493 19L230.618 12.8139V12.7607H226.996V11.7273H231.889V12.7891L228.768 19H227.493ZM236.826 17.6364V17.2528C236.826 16.9735 236.884 16.7178 237 16.4858C237.119 16.2514 237.29 16.0632 237.515 15.9212C237.742 15.7791 238.017 15.7081 238.339 15.7081C238.668 15.7081 238.945 15.7791 239.17 15.9212C239.395 16.0608 239.564 16.2479 239.678 16.4822C239.794 16.7166 239.852 16.9735 239.852 17.2528V17.6364C239.852 17.9157 239.794 18.1726 239.678 18.407C239.562 18.639 239.39 18.826 239.163 18.968C238.938 19.1101 238.663 19.1811 238.339 19.1811C238.012 19.1811 237.737 19.1101 237.512 18.968C237.287 18.826 237.116 18.639 237 18.407C236.884 18.1726 236.826 17.9157 236.826 17.6364ZM237.71 17.2528V17.6364C237.71 17.8305 237.757 18.008 237.849 18.169C237.941 18.3277 238.105 18.407 238.339 18.407C238.571 18.407 238.732 18.3277 238.822 18.169C238.912 18.0104 238.957 17.8329 238.957 17.6364V17.2528C238.957 17.0563 238.913 16.8788 238.826 16.7202C238.74 16.5592 238.578 16.4787 238.339 16.4787C238.112 16.4787 237.95 16.5592 237.853 16.7202C237.758 16.8788 237.71 17.0563 237.71 17.2528ZM233.144 13.4744V13.0909C233.144 12.8116 233.203 12.5547 233.321 12.3203C233.44 12.0859 233.611 11.8989 233.836 11.7592C234.063 11.6172 234.338 11.5462 234.66 11.5462C234.989 11.5462 235.265 11.6172 235.487 11.7592C235.712 11.8989 235.882 12.0859 235.995 12.3203C236.111 12.5547 236.169 12.8116 236.169 13.0909V13.4744C236.169 13.7538 236.111 14.0107 235.995 14.245C235.879 14.477 235.709 14.6641 235.484 14.8061C235.259 14.9458 234.984 15.0156 234.66 15.0156C234.331 15.0156 234.054 14.9458 233.829 14.8061C233.604 14.6641 233.434 14.477 233.318 14.245C233.202 14.0107 233.144 13.7538 233.144 13.4744ZM234.035 13.0909V13.4744C234.035 13.6709 234.081 13.8485 234.174 14.0071C234.266 14.1657 234.428 14.245 234.66 14.245C234.892 14.245 235.053 14.1657 235.143 14.0071C235.233 13.8485 235.278 13.6709 235.278 13.4744V13.0909C235.278 12.8944 235.234 12.7169 235.147 12.5582C235.061 12.3973 234.899 12.3168 234.66 12.3168C234.43 12.3168 234.268 12.3973 234.174 12.5582C234.081 12.7192 234.035 12.8968 234.035 13.0909ZM233.52 19L238.52 11.7273H239.394L234.394 19H233.52Z" fill="black"/>
</svg>
