<svg width="40" height="40" viewBox="0 0 40 40" fill="none" xmlns="http://www.w3.org/2000/svg">
<g id="binoculars 1">
<g id="Group">
<g id="Group_2">
<path id="Vector" d="M14.9974 9.16667H9.9974C9.77638 9.16667 9.56442 9.07887 9.40814 8.92259C9.25186 8.76631 9.16406 8.55435 9.16406 8.33333V3.33333C9.16406 3.11232 9.25186 2.90036 9.40814 2.74408C9.56442 2.5878 9.77638 2.5 9.9974 2.5H14.9974C15.2184 2.5 15.4304 2.5878 15.5867 2.74408C15.7429 2.90036 15.8307 3.11232 15.8307 3.33333V8.33333C15.8307 8.55435 15.7429 8.76631 15.5867 8.92259C15.4304 9.07887 15.2184 9.16667 14.9974 9.16667Z" fill="#C8C8C8"/>
<path id="Vector_2" d="M29.9974 9.16667H24.9974C24.7764 9.16667 24.5644 9.07887 24.4081 8.92259C24.2519 8.76631 24.1641 8.55435 24.1641 8.33333V3.33333C24.1641 3.11232 24.2519 2.90036 24.4081 2.74408C24.5644 2.5878 24.7764 2.5 24.9974 2.5H29.9974C30.2184 2.5 30.4304 2.5878 30.5867 2.74408C30.7429 2.90036 30.8307 3.11232 30.8307 3.33333V8.33333C30.8307 8.55435 30.7429 8.76631 30.5867 8.92259C30.4304 9.07887 30.2184 9.16667 29.9974 9.16667Z" fill="#C8C8C8"/>
<path id="Vector_3" d="M16.6667 32.5H3.33333C3.11232 32.5 2.90036 32.4122 2.74408 32.2559C2.5878 32.0996 2.5 31.8877 2.5 31.6667V25C2.50029 24.9187 2.51208 24.8379 2.535 24.76L7.535 8.09333C7.5866 7.92175 7.69213 7.77137 7.83593 7.66449C7.97974 7.55762 8.15416 7.49993 8.33333 7.5H16.6667C16.8877 7.5 17.0996 7.5878 17.2559 7.74408C17.4122 7.90036 17.5 8.11232 17.5 8.33333V31.6667C17.5 31.8877 17.4122 32.0996 17.2559 32.2559C17.0996 32.4122 16.8877 32.5 16.6667 32.5Z" fill="#949494"/>
<path id="Vector_4" d="M18.2487 37.4996H1.7487C1.51674 37.5103 1.29001 37.4285 1.11819 37.2723C0.946377 37.1161 0.843474 36.8982 0.832031 36.6663V31.6663C0.843474 31.4344 0.946377 31.2164 1.11819 31.0602C1.29001 30.904 1.51674 30.8223 1.7487 30.833H18.2487C18.4807 30.8223 18.7074 30.904 18.8792 31.0602C19.051 31.2164 19.1539 31.4344 19.1654 31.6663V36.6663C19.1539 36.8982 19.051 37.1161 18.8792 37.2723C18.7074 37.4285 18.4807 37.5103 18.2487 37.4996Z" fill="#363636"/>
<path id="Vector_5" d="M36.6667 32.5H23.3333C23.1123 32.5 22.9004 32.4122 22.7441 32.2559C22.5878 32.0996 22.5 31.8877 22.5 31.6667V8.33333C22.5 8.11232 22.5878 7.90036 22.7441 7.74408C22.9004 7.5878 23.1123 7.5 23.3333 7.5H31.6667C31.8459 7.49999 32.0204 7.55779 32.1643 7.66483C32.3081 7.77187 32.4135 7.92243 32.465 8.09417L37.465 24.7608C37.4878 24.8385 37.4996 24.919 37.5 25V31.6667C37.5 31.8877 37.4122 32.0996 37.2559 32.2559C37.0996 32.4122 36.8877 32.5 36.6667 32.5Z" fill="#949494"/>
<path id="Vector_6" d="M38.2487 37.4996H21.7487C21.5167 37.5103 21.29 37.4285 21.1182 37.2723C20.9464 37.1161 20.8435 36.8982 20.832 36.6663V31.6663C20.8435 31.4344 20.9464 31.2164 21.1182 31.0602C21.29 30.904 21.5167 30.8223 21.7487 30.833H38.2487C38.4807 30.8223 38.7074 30.904 38.8792 31.0602C39.051 31.2164 39.1539 31.4344 39.1654 31.6663V36.6663C39.1539 36.8982 39.051 37.1161 38.8792 37.2723C38.7074 37.4285 38.4807 37.5103 38.2487 37.4996Z" fill="#363636"/>
<path id="Vector_7" d="M22.5 11.666H17.5V19.9993H22.5V11.666Z" fill="#363636"/>
</g>
</g>
</g>
</svg>
