<svg width="20" height="20" viewBox="0 0 20 20" fill="none" xmlns="http://www.w3.org/2000/svg">
<g id="block 1">
<g id="Group">
<path id="Vector" d="M9.99902 8.63134L17.499 4.46467L10.404 0.523003C10.2802 0.45412 10.1408 0.417969 9.99902 0.417969C9.85729 0.417969 9.71789 0.45412 9.59402 0.523003L2.49902 4.46467L9.99902 8.63134Z" fill="#FF439D"/>
<path id="Vector_2" d="M9.16602 10.0749L1.66602 5.9082V14.5849C1.66601 14.7334 1.70572 14.8793 1.78103 15.0073C1.85634 15.1354 1.96451 15.241 2.09435 15.3132L9.16602 19.2415V10.0749Z" fill="#FF439D"/>
<path id="Vector_3" d="M10.832 10.076V19.2427L17.9037 15.3143C18.0335 15.2421 18.1417 15.1365 18.217 15.0085C18.2923 14.8804 18.332 14.7345 18.332 14.586V5.91016L10.832 10.076Z" fill="#FF439D"/>
</g>
</g>
</svg>
