<svg width="15" height="17" viewBox="0 0 15 17" fill="none" xmlns="http://www.w3.org/2000/svg">
<path d="M6.93288 15.8038C7.11276 15.9065 7.20271 15.9578 7.32962 15.9845C7.42818 16.0052 7.57182 16.0052 7.67038 15.9845C7.79729 15.9578 7.88724 15.9065 8.06712 15.8038C9.64987 14.9 14 12.0609 14 8.1574V3.86296C14 3.41926 14 3.1974 13.9127 3.02831C13.8354 2.8784 13.7146 2.75875 13.5623 2.68126C13.3906 2.59387 13.1601 2.5912 12.699 2.58586C10.2846 2.55792 8.8923 2.36278 7.5 1C6.1077 2.36278 4.71539 2.55792 2.30098 2.58586C1.83991 2.5912 1.60937 2.59387 1.43765 2.68126C1.28542 2.75875 1.1646 2.8784 1.08725 3.02831C1 3.1974 1 3.41926 1 3.86296V8.1574C1 12.0609 5.35009 14.9 6.93288 15.8038Z" stroke="#0037B7" stroke-width="1.5" stroke-linecap="round" stroke-linejoin="round"/>
</svg>
