<svg width="20" height="20" viewBox="0 0 20 20" fill="none" xmlns="http://www.w3.org/2000/svg">
<g id="briefcase-24 1" clip-path="url(#clip0_1261_5121)">
<g id="Group">
<g id="Group_2">
<path id="Vector" d="M15 3.33333H13.3333V1.66667H6.66667V3.33333H5V0.833333C5 0.61232 5.0878 0.400358 5.24408 0.244078C5.40036 0.0877974 5.61232 0 5.83333 0L14.1667 0C14.3877 0 14.5996 0.0877974 14.7559 0.244078C14.9122 0.400358 15 0.61232 15 0.833333V3.33333Z" fill="#8B62FF"/>
<path id="Vector_2" d="M6.66667 11.6667V10.8333C6.66667 10.6123 6.75446 10.4004 6.91074 10.2441C7.06702 10.0878 7.27899 10 7.5 10H12.5C12.721 10 12.933 10.0878 13.0893 10.2441C13.2455 10.4004 13.3333 10.6123 13.3333 10.8333V11.6667H20V6.66667C20 6.22464 19.8244 5.80072 19.5118 5.48816C19.1993 5.17559 18.7754 5 18.3333 5H1.66667C1.22464 5 0.800716 5.17559 0.488155 5.48816C0.175595 5.80072 0 6.22464 0 6.66667L0 11.6667H6.66667Z" fill="#8B62FF"/>
<path id="Vector_3" d="M13.3333 13.332V14.1654C13.3333 14.3864 13.2455 14.5983 13.0893 14.7546C12.933 14.9109 12.721 14.9987 12.5 14.9987H7.5C7.27899 14.9987 7.06702 14.9109 6.91074 14.7546C6.75446 14.5983 6.66667 14.3864 6.66667 14.1654V13.332H0V18.332C0 18.7741 0.175595 19.198 0.488155 19.5105C0.800716 19.8231 1.22464 19.9987 1.66667 19.9987H18.3333C18.7754 19.9987 19.1993 19.8231 19.5118 19.5105C19.8244 19.198 20 18.7741 20 18.332V13.332H13.3333Z" fill="#8B62FF"/>
</g>
</g>
</g>
<defs>
<clipPath id="clip0_1261_5121">
<rect width="20" height="20" fill="white"/>
</clipPath>
</defs>
</svg>
