<svg width="12" height="12" viewBox="0 0 12 12" fill="none" xmlns="http://www.w3.org/2000/svg">
<g id="briefcase-24 1" clip-path="url(#clip0_5406_84952)">
<g id="Group">
<g id="Group_2">
<path id="Vector" d="M9 1.99976H8V0.999756H4V1.99976H3V0.499756C3 0.367148 3.05268 0.239971 3.14645 0.146202C3.24021 0.0524343 3.36739 -0.000244141 3.5 -0.000244141L8.5 -0.000244141C8.63261 -0.000244141 8.75979 0.0524343 8.85355 0.146202C8.94732 0.239971 9 0.367148 9 0.499756V1.99976Z" fill="#999999"/>
<path id="Vector_2" d="M4 6.99976V6.49976C4 6.36715 4.05268 6.23997 4.14645 6.1462C4.24021 6.05243 4.36739 5.99976 4.5 5.99976H7.5C7.63261 5.99976 7.75979 6.05243 7.85355 6.1462C7.94732 6.23997 8 6.36715 8 6.49976V6.99976H12V3.99976C12 3.73454 11.8946 3.48019 11.7071 3.29265C11.5196 3.10511 11.2652 2.99976 11 2.99976H1C0.734784 2.99976 0.48043 3.10511 0.292893 3.29265C0.105357 3.48019 0 3.73454 0 3.99976L0 6.99976H4Z" fill="#999999"/>
<path id="Vector_3" d="M8 7.99976V8.49976C8 8.63236 7.94732 8.75954 7.85355 8.85331C7.75979 8.94708 7.63261 8.99976 7.5 8.99976H4.5C4.36739 8.99976 4.24021 8.94708 4.14645 8.85331C4.05268 8.75954 4 8.63236 4 8.49976V7.99976H0V10.9998C0 11.265 0.105357 11.5193 0.292893 11.7069C0.48043 11.8944 0.734784 11.9998 1 11.9998H11C11.2652 11.9998 11.5196 11.8944 11.7071 11.7069C11.8946 11.5193 12 11.265 12 10.9998V7.99976H8Z" fill="#999999"/>
</g>
</g>
</g>
<defs>
<clipPath id="clip0_5406_84952">
<rect width="12" height="12" fill="white" transform="translate(0 -0.000244141)"/>
</clipPath>
</defs>
</svg>
