<svg width="16" height="16" viewBox="0 0 16 16" fill="none" xmlns="http://www.w3.org/2000/svg">
<g id="browser-firefox 1" clip-path="url(#clip0_1261_4917)">
<g id="Group">
<g id="Group_2">
<path id="Vector" d="M15.1841 5.36555C14.8695 4.5732 14.3289 3.89089 13.6294 3.40355C14.0109 4.14253 14.2756 4.93617 14.4141 5.75622V5.76955C13.5374 3.58421 12.0514 2.70288 10.8374 0.784881C10.7761 0.688214 10.7147 0.590881 10.6547 0.488214C10.6254 0.435548 10.6001 0.382214 10.5707 0.327548C10.5203 0.230418 10.4813 0.127721 10.4547 0.0215477C10.4551 0.0189551 10.455 0.0163139 10.4543 0.0137842C10.4536 0.0112545 10.4524 0.00888925 10.4508 0.00683187C10.4492 0.0047745 10.4471 0.00306794 10.4448 0.00181579C10.4425 0.000563633 10.44 -0.000208013 10.4374 -0.000452316C10.4351 -0.00144259 10.4326 -0.00195312 10.4301 -0.00195312C10.4276 -0.00195313 10.4251 -0.00144259 10.4227 -0.000452316H10.4187H10.4134H10.4167C9.72575 0.424232 9.13405 0.992399 8.68169 1.6656C8.22932 2.33879 7.92685 3.10131 7.79474 3.90155C7.26318 3.9324 6.74256 4.06549 6.26141 4.29355C6.21774 4.31557 6.18365 4.35283 6.16559 4.39828C6.14754 4.44373 6.14676 4.49423 6.16341 4.54021C6.1718 4.56439 6.18487 4.58667 6.20188 4.60579C6.21889 4.62491 6.2395 4.64049 6.26253 4.65163C6.28556 4.66278 6.31057 4.66927 6.33611 4.67074C6.36166 4.67222 6.38725 4.66864 6.41141 4.66021L6.42808 4.65355C6.84852 4.45503 7.30225 4.33657 7.76608 4.30421H7.81141C7.87808 4.30421 7.93874 4.29821 8.00274 4.29755C8.37911 4.295 8.75388 4.34687 9.11541 4.45155L9.17808 4.47155C9.23808 4.49021 9.29741 4.50955 9.35674 4.53088C9.40008 4.54688 9.44274 4.56421 9.48541 4.58155L9.58874 4.62421C9.64208 4.64821 9.69474 4.67288 9.74674 4.69888L9.81874 4.73488C9.86941 4.76155 9.91941 4.78955 9.96941 4.81821L10.0647 4.87555C10.626 5.2222 11.0918 5.7034 11.4201 6.27555C10.8754 5.89862 10.2104 5.73688 9.55341 5.82155C10.2029 6.17365 10.7109 6.73916 10.9916 7.42252C11.2723 8.10588 11.3085 8.8652 11.094 9.57216C10.8796 10.2791 10.4277 10.8904 9.81464 11.3027C9.2016 11.7149 8.46504 11.9029 7.72941 11.8349C7.38532 11.821 7.04528 11.7554 6.72074 11.6402C6.64408 11.6115 6.56808 11.5802 6.49341 11.5475C6.44941 11.5275 6.40541 11.5069 6.36008 11.4849C5.86864 11.2482 5.44413 10.8925 5.12512 10.4501C4.80611 10.0077 4.60271 9.49257 4.53341 8.95155C4.53341 8.95155 4.89141 7.61822 7.09608 7.61822C7.49746 7.44974 7.82753 7.14655 8.02941 6.76088C7.36968 6.44423 6.73961 6.06918 6.14674 5.64021C5.86541 5.36288 5.73208 5.22955 5.61341 5.12955C5.54936 5.07553 5.4826 5.0248 5.41341 4.97755C5.23653 4.35936 5.22894 3.70501 5.39141 3.08288C4.67605 3.42911 4.0404 3.92014 3.52474 4.52488H3.52141C3.21408 4.13621 3.23608 2.85155 3.25474 2.58355C3.16397 2.62019 3.07728 2.66622 2.99608 2.72088C2.72475 2.91427 2.47129 3.13159 2.23874 3.37021C1.97354 3.6383 1.73136 3.92821 1.51474 4.23688C1.01562 4.94371 0.661474 5.74242 0.472742 6.58688C0.472742 6.59555 0.399409 6.91088 0.346742 7.30155C0.337409 7.36222 0.329409 7.42288 0.321409 7.48355C0.303409 7.60088 0.289409 7.72888 0.276076 7.92755V7.95088C0.270742 8.03688 0.265409 8.12288 0.260742 8.20888C0.260742 8.22155 0.260742 8.23488 0.260742 8.24821C0.26405 10.1881 0.994525 12.0563 2.30796 13.484C3.62139 14.9116 5.42234 15.795 7.35526 15.9597C9.28818 16.1244 11.2126 15.5584 12.7486 14.3735C14.2846 13.1886 15.3206 11.4709 15.6521 9.55955C15.6654 9.46088 15.6754 9.35955 15.6874 9.26088C15.8473 7.94078 15.6742 6.60166 15.1841 5.36555Z" fill="#FDA237"/>
</g>
</g>
</g>
<defs>
<clipPath id="clip0_1261_4917">
<rect width="16" height="16" fill="white"/>
</clipPath>
</defs>
</svg>
