<svg width="38" height="38" viewBox="0 0 38 38" fill="none" xmlns="http://www.w3.org/2000/svg">
<g id="Frame" clip-path="url(#clip0_1261_4465)">
<g id="Group">
<path id="Vector" d="M35.6735 36.3781H34.616V3.1725C34.616 3.00422 34.5492 2.84284 34.4302 2.72385C34.3112 2.60486 34.1498 2.53801 33.9815 2.53801H22.1375C22.0542 2.53801 21.9717 2.55441 21.8947 2.58629C21.8177 2.61817 21.7477 2.66491 21.6888 2.72383C21.6299 2.78275 21.5832 2.8527 21.5513 2.92968C21.5194 3.00667 21.503 3.08918 21.503 3.1725V5.92199H20.234V3.1725C20.234 3.00422 20.1672 2.84284 20.0482 2.72385C19.9292 2.60486 19.7678 2.53801 19.5996 2.53801H16.85V0.634485C16.85 0.283971 16.5659 0 16.2155 0C15.8651 0 15.581 0.283971 15.581 0.634485V2.53801H12.8315C12.7482 2.53801 12.6657 2.55441 12.5887 2.58629C12.5117 2.61817 12.4418 2.66491 12.3829 2.72383C12.324 2.78275 12.2772 2.8527 12.2453 2.92968C12.2134 3.00667 12.197 3.08918 12.1971 3.1725V5.92199H10.2935C10.2102 5.92198 10.1277 5.93838 10.0507 5.97026C9.97372 6.00215 9.90377 6.04888 9.84486 6.1078C9.78594 6.16672 9.7392 6.23667 9.70732 6.31365C9.67543 6.39064 9.65903 6.47315 9.65904 6.55647V11.844H4.37154C4.28822 11.844 4.2057 11.8604 4.12872 11.8922C4.05174 11.9241 3.98179 11.9709 3.92287 12.0298C3.86395 12.0887 3.81721 12.1587 3.78533 12.2356C3.75345 12.3126 3.73704 12.3951 3.73705 12.4785V36.378H2.67941C2.32897 36.378 2.04492 36.662 2.04492 37.0125C2.04492 37.363 2.32904 37.6471 2.67941 37.6471H35.6735C36.024 37.6471 36.308 37.3631 36.308 37.0126C36.308 36.6621 36.0239 36.3781 35.6735 36.3781ZM13.466 3.80699H18.9649V5.92199H13.466V3.80699ZM11.351 36.3781H10.9279V35.3206C10.9279 34.9701 10.6438 34.6861 10.2935 34.6861C9.94308 34.6861 9.65897 34.9701 9.65897 35.3206V36.3781H9.23595V34.2631H11.351V36.3781ZM15.581 20.0925V36.3781H12.6199V33.6286C12.6199 33.4603 12.5531 33.2989 12.4341 33.18C12.3151 33.061 12.1537 32.9941 11.9854 32.9941H8.60147C8.51814 32.9941 8.43563 33.0105 8.35865 33.0424C8.28166 33.0743 8.21171 33.121 8.1528 33.1799C8.09388 33.2389 8.04714 33.3088 8.01526 33.3858C7.98338 33.4628 7.96697 33.5453 7.96698 33.6286V36.3781H5.00595V13.113H15.581V20.0925ZM16.2154 11.844H10.9279V7.19103H21.5029V19.458H16.85V17.343H18.7535C19.104 17.343 19.388 17.059 19.388 16.7085C19.388 16.358 19.1039 16.074 18.7535 16.074H16.85V13.959H18.7535C19.104 13.959 19.388 13.6751 19.388 13.3246C19.388 12.974 19.1039 12.6901 18.7535 12.6901H16.85V12.4786C16.85 12.3953 16.8336 12.3127 16.8017 12.2358C16.7698 12.1588 16.7231 12.0888 16.6642 12.0299C16.6052 11.971 16.5353 11.9242 16.4583 11.8923C16.3813 11.8604 16.2988 11.844 16.2154 11.844ZM27.425 36.3781H16.85V20.7271H27.425V36.3781ZM33.347 36.3781H28.694V19.2465C28.694 18.896 28.4098 18.612 28.0595 18.612C27.7091 18.612 27.425 18.896 27.425 19.2465V19.4579H26.156V19.2465C26.156 18.896 25.8719 18.612 25.5215 18.612C25.1712 18.612 24.8871 18.896 24.8871 19.2465V19.4579H22.7721V3.80699H33.3471V36.3781H33.347Z" fill="black"/>
<path id="Vector_2" d="M19.5996 35.109C19.7679 35.109 19.9293 35.0421 20.0483 34.9232C20.1672 34.8042 20.2341 34.6428 20.2341 34.4745V22.6306C20.2341 22.28 19.95 21.9961 19.5996 21.9961C19.2493 21.9961 18.9651 22.28 18.9651 22.6306V34.4746C18.9651 34.5579 18.9815 34.6404 19.0134 34.7174C19.0453 34.7944 19.0921 34.8643 19.151 34.9232C19.2099 34.9821 19.2798 35.0289 19.3568 35.0607C19.4338 35.0926 19.5163 35.109 19.5996 35.109ZM22.1376 35.109C22.3059 35.109 22.4673 35.0421 22.5863 34.9232C22.7052 34.8042 22.7721 34.6428 22.7721 34.4745V22.6306C22.7721 22.28 22.488 21.9961 22.1376 21.9961C21.7873 21.9961 21.5032 22.28 21.5032 22.6306V34.4746C21.5032 34.5579 21.5196 34.6404 21.5514 34.7174C21.5833 34.7944 21.6301 34.8643 21.689 34.9232C21.7479 34.9821 21.8179 35.0289 21.8948 35.0607C21.9718 35.0926 22.0543 35.109 22.1376 35.109ZM24.6756 35.109C24.8438 35.109 25.0052 35.0421 25.1242 34.9232C25.2432 34.8042 25.31 34.6428 25.3101 34.4745V22.6306C25.3101 22.28 25.0259 21.9961 24.6756 21.9961C24.3252 21.9961 24.0411 22.28 24.0411 22.6306V34.4746C24.0411 34.6429 24.108 34.8042 24.227 34.9232C24.3459 35.0422 24.5073 35.109 24.6756 35.109ZM25.5216 8.0368C25.6049 8.03681 25.6874 8.02041 25.7644 7.98852C25.8414 7.95664 25.9114 7.90991 25.9703 7.85099C26.0292 7.79207 26.0759 7.72212 26.1078 7.64514C26.1397 7.56815 26.1561 7.48564 26.1561 7.40232V6.55636C26.1561 6.20585 25.872 5.92188 25.5216 5.92188C25.1712 5.92188 24.8871 6.20585 24.8871 6.55636V7.40239C24.8871 7.48571 24.9035 7.56821 24.9354 7.64519C24.9673 7.72216 25.014 7.7921 25.073 7.85101C25.1319 7.90992 25.2018 7.95665 25.2788 7.98853C25.3558 8.02041 25.4383 8.03681 25.5216 8.0368ZM28.0596 8.0368C28.1429 8.03681 28.2255 8.02041 28.3024 7.98852C28.3794 7.95664 28.4494 7.90991 28.5083 7.85099C28.5672 7.79207 28.6139 7.72212 28.6458 7.64514C28.6777 7.56815 28.6941 7.48564 28.6941 7.40232V6.55636C28.6941 6.20585 28.41 5.92188 28.0596 5.92188C27.7093 5.92188 27.4251 6.20585 27.4251 6.55636V7.40239C27.4251 7.48571 27.4415 7.56821 27.4734 7.64519C27.5053 7.72216 27.5521 7.7921 27.611 7.85101C27.6699 7.90992 27.7398 7.95665 27.8168 7.98853C27.8938 8.02041 27.9763 8.03681 28.0596 8.0368ZM30.5976 8.0368C30.681 8.03681 30.7635 8.02041 30.8405 7.98852C30.9174 7.95664 30.9874 7.90991 31.0463 7.85099C31.1052 7.79207 31.152 7.72212 31.1838 7.64514C31.2157 7.56815 31.2321 7.48564 31.2321 7.40232V6.55636C31.2321 6.20585 30.948 5.92188 30.5976 5.92188C30.2473 5.92188 29.9631 6.20585 29.9631 6.55636V7.40239C29.9631 7.48571 29.9796 7.56821 30.0114 7.64519C30.0433 7.72216 30.0901 7.7921 30.149 7.85101C30.2079 7.90992 30.2779 7.95665 30.3548 7.98853C30.4318 8.02041 30.5143 8.03681 30.5976 8.0368ZM25.5216 12.2668C25.6049 12.2668 25.6874 12.2504 25.7644 12.2185C25.8414 12.1866 25.9114 12.1399 25.9703 12.081C26.0292 12.0221 26.0759 11.9521 26.1078 11.8751C26.1397 11.7982 26.1561 11.7156 26.1561 11.6323V10.7863C26.1561 10.4358 25.872 10.1518 25.5216 10.1518C25.1712 10.1518 24.8871 10.4358 24.8871 10.7863V11.6323C24.8871 11.7156 24.9035 11.7982 24.9354 11.8751C24.9673 11.9521 25.014 12.0221 25.0729 12.081C25.1319 12.1399 25.2018 12.1866 25.2788 12.2185C25.3558 12.2504 25.4383 12.2668 25.5216 12.2668ZM28.0596 12.2668C28.1429 12.2668 28.2255 12.2504 28.3024 12.2185C28.3794 12.1866 28.4494 12.1399 28.5083 12.081C28.5672 12.0221 28.6139 11.9521 28.6458 11.8751C28.6777 11.7982 28.6941 11.7156 28.6941 11.6323V10.7863C28.6941 10.4358 28.41 10.1518 28.0596 10.1518C27.7093 10.1518 27.4251 10.4358 27.4251 10.7863V11.6323C27.4251 11.7156 27.4415 11.7982 27.4734 11.8751C27.5053 11.9521 27.552 12.0221 27.611 12.081C27.6699 12.1399 27.7398 12.1866 27.8168 12.2185C27.8938 12.2504 27.9763 12.2668 28.0596 12.2668ZM30.5976 12.2668C30.681 12.2668 30.7635 12.2504 30.8405 12.2185C30.9174 12.1866 30.9874 12.1399 31.0463 12.081C31.1052 12.0221 31.152 11.9521 31.1838 11.8751C31.2157 11.7982 31.2321 11.7156 31.2321 11.6323V10.7863C31.2321 10.4358 30.948 10.1518 30.5976 10.1518C30.2473 10.1518 29.9631 10.4358 29.9631 10.7863V11.6323C29.9631 11.7156 29.9795 11.7982 30.0114 11.8751C30.0433 11.9521 30.09 12.0221 30.149 12.081C30.2079 12.1399 30.2778 12.1866 30.3548 12.2185C30.4318 12.2504 30.5143 12.2668 30.5976 12.2668ZM25.5216 16.4969C25.6049 16.4969 25.6874 16.4805 25.7644 16.4486C25.8414 16.4167 25.9114 16.37 25.9703 16.3111C26.0292 16.2521 26.0759 16.1822 26.1078 16.1052C26.1397 16.0282 26.1561 15.9457 26.1561 15.8624V15.0164C26.1561 14.6658 25.872 14.3819 25.5216 14.3819C25.1712 14.3819 24.8871 14.6658 24.8871 15.0164V15.8624C24.8871 16.0307 24.954 16.1921 25.073 16.311C25.1919 16.43 25.3533 16.4969 25.5216 16.4969ZM28.0596 16.4969C28.1429 16.4969 28.2255 16.4805 28.3024 16.4486C28.3794 16.4167 28.4494 16.37 28.5083 16.3111C28.5672 16.2521 28.6139 16.1822 28.6458 16.1052C28.6777 16.0282 28.6941 15.9457 28.6941 15.8624V15.0164C28.6941 14.6658 28.41 14.3819 28.0596 14.3819C27.7093 14.3819 27.4251 14.6658 27.4251 15.0164V15.8624C27.4251 16.0307 27.492 16.1921 27.611 16.311C27.73 16.43 27.8913 16.4969 28.0596 16.4969ZM30.5976 16.4969C30.681 16.4969 30.7635 16.4805 30.8405 16.4486C30.9174 16.4167 30.9874 16.37 31.0463 16.3111C31.1052 16.2521 31.152 16.1822 31.1838 16.1052C31.2157 16.0282 31.2321 15.9457 31.2321 15.8624V15.0164C31.2321 14.6658 30.948 14.3819 30.5976 14.3819C30.2473 14.3819 29.9631 14.6658 29.9631 15.0164V15.8624C29.9631 16.0307 30.03 16.1921 30.149 16.311C30.268 16.43 30.4294 16.4969 30.5976 16.4969ZM7.75558 18.1889C7.8389 18.1889 7.92141 18.1725 7.9984 18.1406C8.07538 18.1087 8.14533 18.062 8.20425 18.003C8.26317 17.9441 8.3099 17.8742 8.34179 17.7972C8.37367 17.7202 8.39007 17.6377 8.39006 17.5544V16.7083C8.39006 16.3578 8.10595 16.0739 7.75558 16.0739C7.40521 16.0739 7.12109 16.3578 7.12109 16.7083V17.5544C7.12111 17.7226 7.18797 17.884 7.30695 18.003C7.42594 18.122 7.58731 18.1888 7.75558 18.1889ZM10.2936 18.1889C10.3769 18.1889 10.4594 18.1725 10.5364 18.1406C10.6134 18.1087 10.6833 18.062 10.7423 18.003C10.8012 17.9441 10.8479 17.8742 10.8798 17.7972C10.9117 17.7202 10.9281 17.6377 10.9281 17.5544V16.7083C10.9281 16.3578 10.644 16.0739 10.2936 16.0739C9.94323 16.0739 9.65911 16.3578 9.65911 16.7083V17.5544C9.65911 17.7227 9.72596 17.884 9.84494 18.003C9.96393 18.122 10.1253 18.1889 10.2936 18.1889ZM12.8316 18.1889C12.9149 18.1889 12.9974 18.1725 13.0744 18.1406C13.1514 18.1087 13.2214 18.062 13.2803 18.003C13.3392 17.9441 13.3859 17.8742 13.4178 17.7972C13.4497 17.7202 13.4661 17.6377 13.4661 17.5544V16.7083C13.4661 16.3578 13.182 16.0739 12.8316 16.0739C12.4812 16.0739 12.1971 16.3578 12.1971 16.7083V17.5544C12.1971 17.7227 12.264 17.884 12.383 18.003C12.5019 18.122 12.6633 18.1889 12.8316 18.1889ZM7.75558 22.4189C7.8389 22.4189 7.92141 22.4025 7.9984 22.3706C8.07538 22.3387 8.14533 22.292 8.20425 22.233C8.26317 22.1741 8.3099 22.1042 8.34179 22.0272C8.37367 21.9502 8.39007 21.8677 8.39006 21.7844V20.9383C8.39006 20.5878 8.10595 20.3039 7.75558 20.3039C7.40521 20.3039 7.12109 20.5878 7.12109 20.9383V21.7844C7.12111 21.9526 7.18797 22.114 7.30695 22.233C7.42594 22.352 7.58731 22.4188 7.75558 22.4189ZM10.2936 22.4189C10.3769 22.4189 10.4594 22.4025 10.5364 22.3706C10.6134 22.3387 10.6833 22.292 10.7423 22.233C10.8012 22.1741 10.8479 22.1042 10.8798 22.0272C10.9117 21.9502 10.9281 21.8677 10.9281 21.7844V20.9383C10.9281 20.5878 10.644 20.3039 10.2936 20.3039C9.94323 20.3039 9.65911 20.5878 9.65911 20.9383V21.7844C9.65911 21.9527 9.72596 22.114 9.84494 22.233C9.96393 22.352 10.1253 22.4189 10.2936 22.4189ZM12.8316 22.4189C12.9149 22.4189 12.9974 22.4025 13.0744 22.3706C13.1514 22.3387 13.2214 22.292 13.2803 22.233C13.3392 22.1741 13.3859 22.1042 13.4178 22.0272C13.4497 21.9502 13.4661 21.8677 13.4661 21.7844V20.9383C13.4661 20.5878 13.182 20.3039 12.8316 20.3039C12.4812 20.3039 12.1971 20.5878 12.1971 20.9383V21.7844C12.1971 21.9527 12.264 22.114 12.383 22.233C12.5019 22.352 12.6633 22.4189 12.8316 22.4189ZM7.75558 26.6489C7.8389 26.6489 7.92141 26.6325 7.9984 26.6006C8.07538 26.5687 8.14533 26.522 8.20425 26.463C8.26317 26.4041 8.3099 26.3342 8.34179 26.2572C8.37367 26.1802 8.39007 26.0977 8.39006 26.0144V25.1683C8.39006 24.8178 8.10595 24.5339 7.75558 24.5339C7.40521 24.5339 7.12109 24.8178 7.12109 25.1683V26.0144C7.12109 26.0977 7.13751 26.1802 7.16939 26.2572C7.20128 26.3342 7.24801 26.4041 7.30693 26.463C7.36585 26.5219 7.43579 26.5687 7.51277 26.6006C7.58975 26.6325 7.67226 26.6489 7.75558 26.6489ZM10.2936 26.6489C10.3769 26.6489 10.4594 26.6325 10.5364 26.6006C10.6134 26.5687 10.6833 26.522 10.7423 26.463C10.8012 26.4041 10.8479 26.3342 10.8798 26.2572C10.9117 26.1802 10.9281 26.0977 10.9281 26.0144V25.1683C10.9281 24.8178 10.644 24.5339 10.2936 24.5339C9.94323 24.5339 9.65911 24.8178 9.65911 25.1683V26.0144C9.6591 26.0977 9.6755 26.1802 9.70739 26.2572C9.73927 26.3342 9.786 26.4041 9.84492 26.463C9.90384 26.522 9.97379 26.5687 10.0508 26.6006C10.1278 26.6325 10.2103 26.6489 10.2936 26.6489ZM12.8316 26.6489C12.9149 26.6489 12.9974 26.6325 13.0744 26.6006C13.1514 26.5687 13.2214 26.522 13.2803 26.463C13.3392 26.4041 13.3859 26.3342 13.4178 26.2572C13.4497 26.1802 13.4661 26.0977 13.4661 26.0144V25.1683C13.4661 24.8178 13.182 24.5339 12.8316 24.5339C12.4812 24.5339 12.1971 24.8178 12.1971 25.1683V26.0144C12.1971 26.0977 12.2135 26.1802 12.2454 26.2572C12.2773 26.3342 12.324 26.4041 12.3829 26.463C12.4419 26.522 12.5118 26.5687 12.5888 26.6006C12.6658 26.6325 12.7483 26.6489 12.8316 26.6489ZM7.75558 30.8789C7.8389 30.8789 7.92141 30.8625 7.9984 30.8306C8.07538 30.7987 8.14533 30.752 8.20425 30.693C8.26317 30.6341 8.3099 30.5642 8.34179 30.4872C8.37367 30.4102 8.39007 30.3277 8.39006 30.2444V29.3983C8.39006 29.0478 8.10595 28.7639 7.75558 28.7639C7.40521 28.7639 7.12109 29.0478 7.12109 29.3983V30.2444C7.12109 30.4127 7.18794 30.574 7.30693 30.693C7.42592 30.812 7.5873 30.8789 7.75558 30.8789ZM10.2936 30.8789C10.3769 30.8789 10.4594 30.8625 10.5364 30.8306C10.6134 30.7987 10.6833 30.752 10.7423 30.693C10.8012 30.6341 10.8479 30.5642 10.8798 30.4872C10.9117 30.4102 10.9281 30.3277 10.9281 30.2444V29.3983C10.9281 29.0478 10.644 28.7639 10.2936 28.7639C9.94323 28.7639 9.65911 29.0478 9.65911 29.3983V30.2444C9.6591 30.3277 9.6755 30.4102 9.70739 30.4872C9.73927 30.5642 9.786 30.6341 9.84492 30.693C9.90384 30.752 9.97379 30.7987 10.0508 30.8306C10.1278 30.8625 10.2103 30.8789 10.2936 30.8789ZM12.8316 30.8789C12.9149 30.8789 12.9974 30.8625 13.0744 30.8306C13.1514 30.7987 13.2214 30.752 13.2803 30.693C13.3392 30.6341 13.3859 30.5642 13.4178 30.4872C13.4497 30.4102 13.4661 30.3277 13.4661 30.2444V29.3983C13.4661 29.0478 13.182 28.7639 12.8316 28.7639C12.4812 28.7639 12.1971 29.0478 12.1971 29.3983V30.2444C12.1971 30.3277 12.2135 30.4102 12.2454 30.4872C12.2773 30.5642 12.324 30.6341 12.3829 30.693C12.4419 30.752 12.5118 30.7987 12.5888 30.8306C12.6658 30.8625 12.7483 30.8789 12.8316 30.8789ZM30.5976 20.7269C30.681 20.7269 30.7635 20.7105 30.8405 20.6786C30.9174 20.6467 30.9874 20.6 31.0463 20.5411C31.1052 20.4821 31.152 20.4122 31.1838 20.3352C31.2157 20.2582 31.2321 20.1757 31.2321 20.0924V19.2464C31.2321 18.8958 30.948 18.6119 30.5976 18.6119C30.2473 18.6119 29.9631 18.8958 29.9631 19.2464V20.0924C29.9631 20.2607 30.03 20.4221 30.149 20.541C30.268 20.66 30.4294 20.7269 30.5976 20.7269ZM30.5976 24.9569C30.681 24.9569 30.7635 24.9405 30.8405 24.9086C30.9174 24.8767 30.9874 24.83 31.0463 24.7711C31.1052 24.7121 31.152 24.6422 31.1838 24.5652C31.2157 24.4882 31.2321 24.4057 31.2321 24.3224V23.4764C31.2321 23.1258 30.948 22.8419 30.5976 22.8419C30.2473 22.8419 29.9631 23.1258 29.9631 23.4764V24.3224C29.9631 24.4907 30.03 24.6521 30.149 24.771C30.268 24.89 30.4294 24.9569 30.5976 24.9569ZM30.5976 29.1869C30.681 29.1869 30.7635 29.1705 30.8405 29.1386C30.9174 29.1067 30.9874 29.06 31.0463 29.0011C31.1052 28.9421 31.152 28.8722 31.1838 28.7952C31.2157 28.7182 31.2321 28.6357 31.2321 28.5524V27.7064C31.2321 27.3558 30.948 27.0719 30.5976 27.0719C30.2473 27.0719 29.9631 27.3558 29.9631 27.7064V28.5524C29.9631 28.6357 29.9796 28.7182 30.0114 28.7952C30.0433 28.8722 30.0901 28.9421 30.149 29.001C30.2079 29.06 30.2778 29.1067 30.3548 29.1386C30.4318 29.1705 30.5143 29.1869 30.5976 29.1869ZM30.5976 33.4169C30.681 33.4169 30.7635 33.4005 30.8405 33.3686C30.9174 33.3367 30.9874 33.29 31.0463 33.2311C31.1052 33.1721 31.152 33.1022 31.1838 33.0252C31.2157 32.9482 31.2321 32.8657 31.2321 32.7824V31.9364C31.2321 31.5858 30.948 31.3019 30.5976 31.3019C30.2473 31.3019 29.9631 31.5858 29.9631 31.9364V32.7824C29.9631 32.9507 30.03 33.1121 30.149 33.231C30.268 33.35 30.4294 33.4169 30.5976 33.4169ZM19.3881 9.94033C19.3881 9.77205 19.3212 9.61067 19.2022 9.49168C19.0833 9.37269 18.9219 9.30585 18.7536 9.30585H13.6776C13.5942 9.30584 13.5117 9.32224 13.4347 9.35412C13.3578 9.38601 13.2878 9.43274 13.2289 9.49166C13.17 9.55058 13.1232 9.62053 13.0914 9.69751C13.0595 9.7745 13.0431 9.85701 13.0431 9.94033C13.0431 10.1086 13.1099 10.27 13.2289 10.389C13.3479 10.508 13.5093 10.5748 13.6776 10.5748H18.7536C18.8369 10.5748 18.9194 10.5584 18.9964 10.5265C19.0734 10.4947 19.1433 10.4479 19.2023 10.389C19.2612 10.3301 19.3079 10.2601 19.3398 10.1831C19.3717 10.1062 19.3881 10.0237 19.3881 9.94033Z" fill="black"/>
</g>
</g>
<defs>
<clipPath id="clip0_1261_4465">
<rect width="37.6471" height="37.6471" fill="white" transform="translate(0.352539)"/>
</clipPath>
</defs>
</svg>
