<svg width="24" height="24" viewBox="0 0 24 24" fill="none" xmlns="http://www.w3.org/2000/svg">
<rect width="24" height="24" rx="4" fill="#43A833"/>
<path d="M8.80859 16V7.26953H12.1016C12.7266 7.26953 13.2441 7.37109 13.6543 7.57422C14.0684 7.77344 14.377 8.04492 14.5801 8.38867C14.7871 8.73242 14.8906 9.11719 14.8906 9.54297C14.8906 9.90625 14.8223 10.2148 14.6855 10.4688C14.5527 10.7188 14.373 10.9199 14.1465 11.0723C13.9199 11.2246 13.666 11.3359 13.3848 11.4062V11.4766C13.6895 11.4922 13.9805 11.5879 14.2578 11.7637C14.5391 11.9355 14.7695 12.1797 14.9492 12.4961C15.1328 12.8086 15.2246 13.1875 15.2246 13.6328C15.2246 14.082 15.1172 14.4863 14.9023 14.8457C14.6914 15.2012 14.3672 15.4824 13.9297 15.6895C13.4961 15.8965 12.9414 16 12.2656 16H8.80859ZM10.2852 14.7695H12.0957C12.6777 14.7695 13.0977 14.6543 13.3555 14.4238C13.6133 14.1895 13.7422 13.8984 13.7422 13.5508C13.7422 13.2891 13.6758 13.0508 13.543 12.8359C13.4141 12.6211 13.2305 12.4512 12.9922 12.3262C12.7539 12.1973 12.4707 12.1328 12.1426 12.1328H10.2852V14.7695ZM10.2852 11.002H11.9668C12.2402 11.002 12.4883 10.9492 12.7109 10.8438C12.9336 10.7344 13.1094 10.582 13.2383 10.3867C13.3672 10.1914 13.4316 9.96289 13.4316 9.70117C13.4316 9.35742 13.3125 9.07031 13.0742 8.83984C12.8359 8.60938 12.4766 8.49414 11.9961 8.49414H10.2852V11.002Z" fill="white"/>
</svg>
