<svg width="40" height="40" viewBox="0 0 40 40" fill="none" xmlns="http://www.w3.org/2000/svg">
<g id="math 1">
<g id="Group">
<path id="Vector" d="M35 2.5H5C3.61929 2.5 2.5 3.61929 2.5 5V35C2.5 36.3807 3.61929 37.5 5 37.5H35C36.3807 37.5 37.5 36.3807 37.5 35V5C37.5 3.61929 36.3807 2.5 35 2.5Z" fill="#212121"/>
<path id="Vector_2" d="M34.9997 2.5H20.833V19.1667H37.4997V5C37.4997 4.33696 37.2363 3.70107 36.7674 3.23223C36.2986 2.76339 35.6627 2.5 34.9997 2.5Z" fill="#4C4C4C"/>
<path id="Vector_3" d="M5 2.5C4.33696 2.5 3.70107 2.76339 3.23223 3.23223C2.76339 3.70107 2.5 4.33696 2.5 5V19.1667H19.1667V2.5H5Z" fill="#4C4C4C"/>
<path id="Vector_4" d="M20.833 20.8333V37.4999H34.9997C35.6627 37.4999 36.2986 37.2365 36.7674 36.7677C37.2363 36.2988 37.4997 35.663 37.4997 34.9999V20.8333H20.833Z" fill="#EE7C2F"/>
<path id="Vector_5" d="M2.5 20.8333V34.9999C2.5 35.663 2.76339 36.2988 3.23223 36.7677C3.70107 37.2365 4.33696 37.4999 5 37.4999H19.1667V20.8333H2.5Z" fill="#4C4C4C"/>
<path id="Vector_6" d="M32.256 12.7442C32.3356 12.8211 32.3991 12.913 32.4428 13.0147C32.4864 13.1163 32.5094 13.2257 32.5104 13.3363C32.5113 13.447 32.4903 13.5567 32.4484 13.6591C32.4065 13.7616 32.3446 13.8546 32.2663 13.9328C32.1881 14.0111 32.0951 14.073 31.9926 14.1149C31.8902 14.1568 31.7805 14.1779 31.6698 14.1769C31.5592 14.1759 31.4498 14.1529 31.3482 14.1093C31.2465 14.0656 31.1545 14.0021 31.0777 13.9225L29.1668 12.0117L27.256 13.9225C27.0988 14.0743 26.8883 14.1583 26.6698 14.1564C26.4513 14.1545 26.2423 14.0669 26.0878 13.9124C25.9333 13.7579 25.8457 13.5488 25.8438 13.3303C25.8419 13.1119 25.9259 12.9013 26.0777 12.7442L27.9885 10.8333L26.0777 8.92251C25.9259 8.76534 25.8419 8.55484 25.8438 8.33635C25.8457 8.11785 25.9333 7.90884 26.0878 7.75433C26.2423 7.59982 26.4513 7.51218 26.6698 7.51029C26.8883 7.50839 27.0988 7.59238 27.256 7.74418L29.1668 9.65501L31.0777 7.74418C31.2348 7.59238 31.4453 7.50839 31.6638 7.51029C31.8823 7.51218 32.0914 7.59982 32.2459 7.75433C32.4004 7.90884 32.488 8.11785 32.4899 8.33635C32.4918 8.55484 32.4078 8.76534 32.256 8.92251L30.3452 10.8333L32.256 12.7442Z" fill="white"/>
<path id="Vector_7" d="M14.167 12.4999H7.50033C7.27931 12.4999 7.06735 12.4121 6.91107 12.2558C6.75479 12.0996 6.66699 11.8876 6.66699 11.6666C6.66699 11.4456 6.75479 11.2336 6.91107 11.0773C7.06735 10.921 7.27931 10.8333 7.50033 10.8333H14.167C14.388 10.8333 14.6 10.921 14.7562 11.0773C14.9125 11.2336 15.0003 11.4456 15.0003 11.6666C15.0003 11.8876 14.9125 12.0996 14.7562 12.2558C14.6 12.4121 14.388 12.4999 14.167 12.4999Z" fill="white"/>
<path id="Vector_8" d="M32.5 31.6667H25.8333C25.6123 31.6667 25.4004 31.579 25.2441 31.4227C25.0878 31.2664 25 31.0544 25 30.8334C25 30.6124 25.0878 30.4004 25.2441 30.2442C25.4004 30.0879 25.6123 30.0001 25.8333 30.0001H32.5C32.721 30.0001 32.933 30.0879 33.0893 30.2442C33.2455 30.4004 33.3333 30.6124 33.3333 30.8334C33.3333 31.0544 33.2455 31.2664 33.0893 31.4227C32.933 31.579 32.721 31.6667 32.5 31.6667ZM32.5 28.3334H25.8333C25.6123 28.3334 25.4004 28.2456 25.2441 28.0893C25.0878 27.9331 25 27.7211 25 27.5001C25 27.2791 25.0878 27.0671 25.2441 26.9108C25.4004 26.7545 25.6123 26.6667 25.8333 26.6667H32.5C32.721 26.6667 32.933 26.7545 33.0893 26.9108C33.2455 27.0671 33.3333 27.2791 33.3333 27.5001C33.3333 27.7211 33.2455 27.9331 33.0893 28.0893C32.933 28.2456 32.721 28.3334 32.5 28.3334Z" fill="white"/>
<path id="Vector_9" d="M14.167 30H11.667V32.5C11.667 32.721 11.5792 32.933 11.4229 33.0893C11.2666 33.2455 11.0547 33.3333 10.8337 33.3333C10.6126 33.3333 10.4007 33.2455 10.2444 33.0893C10.0881 32.933 10.0003 32.721 10.0003 32.5V30H7.50033C7.27931 30 7.06735 29.9122 6.91107 29.7559C6.75479 29.5996 6.66699 29.3877 6.66699 29.1667C6.66699 28.9457 6.75479 28.7337 6.91107 28.5774C7.06735 28.4211 7.27931 28.3333 7.50033 28.3333H10.0003V25.8333C10.0003 25.6123 10.0881 25.4004 10.2444 25.2441C10.4007 25.0878 10.6126 25 10.8337 25C11.0547 25 11.2666 25.0878 11.4229 25.2441C11.5792 25.4004 11.667 25.6123 11.667 25.8333V28.3333H14.167C14.388 28.3333 14.6 28.4211 14.7562 28.5774C14.9125 28.7337 15.0003 28.9457 15.0003 29.1667C15.0003 29.3877 14.9125 29.5996 14.7562 29.7559C14.6 29.9122 14.388 30 14.167 30Z" fill="white"/>
</g>
</g>
</svg>
