<svg width="18" height="18" viewBox="0 0 18 18" fill="none" xmlns="http://www.w3.org/2000/svg">
<g id="Calendar">
<g id="Iconly/Light-Outline/Calendar">
<g id="Calendar_2">
<path id="Combined-Shape" fill-rule="evenodd" clip-rule="evenodd" d="M11.8451 0.74707C12.1556 0.74707 12.4076 0.99907 12.4076 1.30957L12.408 1.94543C13.503 2.02051 14.4125 2.39561 15.0563 3.04065C15.759 3.7464 16.1288 4.76115 16.125 5.9784V12.8206C16.125 15.3196 14.538 16.8721 11.9843 16.8721H5.64075C3.087 16.8721 1.5 15.2979 1.5 12.7636V5.9769C1.5 3.61979 2.91529 2.10678 5.22351 1.94569L5.22398 1.30957C5.22398 0.99907 5.47598 0.74707 5.78648 0.74707C6.09697 0.74707 6.34898 0.99907 6.34898 1.30957L6.34875 1.93132H11.2823L11.2826 1.30957C11.2826 0.99907 11.5346 0.74707 11.8451 0.74707ZM15 7.42507H2.625V12.7636C2.625 14.6881 3.696 15.7471 5.64075 15.7471H11.9843C13.929 15.7471 15 14.7076 15 12.8206L15 7.42507ZM12.1509 12.1443C12.4614 12.1443 12.7134 12.3963 12.7134 12.7068C12.7134 13.0173 12.4614 13.2693 12.1509 13.2693C11.8404 13.2693 11.5854 13.0173 11.5854 12.7068C11.5854 12.3963 11.8336 12.1443 12.1441 12.1443H12.1509ZM8.82277 12.1443C9.13327 12.1443 9.38527 12.3963 9.38527 12.7068C9.38527 13.0173 9.13327 13.2693 8.82277 13.2693C8.51227 13.2693 8.25727 13.0173 8.25727 12.7068C8.25727 12.3963 8.50552 12.1443 8.81602 12.1443H8.82277ZM5.48767 12.1443C5.79817 12.1443 6.05017 12.3963 6.05017 12.7068C6.05017 13.0173 5.79817 13.2693 5.48767 13.2693C5.17717 13.2693 4.92143 13.0173 4.92143 12.7068C4.92143 12.3963 5.17042 12.1443 5.48093 12.1443H5.48767ZM12.1509 9.22927C12.4614 9.22927 12.7134 9.48127 12.7134 9.79177C12.7134 10.1023 12.4614 10.3543 12.1509 10.3543C11.8404 10.3543 11.5854 10.1023 11.5854 9.79177C11.5854 9.48127 11.8336 9.22927 12.1441 9.22927H12.1509ZM8.82277 9.22927C9.13327 9.22927 9.38527 9.48127 9.38527 9.79177C9.38527 10.1023 9.13327 10.3543 8.82277 10.3543C8.51227 10.3543 8.25727 10.1023 8.25727 9.79177C8.25727 9.48127 8.50552 9.22927 8.81602 9.22927H8.82277ZM5.48767 9.22927C5.79817 9.22927 6.05017 9.48127 6.05017 9.79177C6.05017 10.1023 5.79817 10.3543 5.48767 10.3543C5.17717 10.3543 4.92143 10.1023 4.92143 9.79177C4.92143 9.48127 5.17042 9.22927 5.48093 9.22927H5.48767ZM11.2823 3.05632H6.34875L6.34898 3.77782C6.34898 4.08832 6.09697 4.34032 5.78648 4.34032C5.47598 4.34032 5.22398 4.08832 5.22398 3.77782L5.22358 3.07335C3.5434 3.21449 2.625 4.23296 2.625 5.9769V6.30007H15L15 5.9769C15.003 5.05065 14.754 4.33065 14.2598 3.83565C13.8259 3.4005 13.1916 3.14062 12.4083 3.07371L12.4076 3.77782C12.4076 4.08832 12.1556 4.34032 11.8451 4.34032C11.5346 4.34032 11.2826 4.08832 11.2826 3.77782L11.2823 3.05632Z" fill="#666666"/>
</g>
</g>
</g>
</svg>
