<svg width="343" height="193" viewBox="0 0 343 193" fill="none" xmlns="http://www.w3.org/2000/svg">
<rect width="298" height="1" transform="matrix(1 0 0 -1 0 127)" fill="#DDDDDD"/>
<path d="M306.643 124.923V125.804H303.429V124.923H306.643ZM314.829 123.467L314.58 124.327H309.942L310.188 123.467H314.829ZM312.595 129L310.035 125.886L310.024 125.222H311.295C311.617 125.222 311.89 125.173 312.112 125.076C312.337 124.979 312.508 124.837 312.624 124.65C312.742 124.463 312.801 124.231 312.801 123.954C312.801 123.544 312.679 123.221 312.435 122.984C312.192 122.745 311.812 122.626 311.295 122.626H309.942L310.195 121.727H311.295C311.88 121.727 312.361 121.822 312.737 122.011C313.116 122.198 313.398 122.458 313.582 122.789C313.767 123.121 313.859 123.499 313.859 123.925C313.859 124.309 313.78 124.658 313.621 124.973C313.465 125.286 313.215 125.54 312.872 125.737C312.529 125.931 312.077 126.038 311.516 126.06L311.484 126.067L313.835 128.94V129H312.595ZM314.829 121.727L314.58 122.594L310.891 122.569L311.139 121.727H314.829ZM315.636 129V128.254L318.08 125.68C318.347 125.393 318.569 125.142 318.744 124.927C318.919 124.711 319.049 124.507 319.134 124.312C319.22 124.118 319.262 123.914 319.262 123.698C319.262 123.452 319.204 123.24 319.088 123.062C318.972 122.883 318.814 122.744 318.612 122.647C318.413 122.548 318.187 122.498 317.934 122.498C317.669 122.498 317.437 122.552 317.238 122.661C317.042 122.77 316.889 122.924 316.78 123.123C316.673 123.319 316.62 123.551 316.62 123.819H315.64C315.64 123.381 315.741 122.997 315.942 122.668C316.143 122.339 316.419 122.084 316.769 121.901C317.12 121.719 317.516 121.628 317.959 121.628C318.406 121.628 318.802 121.719 319.145 121.901C319.488 122.081 319.756 122.326 319.948 122.636C320.142 122.944 320.239 123.291 320.239 123.677C320.239 123.947 320.189 124.211 320.09 124.469C319.993 124.724 319.821 125.01 319.575 125.325C319.331 125.639 318.991 126.021 318.556 126.468L317.053 128.055V128.109H320.359V129H315.636ZM322.893 128.006L322.84 128.393C322.802 128.672 322.741 128.966 322.659 129.273C322.576 129.581 322.489 129.869 322.399 130.136C322.312 130.406 322.24 130.619 322.183 130.776H321.465C321.496 130.626 321.538 130.428 321.59 130.179C321.644 129.93 321.696 129.652 321.746 129.344C321.798 129.037 321.838 128.723 321.867 128.403L321.906 128.006H322.893ZM326.407 129.114C325.855 129.114 325.384 128.967 324.993 128.673C324.603 128.377 324.303 127.95 324.095 127.391C323.889 126.833 323.786 126.158 323.786 125.367C323.786 124.579 323.89 123.906 324.098 123.35C324.307 122.791 324.606 122.365 324.997 122.072C325.39 121.776 325.86 121.628 326.407 121.628C326.956 121.628 327.426 121.776 327.816 122.072C328.209 122.365 328.51 122.791 328.718 123.35C328.927 123.906 329.031 124.579 329.031 125.367C329.031 126.158 328.927 126.834 328.718 127.395C328.512 127.954 328.214 128.38 327.823 128.673C327.433 128.967 326.961 129.114 326.407 129.114ZM326.407 128.219C326.911 128.219 327.305 127.974 327.589 127.484C327.873 126.994 328.015 126.288 328.015 125.367C328.015 124.754 327.95 124.236 327.82 123.812C327.692 123.386 327.507 123.062 327.266 122.842C327.027 122.62 326.74 122.509 326.407 122.509C325.907 122.509 325.515 122.756 325.231 123.251C324.947 123.743 324.804 124.449 324.801 125.367C324.801 125.98 324.865 126.499 324.993 126.923C325.121 127.346 325.305 127.668 325.544 127.888C325.785 128.109 326.073 128.219 326.407 128.219ZM332.603 129.114C332.051 129.114 331.58 128.967 331.19 128.673C330.799 128.377 330.5 127.95 330.291 127.391C330.085 126.833 329.982 126.158 329.982 125.367C329.982 124.579 330.086 123.906 330.295 123.35C330.503 122.791 330.803 122.365 331.193 122.072C331.586 121.776 332.056 121.628 332.603 121.628C333.152 121.628 333.622 121.776 334.013 122.072C334.406 122.365 334.707 122.791 334.915 123.35C335.123 123.906 335.227 124.579 335.227 125.367C335.227 126.158 335.123 126.834 334.915 127.395C334.709 127.954 334.411 128.38 334.02 128.673C333.629 128.967 333.157 129.114 332.603 129.114ZM332.603 128.219C333.107 128.219 333.501 127.974 333.786 127.484C334.07 126.994 334.212 126.288 334.212 125.367C334.212 124.754 334.147 124.236 334.016 123.812C333.889 123.386 333.704 123.062 333.462 122.842C333.223 122.62 332.937 122.509 332.603 122.509C332.104 122.509 331.712 122.756 331.428 123.251C331.144 123.743 331 124.449 330.998 125.367C330.998 125.98 331.062 126.499 331.19 126.923C331.318 127.346 331.501 127.668 331.74 127.888C331.982 128.109 332.269 128.219 332.603 128.219ZM338.8 129.114C338.248 129.114 337.777 128.967 337.386 128.673C336.996 128.377 336.696 127.95 336.488 127.391C336.282 126.833 336.179 126.158 336.179 125.367C336.179 124.579 336.283 123.906 336.491 123.35C336.7 122.791 336.999 122.365 337.39 122.072C337.783 121.776 338.253 121.628 338.8 121.628C339.349 121.628 339.819 121.776 340.209 122.072C340.602 122.365 340.903 122.791 341.111 123.35C341.32 123.906 341.424 124.579 341.424 125.367C341.424 126.158 341.32 126.834 341.111 127.395C340.905 127.954 340.607 128.38 340.216 128.673C339.826 128.967 339.354 129.114 338.8 129.114ZM338.8 128.219C339.304 128.219 339.698 127.974 339.982 127.484C340.266 126.994 340.408 126.288 340.408 125.367C340.408 124.754 340.343 124.236 340.213 123.812C340.085 123.386 339.9 123.062 339.659 122.842C339.42 122.62 339.133 122.509 338.8 122.509C338.3 122.509 337.908 122.756 337.624 123.251C337.34 123.743 337.197 124.449 337.194 125.367C337.194 125.98 337.258 126.499 337.386 126.923C337.514 127.346 337.698 127.668 337.937 127.888C338.178 128.109 338.466 128.219 338.8 128.219Z" fill="#666666"/>
<rect width="298" height="1" transform="matrix(1 0 0 -1 0 167)" fill="#DDDDDD"/>
<path d="M306.848 164.923V165.804H303.634V164.923H306.848ZM315.034 163.467L314.785 164.327H310.148L310.393 163.467H315.034ZM312.8 169L310.24 165.886L310.229 165.222H311.501C311.823 165.222 312.095 165.173 312.317 165.076C312.542 164.979 312.713 164.837 312.829 164.65C312.947 164.463 313.006 164.231 313.006 163.954C313.006 163.544 312.884 163.221 312.64 162.984C312.397 162.745 312.017 162.626 311.501 162.626H310.148L310.4 161.727H311.501C312.085 161.727 312.566 161.822 312.942 162.011C313.321 162.198 313.603 162.458 313.787 162.789C313.972 163.121 314.064 163.499 314.064 163.925C314.064 164.309 313.985 164.658 313.827 164.973C313.67 165.286 313.421 165.54 313.077 165.737C312.734 165.931 312.282 166.038 311.721 166.06L311.689 166.067L314.04 168.94V169H312.8ZM315.034 161.727L314.785 162.594L311.096 162.569L311.344 161.727H315.034ZM318.2 169.099C317.764 169.099 317.372 169.014 317.024 168.844C316.678 168.673 316.401 168.44 316.193 168.144C315.985 167.846 315.872 167.507 315.856 167.129H316.854C316.884 167.446 317.028 167.707 317.283 167.913C317.539 168.117 317.844 168.219 318.2 168.219C318.486 168.219 318.739 168.154 318.959 168.023C319.182 167.891 319.357 167.709 319.485 167.477C319.613 167.242 319.677 166.976 319.677 166.678C319.677 166.377 319.61 166.108 319.478 165.871C319.348 165.632 319.168 165.445 318.938 165.31C318.709 165.173 318.447 165.103 318.153 165.101C317.931 165.098 317.706 165.135 317.479 165.211C317.254 165.284 317.07 165.38 316.928 165.499L315.98 165.367L316.399 161.727H320.33V162.619H317.258L317.017 164.689H317.06C317.204 164.556 317.392 164.446 317.624 164.359C317.859 164.271 318.106 164.227 318.366 164.227C318.809 164.227 319.204 164.333 319.552 164.543C319.9 164.754 320.174 165.042 320.373 165.406C320.574 165.771 320.675 166.189 320.675 166.66C320.675 167.129 320.568 167.548 320.355 167.917C320.144 168.284 319.852 168.573 319.478 168.783C319.106 168.994 318.68 169.099 318.2 169.099ZM322.893 168.006L322.84 168.393C322.802 168.672 322.741 168.966 322.659 169.273C322.576 169.581 322.489 169.869 322.399 170.136C322.312 170.406 322.24 170.619 322.183 170.776H321.465C321.496 170.626 321.538 170.428 321.59 170.179C321.644 169.93 321.696 169.652 321.746 169.344C321.798 169.037 321.838 168.723 321.867 168.403L321.906 168.006H322.893ZM326.407 169.114C325.855 169.114 325.384 168.967 324.993 168.673C324.603 168.377 324.303 167.95 324.095 167.391C323.889 166.833 323.786 166.158 323.786 165.367C323.786 164.579 323.89 163.906 324.098 163.35C324.307 162.791 324.606 162.365 324.997 162.072C325.39 161.776 325.86 161.628 326.407 161.628C326.956 161.628 327.426 161.776 327.816 162.072C328.209 162.365 328.51 162.791 328.718 163.35C328.927 163.906 329.031 164.579 329.031 165.367C329.031 166.158 328.927 166.834 328.718 167.395C328.512 167.954 328.214 168.38 327.823 168.673C327.433 168.967 326.961 169.114 326.407 169.114ZM326.407 168.219C326.911 168.219 327.305 167.974 327.589 167.484C327.873 166.994 328.015 166.288 328.015 165.367C328.015 164.754 327.95 164.236 327.82 163.812C327.692 163.386 327.507 163.062 327.266 162.842C327.027 162.62 326.74 162.509 326.407 162.509C325.907 162.509 325.515 162.756 325.231 163.251C324.947 163.743 324.804 164.449 324.801 165.367C324.801 165.98 324.865 166.499 324.993 166.923C325.121 167.346 325.305 167.668 325.544 167.888C325.785 168.109 326.073 168.219 326.407 168.219ZM332.603 169.114C332.051 169.114 331.58 168.967 331.19 168.673C330.799 168.377 330.5 167.95 330.291 167.391C330.085 166.833 329.982 166.158 329.982 165.367C329.982 164.579 330.086 163.906 330.295 163.35C330.503 162.791 330.803 162.365 331.193 162.072C331.586 161.776 332.056 161.628 332.603 161.628C333.152 161.628 333.622 161.776 334.013 162.072C334.406 162.365 334.707 162.791 334.915 163.35C335.123 163.906 335.227 164.579 335.227 165.367C335.227 166.158 335.123 166.834 334.915 167.395C334.709 167.954 334.411 168.38 334.02 168.673C333.629 168.967 333.157 169.114 332.603 169.114ZM332.603 168.219C333.107 168.219 333.501 167.974 333.786 167.484C334.07 166.994 334.212 166.288 334.212 165.367C334.212 164.754 334.147 164.236 334.016 163.812C333.889 163.386 333.704 163.062 333.462 162.842C333.223 162.62 332.937 162.509 332.603 162.509C332.104 162.509 331.712 162.756 331.428 163.251C331.144 163.743 331 164.449 330.998 165.367C330.998 165.98 331.062 166.499 331.19 166.923C331.318 167.346 331.501 167.668 331.74 167.888C331.982 168.109 332.269 168.219 332.603 168.219ZM338.8 169.114C338.248 169.114 337.777 168.967 337.386 168.673C336.996 168.377 336.696 167.95 336.488 167.391C336.282 166.833 336.179 166.158 336.179 165.367C336.179 164.579 336.283 163.906 336.491 163.35C336.7 162.791 336.999 162.365 337.39 162.072C337.783 161.776 338.253 161.628 338.8 161.628C339.349 161.628 339.819 161.776 340.209 162.072C340.602 162.365 340.903 162.791 341.111 163.35C341.32 163.906 341.424 164.579 341.424 165.367C341.424 166.158 341.32 166.834 341.111 167.395C340.905 167.954 340.607 168.38 340.216 168.673C339.826 168.967 339.354 169.114 338.8 169.114ZM338.8 168.219C339.304 168.219 339.698 167.974 339.982 167.484C340.266 166.994 340.408 166.288 340.408 165.367C340.408 164.754 340.343 164.236 340.213 163.812C340.085 163.386 339.9 163.062 339.659 162.842C339.42 162.62 339.133 162.509 338.8 162.509C338.3 162.509 337.908 162.756 337.624 163.251C337.34 163.743 337.197 164.449 337.194 165.367C337.194 165.98 337.258 166.499 337.386 166.923C337.514 167.346 337.698 167.668 337.937 167.888C338.178 168.109 338.466 168.219 338.8 168.219Z" fill="#666666"/>
<rect width="298" height="1" transform="matrix(1 0 0 -1 0 6)" fill="#ECEDEE"/>
<path d="M316.034 3.46733L315.785 4.3267H311.148L311.393 3.46733H316.034ZM313.8 9L311.24 5.88565L311.229 5.22159H312.501C312.823 5.22159 313.095 5.17306 313.317 5.07599C313.542 4.97893 313.713 4.83688 313.829 4.64986C313.947 4.46283 314.006 4.23082 314.006 3.95384C314.006 3.54427 313.884 3.22112 313.64 2.98438C313.397 2.74527 313.017 2.62571 312.501 2.62571H311.148L311.4 1.72727H312.501C313.085 1.72727 313.566 1.82197 313.942 2.01136C314.321 2.19839 314.603 2.45762 314.787 2.78906C314.972 3.1205 315.064 3.49929 315.064 3.92543C315.064 4.30895 314.985 4.65814 314.827 4.97301C314.67 5.28551 314.421 5.54001 314.077 5.73651C313.734 5.93063 313.282 6.03835 312.721 6.05966L312.689 6.06676L315.04 8.93963V9H313.8ZM316.034 1.72727L315.785 2.59375L312.096 2.56889L312.344 1.72727H316.034ZM319.2 9.09943C318.764 9.09943 318.372 9.0142 318.024 8.84375C317.678 8.6733 317.401 8.4401 317.193 8.14418C316.985 7.84588 316.872 7.50734 316.856 7.12855H317.854C317.884 7.44579 318.028 7.70739 318.283 7.91335C318.539 8.11695 318.844 8.21875 319.2 8.21875C319.486 8.21875 319.739 8.15365 319.959 8.02344C320.182 7.89086 320.357 7.70857 320.485 7.47656C320.613 7.24219 320.677 6.97585 320.677 6.67756C320.677 6.37689 320.61 6.10819 320.478 5.87145C320.348 5.63234 320.168 5.44531 319.938 5.31037C319.708 5.17306 319.447 5.10322 319.153 5.10085C318.931 5.09848 318.706 5.13518 318.479 5.21094C318.254 5.28433 318.07 5.38021 317.928 5.49858L316.98 5.36719L317.399 1.72727H321.33V2.61861H318.258L318.017 4.68892H318.06C318.204 4.55634 318.392 4.44626 318.624 4.35866C318.859 4.27107 319.106 4.22727 319.366 4.22727C319.809 4.22727 320.204 4.33262 320.552 4.54332C320.9 4.75402 321.174 5.04167 321.373 5.40625C321.574 5.77083 321.675 6.18868 321.675 6.6598C321.675 7.12855 321.568 7.54759 321.355 7.9169C321.144 8.28385 320.852 8.57268 320.478 8.78338C320.106 8.99408 319.68 9.09943 319.2 9.09943ZM323.893 8.00568L323.84 8.39276C323.802 8.67211 323.741 8.96567 323.659 9.27344C323.576 9.5812 323.489 9.86884 323.399 10.1364C323.312 10.4063 323.24 10.6193 323.183 10.7756H322.465C322.496 10.6264 322.538 10.4276 322.59 10.179C322.644 9.9304 322.696 9.65223 322.746 9.34446C322.798 9.0367 322.838 8.72301 322.867 8.40341L322.906 8.00568H323.893ZM327.407 9.11364C326.855 9.11364 326.384 8.96686 325.993 8.6733C325.603 8.37737 325.303 7.95005 325.095 7.39134C324.889 6.83262 324.786 6.15791 324.786 5.36719C324.786 4.57884 324.89 3.90649 325.098 3.35014C325.307 2.79143 325.606 2.36529 325.997 2.07173C326.39 1.7758 326.86 1.62784 327.407 1.62784C327.956 1.62784 328.426 1.7758 328.816 2.07173C329.209 2.36529 329.51 2.79143 329.718 3.35014C329.927 3.90649 330.031 4.57884 330.031 5.36719C330.031 6.15791 329.927 6.83381 329.718 7.39489C329.512 7.9536 329.214 8.37973 328.823 8.6733C328.433 8.96686 327.961 9.11364 327.407 9.11364ZM327.407 8.21875C327.911 8.21875 328.305 7.97372 328.589 7.48366C328.873 6.99361 329.015 6.28812 329.015 5.36719C329.015 4.75402 328.95 4.23556 328.82 3.81179C328.692 3.38565 328.507 3.0625 328.266 2.84233C328.027 2.61979 327.74 2.50852 327.407 2.50852C326.907 2.50852 326.515 2.75592 326.231 3.25071C325.947 3.74313 325.804 4.44863 325.801 5.36719C325.801 5.98035 325.865 6.49882 325.993 6.92259C326.121 7.34635 326.305 7.66832 326.544 7.88849C326.785 8.10866 327.073 8.21875 327.407 8.21875ZM333.603 9.11364C333.051 9.11364 332.58 8.96686 332.19 8.6733C331.799 8.37737 331.5 7.95005 331.291 7.39134C331.085 6.83262 330.982 6.15791 330.982 5.36719C330.982 4.57884 331.086 3.90649 331.295 3.35014C331.503 2.79143 331.803 2.36529 332.193 2.07173C332.586 1.7758 333.056 1.62784 333.603 1.62784C334.152 1.62784 334.622 1.7758 335.013 2.07173C335.406 2.36529 335.707 2.79143 335.915 3.35014C336.123 3.90649 336.227 4.57884 336.227 5.36719C336.227 6.15791 336.123 6.83381 335.915 7.39489C335.709 7.9536 335.411 8.37973 335.02 8.6733C334.629 8.96686 334.157 9.11364 333.603 9.11364ZM333.603 8.21875C334.107 8.21875 334.501 7.97372 334.786 7.48366C335.07 6.99361 335.212 6.28812 335.212 5.36719C335.212 4.75402 335.147 4.23556 335.016 3.81179C334.889 3.38565 334.704 3.0625 334.462 2.84233C334.223 2.61979 333.937 2.50852 333.603 2.50852C333.104 2.50852 332.712 2.75592 332.428 3.25071C332.144 3.74313 332 4.44863 331.998 5.36719C331.998 5.98035 332.062 6.49882 332.19 6.92259C332.318 7.34635 332.501 7.66832 332.74 7.88849C332.982 8.10866 333.269 8.21875 333.603 8.21875ZM339.8 9.11364C339.248 9.11364 338.777 8.96686 338.386 8.6733C337.996 8.37737 337.696 7.95005 337.488 7.39134C337.282 6.83262 337.179 6.15791 337.179 5.36719C337.179 4.57884 337.283 3.90649 337.491 3.35014C337.7 2.79143 337.999 2.36529 338.39 2.07173C338.783 1.7758 339.253 1.62784 339.8 1.62784C340.349 1.62784 340.819 1.7758 341.209 2.07173C341.602 2.36529 341.903 2.79143 342.111 3.35014C342.32 3.90649 342.424 4.57884 342.424 5.36719C342.424 6.15791 342.32 6.83381 342.111 7.39489C341.905 7.9536 341.607 8.37973 341.216 8.6733C340.826 8.96686 340.354 9.11364 339.8 9.11364ZM339.8 8.21875C340.304 8.21875 340.698 7.97372 340.982 7.48366C341.266 6.99361 341.408 6.28812 341.408 5.36719C341.408 4.75402 341.343 4.23556 341.213 3.81179C341.085 3.38565 340.9 3.0625 340.659 2.84233C340.42 2.61979 340.133 2.50852 339.8 2.50852C339.3 2.50852 338.908 2.75592 338.624 3.25071C338.34 3.74313 338.197 4.44863 338.194 5.36719C338.194 5.98035 338.258 6.49882 338.386 6.92259C338.514 7.34635 338.698 7.66832 338.937 7.88849C339.178 8.10866 339.466 8.21875 339.8 8.21875Z" fill="#666666"/>
<rect width="298" height="1" transform="matrix(1 0 0 -1 0 46)" fill="#ECEDEE"/>
<path d="M314.829 43.4673L314.58 44.3267H309.942L310.188 43.4673H314.829ZM312.595 49L310.035 45.8857L310.024 45.2216H311.295C311.617 45.2216 311.89 45.1731 312.112 45.076C312.337 44.9789 312.508 44.8369 312.624 44.6499C312.742 44.4628 312.801 44.2308 312.801 43.9538C312.801 43.5443 312.679 43.2211 312.435 42.9844C312.192 42.7453 311.812 42.6257 311.295 42.6257H309.942L310.195 41.7273H311.295C311.88 41.7273 312.361 41.822 312.737 42.0114C313.116 42.1984 313.398 42.4576 313.582 42.7891C313.767 43.1205 313.859 43.4993 313.859 43.9254C313.859 44.3089 313.78 44.6581 313.621 44.973C313.465 45.2855 313.215 45.54 312.872 45.7365C312.529 45.9306 312.077 46.0384 311.516 46.0597L311.484 46.0668L313.835 48.9396V49H312.595ZM314.829 41.7273L314.58 42.5938L310.891 42.5689L311.139 41.7273H314.829ZM315.636 49V48.2543L318.08 45.6797C318.347 45.3932 318.569 45.1423 318.744 44.9268C318.919 44.7114 319.049 44.5066 319.134 44.3125C319.22 44.1184 319.262 43.9136 319.262 43.6982C319.262 43.4519 319.204 43.2401 319.088 43.0625C318.972 42.8826 318.814 42.7441 318.612 42.647C318.413 42.5476 318.187 42.4979 317.934 42.4979C317.669 42.4979 317.437 42.5523 317.238 42.6612C317.042 42.7701 316.889 42.924 316.78 43.1229C316.673 43.3194 316.62 43.5514 316.62 43.8189H315.64C315.64 43.3809 315.741 42.9974 315.942 42.6683C316.143 42.3393 316.419 42.0836 316.769 41.9013C317.12 41.719 317.516 41.6278 317.959 41.6278C318.406 41.6278 318.802 41.719 319.145 41.9013C319.488 42.0812 319.756 42.3262 319.948 42.6364C320.142 42.9441 320.239 43.291 320.239 43.6768C320.239 43.9467 320.189 44.2107 320.09 44.4688C319.993 44.7244 319.821 45.0097 319.575 45.3246C319.331 45.6394 318.991 46.0206 318.556 46.468L317.053 48.0554V48.1087H320.359V49H315.636ZM322.893 48.0057L322.84 48.3928C322.802 48.6721 322.741 48.9657 322.659 49.2734C322.576 49.5812 322.489 49.8688 322.399 50.1364C322.312 50.4063 322.24 50.6193 322.183 50.7756H321.465C321.496 50.6264 321.538 50.4276 321.59 50.179C321.644 49.9304 321.696 49.6522 321.746 49.3445C321.798 49.0367 321.838 48.723 321.867 48.4034L321.906 48.0057H322.893ZM326.407 49.1136C325.855 49.1136 325.384 48.9669 324.993 48.6733C324.603 48.3774 324.303 47.95 324.095 47.3913C323.889 46.8326 323.786 46.1579 323.786 45.3672C323.786 44.5788 323.89 43.9065 324.098 43.3501C324.307 42.7914 324.606 42.3653 324.997 42.0717C325.39 41.7758 325.86 41.6278 326.407 41.6278C326.956 41.6278 327.426 41.7758 327.816 42.0717C328.209 42.3653 328.51 42.7914 328.718 43.3501C328.927 43.9065 329.031 44.5788 329.031 45.3672C329.031 46.1579 328.927 46.8338 328.718 47.3949C328.512 47.9536 328.214 48.3797 327.823 48.6733C327.433 48.9669 326.961 49.1136 326.407 49.1136ZM326.407 48.2188C326.911 48.2188 327.305 47.9737 327.589 47.4837C327.873 46.9936 328.015 46.2881 328.015 45.3672C328.015 44.754 327.95 44.2356 327.82 43.8118C327.692 43.3857 327.507 43.0625 327.266 42.8423C327.027 42.6198 326.74 42.5085 326.407 42.5085C325.907 42.5085 325.515 42.7559 325.231 43.2507C324.947 43.7431 324.804 44.4486 324.801 45.3672C324.801 45.9804 324.865 46.4988 324.993 46.9226C325.121 47.3464 325.305 47.6683 325.544 47.8885C325.785 48.1087 326.073 48.2188 326.407 48.2188ZM332.603 49.1136C332.051 49.1136 331.58 48.9669 331.19 48.6733C330.799 48.3774 330.5 47.95 330.291 47.3913C330.085 46.8326 329.982 46.1579 329.982 45.3672C329.982 44.5788 330.086 43.9065 330.295 43.3501C330.503 42.7914 330.803 42.3653 331.193 42.0717C331.586 41.7758 332.056 41.6278 332.603 41.6278C333.152 41.6278 333.622 41.7758 334.013 42.0717C334.406 42.3653 334.707 42.7914 334.915 43.3501C335.123 43.9065 335.227 44.5788 335.227 45.3672C335.227 46.1579 335.123 46.8338 334.915 47.3949C334.709 47.9536 334.411 48.3797 334.02 48.6733C333.629 48.9669 333.157 49.1136 332.603 49.1136ZM332.603 48.2188C333.107 48.2188 333.501 47.9737 333.786 47.4837C334.07 46.9936 334.212 46.2881 334.212 45.3672C334.212 44.754 334.147 44.2356 334.016 43.8118C333.889 43.3857 333.704 43.0625 333.462 42.8423C333.223 42.6198 332.937 42.5085 332.603 42.5085C332.104 42.5085 331.712 42.7559 331.428 43.2507C331.144 43.7431 331 44.4486 330.998 45.3672C330.998 45.9804 331.062 46.4988 331.19 46.9226C331.318 47.3464 331.501 47.6683 331.74 47.8885C331.982 48.1087 332.269 48.2188 332.603 48.2188ZM338.8 49.1136C338.248 49.1136 337.777 48.9669 337.386 48.6733C336.996 48.3774 336.696 47.95 336.488 47.3913C336.282 46.8326 336.179 46.1579 336.179 45.3672C336.179 44.5788 336.283 43.9065 336.491 43.3501C336.7 42.7914 336.999 42.3653 337.39 42.0717C337.783 41.7758 338.253 41.6278 338.8 41.6278C339.349 41.6278 339.819 41.7758 340.209 42.0717C340.602 42.3653 340.903 42.7914 341.111 43.3501C341.32 43.9065 341.424 44.5788 341.424 45.3672C341.424 46.1579 341.32 46.8338 341.111 47.3949C340.905 47.9536 340.607 48.3797 340.216 48.6733C339.826 48.9669 339.354 49.1136 338.8 49.1136ZM338.8 48.2188C339.304 48.2188 339.698 47.9737 339.982 47.4837C340.266 46.9936 340.408 46.2881 340.408 45.3672C340.408 44.754 340.343 44.2356 340.213 43.8118C340.085 43.3857 339.9 43.0625 339.659 42.8423C339.42 42.6198 339.133 42.5085 338.8 42.5085C338.3 42.5085 337.908 42.7559 337.624 43.2507C337.34 43.7431 337.197 44.4486 337.194 45.3672C337.194 45.9804 337.258 46.4988 337.386 46.9226C337.514 47.3464 337.698 47.6683 337.937 47.8885C338.178 48.1087 338.466 48.2188 338.8 48.2188Z" fill="#666666"/>
<rect width="298" height="1" transform="matrix(1 0 0 -1 0 87)" fill="#DDDDDD"/>
<path d="M338.8 89.1136C338.248 89.1136 337.777 88.9669 337.386 88.6733C336.996 88.3774 336.696 87.95 336.488 87.3913C336.282 86.8326 336.179 86.1579 336.179 85.3672C336.179 84.5788 336.283 83.9065 336.491 83.3501C336.7 82.7914 336.999 82.3653 337.39 82.0717C337.783 81.7758 338.253 81.6278 338.8 81.6278C339.349 81.6278 339.819 81.7758 340.209 82.0717C340.602 82.3653 340.903 82.7914 341.111 83.3501C341.32 83.9065 341.424 84.5788 341.424 85.3672C341.424 86.1579 341.32 86.8338 341.111 87.3949C340.905 87.9536 340.607 88.3797 340.216 88.6733C339.826 88.9669 339.354 89.1136 338.8 89.1136ZM338.8 88.2188C339.304 88.2188 339.698 87.9737 339.982 87.4837C340.266 86.9936 340.408 86.2881 340.408 85.3672C340.408 84.754 340.343 84.2356 340.213 83.8118C340.085 83.3857 339.9 83.0625 339.659 82.8423C339.42 82.6198 339.133 82.5085 338.8 82.5085C338.3 82.5085 337.908 82.7559 337.624 83.2507C337.34 83.7431 337.197 84.4486 337.194 85.3672C337.194 85.9804 337.258 86.4988 337.386 86.9226C337.514 87.3464 337.698 87.6683 337.937 87.8885C338.178 88.1087 338.466 88.2188 338.8 88.2188Z" fill="#666666"/>
<path d="M11.7173 191V190.254L14.1605 187.68C14.428 187.393 14.6494 187.142 14.8246 186.927C14.9998 186.711 15.13 186.507 15.2152 186.312C15.3004 186.118 15.343 185.914 15.343 185.698C15.343 185.452 15.285 185.24 15.169 185.062C15.053 184.883 14.8944 184.744 14.6932 184.647C14.4943 184.548 14.2682 184.498 14.0149 184.498C13.7498 184.498 13.5178 184.552 13.3189 184.661C13.1224 184.77 12.9697 184.924 12.8608 185.123C12.7543 185.319 12.701 185.551 12.701 185.819H11.7209C11.7209 185.381 11.8215 184.997 12.0227 184.668C12.224 184.339 12.4998 184.084 12.8501 183.901C13.2005 183.719 13.5971 183.628 14.0398 183.628C14.4872 183.628 14.8826 183.719 15.2259 183.901C15.5691 184.081 15.8366 184.326 16.0284 184.636C16.2225 184.944 16.3196 185.291 16.3196 185.677C16.3196 185.947 16.2699 186.211 16.1705 186.469C16.0734 186.724 15.9018 187.01 15.6555 187.325C15.4117 187.639 15.072 188.021 14.6364 188.468L13.1342 190.055V190.109H16.4403V191H11.7173ZM20.0995 191.114C19.5479 191.114 19.0768 190.967 18.6862 190.673C18.2956 190.377 17.9961 189.95 17.7877 189.391C17.5818 188.833 17.4788 188.158 17.4788 187.367C17.4788 186.579 17.583 185.906 17.7913 185.35C17.9996 184.791 18.2991 184.365 18.6897 184.072C19.0827 183.776 19.5527 183.628 20.0995 183.628C20.6488 183.628 21.1187 183.776 21.5093 184.072C21.9023 184.365 22.203 184.791 22.4113 185.35C22.6197 185.906 22.7238 186.579 22.7238 187.367C22.7238 188.158 22.6197 188.834 22.4113 189.395C22.2054 189.954 21.9071 190.38 21.5164 190.673C21.1258 190.967 20.6535 191.114 20.0995 191.114ZM20.0995 190.219C20.6038 190.219 20.998 189.974 21.2821 189.484C21.5662 188.994 21.7082 188.288 21.7082 187.367C21.7082 186.754 21.6431 186.236 21.5129 185.812C21.385 185.386 21.2004 185.062 20.9589 184.842C20.7198 184.62 20.4333 184.509 20.0995 184.509C19.6 184.509 19.2082 184.756 18.9241 185.251C18.64 185.743 18.4968 186.449 18.4944 187.367C18.4944 187.98 18.5583 188.499 18.6862 188.923C18.814 189.346 18.9975 189.668 19.2366 189.888C19.4781 190.109 19.7657 190.219 20.0995 190.219ZM26.5126 183.727V191H25.4793V184.775H25.4366L23.6859 185.922V184.92L25.5006 183.727H26.5126ZM30.701 183.628C31.0158 183.63 31.3283 183.688 31.6385 183.802C31.9486 183.915 32.2291 184.104 32.4801 184.366C32.7334 184.627 32.9358 184.98 33.0873 185.425C33.2388 185.87 33.3146 186.425 33.3146 187.09C33.3146 187.729 33.2519 188.298 33.1264 188.795C33.0009 189.292 32.8198 189.712 32.5831 190.055C32.3487 190.396 32.0646 190.656 31.7308 190.833C31.397 191.011 31.0206 191.099 30.6015 191.099C30.1754 191.099 29.7966 191.015 29.4652 190.847C29.1361 190.679 28.8674 190.446 28.6591 190.148C28.4507 189.849 28.3193 189.506 28.2649 189.118H29.2805C29.3539 189.435 29.5019 189.694 29.7244 189.896C29.9493 190.094 30.2417 190.194 30.6015 190.194C31.1413 190.194 31.5651 189.958 31.8728 189.487C32.1806 189.014 32.3345 188.35 32.3345 187.495H32.2812C32.1534 187.699 31.9971 187.874 31.8125 188.021C31.6302 188.165 31.4254 188.277 31.1981 188.358C30.9732 188.436 30.7341 188.475 30.4808 188.475C30.0618 188.475 29.6794 188.372 29.3338 188.166C28.9905 187.96 28.7159 187.677 28.5099 187.317C28.3063 186.955 28.2045 186.542 28.2045 186.078C28.2045 185.624 28.3075 185.21 28.5135 184.839C28.7194 184.465 29.0094 184.168 29.3835 183.947C29.7575 183.727 30.1967 183.621 30.701 183.628ZM30.701 184.509C30.4169 184.509 30.1612 184.578 29.9339 184.718C29.709 184.858 29.5303 185.046 29.3977 185.283C29.2675 185.519 29.2036 185.781 29.2059 186.067C29.2059 186.356 29.2687 186.618 29.3941 186.852C29.522 187.087 29.6972 187.274 29.9197 187.413C30.1422 187.551 30.3956 187.619 30.6797 187.619C30.8927 187.619 31.0916 187.578 31.2762 187.495C31.4609 187.41 31.6219 187.294 31.7592 187.147C31.8965 187 32.0042 186.833 32.0824 186.646C32.1628 186.459 32.2019 186.263 32.1995 186.057C32.1995 185.785 32.1344 185.531 32.0042 185.297C31.8764 185.06 31.6988 184.87 31.4716 184.725C31.2466 184.581 30.9898 184.509 30.701 184.509Z" fill="#737373"/>
<rect x="11" y="42" width="28" height="44" fill="#F9CD6C"/>
<path d="M9.15057 29.5739L8.9517 30.2614H5.24148L5.4375 29.5739H9.15057ZM7.36364 34L5.31534 31.5085L5.30682 30.9773H6.32386C6.58144 30.9773 6.79924 30.9384 6.97727 30.8608C7.1572 30.7831 7.29356 30.6695 7.38636 30.5199C7.48106 30.3703 7.52841 30.1847 7.52841 29.9631C7.52841 29.6354 7.43087 29.3769 7.2358 29.1875C7.04072 28.9962 6.73674 28.9006 6.32386 28.9006H5.24148L5.44318 28.1818H6.32386C6.79167 28.1818 7.17614 28.2576 7.47727 28.4091C7.7803 28.5587 8.00568 28.7661 8.15341 29.0312C8.30114 29.2964 8.375 29.5994 8.375 29.9403C8.375 30.2472 8.31155 30.5265 8.18466 30.7784C8.05966 31.0284 7.85985 31.232 7.58523 31.3892C7.31061 31.5445 6.94886 31.6307 6.5 31.6477L6.47443 31.6534L8.35511 33.9517V34H7.36364ZM9.15057 28.1818L8.9517 28.875L6 28.8551L6.19886 28.1818H9.15057ZM11.9529 28.1818V34H11.1262V29.0199H11.0921L9.69156 29.9375V29.1364L11.1433 28.1818H11.9529ZM14.1409 33.2045L14.0983 33.5142C14.068 33.7377 14.0197 33.9725 13.9534 34.2188C13.8871 34.465 13.818 34.6951 13.7461 34.9091C13.676 35.125 13.6182 35.2955 13.5728 35.4205H12.9989C13.0235 35.3011 13.0567 35.142 13.0983 34.9432C13.1419 34.7443 13.1836 34.5218 13.2233 34.2756C13.265 34.0294 13.2972 33.7784 13.3199 33.5227L13.3512 33.2045H14.1409ZM17.0186 28.1023C17.2705 28.1042 17.5205 28.1506 17.7686 28.2415C18.0167 28.3324 18.2411 28.483 18.4419 28.6932C18.6445 28.9015 18.8065 29.1837 18.9277 29.5398C19.0489 29.8958 19.1095 30.34 19.1095 30.8722C19.1095 31.3835 19.0593 31.8381 18.9589 32.2358C18.8585 32.6335 18.7137 32.9697 18.5243 33.2443C18.3368 33.517 18.1095 33.7244 17.8424 33.8665C17.5754 34.0085 17.2743 34.0795 16.939 34.0795C16.5981 34.0795 16.2951 34.0123 16.0299 33.8778C15.7667 33.7434 15.5517 33.5568 15.3851 33.3182C15.2184 33.0795 15.1133 32.8049 15.0697 32.4943H15.8822C15.9409 32.7481 16.0593 32.9555 16.2373 33.1165C16.4173 33.2756 16.6512 33.3551 16.939 33.3551C17.3709 33.3551 17.7099 33.1667 17.9561 32.7898C18.2023 32.411 18.3254 31.8797 18.3254 31.196H18.2828C18.1805 31.3589 18.0555 31.4991 17.9078 31.6165C17.762 31.732 17.5981 31.822 17.4163 31.8864C17.2364 31.9489 17.0451 31.9801 16.8424 31.9801C16.5072 31.9801 16.2013 31.8977 15.9248 31.733C15.6502 31.5682 15.4305 31.3419 15.2657 31.054C15.1029 30.7642 15.0214 30.4337 15.0214 30.0625C15.0214 29.6989 15.1038 29.3684 15.2686 29.071C15.4334 28.7718 15.6654 28.5341 15.9646 28.358C16.2638 28.1818 16.6152 28.0966 17.0186 28.1023ZM17.0186 28.8068C16.7913 28.8068 16.5868 28.8627 16.4049 28.9744C16.225 29.0862 16.082 29.2367 15.976 29.4261C15.8718 29.6155 15.8207 29.8248 15.8226 30.054C15.8226 30.285 15.8727 30.4943 15.9731 30.6818C16.0754 30.8693 16.2155 31.0189 16.3936 31.1307C16.5716 31.2405 16.7743 31.2955 17.0015 31.2955C17.172 31.2955 17.3311 31.2623 17.4788 31.196C17.6265 31.1278 17.7553 31.035 17.8652 30.9176C17.975 30.8002 18.0612 30.6667 18.1237 30.517C18.1881 30.3674 18.2193 30.2102 18.2174 30.0455C18.2174 29.8277 18.1654 29.625 18.0612 29.4375C17.9589 29.2481 17.8169 29.0956 17.6351 28.9801C17.4551 28.8646 17.2496 28.8068 17.0186 28.8068ZM20.0383 34L22.5979 28.9375V28.8949H19.6405V28.1818H23.4502V28.9233L20.8991 34H20.0383ZM26.1283 28.1023C26.3802 28.1042 26.6302 28.1506 26.8783 28.2415C27.1264 28.3324 27.3508 28.483 27.5516 28.6932C27.7542 28.9015 27.9161 29.1837 28.0374 29.5398C28.1586 29.8958 28.2192 30.34 28.2192 30.8722C28.2192 31.3835 28.169 31.8381 28.0686 32.2358C27.9682 32.6335 27.8233 32.9697 27.6339 33.2443C27.4464 33.517 27.2192 33.7244 26.9521 33.8665C26.6851 34.0085 26.3839 34.0795 26.0487 34.0795C25.7078 34.0795 25.4048 34.0123 25.1396 33.8778C24.8764 33.7434 24.6614 33.5568 24.4947 33.3182C24.3281 33.0795 24.223 32.8049 24.1794 32.4943H24.9919C25.0506 32.7481 25.169 32.9555 25.347 33.1165C25.5269 33.2756 25.7608 33.3551 26.0487 33.3551C26.4805 33.3551 26.8196 33.1667 27.0658 32.7898C27.312 32.411 27.4351 31.8797 27.4351 31.196H27.3925C27.2902 31.3589 27.1652 31.4991 27.0175 31.6165C26.8716 31.732 26.7078 31.822 26.526 31.8864C26.3461 31.9489 26.1548 31.9801 25.9521 31.9801C25.6169 31.9801 25.311 31.8977 25.0345 31.733C24.7599 31.5682 24.5402 31.3419 24.3754 31.054C24.2125 30.7642 24.1311 30.4337 24.1311 30.0625C24.1311 29.6989 24.2135 29.3684 24.3783 29.071C24.543 28.7718 24.775 28.5341 25.0743 28.358C25.3735 28.1818 25.7249 28.0966 26.1283 28.1023ZM26.1283 28.8068C25.901 28.8068 25.6964 28.8627 25.5146 28.9744C25.3347 29.0862 25.1917 29.2367 25.0857 29.4261C24.9815 29.6155 24.9304 29.8248 24.9322 30.054C24.9322 30.285 24.9824 30.4943 25.0828 30.6818C25.1851 30.8693 25.3252 31.0189 25.5033 31.1307C25.6813 31.2405 25.8839 31.2955 26.1112 31.2955C26.2817 31.2955 26.4408 31.2623 26.5885 31.196C26.7362 31.1278 26.865 31.035 26.9749 30.9176C27.0847 30.8002 27.1709 30.6667 27.2334 30.517C27.2978 30.3674 27.329 30.2102 27.3271 30.0455C27.3271 29.8277 27.275 29.625 27.1709 29.4375C27.0686 29.2481 26.9266 29.0956 26.7447 28.9801C26.5648 28.8646 26.3593 28.8068 26.1283 28.8068ZM29.4512 34.0511C29.2997 34.0511 29.17 33.9972 29.062 33.8892C28.9541 33.7812 28.9001 33.6515 28.9001 33.5C28.9001 33.3504 28.9541 33.2216 29.062 33.1136C29.17 33.0057 29.2997 32.9517 29.4512 32.9517C29.6008 32.9517 29.7296 33.0057 29.8376 33.1136C29.9474 33.2216 30.0024 33.3504 30.0024 33.5C30.0024 33.6004 29.9768 33.6932 29.9257 33.7784C29.8764 33.8617 29.8101 33.928 29.7268 33.9773C29.6435 34.0265 29.5516 34.0511 29.4512 34.0511ZM30.9851 34V33.4034L32.9397 31.3438C33.1537 31.1146 33.3308 30.9138 33.4709 30.7415C33.6111 30.5691 33.7152 30.4053 33.7834 30.25C33.8516 30.0947 33.8857 29.9309 33.8857 29.7585C33.8857 29.5616 33.8393 29.392 33.7465 29.25C33.6537 29.1061 33.5268 28.9953 33.3658 28.9176C33.2067 28.8381 33.0258 28.7983 32.8232 28.7983C32.6111 28.7983 32.4255 28.8419 32.2664 28.929C32.1092 29.0161 31.987 29.1392 31.8999 29.2983C31.8147 29.4555 31.772 29.6411 31.772 29.8551H30.988C30.988 29.5047 31.0684 29.1979 31.2294 28.9347C31.3904 28.6714 31.6111 28.4669 31.8914 28.321C32.1717 28.1752 32.4889 28.1023 32.8431 28.1023C33.201 28.1023 33.5173 28.1752 33.7919 28.321C34.0666 28.465 34.2806 28.661 34.434 28.9091C34.5893 29.1553 34.6669 29.4328 34.6669 29.7415C34.6669 29.9574 34.6272 30.1686 34.5476 30.375C34.47 30.5795 34.3327 30.8078 34.1357 31.0597C33.9406 31.3116 33.6688 31.6165 33.3203 31.9744L32.1186 33.2443V33.2869H34.7635V34H30.9851Z" fill="#101010"/>
<path d="M77.1506 46.5739L76.9517 47.2614H73.2415L73.4375 46.5739H77.1506ZM75.3636 51L73.3153 48.5085L73.3068 47.9773H74.3239C74.5814 47.9773 74.7992 47.9384 74.9773 47.8608C75.1572 47.7831 75.2936 47.6695 75.3864 47.5199C75.4811 47.3703 75.5284 47.1847 75.5284 46.9631C75.5284 46.6354 75.4309 46.3769 75.2358 46.1875C75.0407 45.9962 74.7367 45.9006 74.3239 45.9006H73.2415L73.4432 45.1818H74.3239C74.7917 45.1818 75.1761 45.2576 75.4773 45.4091C75.7803 45.5587 76.0057 45.7661 76.1534 46.0312C76.3011 46.2964 76.375 46.5994 76.375 46.9403C76.375 47.2472 76.3116 47.5265 76.1847 47.7784C76.0597 48.0284 75.8598 48.232 75.5852 48.3892C75.3106 48.5445 74.9489 48.6307 74.5 48.6477L74.4744 48.6534L76.3551 50.9517V51H75.3636ZM77.1506 45.1818L76.9517 45.875L74 45.8551L74.1989 45.1818H77.1506ZM79.9529 45.1818V51H79.1262V46.0199H79.0921L77.6916 46.9375V46.1364L79.1433 45.1818H79.9529ZM82.1409 50.2045L82.0983 50.5142C82.068 50.7377 82.0197 50.9725 81.9534 51.2188C81.8871 51.465 81.818 51.6951 81.7461 51.9091C81.676 52.125 81.6182 52.2955 81.5728 52.4205H80.9989C81.0235 52.3011 81.0567 52.142 81.0983 51.9432C81.1419 51.7443 81.1836 51.5218 81.2233 51.2756C81.265 51.0294 81.2972 50.7784 81.3199 50.5227L81.3512 50.2045H82.1409ZM83.052 49.8466V49.1761L85.5804 45.1818H86.0974V46.1818H85.7622L83.9241 49.0938V49.1392H87.3701V49.8466H83.052ZM85.8048 51V49.642L85.8076 49.3352V45.1818H86.5917V51H85.8048ZM88.4133 51L90.9729 45.9375V45.8949H88.0155V45.1818H91.8252V45.9233L89.2741 51H88.4133ZM94.5033 45.1023C94.7552 45.1042 95.0052 45.1506 95.2533 45.2415C95.5014 45.3324 95.7258 45.483 95.9266 45.6932C96.1292 45.9015 96.2911 46.1837 96.4124 46.5398C96.5336 46.8958 96.5942 47.34 96.5942 47.8722C96.5942 48.3835 96.544 48.8381 96.4436 49.2358C96.3432 49.6335 96.1983 49.9697 96.0089 50.2443C95.8214 50.517 95.5942 50.7244 95.3271 50.8665C95.0601 51.0085 94.7589 51.0795 94.4237 51.0795C94.0828 51.0795 93.7798 51.0123 93.5146 50.8778C93.2514 50.7434 93.0364 50.5568 92.8697 50.3182C92.7031 50.0795 92.598 49.8049 92.5544 49.4943H93.3669C93.4256 49.7481 93.544 49.9555 93.722 50.1165C93.9019 50.2756 94.1358 50.3551 94.4237 50.3551C94.8555 50.3551 95.1946 50.1667 95.4408 49.7898C95.687 49.411 95.8101 48.8797 95.8101 48.196H95.7675C95.6652 48.3589 95.5402 48.4991 95.3925 48.6165C95.2466 48.732 95.0828 48.822 94.901 48.8864C94.7211 48.9489 94.5298 48.9801 94.3271 48.9801C93.9919 48.9801 93.686 48.8977 93.4095 48.733C93.1349 48.5682 92.9152 48.3419 92.7504 48.054C92.5875 47.7642 92.5061 47.4337 92.5061 47.0625C92.5061 46.6989 92.5885 46.3684 92.7533 46.071C92.918 45.7718 93.15 45.5341 93.4493 45.358C93.7485 45.1818 94.0999 45.0966 94.5033 45.1023ZM94.5033 45.8068C94.276 45.8068 94.0714 45.8627 93.8896 45.9744C93.7097 46.0862 93.5667 46.2367 93.4607 46.4261C93.3565 46.6155 93.3054 46.8248 93.3072 47.054C93.3072 47.285 93.3574 47.4943 93.4578 47.6818C93.5601 47.8693 93.7002 48.0189 93.8783 48.1307C94.0563 48.2405 94.2589 48.2955 94.4862 48.2955C94.6567 48.2955 94.8158 48.2623 94.9635 48.196C95.1112 48.1278 95.24 48.035 95.3499 47.9176C95.4597 47.8002 95.5459 47.6667 95.6084 47.517C95.6728 47.3674 95.704 47.2102 95.7021 47.0455C95.7021 46.8277 95.65 46.625 95.5459 46.4375C95.4436 46.2481 95.3016 46.0956 95.1197 45.9801C94.9398 45.8646 94.7343 45.8068 94.5033 45.8068ZM97.8262 51.0511C97.6747 51.0511 97.545 50.9972 97.437 50.8892C97.3291 50.7812 97.2751 50.6515 97.2751 50.5C97.2751 50.3504 97.3291 50.2216 97.437 50.1136C97.545 50.0057 97.6747 49.9517 97.8262 49.9517C97.9758 49.9517 98.1046 50.0057 98.2126 50.1136C98.3224 50.2216 98.3774 50.3504 98.3774 50.5C98.3774 50.6004 98.3518 50.6932 98.3007 50.7784C98.2514 50.8617 98.1851 50.928 98.1018 50.9773C98.0185 51.0265 97.9266 51.0511 97.8262 51.0511ZM99.3601 51V50.4034L101.315 48.3438C101.529 48.1146 101.706 47.9138 101.846 47.7415C101.986 47.5691 102.09 47.4053 102.158 47.25C102.227 47.0947 102.261 46.9309 102.261 46.7585C102.261 46.5616 102.214 46.392 102.121 46.25C102.029 46.1061 101.902 45.9953 101.741 45.9176C101.582 45.8381 101.401 45.7983 101.198 45.7983C100.986 45.7983 100.8 45.8419 100.641 45.929C100.484 46.0161 100.362 46.1392 100.275 46.2983C100.19 46.4555 100.147 46.6411 100.147 46.8551H99.363C99.363 46.5047 99.4434 46.1979 99.6044 45.9347C99.7654 45.6714 99.9861 45.4669 100.266 45.321C100.547 45.1752 100.864 45.1023 101.218 45.1023C101.576 45.1023 101.892 45.1752 102.167 45.321C102.442 45.465 102.656 45.661 102.809 45.9091C102.964 46.1553 103.042 46.4328 103.042 46.7415C103.042 46.9574 103.002 47.1686 102.923 47.375C102.845 47.5795 102.708 47.8078 102.511 48.0597C102.316 48.3116 102.044 48.6165 101.695 48.9744L100.494 50.2443V50.2869H103.139V51H99.3601Z" fill="#101010"/>
<path d="M145.151 66.5739L144.952 67.2614H141.241L141.438 66.5739H145.151ZM143.364 71L141.315 68.5085L141.307 67.9773H142.324C142.581 67.9773 142.799 67.9384 142.977 67.8608C143.157 67.7831 143.294 67.6695 143.386 67.5199C143.481 67.3703 143.528 67.1847 143.528 66.9631C143.528 66.6354 143.431 66.3769 143.236 66.1875C143.041 65.9962 142.737 65.9006 142.324 65.9006H141.241L141.443 65.1818H142.324C142.792 65.1818 143.176 65.2576 143.477 65.4091C143.78 65.5587 144.006 65.7661 144.153 66.0312C144.301 66.2964 144.375 66.5994 144.375 66.9403C144.375 67.2472 144.312 67.5265 144.185 67.7784C144.06 68.0284 143.86 68.232 143.585 68.3892C143.311 68.5445 142.949 68.6307 142.5 68.6477L142.474 68.6534L144.355 70.9517V71H143.364ZM145.151 65.1818L144.952 65.875L142 65.8551L142.199 65.1818H145.151ZM147.728 71.0795C147.329 71.0795 146.975 71.0095 146.666 70.8693C146.357 70.7292 146.117 70.536 145.944 70.2898C145.772 70.0436 145.687 69.7633 145.689 69.4489C145.687 69.2045 145.736 68.9782 145.836 68.7699C145.939 68.5616 146.078 68.3883 146.254 68.25C146.43 68.1098 146.627 68.0208 146.845 67.983V67.946C146.559 67.8759 146.33 67.7206 146.157 67.4801C145.987 67.2396 145.903 66.964 145.905 66.6534C145.903 66.3561 145.98 66.0909 146.138 65.858C146.295 65.6231 146.511 65.4384 146.785 65.304C147.062 65.1695 147.376 65.1023 147.728 65.1023C148.079 65.1023 148.391 65.1695 148.666 65.304C148.941 65.4384 149.157 65.6231 149.314 65.858C149.473 66.0909 149.553 66.3561 149.555 66.6534C149.553 66.964 149.466 67.2396 149.294 67.4801C149.121 67.7206 148.895 67.8759 148.615 67.946V67.983C148.831 68.0208 149.025 68.1098 149.197 68.25C149.371 68.3883 149.51 68.5616 149.612 68.7699C149.716 68.9782 149.769 69.2045 149.771 69.4489C149.769 69.7633 149.681 70.0436 149.507 70.2898C149.335 70.536 149.095 70.7292 148.788 70.8693C148.481 71.0095 148.128 71.0795 147.728 71.0795ZM147.728 70.3892C147.977 70.3892 148.191 70.3485 148.371 70.267C148.552 70.1856 148.693 70.071 148.791 69.9233C148.891 69.7737 148.943 69.5994 148.944 69.4006C148.943 69.1941 148.889 69.0114 148.782 68.8523C148.676 68.6913 148.532 68.5653 148.351 68.4744C148.169 68.3816 147.961 68.3352 147.728 68.3352C147.496 68.3352 147.287 68.3816 147.103 68.4744C146.92 68.5653 146.775 68.6913 146.669 68.8523C146.565 69.0114 146.514 69.1941 146.515 69.4006C146.514 69.5994 146.562 69.7737 146.66 69.9233C146.759 70.071 146.899 70.1856 147.081 70.267C147.264 70.3485 147.48 70.3892 147.728 70.3892ZM147.728 67.6676C147.927 67.6676 148.103 67.6278 148.257 67.5483C148.41 67.4687 148.531 67.358 148.618 67.2159C148.707 67.072 148.752 66.9053 148.754 66.7159C148.752 66.5303 148.708 66.3684 148.621 66.2301C148.535 66.09 148.416 65.9811 148.263 65.9034C148.109 65.8258 147.931 65.7869 147.728 65.7869C147.524 65.7869 147.344 65.8258 147.189 65.9034C147.033 65.9811 146.913 66.09 146.828 66.2301C146.745 66.3684 146.704 66.5303 146.706 66.7159C146.704 66.9053 146.746 67.072 146.834 67.2159C146.921 67.358 147.041 67.4687 147.194 67.5483C147.35 67.6278 147.528 67.6676 147.728 67.6676ZM152.584 71.0795C152.184 71.0795 151.83 71.0095 151.522 70.8693C151.213 70.7292 150.972 70.536 150.8 70.2898C150.628 70.0436 150.542 69.7633 150.544 69.4489C150.542 69.2045 150.592 68.9782 150.692 68.7699C150.794 68.5616 150.934 68.3883 151.11 68.25C151.286 68.1098 151.483 68.0208 151.701 67.983V67.946C151.415 67.8759 151.185 67.7206 151.013 67.4801C150.843 67.2396 150.758 66.964 150.76 66.6534C150.758 66.3561 150.836 66.0909 150.993 65.858C151.15 65.6231 151.366 65.4384 151.641 65.304C151.917 65.1695 152.232 65.1023 152.584 65.1023C152.934 65.1023 153.247 65.1695 153.522 65.304C153.796 65.4384 154.012 65.6231 154.169 65.858C154.328 66.0909 154.409 66.3561 154.411 66.6534C154.409 66.964 154.322 67.2396 154.149 67.4801C153.977 67.7206 153.751 67.8759 153.47 67.946V67.983C153.686 68.0208 153.881 68.1098 154.053 68.25C154.227 68.3883 154.365 68.5616 154.468 68.7699C154.572 68.9782 154.625 69.2045 154.627 69.4489C154.625 69.7633 154.537 70.0436 154.363 70.2898C154.19 70.536 153.951 70.7292 153.644 70.8693C153.337 71.0095 152.984 71.0795 152.584 71.0795ZM152.584 70.3892C152.832 70.3892 153.046 70.3485 153.226 70.267C153.408 70.1856 153.548 70.071 153.647 69.9233C153.747 69.7737 153.798 69.5994 153.8 69.4006C153.798 69.1941 153.744 69.0114 153.638 68.8523C153.532 68.6913 153.388 68.5653 153.206 68.4744C153.024 68.3816 152.817 68.3352 152.584 68.3352C152.351 68.3352 152.143 68.3816 151.959 68.4744C151.775 68.5653 151.631 68.6913 151.524 68.8523C151.42 69.0114 151.369 69.1941 151.371 69.4006C151.369 69.5994 151.417 69.7737 151.516 69.9233C151.614 70.071 151.755 70.1856 151.936 70.267C152.12 70.3485 152.336 70.3892 152.584 70.3892ZM152.584 67.6676C152.783 67.6676 152.959 67.6278 153.113 67.5483C153.266 67.4687 153.386 67.358 153.473 67.2159C153.562 67.072 153.608 66.9053 153.61 66.7159C153.608 66.5303 153.563 66.3684 153.476 66.2301C153.391 66.09 153.272 65.9811 153.118 65.9034C152.965 65.8258 152.787 65.7869 152.584 65.7869C152.38 65.7869 152.2 65.8258 152.044 65.9034C151.889 65.9811 151.769 66.09 151.684 66.2301C151.6 66.3684 151.559 66.5303 151.561 66.7159C151.559 66.9053 151.602 67.072 151.689 67.2159C151.776 67.358 151.897 67.4687 152.05 67.5483C152.205 67.6278 152.383 67.6676 152.584 67.6676ZM157.417 65.1023C157.669 65.1042 157.919 65.1506 158.167 65.2415C158.415 65.3324 158.64 65.483 158.84 65.6932C159.043 65.9015 159.205 66.1837 159.326 66.5398C159.447 66.8958 159.508 67.34 159.508 67.8722C159.508 68.3835 159.458 68.8381 159.357 69.2358C159.257 69.6335 159.112 69.9697 158.923 70.2443C158.735 70.517 158.508 70.7244 158.241 70.8665C157.974 71.0085 157.673 71.0795 157.337 71.0795C156.997 71.0795 156.694 71.0123 156.428 70.8778C156.165 70.7434 155.95 70.5568 155.783 70.3182C155.617 70.0795 155.512 69.8049 155.468 69.4943H156.281C156.339 69.7481 156.458 69.9555 156.636 70.1165C156.816 70.2756 157.05 70.3551 157.337 70.3551C157.769 70.3551 158.108 70.1667 158.355 69.7898C158.601 69.411 158.724 68.8797 158.724 68.196H158.681C158.579 68.3589 158.454 68.4991 158.306 68.6165C158.16 68.732 157.997 68.822 157.815 68.8864C157.635 68.9489 157.444 68.9801 157.241 68.9801C156.906 68.9801 156.6 68.8977 156.323 68.733C156.049 68.5682 155.829 68.3419 155.664 68.054C155.501 67.7642 155.42 67.4337 155.42 67.0625C155.42 66.6989 155.502 66.3684 155.667 66.071C155.832 65.7718 156.064 65.5341 156.363 65.358C156.662 65.1818 157.014 65.0966 157.417 65.1023ZM157.417 65.8068C157.19 65.8068 156.985 65.8627 156.803 65.9744C156.623 66.0862 156.48 66.2367 156.374 66.4261C156.27 66.6155 156.219 66.8248 156.221 67.054C156.221 67.285 156.271 67.4943 156.372 67.6818C156.474 67.8693 156.614 68.0189 156.792 68.1307C156.97 68.2405 157.173 68.2955 157.4 68.2955C157.57 68.2955 157.73 68.2623 157.877 68.196C158.025 68.1278 158.154 68.035 158.264 67.9176C158.373 67.8002 158.46 67.6667 158.522 67.517C158.587 67.3674 158.618 67.2102 158.616 67.0455C158.616 66.8277 158.564 66.625 158.46 66.4375C158.357 66.2481 158.215 66.0956 158.033 65.9801C157.854 65.8646 157.648 65.8068 157.417 65.8068Z" fill="#101010"/>
<path d="M268.151 47.5739L267.952 48.2614H264.241L264.438 47.5739H268.151ZM266.364 52L264.315 49.5085L264.307 48.9773H265.324C265.581 48.9773 265.799 48.9384 265.977 48.8608C266.157 48.7831 266.294 48.6695 266.386 48.5199C266.481 48.3703 266.528 48.1847 266.528 47.9631C266.528 47.6354 266.431 47.3769 266.236 47.1875C266.041 46.9962 265.737 46.9006 265.324 46.9006H264.241L264.443 46.1818H265.324C265.792 46.1818 266.176 46.2576 266.477 46.4091C266.78 46.5587 267.006 46.7661 267.153 47.0312C267.301 47.2964 267.375 47.5994 267.375 47.9403C267.375 48.2472 267.312 48.5265 267.185 48.7784C267.06 49.0284 266.86 49.232 266.585 49.3892C266.311 49.5445 265.949 49.6307 265.5 49.6477L265.474 49.6534L267.355 51.9517V52H266.364ZM268.151 46.1818L267.952 46.875L265 46.8551L265.199 46.1818H268.151ZM270.953 46.1818V52H270.126V47.0199H270.092L268.692 47.9375V47.1364L270.143 46.1818H270.953ZM274.377 52.0909C273.936 52.0909 273.559 51.9735 273.247 51.7386C272.934 51.5019 272.695 51.16 272.528 50.7131C272.363 50.2661 272.281 49.7263 272.281 49.0938C272.281 48.4631 272.364 47.9252 272.531 47.4801C272.698 47.0331 272.937 46.6922 273.25 46.4574C273.564 46.2206 273.94 46.1023 274.377 46.1023C274.817 46.1023 275.193 46.2206 275.505 46.4574C275.82 46.6922 276.06 47.0331 276.227 47.4801C276.394 47.9252 276.477 48.4631 276.477 49.0938C276.477 49.7263 276.394 50.267 276.227 50.7159C276.062 51.1629 275.823 51.5038 275.511 51.7386C275.198 51.9735 274.821 52.0909 274.377 52.0909ZM274.377 51.375C274.781 51.375 275.096 51.179 275.323 50.7869C275.551 50.3949 275.664 49.8305 275.664 49.0938C275.664 48.6032 275.612 48.1884 275.508 47.8494C275.406 47.5085 275.258 47.25 275.065 47.0739C274.874 46.8958 274.644 46.8068 274.377 46.8068C273.978 46.8068 273.664 47.0047 273.437 47.4006C273.21 47.7945 273.095 48.3589 273.093 49.0938C273.093 49.5843 273.144 49.9991 273.247 50.3381C273.349 50.6771 273.496 50.9347 273.687 51.1108C273.88 51.2869 274.11 51.375 274.377 51.375ZM279.335 52.0909C278.893 52.0909 278.516 51.9735 278.204 51.7386C277.891 51.5019 277.652 51.16 277.485 50.7131C277.32 50.2661 277.238 49.7263 277.238 49.0938C277.238 48.4631 277.321 47.9252 277.488 47.4801C277.655 47.0331 277.894 46.6922 278.207 46.4574C278.521 46.2206 278.897 46.1023 279.335 46.1023C279.774 46.1023 280.15 46.2206 280.462 46.4574C280.777 46.6922 281.017 47.0331 281.184 47.4801C281.351 47.9252 281.434 48.4631 281.434 49.0938C281.434 49.7263 281.351 50.267 281.184 50.7159C281.019 51.1629 280.781 51.5038 280.468 51.7386C280.156 51.9735 279.778 52.0909 279.335 52.0909ZM279.335 51.375C279.738 51.375 280.053 51.179 280.281 50.7869C280.508 50.3949 280.622 49.8305 280.622 49.0938C280.622 48.6032 280.569 48.1884 280.465 47.8494C280.363 47.5085 280.215 47.25 280.022 47.0739C279.831 46.8958 279.602 46.8068 279.335 46.8068C278.935 46.8068 278.622 47.0047 278.394 47.4006C278.167 47.7945 278.052 48.3589 278.051 49.0938C278.051 49.5843 278.102 49.9991 278.204 50.3381C278.306 50.6771 278.453 50.9347 278.644 51.1108C278.837 51.2869 279.068 51.375 279.335 51.375ZM284.218 46.1023C284.47 46.1042 284.72 46.1506 284.968 46.2415C285.216 46.3324 285.44 46.483 285.641 46.6932C285.844 46.9015 286.006 47.1837 286.127 47.5398C286.248 47.8958 286.309 48.34 286.309 48.8722C286.309 49.3835 286.259 49.8381 286.158 50.2358C286.058 50.6335 285.913 50.9697 285.724 51.2443C285.536 51.517 285.309 51.7244 285.042 51.8665C284.775 52.0085 284.474 52.0795 284.138 52.0795C283.798 52.0795 283.494 52.0123 283.229 51.8778C282.966 51.7434 282.751 51.5568 282.584 51.3182C282.418 51.0795 282.313 50.8049 282.269 50.4943H283.082C283.14 50.7481 283.259 50.9555 283.437 51.1165C283.617 51.2756 283.851 51.3551 284.138 51.3551C284.57 51.3551 284.909 51.1667 285.155 50.7898C285.402 50.411 285.525 49.8797 285.525 49.196H285.482C285.38 49.3589 285.255 49.4991 285.107 49.6165C284.961 49.732 284.798 49.822 284.616 49.8864C284.436 49.9489 284.244 49.9801 284.042 49.9801C283.707 49.9801 283.401 49.8977 283.124 49.733C282.85 49.5682 282.63 49.3419 282.465 49.054C282.302 48.7642 282.221 48.4337 282.221 48.0625C282.221 47.6989 282.303 47.3684 282.468 47.071C282.633 46.7718 282.865 46.5341 283.164 46.358C283.463 46.1818 283.815 46.0966 284.218 46.1023ZM284.218 46.8068C283.991 46.8068 283.786 46.8627 283.604 46.9744C283.424 47.0862 283.281 47.2367 283.175 47.4261C283.071 47.6155 283.02 47.8248 283.022 48.054C283.022 48.285 283.072 48.4943 283.173 48.6818C283.275 48.8693 283.415 49.0189 283.593 49.1307C283.771 49.2405 283.974 49.2955 284.201 49.2955C284.371 49.2955 284.53 49.2623 284.678 49.196C284.826 49.1278 284.955 49.035 285.065 48.9176C285.174 48.8002 285.261 48.6667 285.323 48.517C285.387 48.3674 285.419 48.2102 285.417 48.0455C285.417 47.8277 285.365 47.625 285.261 47.4375C285.158 47.2481 285.016 47.0956 284.834 46.9801C284.655 46.8646 284.449 46.8068 284.218 46.8068Z" fill="#101010"/>
<path d="M201.278 156.739V157.443H198.707V156.739H201.278ZM205.83 155.574L205.631 156.261H201.921L202.117 155.574H205.83ZM204.043 160L201.995 157.509L201.986 156.977H203.003C203.261 156.977 203.479 156.938 203.657 156.861C203.837 156.783 203.973 156.67 204.066 156.52C204.16 156.37 204.208 156.185 204.208 155.963C204.208 155.635 204.11 155.377 203.915 155.188C203.72 154.996 203.416 154.901 203.003 154.901H201.921L202.123 154.182H203.003C203.471 154.182 203.856 154.258 204.157 154.409C204.46 154.559 204.685 154.766 204.833 155.031C204.981 155.296 205.054 155.599 205.054 155.94C205.054 156.247 204.991 156.527 204.864 156.778C204.739 157.028 204.539 157.232 204.265 157.389C203.99 157.545 203.628 157.631 203.179 157.648L203.154 157.653L205.034 159.952V160H204.043ZM205.83 154.182L205.631 154.875L202.679 154.855L202.878 154.182H205.83ZM208.632 154.182V160H207.806V155.02H207.772L206.371 155.938V155.136L207.823 154.182H208.632ZM210.82 159.205L210.778 159.514C210.747 159.738 210.699 159.973 210.633 160.219C210.567 160.465 210.497 160.695 210.425 160.909C210.355 161.125 210.298 161.295 210.252 161.42H209.678C209.703 161.301 209.736 161.142 209.778 160.943C209.821 160.744 209.863 160.522 209.903 160.276C209.944 160.029 209.977 159.778 209.999 159.523L210.031 159.205H210.82ZM213.596 160.08C213.196 160.08 212.842 160.009 212.533 159.869C212.224 159.729 211.984 159.536 211.812 159.29C211.639 159.044 211.554 158.763 211.556 158.449C211.554 158.205 211.603 157.978 211.704 157.77C211.806 157.562 211.945 157.388 212.121 157.25C212.297 157.11 212.494 157.021 212.712 156.983V156.946C212.426 156.876 212.197 156.721 212.025 156.48C211.854 156.24 211.77 155.964 211.772 155.653C211.77 155.356 211.848 155.091 212.005 154.858C212.162 154.623 212.378 154.438 212.652 154.304C212.929 154.17 213.243 154.102 213.596 154.102C213.946 154.102 214.259 154.17 214.533 154.304C214.808 154.438 215.024 154.623 215.181 154.858C215.34 155.091 215.42 155.356 215.422 155.653C215.42 155.964 215.333 156.24 215.161 156.48C214.989 156.721 214.762 156.876 214.482 156.946V156.983C214.698 157.021 214.892 157.11 215.064 157.25C215.239 157.388 215.377 157.562 215.479 157.77C215.583 157.978 215.636 158.205 215.638 158.449C215.636 158.763 215.548 159.044 215.374 159.29C215.202 159.536 214.962 159.729 214.655 159.869C214.349 160.009 213.995 160.08 213.596 160.08ZM213.596 159.389C213.844 159.389 214.058 159.348 214.238 159.267C214.42 159.186 214.56 159.071 214.658 158.923C214.759 158.774 214.81 158.599 214.812 158.401C214.81 158.194 214.756 158.011 214.65 157.852C214.544 157.691 214.4 157.565 214.218 157.474C214.036 157.382 213.829 157.335 213.596 157.335C213.363 157.335 213.154 157.382 212.971 157.474C212.787 157.565 212.642 157.691 212.536 157.852C212.432 158.011 212.381 158.194 212.383 158.401C212.381 158.599 212.429 158.774 212.527 158.923C212.626 159.071 212.766 159.186 212.948 159.267C213.132 159.348 213.348 159.389 213.596 159.389ZM213.596 156.668C213.795 156.668 213.971 156.628 214.124 156.548C214.277 156.469 214.398 156.358 214.485 156.216C214.574 156.072 214.619 155.905 214.621 155.716C214.619 155.53 214.575 155.368 214.488 155.23C214.402 155.09 214.283 154.981 214.13 154.903C213.976 154.826 213.798 154.787 213.596 154.787C213.391 154.787 213.211 154.826 213.056 154.903C212.901 154.981 212.78 155.09 212.695 155.23C212.612 155.368 212.571 155.53 212.573 155.716C212.571 155.905 212.614 156.072 212.701 156.216C212.788 156.358 212.908 156.469 213.062 156.548C213.217 156.628 213.395 156.668 213.596 156.668ZM218.451 160.08C218.052 160.08 217.698 160.009 217.389 159.869C217.08 159.729 216.84 159.536 216.667 159.29C216.495 159.044 216.41 158.763 216.412 158.449C216.41 158.205 216.459 157.978 216.559 157.77C216.662 157.562 216.801 157.388 216.977 157.25C217.153 157.11 217.35 157.021 217.568 156.983V156.946C217.282 156.876 217.053 156.721 216.88 156.48C216.71 156.24 216.626 155.964 216.627 155.653C216.626 155.356 216.703 155.091 216.86 154.858C217.018 154.623 217.234 154.438 217.508 154.304C217.785 154.17 218.099 154.102 218.451 154.102C218.802 154.102 219.114 154.17 219.389 154.304C219.663 154.438 219.879 154.623 220.037 154.858C220.196 155.091 220.276 155.356 220.278 155.653C220.276 155.964 220.189 156.24 220.017 156.48C219.844 156.721 219.618 156.876 219.338 156.946V156.983C219.554 157.021 219.748 157.11 219.92 157.25C220.094 157.388 220.233 157.562 220.335 157.77C220.439 157.978 220.492 158.205 220.494 158.449C220.492 158.763 220.404 159.044 220.23 159.29C220.057 159.536 219.818 159.729 219.511 159.869C219.204 160.009 218.851 160.08 218.451 160.08ZM218.451 159.389C218.699 159.389 218.913 159.348 219.093 159.267C219.275 159.186 219.415 159.071 219.514 158.923C219.614 158.774 219.665 158.599 219.667 158.401C219.665 158.194 219.611 158.011 219.505 157.852C219.399 157.691 219.255 157.565 219.073 157.474C218.892 157.382 218.684 157.335 218.451 157.335C218.218 157.335 218.01 157.382 217.826 157.474C217.643 157.565 217.498 157.691 217.392 157.852C217.287 158.011 217.236 158.194 217.238 158.401C217.236 158.599 217.285 158.774 217.383 158.923C217.482 159.071 217.622 159.186 217.804 159.267C217.987 159.348 218.203 159.389 218.451 159.389ZM218.451 156.668C218.65 156.668 218.826 156.628 218.98 156.548C219.133 156.469 219.253 156.358 219.341 156.216C219.43 156.072 219.475 155.905 219.477 155.716C219.475 155.53 219.43 155.368 219.343 155.23C219.258 155.09 219.139 154.981 218.985 154.903C218.832 154.826 218.654 154.787 218.451 154.787C218.247 154.787 218.067 154.826 217.912 154.903C217.756 154.981 217.636 155.09 217.551 155.23C217.467 155.368 217.427 155.53 217.429 155.716C217.427 155.905 217.469 156.072 217.556 156.216C217.644 156.358 217.764 156.469 217.917 156.548C218.073 156.628 218.251 156.668 218.451 156.668ZM223.284 154.102C223.536 154.104 223.786 154.151 224.034 154.241C224.282 154.332 224.507 154.483 224.708 154.693C224.91 154.902 225.072 155.184 225.193 155.54C225.315 155.896 225.375 156.34 225.375 156.872C225.375 157.384 225.325 157.838 225.225 158.236C225.124 158.634 224.979 158.97 224.79 159.244C224.602 159.517 224.375 159.724 224.108 159.866C223.841 160.009 223.54 160.08 223.205 160.08C222.864 160.08 222.561 160.012 222.296 159.878C222.032 159.743 221.817 159.557 221.651 159.318C221.484 159.08 221.379 158.805 221.335 158.494H222.148C222.207 158.748 222.325 158.955 222.503 159.116C222.683 159.276 222.917 159.355 223.205 159.355C223.636 159.355 223.975 159.167 224.222 158.79C224.468 158.411 224.591 157.88 224.591 157.196H224.548C224.446 157.359 224.321 157.499 224.173 157.616C224.028 157.732 223.864 157.822 223.682 157.886C223.502 157.949 223.311 157.98 223.108 157.98C222.773 157.98 222.467 157.898 222.19 157.733C221.916 157.568 221.696 157.342 221.531 157.054C221.368 156.764 221.287 156.434 221.287 156.062C221.287 155.699 221.369 155.368 221.534 155.071C221.699 154.772 221.931 154.534 222.23 154.358C222.529 154.182 222.881 154.097 223.284 154.102ZM223.284 154.807C223.057 154.807 222.852 154.863 222.671 154.974C222.491 155.086 222.348 155.237 222.242 155.426C222.137 155.616 222.086 155.825 222.088 156.054C222.088 156.285 222.138 156.494 222.239 156.682C222.341 156.869 222.481 157.019 222.659 157.131C222.837 157.241 223.04 157.295 223.267 157.295C223.438 157.295 223.597 157.262 223.744 157.196C223.892 157.128 224.021 157.035 224.131 156.918C224.241 156.8 224.327 156.667 224.389 156.517C224.454 156.367 224.485 156.21 224.483 156.045C224.483 155.828 224.431 155.625 224.327 155.438C224.225 155.248 224.083 155.096 223.901 154.98C223.721 154.865 223.515 154.807 223.284 154.807Z" fill="#FF1717"/>
<path d="M74.7173 191V190.254L77.1605 187.68C77.428 187.393 77.6494 187.142 77.8246 186.927C77.9998 186.711 78.13 186.507 78.2152 186.312C78.3004 186.118 78.343 185.914 78.343 185.698C78.343 185.452 78.285 185.24 78.169 185.062C78.053 184.883 77.8944 184.744 77.6932 184.647C77.4943 184.548 77.2682 184.498 77.0149 184.498C76.7498 184.498 76.5178 184.552 76.3189 184.661C76.1224 184.77 75.9697 184.924 75.8608 185.123C75.7543 185.319 75.701 185.551 75.701 185.819H74.7209C74.7209 185.381 74.8215 184.997 75.0227 184.668C75.224 184.339 75.4998 184.084 75.8501 183.901C76.2005 183.719 76.5971 183.628 77.0398 183.628C77.4872 183.628 77.8826 183.719 78.2259 183.901C78.5691 184.081 78.8366 184.326 79.0284 184.636C79.2225 184.944 79.3196 185.291 79.3196 185.677C79.3196 185.947 79.2699 186.211 79.1705 186.469C79.0734 186.724 78.9018 187.01 78.6555 187.325C78.4117 187.639 78.072 188.021 77.6364 188.468L76.1342 190.055V190.109H79.4403V191H74.7173ZM83.0995 191.114C82.5479 191.114 82.0768 190.967 81.6862 190.673C81.2956 190.377 80.9961 189.95 80.7877 189.391C80.5818 188.833 80.4788 188.158 80.4788 187.367C80.4788 186.579 80.583 185.906 80.7913 185.35C80.9996 184.791 81.2991 184.365 81.6897 184.072C82.0827 183.776 82.5527 183.628 83.0995 183.628C83.6488 183.628 84.1187 183.776 84.5093 184.072C84.9023 184.365 85.203 184.791 85.4113 185.35C85.6197 185.906 85.7238 186.579 85.7238 187.367C85.7238 188.158 85.6197 188.834 85.4113 189.395C85.2054 189.954 84.9071 190.38 84.5164 190.673C84.1258 190.967 83.6535 191.114 83.0995 191.114ZM83.0995 190.219C83.6038 190.219 83.998 189.974 84.2821 189.484C84.5662 188.994 84.7082 188.288 84.7082 187.367C84.7082 186.754 84.6431 186.236 84.5129 185.812C84.385 185.386 84.2004 185.062 83.9589 184.842C83.7198 184.62 83.4333 184.509 83.0995 184.509C82.6 184.509 82.2082 184.756 81.9241 185.251C81.64 185.743 81.4968 186.449 81.4944 187.367C81.4944 187.98 81.5583 188.499 81.6862 188.923C81.814 189.346 81.9975 189.668 82.2366 189.888C82.4781 190.109 82.7657 190.219 83.0995 190.219ZM86.8173 191V190.254L89.2605 187.68C89.528 187.393 89.7494 187.142 89.9246 186.927C90.0998 186.711 90.23 186.507 90.3152 186.312C90.4004 186.118 90.443 185.914 90.443 185.698C90.443 185.452 90.385 185.24 90.269 185.062C90.153 184.883 89.9944 184.744 89.7932 184.647C89.5943 184.548 89.3682 184.498 89.1149 184.498C88.8498 184.498 88.6178 184.552 88.4189 184.661C88.2224 184.77 88.0697 184.924 87.9608 185.123C87.8543 185.319 87.801 185.551 87.801 185.819H86.8209C86.8209 185.381 86.9215 184.997 87.1227 184.668C87.324 184.339 87.5998 184.084 87.9501 183.901C88.3005 183.719 88.6971 183.628 89.1398 183.628C89.5872 183.628 89.9826 183.719 90.3259 183.901C90.6691 184.081 90.9366 184.326 91.1284 184.636C91.3225 184.944 91.4196 185.291 91.4196 185.677C91.4196 185.947 91.3699 186.211 91.2705 186.469C91.1734 186.724 91.0018 187.01 90.7555 187.325C90.5117 187.639 90.172 188.021 89.7364 188.468L88.2342 190.055V190.109H91.5403V191H86.8173ZM95.1995 191.114C94.6479 191.114 94.1768 190.967 93.7862 190.673C93.3956 190.377 93.0961 189.95 92.8877 189.391C92.6818 188.833 92.5788 188.158 92.5788 187.367C92.5788 186.579 92.683 185.906 92.8913 185.35C93.0996 184.791 93.3991 184.365 93.7897 184.072C94.1827 183.776 94.6527 183.628 95.1995 183.628C95.7488 183.628 96.2187 183.776 96.6093 184.072C97.0023 184.365 97.303 184.791 97.5113 185.35C97.7197 185.906 97.8238 186.579 97.8238 187.367C97.8238 188.158 97.7197 188.834 97.5113 189.395C97.3054 189.954 97.0071 190.38 96.6164 190.673C96.2258 190.967 95.7535 191.114 95.1995 191.114ZM95.1995 190.219C95.7038 190.219 96.098 189.974 96.3821 189.484C96.6662 188.994 96.8082 188.288 96.8082 187.367C96.8082 186.754 96.7431 186.236 96.6129 185.812C96.485 185.386 96.3004 185.062 96.0589 184.842C95.8198 184.62 95.5333 184.509 95.1995 184.509C94.7 184.509 94.3082 184.756 94.0241 185.251C93.74 185.743 93.5968 186.449 93.5944 187.367C93.5944 187.98 93.6583 188.499 93.7862 188.923C93.914 189.346 94.0975 189.668 94.3366 189.888C94.5781 190.109 94.8657 190.219 95.1995 190.219Z" fill="#737373"/>
<rect x="74" y="56" width="28" height="30" fill="#F9CD6C"/>
<path d="M137.717 191V190.254L140.161 187.68C140.428 187.393 140.649 187.142 140.825 186.927C141 186.711 141.13 186.507 141.215 186.312C141.3 186.118 141.343 185.914 141.343 185.698C141.343 185.452 141.285 185.24 141.169 185.062C141.053 184.883 140.894 184.744 140.693 184.647C140.494 184.548 140.268 184.498 140.015 184.498C139.75 184.498 139.518 184.552 139.319 184.661C139.122 184.77 138.97 184.924 138.861 185.123C138.754 185.319 138.701 185.551 138.701 185.819H137.721C137.721 185.381 137.821 184.997 138.023 184.668C138.224 184.339 138.5 184.084 138.85 183.901C139.201 183.719 139.597 183.628 140.04 183.628C140.487 183.628 140.883 183.719 141.226 183.901C141.569 184.081 141.837 184.326 142.028 184.636C142.223 184.944 142.32 185.291 142.32 185.677C142.32 185.947 142.27 186.211 142.17 186.469C142.073 186.724 141.902 187.01 141.656 187.325C141.412 187.639 141.072 188.021 140.636 188.468L139.134 190.055V190.109H142.44V191H137.717ZM146.1 191.114C145.548 191.114 145.077 190.967 144.686 190.673C144.296 190.377 143.996 189.95 143.788 189.391C143.582 188.833 143.479 188.158 143.479 187.367C143.479 186.579 143.583 185.906 143.791 185.35C144 184.791 144.299 184.365 144.69 184.072C145.083 183.776 145.553 183.628 146.1 183.628C146.649 183.628 147.119 183.776 147.509 184.072C147.902 184.365 148.203 184.791 148.411 185.35C148.62 185.906 148.724 186.579 148.724 187.367C148.724 188.158 148.62 188.834 148.411 189.395C148.205 189.954 147.907 190.38 147.516 190.673C147.126 190.967 146.654 191.114 146.1 191.114ZM146.1 190.219C146.604 190.219 146.998 189.974 147.282 189.484C147.566 188.994 147.708 188.288 147.708 187.367C147.708 186.754 147.643 186.236 147.513 185.812C147.385 185.386 147.2 185.062 146.959 184.842C146.72 184.62 146.433 184.509 146.1 184.509C145.6 184.509 145.208 184.756 144.924 185.251C144.64 185.743 144.497 186.449 144.494 187.367C144.494 187.98 144.558 188.499 144.686 188.923C144.814 189.346 144.998 189.668 145.237 189.888C145.478 190.109 145.766 190.219 146.1 190.219ZM149.817 191V190.254L152.261 187.68C152.528 187.393 152.749 187.142 152.925 186.927C153.1 186.711 153.23 186.507 153.315 186.312C153.4 186.118 153.443 185.914 153.443 185.698C153.443 185.452 153.385 185.24 153.269 185.062C153.153 184.883 152.994 184.744 152.793 184.647C152.594 184.548 152.368 184.498 152.115 184.498C151.85 184.498 151.618 184.552 151.419 184.661C151.222 184.77 151.07 184.924 150.961 185.123C150.854 185.319 150.801 185.551 150.801 185.819H149.821C149.821 185.381 149.921 184.997 150.123 184.668C150.324 184.339 150.6 184.084 150.95 183.901C151.301 183.719 151.697 183.628 152.14 183.628C152.587 183.628 152.983 183.719 153.326 183.901C153.669 184.081 153.937 184.326 154.128 184.636C154.323 184.944 154.42 185.291 154.42 185.677C154.42 185.947 154.37 186.211 154.27 186.469C154.173 186.724 154.002 187.01 153.756 187.325C153.512 187.639 153.172 188.021 152.736 188.468L151.234 190.055V190.109H154.54V191H149.817ZM158.416 183.727V191H157.383V184.775H157.34L155.589 185.922V184.92L157.404 183.727H158.416Z" fill="#737373"/>
<rect x="137" y="76" width="28" height="10" fill="#F9CD6C"/>
<path d="M198.717 191V190.254L201.161 187.68C201.428 187.393 201.649 187.142 201.825 186.927C202 186.711 202.13 186.507 202.215 186.312C202.3 186.118 202.343 185.914 202.343 185.698C202.343 185.452 202.285 185.24 202.169 185.062C202.053 184.883 201.894 184.744 201.693 184.647C201.494 184.548 201.268 184.498 201.015 184.498C200.75 184.498 200.518 184.552 200.319 184.661C200.122 184.77 199.97 184.924 199.861 185.123C199.754 185.319 199.701 185.551 199.701 185.819H198.721C198.721 185.381 198.821 184.997 199.023 184.668C199.224 184.339 199.5 184.084 199.85 183.901C200.201 183.719 200.597 183.628 201.04 183.628C201.487 183.628 201.883 183.719 202.226 183.901C202.569 184.081 202.837 184.326 203.028 184.636C203.223 184.944 203.32 185.291 203.32 185.677C203.32 185.947 203.27 186.211 203.17 186.469C203.073 186.724 202.902 187.01 202.656 187.325C202.412 187.639 202.072 188.021 201.636 188.468L200.134 190.055V190.109H203.44V191H198.717ZM207.1 191.114C206.548 191.114 206.077 190.967 205.686 190.673C205.296 190.377 204.996 189.95 204.788 189.391C204.582 188.833 204.479 188.158 204.479 187.367C204.479 186.579 204.583 185.906 204.791 185.35C205 184.791 205.299 184.365 205.69 184.072C206.083 183.776 206.553 183.628 207.1 183.628C207.649 183.628 208.119 183.776 208.509 184.072C208.902 184.365 209.203 184.791 209.411 185.35C209.62 185.906 209.724 186.579 209.724 187.367C209.724 188.158 209.62 188.834 209.411 189.395C209.205 189.954 208.907 190.38 208.516 190.673C208.126 190.967 207.654 191.114 207.1 191.114ZM207.1 190.219C207.604 190.219 207.998 189.974 208.282 189.484C208.566 188.994 208.708 188.288 208.708 187.367C208.708 186.754 208.643 186.236 208.513 185.812C208.385 185.386 208.2 185.062 207.959 184.842C207.72 184.62 207.433 184.509 207.1 184.509C206.6 184.509 206.208 184.756 205.924 185.251C205.64 185.743 205.497 186.449 205.494 187.367C205.494 187.98 205.558 188.499 205.686 188.923C205.814 189.346 205.998 189.668 206.237 189.888C206.478 190.109 206.766 190.219 207.1 190.219ZM210.817 191V190.254L213.261 187.68C213.528 187.393 213.749 187.142 213.925 186.927C214.1 186.711 214.23 186.507 214.315 186.312C214.4 186.118 214.443 185.914 214.443 185.698C214.443 185.452 214.385 185.24 214.269 185.062C214.153 184.883 213.994 184.744 213.793 184.647C213.594 184.548 213.368 184.498 213.115 184.498C212.85 184.498 212.618 184.552 212.419 184.661C212.222 184.77 212.07 184.924 211.961 185.123C211.854 185.319 211.801 185.551 211.801 185.819H210.821C210.821 185.381 210.921 184.997 211.123 184.668C211.324 184.339 211.6 184.084 211.95 183.901C212.301 183.719 212.697 183.628 213.14 183.628C213.587 183.628 213.983 183.719 214.326 183.901C214.669 184.081 214.937 184.326 215.128 184.636C215.323 184.944 215.42 185.291 215.42 185.677C215.42 185.947 215.37 186.211 215.27 186.469C215.173 186.724 215.002 187.01 214.756 187.325C214.512 187.639 214.172 188.021 213.736 188.468L212.234 190.055V190.109H215.54V191H210.817ZM216.721 191V190.254L219.164 187.68C219.432 187.393 219.653 187.142 219.828 186.927C220.003 186.711 220.133 186.507 220.219 186.312C220.304 186.118 220.347 185.914 220.347 185.698C220.347 185.452 220.289 185.24 220.173 185.062C220.057 184.883 219.898 184.744 219.697 184.647C219.498 184.548 219.272 184.498 219.018 184.498C218.753 184.498 218.521 184.552 218.322 184.661C218.126 184.77 217.973 184.924 217.864 185.123C217.758 185.319 217.705 185.551 217.705 185.819H216.724C216.724 185.381 216.825 184.997 217.026 184.668C217.227 184.339 217.503 184.084 217.854 183.901C218.204 183.719 218.601 183.628 219.043 183.628C219.491 183.628 219.886 183.719 220.229 183.901C220.573 184.081 220.84 184.326 221.032 184.636C221.226 184.944 221.323 185.291 221.323 185.677C221.323 185.947 221.273 186.211 221.174 186.469C221.077 186.724 220.905 187.01 220.659 187.325C220.415 187.639 220.075 188.021 219.64 188.468L218.138 190.055V190.109H221.444V191H216.721Z" fill="#737373"/>
<rect x="198" y="86" width="28" height="63" fill="#F9CD6C"/>
<path d="M263.717 192V191.254L266.161 188.68C266.428 188.393 266.649 188.142 266.825 187.927C267 187.711 267.13 187.507 267.215 187.312C267.3 187.118 267.343 186.914 267.343 186.698C267.343 186.452 267.285 186.24 267.169 186.062C267.053 185.883 266.894 185.744 266.693 185.647C266.494 185.548 266.268 185.498 266.015 185.498C265.75 185.498 265.518 185.552 265.319 185.661C265.122 185.77 264.97 185.924 264.861 186.123C264.754 186.319 264.701 186.551 264.701 186.819H263.721C263.721 186.381 263.821 185.997 264.023 185.668C264.224 185.339 264.5 185.084 264.85 184.901C265.201 184.719 265.597 184.628 266.04 184.628C266.487 184.628 266.883 184.719 267.226 184.901C267.569 185.081 267.837 185.326 268.028 185.636C268.223 185.944 268.32 186.291 268.32 186.677C268.32 186.947 268.27 187.211 268.17 187.469C268.073 187.724 267.902 188.01 267.656 188.325C267.412 188.639 267.072 189.021 266.636 189.468L265.134 191.055V191.109H268.44V192H263.717ZM272.1 192.114C271.548 192.114 271.077 191.967 270.686 191.673C270.296 191.377 269.996 190.95 269.788 190.391C269.582 189.833 269.479 189.158 269.479 188.367C269.479 187.579 269.583 186.906 269.791 186.35C270 185.791 270.299 185.365 270.69 185.072C271.083 184.776 271.553 184.628 272.1 184.628C272.649 184.628 273.119 184.776 273.509 185.072C273.902 185.365 274.203 185.791 274.411 186.35C274.62 186.906 274.724 187.579 274.724 188.367C274.724 189.158 274.62 189.834 274.411 190.395C274.205 190.954 273.907 191.38 273.516 191.673C273.126 191.967 272.654 192.114 272.1 192.114ZM272.1 191.219C272.604 191.219 272.998 190.974 273.282 190.484C273.566 189.994 273.708 189.288 273.708 188.367C273.708 187.754 273.643 187.236 273.513 186.812C273.385 186.386 273.2 186.062 272.959 185.842C272.72 185.62 272.433 185.509 272.1 185.509C271.6 185.509 271.208 185.756 270.924 186.251C270.64 186.743 270.497 187.449 270.494 188.367C270.494 188.98 270.558 189.499 270.686 189.923C270.814 190.346 270.998 190.668 271.237 190.888C271.478 191.109 271.766 191.219 272.1 191.219ZM275.817 192V191.254L278.261 188.68C278.528 188.393 278.749 188.142 278.925 187.927C279.1 187.711 279.23 187.507 279.315 187.312C279.4 187.118 279.443 186.914 279.443 186.698C279.443 186.452 279.385 186.24 279.269 186.062C279.153 185.883 278.994 185.744 278.793 185.647C278.594 185.548 278.368 185.498 278.115 185.498C277.85 185.498 277.618 185.552 277.419 185.661C277.222 185.77 277.07 185.924 276.961 186.123C276.854 186.319 276.801 186.551 276.801 186.819H275.821C275.821 186.381 275.921 185.997 276.123 185.668C276.324 185.339 276.6 185.084 276.95 184.901C277.301 184.719 277.697 184.628 278.14 184.628C278.587 184.628 278.983 184.719 279.326 184.901C279.669 185.081 279.937 185.326 280.128 185.636C280.323 185.944 280.42 186.291 280.42 186.677C280.42 186.947 280.37 187.211 280.27 187.469C280.173 187.724 280.002 188.01 279.756 188.325C279.512 188.639 279.172 189.021 278.736 189.468L277.234 191.055V191.109H280.54V192H275.817ZM284.228 192.099C283.745 192.099 283.315 192.017 282.939 191.851C282.562 191.685 282.264 191.454 282.044 191.158C281.826 190.862 281.709 190.519 281.692 190.129H282.736C282.753 190.349 282.828 190.539 282.96 190.7C283.095 190.861 283.272 190.987 283.489 191.077C283.709 191.164 283.953 191.208 284.221 191.208C284.514 191.208 284.775 191.157 285.002 191.055C285.229 190.951 285.407 190.808 285.535 190.626C285.665 190.441 285.73 190.228 285.73 189.987C285.73 189.736 285.666 189.514 285.538 189.322C285.413 189.131 285.228 188.98 284.984 188.871C284.743 188.763 284.448 188.708 284.1 188.708H283.496V187.845H284.1C284.375 187.845 284.616 187.797 284.825 187.7C285.035 187.6 285.2 187.462 285.318 187.284C285.439 187.104 285.499 186.893 285.499 186.652C285.499 186.42 285.447 186.219 285.343 186.048C285.239 185.875 285.092 185.741 284.903 185.643C284.716 185.546 284.495 185.498 284.242 185.498C284.003 185.498 283.778 185.542 283.567 185.629C283.357 185.717 283.185 185.842 283.053 186.006C282.922 186.169 282.851 186.366 282.839 186.595H281.845C281.857 186.205 281.973 185.862 282.193 185.569C282.413 185.273 282.702 185.042 283.06 184.876C283.419 184.711 283.818 184.628 284.256 184.628C284.718 184.628 285.116 184.719 285.45 184.901C285.786 185.081 286.044 185.321 286.224 185.622C286.406 185.92 286.496 186.246 286.494 186.599C286.496 187.006 286.385 187.353 286.16 187.639C285.937 187.923 285.638 188.116 285.261 188.218V188.275C285.737 188.351 286.106 188.545 286.369 188.857C286.634 189.167 286.766 189.552 286.763 190.011C286.766 190.409 286.657 190.767 286.437 191.084C286.217 191.399 285.916 191.647 285.535 191.83C285.154 192.009 284.718 192.099 284.228 192.099Z" fill="#737373"/>
<rect x="263" y="57" width="28" height="29" fill="#F9CD6C"/>
</svg>
