<svg width="14" height="14" viewBox="0 0 14 14" fill="none" xmlns="http://www.w3.org/2000/svg">
<g id="Group 483479">
<circle id="Ellipse 15" cx="7" cy="7" r="7" fill="#FF1717"/>
<path id="Vector" d="M9.17882 9.7998H5.45058C5.28578 9.7998 5.12773 9.73434 5.0112 9.61781C4.89467 9.50128 4.8292 9.34323 4.8292 9.17843C4.8292 9.01363 4.89467 8.85558 5.0112 8.73905C5.12773 8.62252 5.28578 8.55706 5.45058 8.55706H7.67882L4.38989 5.26813C4.33055 5.21081 4.28321 5.14224 4.25064 5.06643C4.21808 4.99062 4.20094 4.90908 4.20022 4.82658C4.1995 4.74407 4.21522 4.66225 4.24647 4.58589C4.27771 4.50952 4.32385 4.44014 4.38219 4.3818C4.44053 4.32346 4.50991 4.27732 4.58628 4.24608C4.66264 4.21483 4.74446 4.19911 4.82697 4.19983C4.90947 4.20055 4.99101 4.21769 5.06682 4.25025C5.14263 4.28282 5.2112 4.33016 5.26852 4.3895L8.55745 7.67843V5.45019C8.55745 5.28539 8.62291 5.12734 8.73944 5.01081C8.85597 4.89428 9.01402 4.82881 9.17882 4.82881C9.34362 4.82881 9.50167 4.89428 9.6182 5.01081C9.73473 5.12734 9.80019 5.28539 9.80019 5.45019V9.17843C9.80019 9.34323 9.73473 9.50128 9.6182 9.61781C9.50167 9.73434 9.34362 9.7998 9.17882 9.7998Z" fill="white"/>
</g>
</svg>
