<svg width="14" height="14" viewBox="0 0 14 14" fill="none" xmlns="http://www.w3.org/2000/svg">
<g id="Group 483478">
<circle id="Ellipse 15" cx="7" cy="7" r="7" fill="#43A833"/>
<path id="Vector" d="M9.17882 4.2002H5.45058C5.28578 4.2002 5.12773 4.26566 5.0112 4.38219C4.89467 4.49872 4.8292 4.65677 4.8292 4.82157C4.8292 4.98637 4.89467 5.14442 5.0112 5.26095C5.12773 5.37748 5.28578 5.44294 5.45058 5.44294H7.67882L4.38989 8.73187C4.33055 8.78919 4.28321 8.85776 4.25064 8.93357C4.21808 9.00938 4.20094 9.09092 4.20022 9.17342C4.1995 9.25593 4.21522 9.33775 4.24647 9.41411C4.27771 9.49048 4.32385 9.55986 4.38219 9.6182C4.44053 9.67654 4.50991 9.72268 4.58628 9.75392C4.66264 9.78517 4.74446 9.80089 4.82697 9.80017C4.90947 9.79945 4.99101 9.78231 5.06682 9.74975C5.14263 9.71718 5.2112 9.66984 5.26852 9.6105L8.55745 6.32157V8.54981C8.55745 8.71461 8.62291 8.87266 8.73944 8.98919C8.85597 9.10572 9.01402 9.17119 9.17882 9.17119C9.34362 9.17119 9.50167 9.10572 9.6182 8.98919C9.73473 8.87266 9.80019 8.71461 9.80019 8.54981V4.82157C9.80019 4.65677 9.73473 4.49872 9.6182 4.38219C9.50167 4.26566 9.34362 4.2002 9.17882 4.2002Z" fill="white"/>
</g>
</svg>
