<svg width="28" height="28" viewBox="0 0 28 28" fill="none" xmlns="http://www.w3.org/2000/svg">
<rect x="0.5" y="0.5" width="27" height="27" rx="13.5" fill="white"/>
<rect x="0.5" y="0.5" width="27" height="27" rx="13.5" fill="url(#paint0_linear_1261_29288)" fill-opacity="0.2"/>
<g clip-path="url(#clip0_1261_29288)">
<path d="M12.1312 8.58551C12.7374 8.40432 13.3671 8.31169 14 8.31251C17.5864 8.30926 20.4967 11.2148 20.5 14.8011C20.5 15.4341 20.409 16.0638 20.227 16.6699C20.1246 17.0144 19.8077 17.25 19.4486 17.25H16.9672C17.0201 16.7674 17.0737 16.2124 17.1265 15.625H18.8059C18.8522 15.3569 18.875 15.0847 18.875 14.8125C18.875 12.1199 16.6926 9.93751 14 9.93751C11.3074 9.93751 9.125 12.1199 9.125 14.8125C9.125 15.0847 9.14775 15.3569 9.19406 15.625H12.0435C11.6559 16.3644 11.3586 16.9729 11.2781 17.237C11.2765 17.2411 11.2765 17.2451 11.2757 17.25H8.55137C8.19225 17.25 7.87538 17.0144 7.773 16.6699C6.74438 13.2338 8.69519 9.61413 12.1312 8.58551Z" fill="#43A833"/>
<path d="M12.4445 17.5905C12.6468 16.9226 15.1322 12.5294 15.415 12.0306C15.5076 11.8664 15.6993 11.7876 15.8862 11.8421C16.0682 11.8973 16.1868 12.0712 16.1738 12.2605C16.1316 12.8325 15.757 17.8659 15.5547 18.5338C15.3418 19.2342 14.6959 19.6868 13.9988 19.6868C13.8428 19.6868 13.6843 19.664 13.5275 19.6169C12.6703 19.3569 12.1853 18.4485 12.4445 17.5905Z" fill="#43A833"/>
</g>
<rect x="0.5" y="0.5" width="27" height="27" rx="13.5" stroke="#CCCCCC"/>
<defs>
<linearGradient id="paint0_linear_1261_29288" x1="14" y1="0" x2="14" y2="28" gradientUnits="userSpaceOnUse">
<stop stop-color="#FBFBFB"/>
<stop offset="1" stop-color="#F9FAFA"/>
</linearGradient>
<clipPath id="clip0_1261_29288">
<rect width="13" height="13" fill="white" transform="matrix(-1 0 0 1 20.5 7.5)"/>
</clipPath>
</defs>
</svg>
