<svg width="24" height="24" viewBox="0 0 24 24" fill="none" xmlns="http://www.w3.org/2000/svg">
<rect width="24" height="24" fill="#D8D8D8" fill-opacity="0.01"/>
<path fill-rule="evenodd" clip-rule="evenodd" d="M3.26206 7.64645C3.0668 7.45118 2.75022 7.45118 2.55495 7.64645C2.35969 7.84171 2.35969 8.15829 2.55495 8.35355L3.96664 9.76524L2.65843 12.0311C2.52036 12.2703 2.6023 12.5761 2.84144 12.7141C3.08059 12.8522 3.38639 12.7703 3.52446 12.5311L4.70091 10.4934C5.0684 10.8407 5.45483 11.1564 5.85675 11.4405C5.83913 11.4652 5.8235 11.4918 5.81023 11.5203L4.54237 14.2392C4.42567 14.4895 4.53394 14.787 4.78421 14.9037C5.03449 15.0204 5.33198 14.9121 5.44868 14.6618L6.70015 11.9781C7.24128 12.2875 7.80408 12.5449 8.38125 12.7503L7.67641 15.3808C7.60494 15.6475 7.76323 15.9217 8.02996 15.9931C8.2967 16.0646 8.57087 15.9063 8.64234 15.6396L9.33884 13.0402C10.0264 13.213 10.728 13.3153 11.4323 13.3471C11.4168 13.3953 11.4084 13.4467 11.4084 13.5V16C11.4084 16.2762 11.6323 16.5 11.9084 16.5C12.1846 16.5 12.4084 16.2762 12.4084 16V13.5C12.4084 13.4467 12.4001 13.3953 12.3846 13.3471C12.9792 13.3203 13.572 13.2432 14.156 13.1158L14.8143 15.5724C14.8858 15.8392 15.1599 15.9975 15.4267 15.926C15.6934 15.8545 15.8517 15.5804 15.7802 15.3136L15.1218 12.8564C15.7158 12.666 16.2962 12.4214 16.8552 12.1227L18.008 14.5947C18.1247 14.845 18.4221 14.9533 18.6724 14.8366C18.9227 14.7199 19.031 14.4224 18.9143 14.1721L17.718 11.6067C18.2884 11.227 18.8299 10.7856 19.3331 10.2824L19.3503 10.2653L20.6584 12.5311C20.7965 12.7703 21.1023 12.8522 21.3414 12.7141C21.5806 12.5761 21.6625 12.2703 21.5245 12.0311L20.0823 9.53323L21.262 8.35355C21.4572 8.15829 21.4572 7.84171 21.262 7.64645C21.0667 7.45118 20.7501 7.45118 20.5549 7.64645L18.626 9.57534C14.916 13.2853 8.90093 13.2853 5.19095 9.57534L4.95022 9.3346L4.94033 9.32471L3.26206 7.64645Z" fill="black" fill-opacity="0.8"/>
</svg>
