<svg width="16" height="16" viewBox="0 0 16 16" fill="none" xmlns="http://www.w3.org/2000/svg">
<g id="cogwheel 1" clip-path="url(#clip0_5406_84920)">
<g id="Group">
<g id="Group_2">
<path id="Vector" d="M8.38867 10.8889C9.76938 10.8889 10.8887 9.76963 10.8887 8.38892C10.8887 7.0082 9.76938 5.88892 8.38867 5.88892C7.00796 5.88892 5.88867 7.0082 5.88867 8.38892C5.88867 9.76963 7.00796 10.8889 8.38867 10.8889Z" stroke="#666666" stroke-width="1.4" stroke-miterlimit="10" stroke-linecap="round" stroke-linejoin="round"/>
<path id="Vector_2" d="M15.8887 9.38892V7.38892L13.7117 7.02592C13.5807 6.51392 13.3797 6.03192 13.1167 5.58892L14.3997 3.79292L12.9847 2.37892L11.1887 3.66092C10.7457 3.39792 10.2637 3.19692 9.75167 3.06592L9.38867 0.888916H7.38867L7.02567 3.06592C6.51367 3.19692 6.03167 3.39792 5.58867 3.66092L3.79267 2.37892L2.37867 3.79292L3.66067 5.58892C3.39767 6.03192 3.19667 6.51392 3.06567 7.02592L0.888672 7.38892V9.38892L3.06567 9.75192C3.19667 10.2639 3.39767 10.7459 3.66067 11.1889L2.37867 12.9849L3.79267 14.3989L5.58867 13.1169C6.03167 13.3799 6.51367 13.5809 7.02567 13.7119L7.38867 15.8889H9.38867L9.75167 13.7119C10.2637 13.5809 10.7457 13.3799 11.1887 13.1169L12.9847 14.3999L14.3987 12.9859L13.1167 11.1889C13.3797 10.7459 13.5807 10.2639 13.7117 9.75192L15.8887 9.38892Z" stroke="#666666" stroke-width="1.4" stroke-miterlimit="10" stroke-linecap="round" stroke-linejoin="round"/>
</g>
</g>
</g>
<defs>
<clipPath id="clip0_5406_84920">
<rect width="16" height="16" fill="white"/>
</clipPath>
</defs>
</svg>
