<svg width="40" height="40" viewBox="0 0 40 40" fill="none" xmlns="http://www.w3.org/2000/svg">
<g id="nodes 1">
<g id="Group">
<g id="Group_2">
<path id="Vector" d="M33.7432 26.7755L21.7007 20.0013L33.7432 13.2271C33.9275 13.1147 34.0609 12.9351 34.1154 12.7262C34.1699 12.5173 34.1412 12.2954 34.0354 12.1072C33.9295 11.919 33.7548 11.7793 33.548 11.7174C33.3411 11.6556 33.1183 11.6764 32.9265 11.7755L20.8349 18.5771V5.0013C20.8349 4.78029 20.7471 4.56833 20.5908 4.41205C20.4345 4.25577 20.2226 4.16797 20.0015 4.16797C19.7805 4.16797 19.5686 4.25577 19.4123 4.41205C19.256 4.56833 19.1682 4.78029 19.1682 5.0013V18.5771L7.07654 11.7755C6.88474 11.6764 6.66196 11.6556 6.45512 11.7174C6.24829 11.7793 6.07354 11.919 5.96768 12.1072C5.86183 12.2954 5.83313 12.5173 5.88763 12.7262C5.94213 12.9351 6.07558 13.1147 6.25987 13.2271L18.3024 20.0013L6.25987 26.7755C6.09954 26.8659 5.97367 27.0069 5.9019 27.1764C5.83013 27.3459 5.81649 27.5344 5.86313 27.7124C5.90976 27.8905 6.01404 28.0481 6.15968 28.1607C6.30532 28.2732 6.48413 28.3344 6.6682 28.3346C6.81107 28.3348 6.95153 28.2978 7.0757 28.2271L19.1682 21.4255V35.0013C19.1682 35.2223 19.256 35.4343 19.4123 35.5906C19.5686 35.7468 19.7805 35.8346 20.0015 35.8346C20.2226 35.8346 20.4345 35.7468 20.5908 35.5906C20.7471 35.4343 20.8349 35.2223 20.8349 35.0013V21.4255L32.9265 28.2271C33.051 28.2979 33.1917 28.335 33.3349 28.3346C33.519 28.3346 33.6979 28.2735 33.8437 28.161C33.9895 28.0486 34.0939 27.8909 34.1407 27.7128C34.1874 27.5347 34.1738 27.3461 34.1021 27.1766C34.0303 27.007 33.9036 26.8659 33.7432 26.7755Z" fill="#645AED"/>
<path id="Vector_2" d="M33.3346 16.6673C35.6358 16.6673 37.5013 14.8018 37.5013 12.5007C37.5013 10.1995 35.6358 8.33398 33.3346 8.33398C31.0334 8.33398 29.168 10.1995 29.168 12.5007C29.168 14.8018 31.0334 16.6673 33.3346 16.6673Z" fill="#ADA8FA"/>
<path id="Vector_3" d="M33.3333 28.3346C33.1123 28.3346 32.9004 28.2468 32.7441 28.0906C32.5878 27.9343 32.5 27.7223 32.5 27.5013V12.5013C32.5 12.2803 32.5878 12.0683 32.7441 11.912C32.9004 11.7558 33.1123 11.668 33.3333 11.668C33.5543 11.668 33.7663 11.7558 33.9226 11.912C34.0789 12.0683 34.1667 12.2803 34.1667 12.5013V27.5013C34.1667 27.7223 34.0789 27.9343 33.9226 28.0906C33.7663 28.2468 33.5543 28.3346 33.3333 28.3346Z" fill="#645AED"/>
<path id="Vector_4" d="M33.3346 31.6673C35.6358 31.6673 37.5013 29.8018 37.5013 27.5007C37.5013 25.1995 35.6358 23.334 33.3346 23.334C31.0334 23.334 29.168 25.1995 29.168 27.5007C29.168 29.8018 31.0334 31.6673 33.3346 31.6673Z" fill="#ADA8FA"/>
<path id="Vector_5" d="M20.0011 35.8338C19.8169 35.8338 19.638 35.7727 19.4922 35.6602C19.3464 35.5477 19.242 35.3901 19.1953 35.212C19.1485 35.0339 19.1621 34.8453 19.2338 34.6757C19.3056 34.5062 19.4315 34.3651 19.5919 34.2746L32.9252 26.7746C33.117 26.6755 33.3398 26.6547 33.5466 26.7166C33.7535 26.7785 33.9282 26.9182 34.0341 27.1064C34.1399 27.2945 34.1686 27.5164 34.1141 27.7253C34.0596 27.9342 33.9262 28.1138 33.7419 28.2263L20.4086 35.7263C20.2844 35.797 20.1439 35.834 20.0011 35.8338Z" fill="#645AED"/>
<path id="Vector_6" d="M19.9987 39.1673C22.2999 39.1673 24.1654 37.3018 24.1654 35.0007C24.1654 32.6995 22.2999 30.834 19.9987 30.834C17.6975 30.834 15.832 32.6995 15.832 35.0007C15.832 37.3018 17.6975 39.1673 19.9987 39.1673Z" fill="#ADA8FA"/>
<path id="Vector_7" d="M19.9987 24.1673C19.1746 24.1673 18.369 23.9229 17.6838 23.4651C16.9986 23.0073 16.4646 22.3565 16.1492 21.5952C15.8338 20.8338 15.7513 19.996 15.9121 19.1878C16.0729 18.3795 16.4697 17.6371 17.0524 17.0544C17.6351 16.4717 18.3776 16.0748 19.1858 15.914C19.9941 15.7533 20.8319 15.8358 21.5932 16.1512C22.3546 16.4665 23.0053 17.0006 23.4632 17.6858C23.921 18.371 24.1654 19.1766 24.1654 20.0007C24.164 21.1053 23.7246 22.1644 22.9435 22.9455C22.1624 23.7266 21.1034 24.166 19.9987 24.1673Z" fill="#857CF8"/>
<path id="Vector_8" d="M19.9994 35.8338C19.8566 35.834 19.7161 35.797 19.5919 35.7263L6.25861 28.2263C6.07432 28.1138 5.94087 27.9342 5.88637 27.7253C5.83187 27.5164 5.86056 27.2945 5.96642 27.1064C6.07227 26.9182 6.24702 26.7785 6.45386 26.7166C6.66069 26.6547 6.88347 26.6755 7.07527 26.7746L20.4086 34.2746C20.569 34.3651 20.6949 34.5062 20.7667 34.6757C20.8384 34.8453 20.852 35.0339 20.8052 35.212C20.7585 35.3901 20.6541 35.5477 20.5083 35.6602C20.3625 35.7727 20.1836 35.8338 19.9994 35.8338Z" fill="#645AED"/>
<path id="Vector_9" d="M6.66667 31.6673C8.96785 31.6673 10.8333 29.8018 10.8333 27.5007C10.8333 25.1995 8.96785 23.334 6.66667 23.334C4.36548 23.334 2.5 25.1995 2.5 27.5007C2.5 29.8018 4.36548 31.6673 6.66667 31.6673Z" fill="#ADA8FA"/>
<path id="Vector_10" d="M6.66536 28.3346C6.44435 28.3346 6.23239 28.2468 6.07611 28.0906C5.91983 27.9343 5.83203 27.7223 5.83203 27.5013V12.5013C5.83203 12.2803 5.91983 12.0683 6.07611 11.912C6.23239 11.7558 6.44435 11.668 6.66536 11.668C6.88638 11.668 7.09834 11.7558 7.25462 11.912C7.4109 12.0683 7.4987 12.2803 7.4987 12.5013V27.5013C7.4987 27.7223 7.4109 27.9343 7.25462 28.0906C7.09834 28.2468 6.88638 28.3346 6.66536 28.3346Z" fill="#645AED"/>
<path id="Vector_11" d="M6.66667 16.6673C8.96785 16.6673 10.8333 14.8018 10.8333 12.5007C10.8333 10.1995 8.96785 8.33398 6.66667 8.33398C4.36548 8.33398 2.5 10.1995 2.5 12.5007C2.5 14.8018 4.36548 16.6673 6.66667 16.6673Z" fill="#ADA8FA"/>
<path id="Vector_12" d="M6.66513 13.3335C6.48099 13.3335 6.30205 13.2724 6.15627 13.1599C6.01048 13.0474 5.90607 12.8898 5.85932 12.7117C5.81258 12.5336 5.82615 12.345 5.89791 12.1754C5.96967 12.0058 6.09558 11.8648 6.25596 11.7743L19.5893 4.27434C19.6848 4.21604 19.7911 4.17758 19.9019 4.16125C20.0126 4.14493 20.1255 4.15108 20.2338 4.17933C20.3421 4.20759 20.4436 4.25737 20.5322 4.32571C20.6208 4.39405 20.6948 4.47954 20.7497 4.57709C20.8046 4.67463 20.8392 4.78224 20.8516 4.89347C20.864 5.00471 20.8539 5.1173 20.8218 5.22453C20.7897 5.33176 20.7363 5.43142 20.6649 5.51758C20.5935 5.60374 20.5054 5.67463 20.406 5.72601L7.07263 13.226C6.94845 13.2967 6.808 13.3337 6.66513 13.3335Z" fill="#645AED"/>
<path id="Vector_13" d="M19.9987 9.16732C22.2999 9.16732 24.1654 7.30184 24.1654 5.00065C24.1654 2.69946 22.2999 0.833984 19.9987 0.833984C17.6975 0.833984 15.832 2.69946 15.832 5.00065C15.832 7.30184 17.6975 9.16732 19.9987 9.16732Z" fill="#ADA8FA"/>
<path id="Vector_14" d="M30.1981 9.78214L20.4073 4.27464C20.2155 4.17553 19.9927 4.15473 19.7859 4.21661C19.5791 4.27849 19.4043 4.41822 19.2985 4.60638C19.1926 4.79455 19.1639 5.01645 19.2184 5.22535C19.2729 5.43425 19.4063 5.61385 19.5906 5.72631L29.3823 11.2346C29.5527 10.7001 29.8303 10.2059 30.1981 9.78214Z" fill="#645AED"/>
</g>
</g>
</g>
</svg>
