<svg width="14" height="14" viewBox="0 0 14 14" fill="none" xmlns="http://www.w3.org/2000/svg">
<g id="control-panel 1" clip-path="url(#clip0_5251_115184)">
<g id="Group">
<path id="Vector" d="M8.86875 1.58551C8.26263 1.40432 7.63294 1.31169 7 1.31251C3.41363 1.30926 0.50325 4.21476 0.5 7.80113C0.5 8.43407 0.591 9.06376 0.773 9.66988C0.875375 10.0144 1.19225 10.25 1.55138 10.25H4.03275C3.97994 9.76738 3.92631 9.21244 3.8735 8.625H2.19406C2.14775 8.35688 2.125 8.08469 2.125 7.8125C2.125 5.11988 4.30738 2.93751 7 2.93751C9.69263 2.93751 11.875 5.11988 11.875 7.8125C11.875 8.08469 11.8523 8.35688 11.8059 8.625H8.9565C9.34406 9.36438 9.64144 9.97294 9.72188 10.237C9.7235 10.2411 9.7235 10.2451 9.72431 10.25H12.4486C12.8078 10.25 13.1246 10.0144 13.227 9.66988C14.2556 6.23382 12.3048 2.61413 8.86875 1.58551Z" fill="#E85C51"/>
<path id="Vector_2" d="M8.55456 10.5898C8.35225 9.92189 5.86682 5.52871 5.58407 5.02983C5.49144 4.86571 5.29969 4.78689 5.11282 4.84133C4.93082 4.89658 4.81219 5.07046 4.82519 5.25977C4.86744 5.83177 5.242 10.8652 5.44432 11.5331C5.65719 12.2335 6.30313 12.686 7.00025 12.686C7.15625 12.686 7.31469 12.6633 7.4715 12.6161C8.32869 12.3561 8.81375 11.4478 8.55456 10.5898Z" fill="#E85C51"/>
</g>
</g>
<defs>
<clipPath id="clip0_5251_115184">
<rect width="13" height="13" fill="white" transform="translate(0.5 0.5)"/>
</clipPath>
</defs>
</svg>
