<svg width="12" height="12" viewBox="0 0 12 12" fill="none" xmlns="http://www.w3.org/2000/svg">
<g id="c-info 2" clip-path="url(#clip0_6363_34260)">
<g id="Group">
<g id="Group_2">
<path id="Vector" d="M5.98438 10.9688C8.73717 10.9688 10.9688 8.73717 10.9688 5.98438C10.9688 3.23158 8.73717 1 5.98438 1C3.23158 1 1 3.23158 1 5.98438C1 8.73717 3.23158 10.9688 5.98438 10.9688Z" stroke="#0037B7" stroke-width="1.2" stroke-miterlimit="10" stroke-linecap="square"/>
<path id="Vector_2" d="M5.98438 3.40625C6.0793 3.40625 6.15625 3.3293 6.15625 3.23438C6.15625 3.13945 6.0793 3.0625 5.98438 3.0625C5.88945 3.0625 5.8125 3.13945 5.8125 3.23438C5.8125 3.3293 5.88945 3.40625 5.98438 3.40625Z" fill="#0037B7" stroke="#0037B7" stroke-width="1.2" stroke-miterlimit="10" stroke-linecap="square"/>
<path id="Vector_3" d="M6 6L5.98438 8.73437" stroke="#0037B7" stroke-width="1.2" stroke-miterlimit="10" stroke-linecap="square"/>
</g>
</g>
</g>
<defs>
<clipPath id="clip0_6363_34260">
<rect width="12" height="12" fill="white"/>
</clipPath>
</defs>
</svg>
