<svg width="28" height="28" viewBox="0 0 28 28" fill="none" xmlns="http://www.w3.org/2000/svg">
<g id="direction-up 1" clip-path="url(#clip0_5074_23924)">
<g id="Group">
<path id="Vector" d="M10.0476 21.3409L6.65943 17.9526C6.50966 17.8029 6.30653 17.7187 6.09473 17.7187C5.88292 17.7187 5.67979 17.8029 5.53002 17.9526C5.38025 18.1024 5.29612 18.3055 5.29612 18.5173C5.29612 18.7292 5.38025 18.9323 5.53002 19.082L8.91824 22.4703C9.06801 22.62 9.27114 22.7042 9.48295 22.7042C9.69475 22.7042 9.89788 22.62 10.0476 22.4703C10.1974 22.3205 10.2816 22.1174 10.2816 21.9056C10.2816 21.6938 10.1974 21.4906 10.0476 21.3409Z" fill="white"/>
<path id="Vector_2" d="M16.2591 16.2586L18.5179 18.5174C18.6242 18.6238 18.7584 18.6981 18.905 18.7316C19.0516 18.7651 19.2047 18.7565 19.3467 18.7068C19.4887 18.6571 19.6137 18.5684 19.7075 18.4507C19.8012 18.3331 19.8598 18.1914 19.8765 18.0419L21.006 7.87727C21.0145 7.75909 20.9975 7.64046 20.9562 7.52942C20.9148 7.41839 20.85 7.31756 20.7662 7.23378C20.6825 7.15 20.5816 7.08522 20.4706 7.04386C20.3596 7.0025 20.2409 6.98552 20.1228 6.99407L9.9581 8.12348C9.80863 8.14022 9.66692 8.19883 9.54929 8.29257C9.43166 8.38631 9.3429 8.51136 9.29321 8.65333C9.24353 8.7953 9.23495 8.94841 9.26846 9.09504C9.30197 9.24167 9.3762 9.37586 9.48262 9.48215L11.7414 11.741L7.78851 15.6939C7.63874 15.8437 7.5546 16.0468 7.5546 16.2586C7.5546 16.4704 7.63874 16.6735 7.78851 16.8233L11.1767 20.2115C11.3265 20.3613 11.5296 20.4454 11.7414 20.4454C11.9532 20.4454 12.1564 20.3613 12.3061 20.2115L16.2591 16.2586Z" fill="white"/>
</g>
</g>
<defs>
<clipPath id="clip0_5074_23924">
<rect width="19.1667" height="19.1667" fill="white" transform="translate(14 0.447021) rotate(45)"/>
</clipPath>
</defs>
</svg>
