<svg width="40" height="40" viewBox="0 0 40 40" fill="none" xmlns="http://www.w3.org/2000/svg">
<g id="divider 1" clip-path="url(#clip0_1261_7829)">
<g id="Group">
<path id="Vector" d="M34.166 0.833252H5.83268C4.91185 0.833252 4.16602 1.57909 4.16602 2.49992V14.1666C4.16602 15.0874 4.91185 15.8333 5.83268 15.8333H34.166C35.0868 15.8333 35.8327 15.0874 35.8327 14.1666V2.49992C35.8327 1.57909 35.0868 0.833252 34.166 0.833252Z" fill="url(#paint0_linear_1261_7829)"/>
<path id="Vector_2" d="M34.166 39.1665H5.83268C4.91185 39.1665 4.16602 38.4207 4.16602 37.4998V25.8332C4.16602 24.9123 4.91185 24.1665 5.83268 24.1665H34.166C35.0868 24.1665 35.8327 24.9123 35.8327 25.8332V37.4998C35.8327 38.4207 35.0868 39.1665 34.166 39.1665Z" fill="url(#paint1_linear_1261_7829)"/>
<path id="Vector_3" d="M38.333 20.8332H1.66634C1.20551 20.8332 0.833008 20.4598 0.833008 19.9998C0.833008 19.5398 1.20551 19.1665 1.66634 19.1665H38.333C38.7938 19.1665 39.1663 19.5398 39.1663 19.9998C39.1663 20.4598 38.7938 20.8332 38.333 20.8332Z" fill="#B3B3B3"/>
</g>
</g>
<defs>
<linearGradient id="paint0_linear_1261_7829" x1="19.9993" y1="15.8333" x2="19.9993" y2="0.833252" gradientUnits="userSpaceOnUse">
<stop stop-color="#72C472"/>
<stop offset="1" stop-color="#15B7B7"/>
</linearGradient>
<linearGradient id="paint1_linear_1261_7829" x1="19.9993" y1="24.1665" x2="19.9993" y2="39.1665" gradientUnits="userSpaceOnUse">
<stop stop-color="#72C472"/>
<stop offset="1" stop-color="#15B7B7"/>
</linearGradient>
<clipPath id="clip0_1261_7829">
<rect width="40" height="40" fill="white"/>
</clipPath>
</defs>
</svg>
