<svg width="244" height="339" viewBox="0 0 244 339" fill="none" xmlns="http://www.w3.org/2000/svg">
<circle cx="5" cy="328" r="5" fill="#86D460"/>
<path d="M18.1534 333V322.818H24.4624V324.066H19.5952V327.278H24.1342V328.526H19.5952V331.752H24.527V333H18.1534ZM31.6165 335.864V331.817H31.522C31.4358 331.973 31.3099 332.155 31.1442 332.364C30.9785 332.572 30.7498 332.756 30.4581 332.915C30.1664 333.071 29.7836 333.149 29.3097 333.149C28.6866 333.149 28.133 332.992 27.6491 332.677C27.1686 332.359 26.7907 331.905 26.5156 331.315C26.2405 330.721 26.103 330.015 26.103 329.197C26.103 328.378 26.2405 327.675 26.5156 327.089C26.794 326.502 27.1752 326.051 27.6591 325.737C28.1463 325.422 28.7015 325.264 29.3246 325.264C29.8052 325.264 30.1896 325.344 30.478 325.503C30.7696 325.662 30.995 325.846 31.1541 326.055C31.3132 326.263 31.4358 326.442 31.522 326.592H31.6513V325.364H33.0036V335.864H31.6165ZM29.5881 331.951C30.0289 331.951 30.4018 331.835 30.7067 331.603C31.0116 331.368 31.2436 331.043 31.4027 330.629C31.5618 330.211 31.6413 329.729 31.6413 329.182C31.6413 328.638 31.5634 328.163 31.4077 327.755C31.2519 327.347 31.0215 327.031 30.7166 326.805C30.4117 326.577 30.0355 326.462 29.5881 326.462C29.1241 326.462 28.7379 326.582 28.4297 326.82C28.1214 327.059 27.8894 327.384 27.7337 327.795C27.5812 328.206 27.505 328.668 27.505 329.182C27.505 329.702 27.5829 330.173 27.7386 330.594C27.8977 331.011 28.1314 331.343 28.4396 331.588C28.7479 331.83 29.1307 331.951 29.5881 331.951ZM39.873 329.848V325.364H41.2651V333H39.8929V331.688H39.8134C39.6377 332.089 39.3577 332.425 38.9732 332.697C38.592 332.965 38.1131 333.099 37.5364 333.099C37.0525 333.099 36.6216 332.992 36.2438 332.776C35.8693 332.561 35.5759 332.241 35.3638 331.817C35.1517 331.389 35.0456 330.857 35.0456 330.221V325.364H36.4327V330.072C36.4327 330.602 36.5802 331.026 36.8752 331.344C37.1735 331.659 37.5563 331.817 38.0236 331.817C38.3053 331.817 38.5887 331.746 38.8738 331.603C39.1588 331.46 39.3974 331.245 39.5897 330.957C39.7819 330.665 39.8764 330.295 39.873 329.848ZM43.3034 333V325.364H44.6905V333H43.3034ZM44.0044 324.156C43.7559 324.156 43.5421 324.073 43.3631 323.907C43.1874 323.738 43.0996 323.536 43.0996 323.3C43.0996 323.062 43.1874 322.86 43.3631 322.694C43.5421 322.525 43.7559 322.44 44.0044 322.44C44.253 322.44 44.4651 322.525 44.6408 322.694C44.8198 322.86 44.9093 323.062 44.9093 323.3C44.9093 323.536 44.8198 323.738 44.6408 323.907C44.4651 324.073 44.253 324.156 44.0044 324.156ZM50.2251 325.364V326.497H46.1186V325.364H50.2251ZM47.2472 323.534H48.6392V330.778C48.6392 331.076 48.6823 331.301 48.7685 331.454C48.858 331.603 48.974 331.704 49.1165 331.757C49.2623 331.81 49.4181 331.837 49.5838 331.837C49.7064 331.837 49.8108 331.828 49.897 331.812C49.9832 331.795 50.0511 331.782 50.1009 331.772L50.3643 332.95C50.2782 332.98 50.1572 333.012 50.0014 333.045C49.849 333.081 49.6567 333.099 49.4247 333.099C49.0535 333.106 48.7005 333.036 48.3658 332.891C48.0343 332.745 47.7642 332.523 47.5554 332.224C47.3499 331.923 47.2472 331.543 47.2472 331.086V323.534ZM52.783 335.864C52.5676 335.864 52.372 335.847 52.1964 335.814C52.024 335.781 51.8981 335.744 51.8185 335.705L52.1566 334.546C52.435 334.619 52.6803 334.649 52.8924 334.636C53.1078 334.622 53.2984 334.536 53.4641 334.377C53.6299 334.221 53.779 333.968 53.9116 333.616L54.1055 333.08L51.3015 325.364H52.793L54.7816 331.339H54.8612L56.8498 325.364H58.3462L55.1694 334.049C55.0236 334.447 54.8396 334.78 54.6175 335.048C54.3955 335.32 54.132 335.524 53.8271 335.66C53.5254 335.796 53.1774 335.864 52.783 335.864Z" fill="#666666"/>
<circle cx="100" cy="328" r="5" fill="#9766D7"/>
<path d="M116.405 333H113.153V322.818H116.519C117.513 322.818 118.365 323.022 119.075 323.43C119.787 323.834 120.334 324.416 120.715 325.175C121.096 325.93 121.287 326.837 121.287 327.894C121.287 328.955 121.095 329.866 120.71 330.629C120.329 331.391 119.774 331.978 119.045 332.388C118.319 332.796 117.439 333 116.405 333ZM114.595 331.732H116.32C117.116 331.732 117.775 331.581 118.299 331.28C118.826 330.978 119.219 330.542 119.477 329.972C119.739 329.399 119.87 328.706 119.87 327.894C119.87 327.085 119.741 326.398 119.482 325.831C119.227 325.264 118.844 324.832 118.334 324.533C117.823 324.235 117.189 324.086 116.43 324.086H114.595V331.732ZM126.375 333.154C125.63 333.154 124.987 332.993 124.446 332.672C123.906 332.347 123.49 331.891 123.199 331.305C122.91 330.715 122.766 330.025 122.766 329.237C122.766 328.454 122.91 327.765 123.199 327.168C123.49 326.568 123.898 326.101 124.422 325.766C124.949 325.432 125.563 325.264 126.266 325.264C126.687 325.264 127.096 325.334 127.494 325.473C127.895 325.612 128.255 325.833 128.573 326.134C128.894 326.436 129.148 326.83 129.333 327.317C129.522 327.805 129.617 328.398 129.617 329.097V329.614H123.601V328.531H128.24C128.24 328.129 128.158 327.772 127.996 327.457C127.834 327.142 127.605 326.893 127.31 326.711C127.015 326.529 126.67 326.438 126.276 326.438C125.842 326.438 125.466 326.544 125.147 326.756C124.829 326.968 124.584 327.245 124.412 327.586C124.239 327.924 124.151 328.29 124.148 328.685V329.49C124.148 330.024 124.241 330.476 124.426 330.847C124.615 331.215 124.877 331.497 125.212 331.692C125.547 331.885 125.938 331.981 126.385 331.981C126.677 331.981 126.94 331.939 127.176 331.857C127.414 331.774 127.62 331.649 127.792 331.484C127.965 331.315 128.097 331.107 128.19 330.862L129.517 331.136C129.401 331.54 129.199 331.895 128.911 332.2C128.626 332.501 128.268 332.737 127.837 332.906C127.406 333.071 126.919 333.154 126.375 333.154ZM131.446 333V322.818H132.838V326.592H132.928C133.014 326.442 133.137 326.263 133.296 326.055C133.458 325.846 133.684 325.662 133.972 325.503C134.26 325.344 134.645 325.264 135.125 325.264C135.748 325.264 136.304 325.422 136.791 325.737C137.278 326.051 137.659 326.502 137.934 327.089C138.213 327.675 138.352 328.378 138.352 329.197C138.352 330.015 138.214 330.721 137.939 331.315C137.664 331.905 137.285 332.359 136.801 332.677C136.317 332.992 135.763 333.149 135.14 333.149C134.67 333.149 134.287 333.071 133.992 332.915C133.7 332.756 133.471 332.572 133.306 332.364C133.143 332.155 133.017 331.973 132.928 331.817H132.799V333H131.446ZM132.809 329.182C132.809 329.729 132.888 330.211 133.047 330.629C133.21 331.043 133.443 331.368 133.748 331.603C134.053 331.835 134.424 331.951 134.862 331.951C135.323 331.951 135.707 331.83 136.015 331.588C136.324 331.343 136.556 331.011 136.711 330.594C136.87 330.173 136.95 329.702 136.95 329.182C136.95 328.668 136.872 328.206 136.716 327.795C136.564 327.384 136.332 327.059 136.02 326.82C135.712 326.582 135.326 326.462 134.862 326.462C134.418 326.462 134.043 326.577 133.738 326.805C133.433 327.031 133.201 327.347 133.042 327.755C132.886 328.163 132.809 328.638 132.809 329.182ZM143.544 325.364V326.497H139.437V325.364H143.544ZM140.566 323.534H141.958V330.778C141.958 331.076 142.001 331.301 142.087 331.454C142.176 331.603 142.292 331.704 142.435 331.757C142.581 331.81 142.736 331.837 142.902 331.837C143.025 331.837 143.129 331.828 143.215 331.812C143.302 331.795 143.369 331.782 143.419 331.772L143.683 332.95C143.597 332.98 143.476 333.012 143.32 333.045C143.167 333.081 142.975 333.099 142.743 333.099C142.372 333.106 142.019 333.036 141.684 332.891C141.353 332.745 141.083 332.523 140.874 332.224C140.668 331.923 140.566 331.543 140.566 331.086V323.534Z" fill="#666666"/>
<circle cx="186" cy="328" r="5" fill="#F86DB0"/>
<path d="M207.918 327.909C207.918 328.99 207.721 329.921 207.327 330.703C206.932 331.485 206.392 332.087 205.706 332.508C205.02 332.929 204.239 333.139 203.364 333.139C202.486 333.139 201.704 332.929 201.018 332.508C200.332 332.087 199.791 331.485 199.397 330.703C199.003 329.921 198.805 328.99 198.805 327.909C198.805 326.829 199.003 325.897 199.397 325.115C199.791 324.333 200.332 323.731 201.018 323.31C201.704 322.889 202.486 322.679 203.364 322.679C204.239 322.679 205.02 322.889 205.706 323.31C206.392 323.731 206.932 324.333 207.327 325.115C207.721 325.897 207.918 326.829 207.918 327.909ZM206.501 327.909C206.501 327.064 206.364 326.351 206.089 325.771C205.814 325.191 205.439 324.752 204.965 324.454C204.491 324.156 203.958 324.006 203.364 324.006C202.768 324.006 202.232 324.156 201.759 324.454C201.288 324.752 200.915 325.191 200.64 325.771C200.365 326.351 200.227 327.064 200.227 327.909C200.227 328.754 200.365 329.467 200.64 330.047C200.915 330.627 201.288 331.066 201.759 331.364C202.232 331.663 202.768 331.812 203.364 331.812C203.958 331.812 204.491 331.663 204.965 331.364C205.439 331.066 205.814 330.627 206.089 330.047C206.364 329.467 206.501 328.754 206.501 327.909ZM213.233 325.364V326.497H209.126V325.364H213.233ZM210.255 323.534H211.647V330.778C211.647 331.076 211.69 331.301 211.776 331.454C211.866 331.603 211.982 331.704 212.124 331.757C212.27 331.81 212.426 331.837 212.592 331.837C212.714 331.837 212.819 331.828 212.905 331.812C212.991 331.795 213.059 331.782 213.109 331.772L213.372 332.95C213.286 332.98 213.165 333.012 213.009 333.045C212.857 333.081 212.665 333.099 212.433 333.099C212.061 333.106 211.708 333.036 211.374 332.891C211.042 332.745 210.772 332.523 210.563 332.224C210.358 331.923 210.255 331.543 210.255 331.086V323.534ZM216.462 328.446V333H215.075V322.818H216.447V326.592H216.547C216.725 326.184 216.997 325.861 217.362 325.622C217.726 325.384 218.205 325.264 218.799 325.264C219.322 325.264 219.78 325.37 220.171 325.582C220.565 325.795 220.87 326.114 221.086 326.542C221.304 326.969 221.414 327.503 221.414 328.143V333H220.027V328.292C220.027 327.719 219.877 327.274 219.579 326.96C219.284 326.641 218.873 326.482 218.346 326.482C217.985 326.482 217.662 326.558 217.377 326.711C217.092 326.863 216.868 327.087 216.706 327.382C216.543 327.674 216.462 328.028 216.462 328.446ZM226.717 333.154C225.971 333.154 225.328 332.993 224.788 332.672C224.248 332.347 223.832 331.891 223.54 331.305C223.252 330.715 223.108 330.025 223.108 329.237C223.108 328.454 223.252 327.765 223.54 327.168C223.832 326.568 224.24 326.101 224.763 325.766C225.29 325.432 225.905 325.264 226.608 325.264C227.029 325.264 227.438 325.334 227.836 325.473C228.237 325.612 228.596 325.833 228.915 326.134C229.236 326.436 229.49 326.83 229.675 327.317C229.864 327.805 229.959 328.398 229.959 329.097V329.614H223.943V328.531H228.581C228.581 328.129 228.5 327.772 228.338 327.457C228.175 327.142 227.947 326.893 227.652 326.711C227.357 326.529 227.012 326.438 226.618 326.438C226.184 326.438 225.807 326.544 225.489 326.756C225.171 326.968 224.926 327.245 224.753 327.586C224.581 327.924 224.493 328.29 224.49 328.685V329.49C224.49 330.024 224.583 330.476 224.768 330.847C224.957 331.215 225.219 331.497 225.554 331.692C225.889 331.885 226.28 331.981 226.727 331.981C227.019 331.981 227.282 331.939 227.518 331.857C227.756 331.774 227.962 331.649 228.134 331.484C228.306 331.315 228.439 331.107 228.532 330.862L229.859 331.136C229.743 331.54 229.541 331.895 229.253 332.2C228.968 332.501 228.61 332.737 228.179 332.906C227.748 333.071 227.261 333.154 226.717 333.154ZM231.659 333V325.364H233.001V326.557H233.081C233.22 326.159 233.467 325.843 233.822 325.607C234.18 325.369 234.584 325.249 235.035 325.249C235.124 325.249 235.232 325.253 235.358 325.259C235.487 325.263 235.588 325.269 235.661 325.279V326.631C235.608 326.615 235.507 326.597 235.358 326.577C235.209 326.554 235.058 326.542 234.905 326.542C234.547 326.542 234.228 326.616 233.946 326.766C233.667 326.915 233.447 327.122 233.285 327.387C233.126 327.649 233.046 327.949 233.046 328.287V333H231.659ZM242.614 327.183L241.356 327.437C241.296 327.264 241.205 327.099 241.083 326.94C240.96 326.781 240.794 326.65 240.585 326.547C240.377 326.444 240.111 326.393 239.79 326.393C239.356 326.393 238.993 326.491 238.701 326.686C238.413 326.882 238.269 327.132 238.269 327.437C238.269 327.705 238.366 327.919 238.562 328.078C238.761 328.234 239.074 328.365 239.502 328.471L240.69 328.749C241.389 328.912 241.91 329.164 242.251 329.505C242.592 329.843 242.763 330.281 242.763 330.817C242.763 331.268 242.632 331.671 242.37 332.026C242.112 332.377 241.75 332.654 241.286 332.856C240.826 333.055 240.29 333.154 239.681 333.154C238.849 333.154 238.168 332.977 237.637 332.622C237.107 332.264 236.779 331.75 236.653 331.081L237.985 330.842C238.081 331.23 238.272 331.522 238.557 331.717C238.842 331.913 239.213 332.011 239.671 332.011C240.174 332.011 240.577 331.905 240.879 331.692C241.18 331.477 241.331 331.217 241.331 330.912C241.331 330.663 241.242 330.456 241.063 330.29C240.884 330.121 240.607 329.994 240.232 329.908L238.95 329.619C238.24 329.457 237.718 329.2 237.384 328.849C237.049 328.494 236.882 328.048 236.882 327.511C236.882 327.067 237.006 326.676 237.254 326.338C237.503 326 237.846 325.737 238.284 325.548C238.721 325.359 239.222 325.264 239.785 325.264C240.587 325.264 241.218 325.438 241.679 325.786C242.14 326.134 242.451 326.6 242.614 327.183Z" fill="#666666"/>
<path d="M121.5 46C186.393 46 239 98.6065 239 163.5C239 228.393 186.393 281 121.5 281C56.6065 281 4 228.393 3.99999 163.5C3.99999 98.6066 56.6065 46 121.5 46ZM121.5 239.875C163.681 239.875 197.875 205.681 197.875 163.5C197.875 121.319 163.681 87.125 121.5 87.125C79.3192 87.125 45.125 121.319 45.125 163.5C45.125 205.681 79.3192 239.875 121.5 239.875Z" fill="#86D561"/>
<path d="M121.5 46C106.07 46 90.7904 49.0392 76.5347 54.9442C62.2789 60.8491 49.3258 69.5041 38.4149 80.415L67.4947 109.495C74.5868 102.403 83.0063 96.7769 92.2725 92.9387C101.539 89.1005 111.47 87.125 121.5 87.125L121.5 46Z" fill="#9866D7"/>
<path d="M121.5 46C111.399 46 101.34 47.3026 91.5714 49.8755L102.046 89.6441C108.396 87.9717 114.934 87.125 121.5 87.125L121.5 46Z" fill="#F86DB0"/>
<path d="M46.0781 14V2.35938H53.4844V4.04688H48.0625V7.60156H52.9141V9.25781H48.0625V14H46.0781ZM59.8909 10.4297V5.53125H61.7894V14H59.9222V12.5391H59.8675C59.6748 12.9974 59.3623 13.3802 58.93 13.6875C58.5029 13.9896 57.9639 14.1406 57.3128 14.1406C56.7451 14.1406 56.2321 14.0156 55.7738 13.7656C55.3206 13.5104 54.9613 13.1406 54.6956 12.6562C54.4352 12.1667 54.305 11.5703 54.305 10.8672V5.53125H56.2034V10.6016C56.2034 11.1953 56.3649 11.6589 56.6878 11.9922C57.0107 12.3203 57.4378 12.4844 57.9691 12.4844C58.3024 12.4844 58.6149 12.4115 58.9066 12.2656C59.1982 12.1146 59.4352 11.888 59.6175 11.5859C59.7998 11.2786 59.8909 10.8932 59.8909 10.4297ZM65.3366 9.07812V14H63.4303V5.53125H65.2975V6.97656L65.36 6.96875C65.5527 6.50521 65.86 6.1276 66.2819 5.83594C66.7038 5.53906 67.2402 5.39062 67.8913 5.39062C68.4746 5.39062 68.9954 5.51823 69.4538 5.77344C69.9121 6.02865 70.2741 6.40104 70.5397 6.89062C70.8053 7.375 70.9381 7.96875 70.9381 8.67188V14H69.0397V8.9375C69.0397 8.32812 68.8782 7.85677 68.5553 7.52344C68.2376 7.1901 67.8027 7.02344 67.2506 7.02344C66.8913 7.02344 66.5657 7.10156 66.2741 7.25781C65.9824 7.40885 65.7532 7.63802 65.5866 7.94531C65.4199 8.2474 65.3366 8.625 65.3366 9.07812ZM75.79 14.1641C75.0817 14.1641 74.4567 13.9844 73.915 13.625C73.3733 13.2656 72.9515 12.7578 72.6494 12.1016C72.3473 11.4453 72.1963 10.6693 72.1963 9.77344C72.1963 8.8776 72.3499 8.10156 72.6572 7.44531C72.9645 6.78906 73.3864 6.28385 73.9228 5.92969C74.4645 5.57031 75.0843 5.39062 75.7822 5.39062C76.2145 5.39062 76.5895 5.45833 76.9072 5.59375C77.2301 5.72396 77.5035 5.89844 77.7275 6.11719C77.9515 6.33073 78.1338 6.5651 78.2744 6.82031H78.3291V2.35938H80.2353V14H78.3603V12.7031H78.29C78.1494 12.9635 77.9645 13.2057 77.7353 13.4297C77.5061 13.6484 77.2301 13.8255 76.9072 13.9609C76.5895 14.0964 76.2171 14.1641 75.79 14.1641ZM76.2431 12.5703C76.691 12.5703 77.0765 12.4557 77.3994 12.2266C77.7223 11.9922 77.9697 11.6641 78.1416 11.2422C78.3186 10.8203 78.4072 10.3281 78.4072 9.76562C78.4072 9.20312 78.3213 8.71354 78.1494 8.29688C77.9775 7.88021 77.7301 7.55729 77.4072 7.32812C77.0843 7.09375 76.6963 6.97656 76.2431 6.97656C75.8004 6.97656 75.4202 7.09115 75.1025 7.32031C74.79 7.54948 74.5478 7.8724 74.3759 8.28906C74.2093 8.70573 74.1259 9.19792 74.1259 9.76562C74.1259 10.3385 74.2093 10.8359 74.3759 11.2578C74.5478 11.6745 74.7926 11.9974 75.1103 12.2266C75.428 12.4557 75.8056 12.5703 76.2431 12.5703ZM87.9234 14.1562C87.3714 14.1562 86.8766 14.0599 86.4391 13.8672C86.0068 13.6745 85.663 13.388 85.4078 13.0078C85.1578 12.6276 85.0328 12.1589 85.0328 11.6016C85.0328 11.1224 85.124 10.7292 85.3063 10.4219C85.4885 10.1094 85.7333 9.85938 86.0406 9.67188C86.3531 9.48438 86.7047 9.34375 87.0953 9.25C87.4859 9.15625 87.8922 9.08594 88.3141 9.03906C88.8297 8.98177 89.2411 8.93229 89.5484 8.89062C89.8609 8.84896 90.0849 8.78385 90.2203 8.69531C90.3557 8.60156 90.4234 8.45833 90.4234 8.26562V8.21094C90.4234 7.9401 90.3635 7.70573 90.2438 7.50781C90.124 7.3099 89.9469 7.15625 89.7125 7.04688C89.4833 6.9375 89.2047 6.88281 88.8766 6.88281C88.538 6.88281 88.2438 6.9375 87.9938 7.04688C87.7438 7.15104 87.5432 7.29427 87.3922 7.47656C87.2411 7.65365 87.1422 7.85417 87.0953 8.07812L85.2828 7.94531C85.3714 7.42448 85.5745 6.97396 85.8922 6.59375C86.2151 6.21354 86.6292 5.91927 87.1344 5.71094C87.6448 5.4974 88.2255 5.39062 88.8766 5.39062C89.3401 5.39062 89.7776 5.45052 90.1891 5.57031C90.6057 5.6849 90.9729 5.85938 91.2906 6.09375C91.6135 6.32812 91.8661 6.625 92.0484 6.98438C92.2307 7.34375 92.3219 7.76823 92.3219 8.25781V14H90.4859V12.8203H90.4391C90.3141 13.0547 90.1422 13.2734 89.9234 13.4766C89.7099 13.6797 89.4391 13.8438 89.1109 13.9688C88.7828 14.0938 88.387 14.1562 87.9234 14.1562ZM88.3766 12.7188C88.8193 12.7188 89.1917 12.6354 89.4938 12.4688C89.801 12.3021 90.0328 12.0833 90.1891 11.8125C90.3505 11.5365 90.4313 11.2344 90.4313 10.9062V9.92188C90.3688 9.96875 90.2672 10.013 90.1266 10.0547C89.9911 10.0964 89.8323 10.1354 89.65 10.1719C89.4677 10.2083 89.2776 10.2422 89.0797 10.2734C88.8818 10.2995 88.6969 10.3255 88.525 10.3516C88.2281 10.3932 87.9547 10.4609 87.7047 10.5547C87.4547 10.6484 87.2542 10.7786 87.1031 10.9453C86.9573 11.112 86.8844 11.3281 86.8844 11.5938C86.8844 11.9531 87.0224 12.2318 87.2984 12.4297C87.5745 12.6224 87.9339 12.7188 88.3766 12.7188ZM100.549 7.95312L98.7831 8.05469C98.7519 7.83073 98.6711 7.6276 98.5409 7.44531C98.4107 7.25781 98.231 7.10938 98.0019 7C97.7779 6.88542 97.5071 6.82812 97.1894 6.82812C96.7415 6.82812 96.3795 6.92969 96.1034 7.13281C95.8274 7.33073 95.6894 7.57812 95.6894 7.875C95.6894 8.13542 95.7883 8.34896 95.9863 8.51562C96.1894 8.67708 96.4889 8.80208 96.8847 8.89062L98.3378 9.20312C99.1555 9.38021 99.7597 9.65885 100.15 10.0391C100.541 10.4141 100.736 10.9062 100.736 11.5156C100.736 12.0521 100.585 12.5208 100.283 12.9219C99.981 13.3229 99.5618 13.6354 99.0253 13.8594C98.4941 14.0781 97.8821 14.1875 97.1894 14.1875C96.5175 14.1875 95.9211 14.0859 95.4003 13.8828C94.8795 13.6797 94.4602 13.3828 94.1425 12.9922C93.8248 12.5964 93.6347 12.1172 93.5722 11.5547L95.4394 11.4609C95.5071 11.8724 95.6894 12.1875 95.9863 12.4062C96.2831 12.6198 96.6764 12.7266 97.1659 12.7266C97.6711 12.7266 98.0696 12.625 98.3613 12.4219C98.6581 12.2188 98.8066 11.9661 98.8066 11.6641C98.8066 11.4036 98.705 11.1927 98.5019 11.0312C98.2988 10.8698 98.0097 10.7474 97.6347 10.6641L96.1972 10.3594C95.3951 10.1875 94.7935 9.90104 94.3925 9.5C93.9915 9.09375 93.7909 8.57812 93.7909 7.95312C93.7909 7.44271 93.929 6.99479 94.205 6.60938C94.4863 6.22396 94.8795 5.92448 95.3847 5.71094C95.8951 5.49219 96.4863 5.38281 97.1581 5.38281C97.8144 5.38281 98.3847 5.48958 98.8691 5.70312C99.3586 5.91146 99.7467 6.20833 100.033 6.59375C100.325 6.97396 100.497 7.42708 100.549 7.95312ZM108.557 7.95312L106.791 8.05469C106.76 7.83073 106.679 7.6276 106.549 7.44531C106.419 7.25781 106.239 7.10938 106.01 7C105.786 6.88542 105.515 6.82812 105.197 6.82812C104.75 6.82812 104.388 6.92969 104.112 7.13281C103.836 7.33073 103.697 7.57812 103.697 7.875C103.697 8.13542 103.796 8.34896 103.994 8.51562C104.197 8.67708 104.497 8.80208 104.893 8.89062L106.346 9.20312C107.164 9.38021 107.768 9.65885 108.158 10.0391C108.549 10.4141 108.744 10.9062 108.744 11.5156C108.744 12.0521 108.593 12.5208 108.291 12.9219C107.989 13.3229 107.57 13.6354 107.033 13.8594C106.502 14.0781 105.89 14.1875 105.197 14.1875C104.526 14.1875 103.929 14.0859 103.408 13.8828C102.888 13.6797 102.468 13.3828 102.151 12.9922C101.833 12.5964 101.643 12.1172 101.58 11.5547L103.447 11.4609C103.515 11.8724 103.697 12.1875 103.994 12.4062C104.291 12.6198 104.684 12.7266 105.174 12.7266C105.679 12.7266 106.078 12.625 106.369 12.4219C106.666 12.2188 106.815 11.9661 106.815 11.6641C106.815 11.4036 106.713 11.1927 106.51 11.0312C106.307 10.8698 106.018 10.7474 105.643 10.6641L104.205 10.3594C103.403 10.1875 102.802 9.90104 102.401 9.5C102 9.09375 101.799 8.57812 101.799 7.95312C101.799 7.44271 101.937 6.99479 102.213 6.60938C102.494 6.22396 102.888 5.92448 103.393 5.71094C103.903 5.49219 104.494 5.38281 105.166 5.38281C105.822 5.38281 106.393 5.48958 106.877 5.70312C107.367 5.91146 107.755 6.20833 108.041 6.59375C108.333 6.97396 108.505 7.42708 108.557 7.95312ZM113.69 14.1797C112.846 14.1797 112.117 13.9974 111.503 13.6328C110.893 13.263 110.422 12.7474 110.088 12.0859C109.76 11.4245 109.596 10.6615 109.596 9.79688C109.596 8.93229 109.763 8.16927 110.096 7.50781C110.43 6.84115 110.896 6.32031 111.495 5.94531C112.094 5.57031 112.789 5.38281 113.581 5.38281C114.143 5.38281 114.661 5.47917 115.135 5.67188C115.614 5.85938 116.034 6.13802 116.393 6.50781C116.753 6.8776 117.031 7.33333 117.229 7.875C117.427 8.41146 117.526 9.02865 117.526 9.72656V10.2812H110.448V8.95312H116.565L115.698 9.34375C115.698 8.84896 115.614 8.41927 115.448 8.05469C115.286 7.6901 115.049 7.40885 114.737 7.21094C114.424 7.00781 114.047 6.90625 113.604 6.90625C113.161 6.90625 112.781 7.00781 112.463 7.21094C112.146 7.40885 111.901 7.6875 111.729 8.04688C111.557 8.40104 111.471 8.8099 111.471 9.27344V10.1328C111.471 10.6536 111.56 11.1042 111.737 11.4844C111.919 11.8594 112.18 12.151 112.518 12.3594C112.857 12.5625 113.258 12.6641 113.721 12.6641C114.044 12.6641 114.333 12.6172 114.588 12.5234C114.844 12.4297 115.06 12.2917 115.237 12.1094C115.414 11.9271 115.544 11.7135 115.628 11.4688L117.417 11.5781C117.307 12.0938 117.081 12.5469 116.737 12.9375C116.393 13.3281 115.961 13.6328 115.44 13.8516C114.919 14.0703 114.336 14.1797 113.69 14.1797ZM122.94 5.53125V7.05469H118.089V5.53125H122.94ZM119.323 3.1875H121.229V11.4766C121.229 11.7057 121.261 11.8958 121.323 12.0469C121.391 12.1927 121.495 12.2995 121.636 12.3672C121.776 12.4349 121.959 12.4688 122.183 12.4688C122.281 12.4688 122.401 12.4661 122.542 12.4609C122.683 12.4557 122.792 12.4479 122.87 12.4375L123.018 13.9688C122.883 13.9948 122.709 14.0156 122.495 14.0312C122.281 14.0469 122.063 14.0547 121.839 14.0547C121.308 14.0547 120.854 13.9661 120.479 13.7891C120.104 13.6068 119.818 13.349 119.62 13.0156C119.422 12.6771 119.323 12.2708 119.323 11.7969V3.1875ZM130.191 14.1562C129.639 14.1562 129.144 14.0599 128.707 13.8672C128.274 13.6745 127.931 13.388 127.675 13.0078C127.425 12.6276 127.3 12.1589 127.3 11.6016C127.3 11.1224 127.391 10.7292 127.574 10.4219C127.756 10.1094 128.001 9.85938 128.308 9.67188C128.621 9.48438 128.972 9.34375 129.363 9.25C129.753 9.15625 130.16 9.08594 130.582 9.03906C131.097 8.98177 131.509 8.93229 131.816 8.89062C132.128 8.84896 132.352 8.78385 132.488 8.69531C132.623 8.60156 132.691 8.45833 132.691 8.26562V8.21094C132.691 7.9401 132.631 7.70573 132.511 7.50781C132.391 7.3099 132.214 7.15625 131.98 7.04688C131.751 6.9375 131.472 6.88281 131.144 6.88281C130.806 6.88281 130.511 6.9375 130.261 7.04688C130.011 7.15104 129.811 7.29427 129.66 7.47656C129.509 7.65365 129.41 7.85417 129.363 8.07812L127.55 7.94531C127.639 7.42448 127.842 6.97396 128.16 6.59375C128.483 6.21354 128.897 5.91927 129.402 5.71094C129.912 5.4974 130.493 5.39062 131.144 5.39062C131.608 5.39062 132.045 5.45052 132.457 5.57031C132.873 5.6849 133.24 5.85938 133.558 6.09375C133.881 6.32812 134.134 6.625 134.316 6.98438C134.498 7.34375 134.589 7.76823 134.589 8.25781V14H132.753V12.8203H132.707C132.582 13.0547 132.41 13.2734 132.191 13.4766C131.977 13.6797 131.707 13.8438 131.378 13.9688C131.05 14.0938 130.654 14.1562 130.191 14.1562ZM130.644 12.7188C131.087 12.7188 131.459 12.6354 131.761 12.4688C132.069 12.3021 132.3 12.0833 132.457 11.8125C132.618 11.5365 132.699 11.2344 132.699 10.9062V9.92188C132.636 9.96875 132.535 10.013 132.394 10.0547C132.259 10.0964 132.1 10.1354 131.918 10.1719C131.735 10.2083 131.545 10.2422 131.347 10.2734C131.149 10.2995 130.964 10.3255 130.793 10.3516C130.496 10.3932 130.222 10.4609 129.972 10.5547C129.722 10.6484 129.522 10.7786 129.371 10.9453C129.225 11.112 129.152 11.3281 129.152 11.5938C129.152 11.9531 129.29 12.2318 129.566 12.4297C129.842 12.6224 130.201 12.7188 130.644 12.7188ZM138.441 2.35938V14H136.535V2.35938H138.441ZM142.293 2.35938V14H140.387V2.35938H142.293ZM147.629 14.1797C146.812 14.1797 146.096 13.9974 145.481 13.6328C144.872 13.263 144.398 12.75 144.059 12.0938C143.721 11.4323 143.551 10.6667 143.551 9.79688C143.551 8.91667 143.721 8.14583 144.059 7.48438C144.398 6.82292 144.872 6.30729 145.481 5.9375C146.096 5.56771 146.812 5.38281 147.629 5.38281C148.452 5.38281 149.168 5.56771 149.778 5.9375C150.392 6.30729 150.869 6.82292 151.207 7.48438C151.546 8.14583 151.715 8.91667 151.715 9.79688C151.715 10.6667 151.546 11.4323 151.207 12.0938C150.869 12.75 150.392 13.263 149.778 13.6328C149.168 13.9974 148.452 14.1797 147.629 14.1797ZM147.629 12.6016C148.093 12.6016 148.484 12.4818 148.801 12.2422C149.124 12.0026 149.369 11.6719 149.536 11.25C149.707 10.8229 149.793 10.3359 149.793 9.78906C149.793 9.23698 149.707 8.75 149.536 8.32812C149.369 7.90104 149.124 7.56771 148.801 7.32812C148.484 7.08333 148.093 6.96094 147.629 6.96094C147.171 6.96094 146.78 7.08333 146.457 7.32812C146.14 7.56771 145.895 7.90104 145.723 8.32812C145.556 8.75 145.473 9.23698 145.473 9.78906C145.473 10.3411 145.556 10.8281 145.723 11.25C145.895 11.6719 146.14 12.0026 146.457 12.2422C146.78 12.4818 147.171 12.6016 147.629 12.6016ZM156.653 14.1797C155.83 14.1797 155.114 13.9948 154.505 13.625C153.895 13.25 153.424 12.7344 153.091 12.0781C152.757 11.4167 152.591 10.6562 152.591 9.79688C152.591 8.92708 152.757 8.16146 153.091 7.5C153.429 6.83333 153.903 6.3151 154.512 5.94531C155.122 5.57031 155.833 5.38281 156.645 5.38281C157.333 5.38281 157.945 5.51302 158.481 5.77344C159.018 6.03385 159.45 6.39583 159.778 6.85938C160.106 7.32292 160.296 7.85938 160.348 8.46875H158.497C158.445 8.17708 158.341 7.91927 158.184 7.69531C158.028 7.46615 157.822 7.28646 157.567 7.15625C157.317 7.02604 157.018 6.96094 156.669 6.96094C156.231 6.96094 155.851 7.07552 155.528 7.30469C155.205 7.53385 154.955 7.85938 154.778 8.28125C154.601 8.70312 154.512 9.20052 154.512 9.77344C154.512 10.3516 154.598 10.8542 154.77 11.2812C154.947 11.7031 155.197 12.0286 155.52 12.2578C155.843 12.487 156.226 12.6016 156.669 12.6016C157.007 12.6016 157.299 12.5417 157.544 12.4219C157.794 12.2969 157.997 12.1198 158.153 11.8906C158.315 11.6615 158.427 11.3932 158.489 11.0859H160.348C160.302 11.6797 160.117 12.2109 159.794 12.6797C159.471 13.1484 159.041 13.5156 158.505 13.7812C157.968 14.0469 157.351 14.1797 156.653 14.1797ZM164.06 14.1562C163.508 14.1562 163.013 14.0599 162.575 13.8672C162.143 13.6745 161.799 13.388 161.544 13.0078C161.294 12.6276 161.169 12.1589 161.169 11.6016C161.169 11.1224 161.26 10.7292 161.442 10.4219C161.625 10.1094 161.87 9.85938 162.177 9.67188C162.489 9.48438 162.841 9.34375 163.232 9.25C163.622 9.15625 164.028 9.08594 164.45 9.03906C164.966 8.98177 165.377 8.93229 165.685 8.89062C165.997 8.84896 166.221 8.78385 166.357 8.69531C166.492 8.60156 166.56 8.45833 166.56 8.26562V8.21094C166.56 7.9401 166.5 7.70573 166.38 7.50781C166.26 7.3099 166.083 7.15625 165.849 7.04688C165.62 6.9375 165.341 6.88281 165.013 6.88281C164.674 6.88281 164.38 6.9375 164.13 7.04688C163.88 7.15104 163.679 7.29427 163.528 7.47656C163.377 7.65365 163.278 7.85417 163.232 8.07812L161.419 7.94531C161.508 7.42448 161.711 6.97396 162.028 6.59375C162.351 6.21354 162.765 5.91927 163.271 5.71094C163.781 5.4974 164.362 5.39062 165.013 5.39062C165.476 5.39062 165.914 5.45052 166.325 5.57031C166.742 5.6849 167.109 5.85938 167.427 6.09375C167.75 6.32812 168.002 6.625 168.185 6.98438C168.367 7.34375 168.458 7.76823 168.458 8.25781V14H166.622V12.8203H166.575C166.45 13.0547 166.278 13.2734 166.06 13.4766C165.846 13.6797 165.575 13.8438 165.247 13.9688C164.919 14.0938 164.523 14.1562 164.06 14.1562ZM164.513 12.7188C164.956 12.7188 165.328 12.6354 165.63 12.4688C165.937 12.3021 166.169 12.0833 166.325 11.8125C166.487 11.5365 166.567 11.2344 166.567 10.9062V9.92188C166.505 9.96875 166.403 10.013 166.263 10.0547C166.127 10.0964 165.969 10.1354 165.786 10.1719C165.604 10.2083 165.414 10.2422 165.216 10.2734C165.018 10.2995 164.833 10.3255 164.661 10.3516C164.364 10.3932 164.091 10.4609 163.841 10.5547C163.591 10.6484 163.39 10.7786 163.239 10.9453C163.094 11.112 163.021 11.3281 163.021 11.5938C163.021 11.9531 163.159 12.2318 163.435 12.4297C163.711 12.6224 164.07 12.7188 164.513 12.7188ZM174.287 5.53125V7.05469H169.435V5.53125H174.287ZM170.669 3.1875H172.576V11.4766C172.576 11.7057 172.607 11.8958 172.669 12.0469C172.737 12.1927 172.841 12.2995 172.982 12.3672C173.122 12.4349 173.305 12.4688 173.529 12.4688C173.628 12.4688 173.747 12.4661 173.888 12.4609C174.029 12.4557 174.138 12.4479 174.216 12.4375L174.365 13.9688C174.229 13.9948 174.055 14.0156 173.841 14.0312C173.628 14.0469 173.409 14.0547 173.185 14.0547C172.654 14.0547 172.201 13.9661 171.826 13.7891C171.451 13.6068 171.164 13.349 170.966 13.0156C170.768 12.6771 170.669 12.2708 170.669 11.7969V3.1875ZM175.818 14V5.53125H177.717V14H175.818ZM176.771 4.23438C176.454 4.23438 176.18 4.13021 175.951 3.92188C175.727 3.70833 175.615 3.45052 175.615 3.14844C175.615 2.85156 175.727 2.59635 175.951 2.38281C176.18 2.16927 176.454 2.0625 176.771 2.0625C177.089 2.0625 177.36 2.16927 177.584 2.38281C177.813 2.59635 177.928 2.85156 177.928 3.14844C177.928 3.45052 177.813 3.70833 177.584 3.92188C177.36 4.13021 177.089 4.23438 176.771 4.23438ZM183.061 14.1797C182.243 14.1797 181.527 13.9974 180.912 13.6328C180.303 13.263 179.829 12.75 179.49 12.0938C179.152 11.4323 178.982 10.6667 178.982 9.79688C178.982 8.91667 179.152 8.14583 179.49 7.48438C179.829 6.82292 180.303 6.30729 180.912 5.9375C181.527 5.56771 182.243 5.38281 183.061 5.38281C183.884 5.38281 184.6 5.56771 185.209 5.9375C185.824 6.30729 186.3 6.82292 186.639 7.48438C186.977 8.14583 187.147 8.91667 187.147 9.79688C187.147 10.6667 186.977 11.4323 186.639 12.0938C186.3 12.75 185.824 13.263 185.209 13.6328C184.6 13.9974 183.884 14.1797 183.061 14.1797ZM183.061 12.6016C183.524 12.6016 183.915 12.4818 184.232 12.2422C184.555 12.0026 184.8 11.6719 184.967 11.25C185.139 10.8229 185.225 10.3359 185.225 9.78906C185.225 9.23698 185.139 8.75 184.967 8.32812C184.8 7.90104 184.555 7.56771 184.232 7.32812C183.915 7.08333 183.524 6.96094 183.061 6.96094C182.602 6.96094 182.212 7.08333 181.889 7.32812C181.571 7.56771 181.326 7.90104 181.154 8.32812C180.988 8.75 180.904 9.23698 180.904 9.78906C180.904 10.3411 180.988 10.8281 181.154 11.25C181.326 11.6719 181.571 12.0026 181.889 12.2422C182.212 12.4818 182.602 12.6016 183.061 12.6016ZM190.311 9.07812V14H188.405V5.53125H190.272V6.97656L190.334 6.96875C190.527 6.50521 190.834 6.1276 191.256 5.83594C191.678 5.53906 192.215 5.39062 192.866 5.39062C193.449 5.39062 193.97 5.51823 194.428 5.77344C194.886 6.02865 195.248 6.40104 195.514 6.89062C195.78 7.375 195.913 7.96875 195.913 8.67188V14H194.014V8.9375C194.014 8.32812 193.853 7.85677 193.53 7.52344C193.212 7.1901 192.777 7.02344 192.225 7.02344C191.866 7.02344 191.54 7.10156 191.248 7.25781C190.957 7.40885 190.728 7.63802 190.561 7.94531C190.394 8.2474 190.311 8.625 190.311 9.07812Z" fill="#999999"/>
</svg>
