<svg width="239" height="98" viewBox="0 0 239 98" fill="none" xmlns="http://www.w3.org/2000/svg">
<path d="M10.6136 31H1.19604V1.90903H10.9119C13.7623 1.90903 16.2102 2.49104 18.2557 3.65604C20.3011 4.81204 21.8684 6.47303 22.9574 8.64203C24.0559 10.801 24.6051 13.391 24.6051 16.412C24.6051 19.442 24.0511 22.046 22.9432 24.224C21.8447 26.402 20.2538 28.079 18.1705 29.253C16.0871 30.418 13.5682 31 10.6136 31ZM5.58525 27.165H10.3722C12.5881 27.165 14.4299 26.748 15.8977 25.915C17.3655 25.072 18.464 23.855 19.1932 22.264C19.9223 20.664 20.2869 18.713 20.2869 16.412C20.2869 14.13 19.9223 12.193 19.1932 10.602C18.4735 9.01102 17.3987 7.80404 15.9688 6.98004C14.5388 6.15604 12.7633 5.74402 10.642 5.74402H5.58525V27.165ZM29.7223 31V9.18204H33.8274V12.648H34.0547C34.4524 11.473 35.1532 10.55 36.157 9.87802C37.1702 9.19602 38.3161 8.85504 39.5945 8.85504C39.8596 8.85504 40.1721 8.86503 40.532 8.88403C40.9013 8.90203 41.1901 8.92602 41.3984 8.95502V13.017C41.228 12.97 40.925 12.918 40.4893 12.861C40.0537 12.795 39.6181 12.761 39.1825 12.761C38.1787 12.761 37.2839 12.974 36.4979 13.401C35.7214 13.817 35.1058 14.4 34.6513 15.148C34.1967 15.886 33.9695 16.729 33.9695 17.676V31H29.7223ZM53.696 31.44C51.5464 31.44 49.6951 30.981 48.142 30.062C46.5985 29.134 45.4053 27.832 44.5625 26.156C43.7292 24.471 43.3125 22.496 43.3125 20.233C43.3125 17.998 43.7292 16.028 44.5625 14.324C45.4053 12.619 46.5795 11.289 48.0852 10.332C49.6004 9.37603 51.3713 8.89804 53.398 8.89804C54.629 8.89804 55.822 9.10103 56.977 9.50903C58.133 9.91603 59.17 10.555 60.088 11.426C61.007 12.297 61.731 13.429 62.261 14.821C62.792 16.204 63.057 17.884 63.057 19.864V21.369H45.7131V18.188H58.895C58.895 17.07 58.668 16.08 58.213 15.219C57.759 14.348 57.119 13.661 56.295 13.159C55.481 12.657 54.525 12.406 53.426 12.406C52.233 12.406 51.1913 12.7 50.3011 13.287C49.4205 13.865 48.7386 14.622 48.2557 15.56C47.7822 16.488 47.5455 17.496 47.5455 18.585V21.071C47.5455 22.529 47.8011 23.77 48.3125 24.793C48.8333 25.815 49.5578 26.597 50.4858 27.136C51.4138 27.667 52.498 27.932 53.739 27.932C54.544 27.932 55.2771 27.818 55.94 27.591C56.603 27.354 57.176 27.004 57.659 26.54C58.142 26.076 58.511 25.503 58.767 24.821L62.787 25.545C62.465 26.729 61.887 27.766 61.054 28.656C60.23 29.537 59.193 30.223 57.943 30.716C56.703 31.199 55.287 31.44 53.696 31.44ZM74.119 31.483C72.736 31.483 71.486 31.227 70.369 30.716C69.2511 30.195 68.366 29.442 67.712 28.457C67.068 27.473 66.746 26.265 66.746 24.835C66.746 23.604 66.983 22.591 67.457 21.795C67.93 21 68.569 20.37 69.374 19.906C70.179 19.442 71.079 19.092 72.073 18.855C73.067 18.618 74.081 18.438 75.113 18.315C76.42 18.164 77.48 18.041 78.295 17.946C79.109 17.842 79.701 17.676 80.0701 17.449C80.4401 17.222 80.624 16.852 80.624 16.341V16.241C80.624 15.001 80.274 14.04 79.573 13.358C78.882 12.676 77.85 12.335 76.477 12.335C75.047 12.335 73.92 12.652 73.096 13.287C72.281 13.912 71.718 14.608 71.406 15.375L67.414 14.466C67.888 13.14 68.579 12.07 69.488 11.256C70.406 10.432 71.462 9.83503 72.656 9.46603C73.849 9.08703 75.103 8.89804 76.42 8.89804C77.291 8.89804 78.2141 9.00202 79.19 9.21002C80.174 9.40902 81.0931 9.77802 81.9451 10.318C82.8071 10.858 83.513 11.63 84.062 12.634C84.611 13.628 84.886 14.92 84.886 16.511V31H80.7381V28.017H80.567C80.293 28.566 79.8811 29.106 79.332 29.636C78.782 30.167 78.077 30.607 77.215 30.957C76.353 31.308 75.3211 31.483 74.119 31.483ZM75.042 28.074C76.216 28.074 77.22 27.842 78.053 27.378C78.896 26.914 79.535 26.308 79.971 25.56C80.416 24.802 80.638 23.992 80.638 23.131V20.318C80.487 20.47 80.193 20.612 79.758 20.744C79.332 20.867 78.844 20.976 78.295 21.071C77.746 21.156 77.21 21.237 76.69 21.312C76.169 21.379 75.733 21.436 75.383 21.483C74.5591 21.587 73.806 21.762 73.124 22.009C72.452 22.255 71.912 22.61 71.505 23.074C71.107 23.528 70.908 24.134 70.908 24.892C70.908 25.943 71.297 26.739 72.073 27.278C72.85 27.809 73.839 28.074 75.042 28.074ZM90.543 31V9.18204H94.619V12.733H94.8891C95.3441 11.53 96.0871 10.593 97.119 9.92004C98.152 9.23904 99.387 8.89804 100.827 8.89804C102.285 8.89804 103.507 9.23904 104.491 9.92004C105.486 10.602 106.22 11.54 106.693 12.733H106.92C107.441 11.568 108.27 10.64 109.406 9.94904C110.543 9.24804 111.897 8.89804 113.469 8.89804C115.448 8.89804 117.062 9.51803 118.312 10.759C119.572 11.999 120.202 13.869 120.202 16.369V31H115.955V16.767C115.955 15.29 115.552 14.22 114.747 13.557C113.942 12.894 112.981 12.562 111.864 12.562C110.481 12.562 109.406 12.989 108.639 13.841C107.872 14.684 107.489 15.768 107.489 17.094V31H103.256V16.497C103.256 15.313 102.886 14.362 102.148 13.642C101.409 12.922 100.448 12.562 99.2641 12.562C98.4591 12.562 97.716 12.776 97.034 13.202C96.362 13.618 95.817 14.201 95.401 14.949C94.993 15.697 94.79 16.563 94.79 17.548V31H90.543ZM136.821 31V1.90903H141.068V12.719H141.324C141.57 12.264 141.925 11.739 142.389 11.142C142.853 10.545 143.497 10.025 144.321 9.58002C145.145 9.12502 146.234 8.89804 147.588 8.89804C149.349 8.89804 150.921 9.34303 152.304 10.233C153.687 11.123 154.771 12.406 155.557 14.082C156.352 15.759 156.75 17.776 156.75 20.134C156.75 22.491 156.357 24.513 155.571 26.199C154.785 27.875 153.705 29.168 152.332 30.077C150.959 30.976 149.392 31.426 147.631 31.426C146.305 31.426 145.221 31.204 144.378 30.759C143.545 30.313 142.891 29.793 142.418 29.196C141.944 28.599 141.58 28.069 141.324 27.605H140.969V31H136.821ZM140.983 20.091C140.983 21.625 141.205 22.97 141.651 24.125C142.096 25.28 142.74 26.185 143.582 26.838C144.425 27.482 145.457 27.804 146.679 27.804C147.948 27.804 149.009 27.468 149.861 26.795C150.713 26.114 151.357 25.19 151.793 24.026C152.238 22.861 152.46 21.549 152.46 20.091C152.46 18.652 152.242 17.359 151.807 16.213C151.381 15.067 150.737 14.163 149.875 13.5C149.023 12.837 147.957 12.506 146.679 12.506C145.448 12.506 144.406 12.823 143.554 13.457C142.711 14.092 142.072 14.977 141.636 16.114C141.201 17.25 140.983 18.576 140.983 20.091ZM161.519 31V9.18204H165.766V31H161.519ZM163.664 5.81503C162.925 5.81503 162.291 5.56903 161.761 5.07703C161.24 4.57503 160.979 3.97802 160.979 3.28702C160.979 2.58602 161.24 1.99004 161.761 1.49704C162.291 0.99504 162.925 0.744019 163.664 0.744019C164.403 0.744019 165.032 0.99504 165.553 1.49704C166.084 1.99004 166.349 2.58602 166.349 3.28702C166.349 3.97802 166.084 4.57503 165.553 5.07703C165.032 5.56903 164.403 5.81503 163.664 5.81503ZM180.628 39.636C178.895 39.636 177.403 39.409 176.153 38.955C174.913 38.5 173.9 37.899 173.114 37.151C172.328 36.402 171.741 35.583 171.352 34.693L175.003 33.188C175.259 33.604 175.599 34.045 176.026 34.509C176.461 34.982 177.048 35.384 177.787 35.716C178.535 36.047 179.496 36.213 180.67 36.213C182.28 36.213 183.611 35.82 184.662 35.034C185.713 34.258 186.239 33.017 186.239 31.312V27.023H185.969C185.713 27.487 185.344 28.003 184.861 28.571C184.387 29.139 183.734 29.632 182.901 30.048C182.067 30.465 180.983 30.673 179.648 30.673C177.924 30.673 176.371 30.271 174.989 29.466C173.616 28.652 172.527 27.454 171.722 25.872C170.926 24.281 170.528 22.326 170.528 20.006C170.528 17.686 170.921 15.697 171.707 14.04C172.503 12.383 173.592 11.114 174.974 10.233C176.357 9.34303 177.924 8.89804 179.676 8.89804C181.03 8.89804 182.124 9.12502 182.957 9.58002C183.791 10.025 184.439 10.545 184.903 11.142C185.377 11.739 185.741 12.264 185.997 12.719H186.31V9.18204H190.472V31.483C190.472 33.358 190.036 34.897 189.165 36.099C188.294 37.302 187.115 38.192 185.628 38.77C184.151 39.348 182.484 39.636 180.628 39.636ZM180.585 27.151C181.807 27.151 182.839 26.866 183.682 26.298C184.534 25.721 185.178 24.897 185.614 23.827C186.059 22.747 186.281 21.455 186.281 19.949C186.281 18.481 186.063 17.188 185.628 16.071C185.192 14.954 184.553 14.082 183.71 13.457C182.867 12.823 181.826 12.506 180.585 12.506C179.307 12.506 178.241 12.837 177.389 13.5C176.537 14.153 175.893 15.044 175.457 16.17C175.031 17.297 174.818 18.557 174.818 19.949C174.818 21.379 175.036 22.634 175.472 23.713C175.907 24.793 176.551 25.635 177.403 26.241C178.265 26.848 179.326 27.151 180.585 27.151ZM198.966 31.27C198.189 31.27 197.522 30.995 196.963 30.446C196.404 29.887 196.125 29.215 196.125 28.429C196.125 27.652 196.404 26.99 196.963 26.44C197.522 25.882 198.189 25.602 198.966 25.602C199.742 25.602 200.41 25.882 200.969 26.44C201.527 26.99 201.807 27.652 201.807 28.429C201.807 28.95 201.674 29.428 201.409 29.864C201.153 30.29 200.812 30.631 200.386 30.886C199.96 31.142 199.487 31.27 198.966 31.27Z" fill="white"/>
<path d="M19.4452 72.886C19.2748 71.373 18.5716 70.2011 17.3358 69.3701C16.1 68.5291 14.5446 68.1081 12.6696 68.1081C11.3273 68.1081 10.1661 68.3211 9.18602 68.7471C8.20592 69.1631 7.44413 69.7381 6.90083 70.4731C6.36823 71.1971 6.10182 72.0231 6.10182 72.9501C6.10182 73.7281 6.28292 74.3991 6.64512 74.9631C7.01802 75.5281 7.50272 76.002 8.09932 76.386C8.70662 76.758 9.35642 77.0731 10.0489 77.3281C10.7414 77.5731 11.4072 77.7761 12.0464 77.9361L15.2424 78.7671C16.2865 79.0221 17.3571 79.3681 18.4544 79.8051C19.5517 80.2421 20.5691 80.8171 21.5066 81.5311C22.4441 82.2451 23.2005 83.1291 23.7758 84.1841C24.3618 85.2391 24.6547 86.5011 24.6547 87.9711C24.6547 89.8251 24.1753 91.4711 23.2165 92.9091C22.2684 94.3471 20.8888 95.482 19.0777 96.313C17.2772 97.1441 15.0986 97.5591 12.5418 97.5591C10.0915 97.5591 7.97152 97.1701 6.18172 96.3931C4.39192 95.6151 2.99102 94.5121 1.97892 93.0851C0.966924 91.6471 0.407625 89.9421 0.301025 87.9711H5.25492C5.35082 89.1541 5.73432 90.1391 6.40542 90.9271C7.08732 91.7051 7.95552 92.2861 9.01022 92.6691C10.0755 93.0421 11.2421 93.2291 12.5098 93.2291C13.9054 93.2291 15.1466 93.0101 16.2332 92.5731C17.3305 92.1261 18.1934 91.5081 18.822 90.7201C19.4505 89.9211 19.7648 88.9891 19.7648 87.9231C19.7648 86.9541 19.4878 86.1601 18.9338 85.5421C18.3905 84.9241 17.6501 84.4131 16.7126 84.0081C15.7858 83.6031 14.7364 83.2461 13.5645 82.9371L9.69732 81.8831C7.07662 81.1691 4.99922 80.12 3.46512 78.735C1.94172 77.35 1.17992 75.5171 1.17992 73.2371C1.17992 71.3521 1.69132 69.706 2.71402 68.3C3.73682 66.893 5.12172 65.801 6.86892 65.024C8.61602 64.235 10.5869 63.8411 12.7815 63.8411C14.9974 63.8411 16.9523 64.2301 18.6462 65.0081C20.3508 65.7851 21.6931 66.8561 22.6732 68.2201C23.6533 69.5731 24.1647 71.128 24.2073 72.886H19.4452ZM41.6296 72.4701V76.3061H28.2223V72.4701H41.6296ZM31.8178 66.5901H36.5959V89.8091C36.5959 90.7361 36.7344 91.4331 37.0114 91.9021C37.2883 92.3601 37.6452 92.6751 38.082 92.8451C38.5295 93.0051 39.0142 93.0851 39.5362 93.0851C39.9197 93.0851 40.2553 93.0581 40.543 93.0051C40.8306 92.9521 41.0543 92.9091 41.2141 92.8771L42.077 96.8241C41.8001 96.9311 41.4059 97.0371 40.8945 97.1441C40.3832 97.2611 39.744 97.3251 38.9769 97.3351C37.7198 97.3571 36.5479 97.1331 35.4613 96.6641C34.3746 96.1961 33.4957 95.4711 32.8246 94.4911C32.1534 93.5111 31.8178 92.28 31.8178 90.8V66.5901ZM54.0579 97.5591C52.5029 97.5591 51.0965 97.2721 49.8394 96.6961C48.5823 96.1101 47.5862 95.2631 46.8511 94.1551C46.1267 93.0471 45.7645 91.689 45.7645 90.08C45.7645 88.696 46.0308 87.5561 46.5635 86.6611C47.0961 85.7661 47.8152 85.0571 48.7208 84.5351C49.6263 84.0131 50.6384 83.6191 51.757 83.3531C52.8759 83.0871 54.0159 82.8841 55.1769 82.7461C56.6469 82.5751 57.8399 82.437 58.7559 82.33C59.6729 82.213 60.3379 82.0271 60.7539 81.7711C61.1689 81.5151 61.3769 81.1 61.3769 80.524V80.4131C61.3769 79.0171 60.9829 77.9361 60.1949 77.1691C59.4169 76.4021 58.2559 76.0181 56.7109 76.0181C55.1019 76.0181 53.8349 76.3751 52.9079 77.0891C51.9914 77.7921 51.3575 78.575 51.0059 79.438L46.5155 78.4151C47.0482 76.9241 47.8259 75.72 48.8486 74.804C49.882 73.877 51.0699 73.2051 52.4119 72.7901C53.7549 72.3641 55.1659 72.1511 56.6469 72.1511C57.6269 72.1511 58.6659 72.2681 59.7629 72.5021C60.8709 72.7261 61.9039 73.1421 62.8629 73.7491C63.8329 74.3561 64.6259 75.2241 65.2439 76.3541C65.8619 77.4721 66.1709 78.9261 66.1709 80.7161V97.0161H61.5049V93.6601H61.3129C61.0039 94.2781 60.5409 94.8851 59.9229 95.4821C59.3049 96.0781 58.5109 96.574 57.5419 96.968C56.5719 97.362 55.4109 97.5591 54.0579 97.5591ZM55.0969 93.7241C56.4179 93.7241 57.5469 93.4631 58.4849 92.9411C59.4329 92.4191 60.1519 91.737 60.6419 90.8951C61.1429 90.0431 61.3929 89.1321 61.3929 88.1631V84.9991C61.2229 85.1691 60.8919 85.3291 60.4019 85.4781C59.9229 85.6171 59.3739 85.7391 58.7559 85.8461C58.1379 85.9421 57.5369 86.0321 56.9509 86.1171C56.3649 86.1921 55.8749 86.2561 55.4799 86.3091C54.5539 86.4261 53.7069 86.6231 52.9399 86.9001C52.1829 87.1771 51.5759 87.5771 51.1178 88.0991C50.6704 88.6101 50.4466 89.2921 50.4466 90.1441C50.4466 91.3271 50.8834 92.2221 51.757 92.8291C52.6309 93.4261 53.7439 93.7241 55.0969 93.7241ZM72.5349 97.0161V72.4701H77.1529V76.3701H77.4089C77.8569 75.0491 78.6449 74.0101 79.7739 73.2531C80.9139 72.4861 82.2029 72.1031 83.6409 72.1031C83.9399 72.1031 84.2909 72.1141 84.6959 72.1351C85.1119 72.1561 85.4369 72.1831 85.6709 72.2151V76.7851C85.4789 76.7321 85.1379 76.6731 84.6479 76.6091C84.1579 76.5351 83.6679 76.4971 83.1779 76.4971C82.0489 76.4971 81.0419 76.7371 80.1579 77.2171C79.2839 77.6851 78.5919 78.3401 78.0799 79.1821C77.5689 80.0131 77.3129 80.9611 77.3129 82.0271V97.0161H72.5349ZM102.714 72.4701V76.3061H89.3059V72.4701H102.714ZM92.9019 66.5901H97.6799V89.8091C97.6799 90.7361 97.8179 91.4331 98.0949 91.9021C98.3719 92.3601 98.7289 92.6751 99.1659 92.8451C99.6139 93.0051 100.098 93.0851 100.62 93.0851C101.004 93.0851 101.339 93.0581 101.627 93.0051C101.915 92.9521 102.138 92.9091 102.298 92.8771L103.161 96.8241C102.884 96.9311 102.49 97.0371 101.979 97.1441C101.467 97.2611 100.828 97.3251 100.061 97.3351C98.8039 97.3571 97.6319 97.1331 96.5449 96.6641C95.4589 96.1961 94.5799 95.4711 93.9089 94.4911C93.2369 93.5111 92.9019 92.28 92.9019 90.8V66.5901ZM138.301 78.4631L133.971 79.2301C133.79 78.6761 133.502 78.1491 133.108 77.6481C132.724 77.1471 132.202 76.7371 131.542 76.4181C130.881 76.0981 130.056 75.938 129.065 75.938C127.712 75.938 126.583 76.2421 125.677 76.8491C124.772 77.4461 124.319 78.218 124.319 79.166C124.319 79.986 124.622 80.6471 125.23 81.1481C125.837 81.6481 126.817 82.0581 128.17 82.3781L132.069 83.2731C134.328 83.7951 136.011 84.5991 137.119 85.6861C138.227 86.7731 138.781 88.1841 138.781 89.9211C138.781 91.3911 138.355 92.701 137.502 93.8521C136.661 94.9921 135.484 95.8871 133.971 96.5361C132.469 97.1861 130.727 97.511 128.745 97.511C125.997 97.511 123.754 96.9251 122.018 95.7531C120.281 94.5711 119.216 92.8931 118.822 90.7201L123.44 90.0171C123.728 91.2201 124.319 92.1311 125.214 92.7491C126.109 93.3561 127.275 93.6601 128.713 93.6601C130.279 93.6601 131.531 93.3351 132.469 92.6851C133.406 92.0251 133.875 91.2201 133.875 90.2721C133.875 89.5051 133.587 88.861 133.012 88.3391C132.447 87.8171 131.579 87.4221 130.407 87.1561L126.252 86.2451C123.962 85.7231 122.268 84.8921 121.171 83.7521C120.084 82.6121 119.541 81.1691 119.541 79.4221C119.541 77.9731 119.946 76.7051 120.755 75.6181C121.565 74.5321 122.684 73.6851 124.111 73.0781C125.539 72.4601 127.174 72.1511 129.017 72.1511C131.67 72.1511 133.758 72.7261 135.281 73.8771C136.805 75.0171 137.811 76.5451 138.301 78.4631ZM144.034 97.0161V72.4701H148.621V76.4651H148.924C149.436 75.1121 150.272 74.0581 151.433 73.3011C152.594 72.5341 153.985 72.1511 155.604 72.1511C157.244 72.1511 158.619 72.5341 159.727 73.3011C160.845 74.0681 161.671 75.1231 162.204 76.4651H162.459C163.045 75.1551 163.977 74.1111 165.256 73.3331C166.534 72.5451 168.058 72.1511 169.826 72.1511C172.053 72.1511 173.869 72.849 175.275 74.244C176.692 75.64 177.401 77.7441 177.401 80.5561V97.0161H172.623V81.0041C172.623 79.3421 172.17 78.1381 171.264 77.3921C170.359 76.6471 169.278 76.274 168.02 76.274C166.465 76.274 165.256 76.7531 164.393 77.7121C163.53 78.6601 163.099 79.8801 163.099 81.3711V97.0161H158.336V80.7001C158.336 79.3681 157.921 78.2981 157.09 77.4881C156.259 76.6791 155.178 76.274 153.846 76.274C152.941 76.274 152.104 76.5131 151.337 76.9931C150.581 77.4621 149.968 78.1171 149.499 78.9581C149.041 79.8001 148.812 80.7751 148.812 81.8831V97.0161H144.034ZM190.948 97.5591C189.392 97.5591 187.986 97.2721 186.729 96.6961C185.472 96.1101 184.476 95.2631 183.741 94.1551C183.016 93.0471 182.654 91.689 182.654 90.08C182.654 88.696 182.921 87.5561 183.453 86.6611C183.986 85.7661 184.705 85.0571 185.611 84.5351C186.516 84.0131 187.528 83.6191 188.647 83.3531C189.765 83.0871 190.905 82.8841 192.066 82.7461C193.537 82.5751 194.73 82.437 195.646 82.33C196.562 82.213 197.228 82.0271 197.644 81.7711C198.059 81.5151 198.267 81.1 198.267 80.524V80.4131C198.267 79.0171 197.873 77.9361 197.084 77.1691C196.307 76.4021 195.145 76.0181 193.601 76.0181C191.992 76.0181 190.724 76.3751 189.797 77.0891C188.881 77.7921 188.247 78.575 187.896 79.438L183.405 78.4151C183.938 76.9241 184.716 75.72 185.738 74.804C186.772 73.877 187.96 73.2051 189.302 72.7901C190.644 72.3641 192.056 72.1511 193.537 72.1511C194.517 72.1511 195.555 72.2681 196.653 72.5021C197.761 72.7261 198.794 73.1421 199.753 73.7491C200.722 74.3561 201.516 75.2241 202.134 76.3541C202.752 77.4721 203.061 78.9261 203.061 80.7161V97.0161H198.395V93.6601H198.203C197.894 94.2781 197.43 94.8851 196.813 95.4821C196.195 96.0781 195.401 96.574 194.432 96.968C193.462 97.362 192.301 97.5591 190.948 97.5591ZM191.987 93.7241C193.308 93.7241 194.437 93.4631 195.374 92.9411C196.323 92.4191 197.042 91.737 197.532 90.8951C198.032 90.0431 198.283 89.1321 198.283 88.1631V84.9991C198.112 85.1691 197.782 85.3291 197.292 85.4781C196.813 85.6171 196.264 85.7391 195.646 85.8461C195.028 85.9421 194.426 86.0321 193.84 86.1171C193.254 86.1921 192.764 86.2561 192.37 86.3091C191.443 86.4261 190.596 86.6231 189.829 86.9001C189.073 87.1771 188.466 87.5771 188.008 88.0991C187.56 88.6101 187.336 89.2921 187.336 90.1441C187.336 91.3271 187.773 92.2221 188.647 92.8291C189.52 93.4261 190.634 93.7241 191.987 93.7241ZM214.203 64.2891V97.0161H209.425V64.2891H214.203ZM225.409 64.2891V97.0161H220.631V64.2891H225.409ZM234.985 97.3191C234.112 97.3191 233.36 97.0111 232.732 96.3931C232.103 95.7641 231.789 95.008 231.789 94.123C231.789 93.25 232.103 92.504 232.732 91.886C233.36 91.258 234.112 90.9431 234.985 90.9431C235.859 90.9431 236.61 91.258 237.238 91.886C237.867 92.504 238.181 93.25 238.181 94.123C238.181 94.709 238.032 95.2471 237.734 95.7371C237.446 96.2171 237.062 96.6001 236.583 96.8881C236.104 97.1761 235.571 97.3191 234.985 97.3191Z" fill="white"/>
</svg>
