<svg width="17" height="15" viewBox="0 0 17 15" fill="none" xmlns="http://www.w3.org/2000/svg">
<path fill-rule="evenodd" clip-rule="evenodd" d="M10.8333 5.83168C11.4615 5.83158 12.0729 5.62878 12.5766 5.25344C13.0803 4.87811 13.4494 4.35026 13.6292 3.74835H15.8333C16.0543 3.74835 16.2663 3.66055 16.4226 3.50427C16.5789 3.34799 16.6667 3.13603 16.6667 2.91502C16.6667 2.694 16.5789 2.48204 16.4226 2.32576C16.2663 2.16948 16.0543 2.08168 15.8333 2.08168H13.6292C13.4491 1.48008 13.0799 0.952597 12.5762 0.577575C12.0725 0.202553 11.4613 0 10.8333 0C10.2054 0 9.59416 0.202553 9.09048 0.577575C8.58681 0.952597 8.21753 1.48008 8.0375 2.08168H0.833333C0.61232 2.08168 0.400358 2.16948 0.244078 2.32576C0.0877973 2.48204 0 2.694 0 2.91502C0 3.13603 0.0877973 3.34799 0.244078 3.50427C0.400358 3.66055 0.61232 3.74835 0.833333 3.74835H8.0375C8.21723 4.35026 8.58638 4.87811 9.09009 5.25344C9.59379 5.62878 10.2052 5.83158 10.8333 5.83168ZM0.833333 10.415C0.61232 10.415 0.400358 10.5028 0.244078 10.6591C0.0877973 10.8154 0 11.0273 0 11.2483C0 11.4694 0.0877973 11.6813 0.244078 11.8376C0.400358 11.9939 0.61232 12.0817 0.833333 12.0817H2.62083C2.80086 12.6833 3.17014 13.2108 3.67382 13.5858C4.1775 13.9608 4.78871 14.1634 5.41667 14.1634C6.04463 14.1634 6.65584 13.9608 7.15951 13.5858C7.66319 13.2108 8.03247 12.6833 8.2125 12.0817H15.8333C16.0543 12.0817 16.2663 11.9939 16.4226 11.8376C16.5789 11.6813 16.6667 11.4694 16.6667 11.2483C16.6667 11.0273 16.5789 10.8154 16.4226 10.6591C16.2663 10.5028 16.0543 10.415 15.8333 10.415H8.2125C8.03247 9.81341 7.66319 9.28593 7.15951 8.91091C6.65584 8.53589 6.04463 8.33333 5.41667 8.33333C4.78871 8.33333 4.1775 8.53589 3.67382 8.91091C3.17014 9.28593 2.80086 9.81341 2.62083 10.415H0.833333Z" fill="#121212"/>
</svg>
