<svg width="8" height="8" viewBox="0 0 8 8" fill="none" xmlns="http://www.w3.org/2000/svg">
<g id="pennant 1">
<g id="Group">
<path id="Vector" d="M1.99967 8C1.82286 8 1.65329 7.92976 1.52827 7.80474C1.40325 7.67971 1.33301 7.51014 1.33301 7.33333V0.666667C1.33301 0.489856 1.40325 0.320286 1.52827 0.195262C1.65329 0.0702379 1.82286 0 1.99967 0C2.17649 0 2.34605 0.0702379 2.47108 0.195262C2.5961 0.320286 2.66634 0.489856 2.66634 0.666667V7.33333C2.66634 7.51014 2.5961 7.67971 2.47108 7.80474C2.34605 7.92976 2.17649 8 1.99967 8Z" fill="#666666"/>
<path id="Vector_2" d="M3.33301 4.33366V0.666992L7.33301 0.666992V4.33366H3.33301Z" fill="#666666"/>
</g>
</g>
</svg>
