<svg width="40" height="40" viewBox="0 0 40 40" fill="none" xmlns="http://www.w3.org/2000/svg">
<g id="forest 1">
<g id="Group">
<g id="Group_2">
<path id="Vector" d="M19.9987 38.3333C19.0783 38.3333 18.332 37.5871 18.332 36.6667V31.6667C18.332 30.7463 19.0783 30 19.9987 30C20.9191 30 21.6654 30.7463 21.6654 31.6667V36.6667C21.6654 37.5871 20.9191 38.3333 19.9987 38.3333Z" fill="#A67C52"/>
<path id="Vector_2" d="M12.412 2.96069C12.1297 2.39592 11.2035 2.39592 10.9212 2.96069L2.58782 19.6274C2.45883 19.8857 2.47268 20.1925 2.62445 20.4383C2.77622 20.6837 3.04437 20.8334 3.33327 20.8334H13.4374C13.8976 20.8334 14.2708 20.4603 14.2708 20.0001C14.2708 19.6588 14.0645 19.3671 13.7707 19.2383L16.1703 13.7536C16.3889 13.8492 16.6421 13.8607 16.8725 13.7456C17.2843 13.5397 17.4511 13.0392 17.2452 12.6274L12.412 2.96069Z" fill="#4DA34D"/>
<path id="Vector_3" d="M37.4136 19.6274L29.0802 2.96069C28.7978 2.39592 27.8717 2.39592 27.5893 2.96069L22.7562 12.6274C22.5503 13.0392 22.7171 13.5397 23.1289 13.7456C23.3597 13.8607 23.6127 13.849 23.8311 13.7534L26.2307 19.2383C25.9369 19.3671 25.7306 19.6588 25.7306 20.0001C25.7306 20.4603 26.1037 20.8334 26.5639 20.8334H36.6681C36.957 20.8334 37.2252 20.6837 37.3769 20.4383C37.5287 20.1925 37.5426 19.8857 37.4136 19.6274Z" fill="#4DA34D"/>
<path id="Vector_4" d="M31.6666 32.4993H8.33322C8.05205 32.4993 7.7896 32.3573 7.6358 32.1222C7.48199 31.887 7.45716 31.5895 7.56988 31.332L19.2365 4.66528C19.3692 4.36214 19.6687 4.16602 19.9999 4.16602C20.3311 4.16602 20.6306 4.36214 20.7632 4.66528L32.4299 31.332C32.5426 31.5895 32.5178 31.887 32.364 32.1222C32.2102 32.3573 31.9477 32.4993 31.6666 32.4993Z" fill="#72C472"/>
</g>
</g>
</g>
</svg>
