<svg width="30" height="30" viewBox="0 0 30 30" fill="none" xmlns="http://www.w3.org/2000/svg">
<g id="Frame" clip-path="url(#clip0_5251_69441)">
<g id="Group">
<path id="Vector" d="M4.77344 26.9277V29.0624C4.77344 29.5799 5.19345 29.9999 5.71093 29.9999H8.70063C9.2181 29.9999 9.63812 29.5799 9.63812 29.0624V26.9277H4.77344ZM20.3593 26.9277V29.0624C20.3593 29.5799 20.7794 29.9999 21.2968 29.9999H24.2865C24.804 29.9999 25.224 29.5799 25.224 29.0624V26.9277H20.3593Z" fill="#454545"/>
<path id="Vector_2" d="M29.1622 7.75984C29.0983 7.7599 29.035 7.74735 28.9759 7.72292C28.9169 7.69849 28.8632 7.66265 28.818 7.61746C28.7728 7.57227 28.737 7.51861 28.7126 7.45956C28.6881 7.4005 28.6756 7.33721 28.6756 7.2733C28.6756 6.92924 28.3953 6.64984 28.0522 6.64984H27.5178C27.2487 6.64984 27.0312 6.43231 27.0312 6.1633C27.0312 5.89429 27.2488 5.67676 27.5178 5.67676H28.0522C28.9325 5.67676 29.6487 6.39303 29.6487 7.27239C29.6488 7.54141 29.4313 7.75984 29.1622 7.75984Z" fill="#CACACA"/>
<path id="Vector_3" d="M28.0156 7.18652H29.9675V12.4571H28.0156V7.18652Z" fill="#6F6F6F"/>
<path id="Vector_4" d="M0.845915 7.75984C1.11499 7.75984 1.33246 7.54231 1.33246 7.2733C1.33246 6.92924 1.61186 6.64984 1.95592 6.64984H2.49032C2.75939 6.64984 2.97686 6.43231 2.97686 6.1633C2.97686 5.89429 2.75933 5.67676 2.49032 5.67676H1.95592C1.07559 5.67676 0.359375 6.39303 0.359375 7.27239C0.359315 7.54141 0.576844 7.75984 0.845915 7.75984Z" fill="#CACACA"/>
<path id="Vector_5" d="M0.03125 7.18652H1.98315V12.4571H0.03125V7.18652Z" fill="#6F6F6F"/>
<path id="Vector_6" d="M25.6662 0H4.34373C3.30872 0 2.46875 0.839059 2.46875 1.87498V18.7388H27.5412V1.87498C27.5412 0.839059 26.7022 0 25.6662 0Z" fill="#86DAF1"/>
<path id="Vector_7" d="M2.46875 24.8857V25.4013C2.46875 26.4364 3.30878 27.2763 4.34373 27.2763H25.6662C26.7022 27.2763 27.5412 26.4363 27.5412 25.4013V24.8857H2.46875Z" fill="#ED6262"/>
<path id="Vector_8" d="M2.46875 22.1904H27.5412V24.882H2.46875V22.1904Z" fill="#CD484B"/>
<path id="Vector_9" d="M2.46875 18.1367H27.5412V22.1942H2.46875V18.1367Z" fill="#F3F3F3"/>
<path id="Vector_10" d="M2.46875 5.24902H27.5412V16.965H2.46875V5.24902Z" fill="#6F6F6F"/>
<path id="Vector_11" d="M14.3281 5.24902H15.6669V16.965H14.3281V5.24902Z" fill="#454545"/>
<path id="Vector_12" d="M2.46875 16.9648H27.5412V18.1367H2.46875V16.9648Z" fill="#86DAF1"/>
<path id="Vector_13" d="M5.17063 24.2729C5.57553 24.2729 5.90377 23.9447 5.90377 23.5398C5.90377 23.1349 5.57553 22.8066 5.17063 22.8066C4.76573 22.8066 4.4375 23.1349 4.4375 23.5398C4.4375 23.9447 4.76573 24.2729 5.17063 24.2729Z" fill="#F3F3F3"/>
<path id="Vector_14" d="M7.03001 24.2729C7.43491 24.2729 7.76314 23.9447 7.76314 23.5398C7.76314 23.1349 7.43491 22.8066 7.03001 22.8066C6.62511 22.8066 6.29688 23.1349 6.29688 23.5398C6.29688 23.9447 6.62511 24.2729 7.03001 24.2729Z" fill="#FFE21F"/>
<path id="Vector_15" d="M22.9675 24.2729C23.3724 24.2729 23.7006 23.9447 23.7006 23.5398C23.7006 23.1349 23.3724 22.8066 22.9675 22.8066C22.5626 22.8066 22.2344 23.1349 22.2344 23.5398C22.2344 23.9447 22.5626 24.2729 22.9675 24.2729Z" fill="#FFE21F"/>
<path id="Vector_16" d="M24.8347 24.2729C25.2396 24.2729 25.5678 23.9447 25.5678 23.5398C25.5678 23.1349 25.2396 22.8066 24.8347 22.8066C24.4298 22.8066 24.1016 23.1349 24.1016 23.5398C24.1016 23.9447 24.4298 24.2729 24.8347 24.2729Z" fill="#F3F3F3"/>
<path id="Vector_17" d="M24.8513 19.1465H23.0541C22.4916 19.1465 22.035 19.6031 22.035 20.1655C22.035 20.728 22.4906 21.1836 23.0541 21.1836H24.8513C25.4138 21.1836 25.8704 20.728 25.8704 20.1655C25.8694 19.6031 25.4138 19.1465 24.8513 19.1465ZM6.80065 19.1465H5.00344C4.44094 19.1465 3.98438 19.6031 3.98438 20.1655C3.98438 20.728 4.43998 21.1836 5.00344 21.1836H6.80065C7.36315 21.1836 7.81875 20.728 7.81875 20.1655C7.81972 19.6031 7.36315 19.1465 6.80065 19.1465Z" fill="#FFBD49"/>
<path id="Vector_18" d="M22.1462 0.818359H7.32905C6.33156 0.818359 5.52344 1.62648 5.52344 2.62397C5.52344 3.62146 6.33156 4.43055 7.32905 4.43055H22.1462C23.1437 4.43055 23.9518 3.62243 23.9518 2.62397C23.9519 1.62739 23.1438 0.818359 22.1462 0.818359Z" fill="#454545"/>
<path id="Vector_19" opacity="0.1" d="M27.5412 5.24902H2.46875V10.9265C2.46875 11.4618 2.87843 11.9512 3.42497 11.9737C3.99405 12.0084 4.47213 11.5528 4.47213 10.9837V9.14715C4.47213 8.66901 4.87057 8.30525 5.35996 8.31655H5.38243C5.86057 8.30531 6.27025 8.66907 6.27025 9.14715V11.1768C6.27025 11.7234 6.6687 12.2015 7.20309 12.2353C7.77405 12.2578 8.24089 11.8162 8.25593 11.2603V8.549C8.25593 7.97901 8.72936 7.52432 9.30593 7.54964C9.84408 7.58154 10.2472 8.06246 10.2472 8.59964V11.189C10.2631 11.7112 10.6616 12.1724 11.1865 12.2062C11.7669 12.2287 12.2337 11.7741 12.2337 11.205L12.2449 8.99905C12.2449 8.42996 12.7118 7.97436 13.2921 7.99684C13.8274 8.03062 14.2371 8.5087 14.2371 9.0553V11.4431C14.2483 11.9784 14.6927 12.4106 15.2271 12.4106C15.7849 12.4106 16.2283 11.955 16.2283 11.4094V8.56501C16.2283 8.13189 16.5499 7.73442 17.1386 7.73442C17.5942 7.70064 17.9805 8.07569 17.9805 8.52006V11.3035C17.9805 11.85 18.379 12.3272 18.9143 12.3619C19.4946 12.3844 19.9727 11.9298 19.9727 11.3607V9.28504C19.9727 8.85004 20.2971 8.45444 20.8718 8.45444C21.3612 8.45444 21.7596 8.85288 21.7596 9.33102V10.9285C21.7596 11.4638 22.1693 11.9532 22.7046 11.9757C23.2737 12.0104 23.763 11.5548 23.763 10.9857V9.14914C23.763 8.671 24.1615 8.30724 24.6396 8.31854H24.6733C25.1515 8.3073 25.5499 8.67106 25.5499 9.14914V11.1788C25.5499 11.7254 25.9596 12.2035 26.4949 12.2373C27.0752 12.2597 27.5421 11.8041 27.5421 11.2351V5.24902H27.5412Z" fill="white"/>
</g>
</g>
<defs>
<clipPath id="clip0_5251_69441">
<rect width="30" height="30" fill="white"/>
</clipPath>
</defs>
</svg>
