<svg width="12" height="12" viewBox="0 0 12 12" fill="none" xmlns="http://www.w3.org/2000/svg">
<g id="gantt 1">
<g id="Group">
<g id="Group_2">
<path id="Vector" d="M3.5 2H0.5C0.223858 2 0 2.22386 0 2.5V3.5C0 3.77614 0.223858 4 0.5 4H3.5C3.77614 4 4 3.77614 4 3.5V2.5C4 2.22386 3.77614 2 3.5 2Z" fill="#666666"/>
<path id="Vector_2" d="M9.5 6H2.5C2.22386 6 2 6.22386 2 6.5V7.5C2 7.77614 2.22386 8 2.5 8H9.5C9.77614 8 10 7.77614 10 7.5V6.5C10 6.22386 9.77614 6 9.5 6Z" fill="#666666"/>
<path id="Vector_3" d="M11.5 10H8.5C8.22386 10 8 10.2239 8 10.5V11.5C8 11.7761 8.22386 12 8.5 12H11.5C11.7761 12 12 11.7761 12 11.5V10.5C12 10.2239 11.7761 10 11.5 10Z" fill="#666666"/>
</g>
</g>
</g>
</svg>
