<svg width="40" height="40" viewBox="0 0 40 40" fill="none" xmlns="http://www.w3.org/2000/svg">
<g id="globe 1">
<g id="Group">
<path id="Vector" d="M20.0007 36.6663C29.2054 36.6663 36.6673 29.2044 36.6673 19.9997C36.6673 10.7949 29.2054 3.33301 20.0007 3.33301C10.7959 3.33301 3.33398 10.7949 3.33398 19.9997C3.33398 29.2044 10.7959 36.6663 20.0007 36.6663Z" fill="#E3E3E3"/>
<path id="Vector_2" d="M20 2.5C16.5388 2.5 13.1554 3.52636 10.2775 5.44928C7.39967 7.37221 5.15665 10.1053 3.83212 13.303C2.50758 16.5007 2.16102 20.0194 2.83627 23.4141C3.51151 26.8087 5.17822 29.9269 7.62564 32.3744C10.0731 34.8218 13.1913 36.4885 16.5859 37.1637C19.9806 37.839 23.4993 37.4924 26.697 36.1679C29.8947 34.8434 32.6278 32.6003 34.5507 29.7225C36.4737 26.8446 37.5 23.4612 37.5 20C37.4947 15.3603 35.6493 10.9122 32.3685 7.63148C29.0878 4.35074 24.6397 2.50529 20 2.5ZM4.20917 20.8333H10.855C10.8972 23.0793 11.1799 25.3143 11.6983 27.5H6.06084C4.95624 25.4428 4.3237 23.1655 4.20917 20.8333ZM20.8333 10.8333V4.27667C22.9592 4.79917 24.8425 7.29 26.0617 10.8333H20.8333ZM26.5725 12.5C27.1271 14.6805 27.4313 16.9172 27.4792 19.1667H20.8333V12.5H26.5725ZM19.1667 4.27667V10.8333H13.9383C15.1575 7.29 17.0408 4.79917 19.1667 4.27667ZM19.1667 12.5V19.1667H12.5208C12.5683 16.9172 12.8725 14.6805 13.4275 12.5H19.1667ZM10.855 19.1667H4.20917C4.3237 16.8345 4.95624 14.5572 6.06084 12.5H11.6983C11.1799 14.6857 10.8972 16.9207 10.855 19.1667ZM12.5217 20.8333H19.1667V27.5H13.4275C12.8725 25.3195 12.5683 23.0828 12.5208 20.8333H12.5217ZM19.1667 29.1667V35.7233C17.0408 35.2008 15.1575 32.71 13.9383 29.1667H19.1667ZM20.8333 35.7233V29.1667H26.0617C24.8425 32.71 22.9592 35.2008 20.8333 35.7233ZM20.8333 27.5V20.8333H27.4792C27.4313 23.0828 27.1271 25.3195 26.5725 27.5H20.8333ZM29.145 20.8333H35.7908C35.6763 23.1655 35.0438 25.4428 33.9392 27.5H28.3017C28.8197 25.3142 29.1024 23.0793 29.145 20.8333ZM29.145 19.1667C29.1024 16.9207 28.8197 14.6858 28.3017 12.5H33.9392C35.0438 14.5572 35.6763 16.8345 35.7908 19.1667H29.145ZM32.8858 10.8333H27.8333C27.2031 8.64244 26.1175 6.60924 24.6475 4.86667C27.9736 5.89838 30.8683 7.99489 32.8858 10.8333ZM15.3492 4.86667C13.8801 6.60932 12.7956 8.64257 12.1667 10.8333H7.11417C9.13087 7.99547 12.0243 5.89903 15.3492 4.86667ZM7.11417 29.1667H12.1667C12.7966 31.358 13.8823 33.3915 15.3525 35.1342C12.0265 34.1018 9.1319 32.0051 7.11417 29.1667ZM24.6508 35.1342C26.1196 33.391 27.204 31.3575 27.8333 29.1667H32.8825C30.8665 32.0039 27.9744 34.1005 24.6508 35.1342Z" fill="#444444"/>
<path id="Vector_3" d="M13.3333 16.6667C12.6741 16.6667 12.0296 16.4712 11.4814 16.1049C10.9333 15.7386 10.506 15.218 10.2537 14.6089C10.0014 13.9999 9.93543 13.3296 10.0641 12.683C10.1927 12.0364 10.5101 11.4425 10.9763 10.9763C11.4425 10.5101 12.0364 10.1927 12.683 10.0641C13.3296 9.93543 13.9999 10.0014 14.6089 10.2537C15.218 10.506 15.7386 10.9333 16.1049 11.4814C16.4712 12.0296 16.6667 12.6741 16.6667 13.3333C16.6667 14.2174 16.3155 15.0652 15.6904 15.6904C15.0652 16.3155 14.2174 16.6667 13.3333 16.6667Z" fill="white"/>
<path id="Vector_4" d="M27.4994 22.4997C26.8401 22.4997 26.1956 22.3042 25.6475 21.9379C25.0993 21.5716 24.672 21.051 24.4198 20.442C24.1675 19.8329 24.1014 19.1626 24.2301 18.516C24.3587 17.8694 24.6762 17.2755 25.1423 16.8093C25.6085 16.3431 26.2024 16.0257 26.849 15.8971C27.4957 15.7684 28.1659 15.8345 28.775 16.0867C29.3841 16.339 29.9046 16.7663 30.2709 17.3144C30.6372 17.8626 30.8327 18.5071 30.8327 19.1663C30.8327 20.0504 30.4815 20.8982 29.8564 21.5234C29.2313 22.1485 28.3834 22.4997 27.4994 22.4997Z" fill="white"/>
<path id="Vector_5" d="M19.9994 31.6667C19.3401 31.6667 18.6956 31.4712 18.1475 31.1049C17.5993 30.7386 17.172 30.218 16.9198 29.6089C16.6675 28.9999 16.6014 28.3296 16.7301 27.683C16.8587 27.0364 17.1762 26.4425 17.6423 25.9763C18.1085 25.5101 18.7024 25.1927 19.349 25.0641C19.9957 24.9354 20.6659 25.0014 21.275 25.2537C21.884 25.506 22.4046 25.9333 22.7709 26.4814C23.1372 27.0296 23.3327 27.6741 23.3327 28.3333C23.3327 29.2174 22.9815 30.0652 22.3564 30.6904C21.7313 31.3155 20.8834 31.6667 19.9994 31.6667Z" fill="white"/>
<path id="Vector_6" d="M20.0007 30.0003C20.9211 30.0003 21.6673 29.2541 21.6673 28.3337C21.6673 27.4132 20.9211 26.667 20.0007 26.667C19.0802 26.667 18.334 27.4132 18.334 28.3337C18.334 29.2541 19.0802 30.0003 20.0007 30.0003Z" fill="#58BFCA"/>
<path id="Vector_7" d="M13.3327 15.0003C14.2532 15.0003 14.9993 14.2541 14.9993 13.3337C14.9993 12.4132 14.2532 11.667 13.3327 11.667C12.4122 11.667 11.666 12.4132 11.666 13.3337C11.666 14.2541 12.4122 15.0003 13.3327 15.0003Z" fill="#58BFCA"/>
<path id="Vector_8" d="M27.5007 20.8333C28.4211 20.8333 29.1673 20.0871 29.1673 19.1667C29.1673 18.2462 28.4211 17.5 27.5007 17.5C26.5802 17.5 25.834 18.2462 25.834 19.1667C25.834 20.0871 26.5802 20.8333 27.5007 20.8333Z" fill="#58BFCA"/>
</g>
</g>
</svg>
