<svg width="40" height="40" viewBox="0 0 40 40" fill="none" xmlns="http://www.w3.org/2000/svg">
<g id="gold-coin 2" clip-path="url(#clip0_544_6148)">
<g id="Group">
<path id="Vector" d="M20.0007 39.1663C30.5861 39.1663 39.1673 30.5851 39.1673 19.9997C39.1673 9.41422 30.5861 0.833008 20.0007 0.833008C9.41519 0.833008 0.833984 9.41422 0.833984 19.9997C0.833984 30.5851 9.41519 39.1663 20.0007 39.1663Z" fill="#F8D34C"/>
<g id="Vector_2">
<path d="M20.0009 33.3332C19.7799 33.3332 19.5679 33.2454 19.4116 33.0891C19.2554 32.9329 19.1676 32.7209 19.1676 32.4999V29.9999C19.1676 29.7789 19.2554 29.5669 19.4116 29.4106C19.5679 29.2544 19.7799 29.1666 20.0009 29.1666C20.2219 29.1666 20.4339 29.2544 20.5902 29.4106C20.7464 29.5669 20.8342 29.7789 20.8342 29.9999V32.4999C20.8342 32.7209 20.7464 32.9329 20.5902 33.0891C20.4339 33.2454 20.2219 33.3332 20.0009 33.3332Z" fill="#BB991D"/>
<path d="M32.6817 24.1199C32.6134 24.3301 32.4644 24.5045 32.2675 24.6048C32.0706 24.7052 31.8419 24.7232 31.6317 24.6549L29.2509 23.8824C29.1424 23.8524 29.0411 23.8008 28.9531 23.7305C28.865 23.6603 28.7922 23.573 28.7389 23.4738C28.6855 23.3747 28.6529 23.2657 28.6428 23.1536C28.6327 23.0415 28.6455 22.9284 28.6803 22.8214C28.7152 22.7143 28.7713 22.6154 28.8454 22.5307C28.9195 22.4459 29.01 22.377 29.1115 22.3282C29.2129 22.2794 29.3232 22.2516 29.4357 22.2466C29.5482 22.2416 29.6605 22.2595 29.7659 22.2991L32.1434 23.0716C32.3538 23.1392 32.5287 23.2876 32.6297 23.4842C32.7306 23.6808 32.7494 23.9095 32.6817 24.1199Z" fill="#BB991D"/>
<path d="M27.8384 9.21322C27.9273 9.27758 28.0026 9.35886 28.06 9.4524C28.1174 9.54594 28.1558 9.64989 28.1729 9.7583C28.19 9.8667 28.1855 9.97741 28.1597 10.0841C28.1339 10.1908 28.0873 10.2913 28.0226 10.3799L26.5526 12.3999C26.4222 12.5787 26.2261 12.6984 26.0074 12.7326C25.7888 12.7668 25.5655 12.7128 25.3867 12.5824C25.2079 12.452 25.0883 12.2559 25.054 12.0373C25.0198 11.8186 25.0738 11.5954 25.2042 11.4166L26.6742 9.39406C26.8047 9.21576 27.0006 9.09655 27.2189 9.06264C27.4372 9.02874 27.66 9.0829 27.8384 9.21322Z" fill="#BB991D"/>
<path d="M12.1676 9.21322C12.2562 9.14848 12.3567 9.10187 12.4634 9.07608C12.57 9.05028 12.6808 9.04581 12.7892 9.06293C12.8976 9.08004 13.0015 9.11839 13.0951 9.17579C13.1886 9.23319 13.2699 9.3085 13.3342 9.39739L14.7976 11.4166C14.9275 11.5954 14.9811 11.8185 14.9466 12.0368C14.9121 12.2551 14.7922 12.4508 14.6134 12.5807C14.4346 12.7107 14.2115 12.7643 13.9932 12.7297C13.7749 12.6952 13.5792 12.5754 13.4492 12.3966L11.9792 10.3741C11.8507 10.195 11.7984 9.97231 11.8337 9.75475C11.869 9.5372 11.989 9.34248 12.1676 9.21322Z" fill="#BB991D"/>
<path d="M7.32007 24.1199C7.25179 23.9097 7.26979 23.681 7.37013 23.4841C7.47046 23.2872 7.64489 23.1382 7.85507 23.0699L10.2326 22.2974C10.338 22.2578 10.4503 22.24 10.5628 22.245C10.6752 22.25 10.7855 22.2777 10.887 22.3265C10.9884 22.3754 11.079 22.4442 11.1531 22.529C11.2272 22.6137 11.2833 22.7126 11.3181 22.8197C11.353 22.9268 11.3657 23.0398 11.3557 23.1519C11.3456 23.2641 11.3129 23.373 11.2596 23.4722C11.2063 23.5713 11.1334 23.6586 11.0454 23.7289C10.9574 23.7991 10.8561 23.8507 10.7476 23.8807L8.37007 24.6532C8.1601 24.7216 7.93159 24.7038 7.73472 24.6038C7.53785 24.5038 7.38872 24.3298 7.32007 24.1199Z" fill="#BB991D"/>
<path d="M25.1517 27.8982C25.0166 27.8982 24.8836 27.865 24.7642 27.8016L20.0009 25.3016L15.2376 27.8016C15.1 27.8736 14.9451 27.9058 14.7903 27.8945C14.6354 27.8832 14.4868 27.8289 14.3612 27.7377C14.2355 27.6465 14.1379 27.5219 14.0792 27.3782C14.0206 27.2344 14.0033 27.0771 14.0292 26.9241L14.9392 21.6199L11.0842 17.8649C10.9728 17.7564 10.894 17.6188 10.8567 17.4679C10.8194 17.3169 10.825 17.1584 10.8731 17.0105C10.9211 16.8626 11.0096 16.7311 11.1285 16.6308C11.2474 16.5306 11.392 16.4656 11.5459 16.4432L16.8709 15.6699L19.2526 10.8449C19.329 10.7147 19.4381 10.6068 19.569 10.5318C19.7 10.4569 19.8483 10.4174 19.9992 10.4174C20.1502 10.4174 20.2985 10.4569 20.4294 10.5318C20.5604 10.6068 20.6695 10.7147 20.7459 10.8449L23.1276 15.6699L28.4526 16.4432C28.6065 16.4656 28.7511 16.5306 28.87 16.6308C28.9889 16.7311 29.0774 16.8626 29.1254 17.0105C29.1734 17.1584 29.1791 17.3169 29.1418 17.4679C29.1045 17.6188 29.0257 17.7564 28.9142 17.8649L25.0609 21.6199L25.9709 26.9241C25.9914 27.0436 25.9856 27.1662 25.9538 27.2833C25.922 27.4004 25.865 27.5091 25.7868 27.6019C25.7087 27.6946 25.6112 27.7692 25.5012 27.8204C25.3912 27.8716 25.2714 27.8982 25.1501 27.8982H25.1517Z" fill="#BB991D"/>
</g>
</g>
</g>
<defs>
<clipPath id="clip0_544_6148">
<rect width="40" height="40" fill="white"/>
</clipPath>
</defs>
</svg>
