<svg width="40" height="40" viewBox="0 0 40 40" fill="none" xmlns="http://www.w3.org/2000/svg">
<g id="gold-coin 3" clip-path="url(#clip0_5251_114632)">
<g id="Group">
<path id="Vector" d="M19.9987 39.1673C30.5842 39.1673 39.1654 30.5861 39.1654 20.0007C39.1654 9.41519 30.5842 0.833984 19.9987 0.833984C9.41324 0.833984 0.832031 9.41519 0.832031 20.0007C0.832031 30.5861 9.41324 39.1673 19.9987 39.1673Z" fill="black"/>
<g id="Vector_2">
<path d="M19.9989 33.3332C19.7779 33.3332 19.566 33.2454 19.4097 33.0891C19.2534 32.9329 19.1656 32.7209 19.1656 32.4999V29.9999C19.1656 29.7789 19.2534 29.5669 19.4097 29.4106C19.566 29.2544 19.7779 29.1666 19.9989 29.1666C20.22 29.1666 20.4319 29.2544 20.5882 29.4106C20.7445 29.5669 20.8323 29.7789 20.8323 29.9999V32.4999C20.8323 32.7209 20.7445 32.9329 20.5882 33.0891C20.4319 33.2454 20.22 33.3332 19.9989 33.3332Z" fill="white"/>
<path d="M32.6798 24.1199C32.6115 24.3301 32.4625 24.5045 32.2656 24.6048C32.0687 24.7052 31.84 24.7232 31.6298 24.6549L29.2489 23.8824C29.1404 23.8524 29.0391 23.8008 28.9511 23.7305C28.8631 23.6603 28.7902 23.573 28.7369 23.4738C28.6836 23.3747 28.6509 23.2657 28.6408 23.1536C28.6308 23.0415 28.6436 22.9284 28.6784 22.8214C28.7132 22.7143 28.7694 22.6154 28.8435 22.5307C28.9176 22.4459 29.0081 22.377 29.1095 22.3282C29.211 22.2794 29.3213 22.2516 29.4338 22.2466C29.5462 22.2416 29.6586 22.2595 29.7639 22.2991L32.1414 23.0716C32.3519 23.1392 32.5268 23.2876 32.6277 23.4842C32.7287 23.6808 32.7474 23.9095 32.6798 24.1199Z" fill="white"/>
<path d="M27.8364 9.21322C27.9253 9.27758 28.0007 9.35886 28.058 9.4524C28.1154 9.54594 28.1538 9.64989 28.1709 9.7583C28.188 9.8667 28.1836 9.97741 28.1578 10.0841C28.132 10.1908 28.0854 10.2913 28.0206 10.3799L26.5506 12.3999C26.4202 12.5787 26.2241 12.6984 26.0055 12.7326C25.7869 12.7668 25.5636 12.7128 25.3848 12.5824C25.206 12.452 25.0863 12.2559 25.0521 12.0373C25.0179 11.8186 25.0719 11.5954 25.2023 11.4166L26.6723 9.39406C26.8027 9.21576 26.9986 9.09655 27.2169 9.06264C27.4352 9.02874 27.6581 9.0829 27.8364 9.21322Z" fill="white"/>
<path d="M12.1656 9.21322C12.2542 9.14848 12.3548 9.10187 12.4614 9.07608C12.5681 9.05028 12.6788 9.04581 12.7872 9.06293C12.8956 9.08004 12.9996 9.11839 13.0931 9.17579C13.1866 9.23319 13.2679 9.3085 13.3323 9.39739L14.7956 11.4166C14.9256 11.5954 14.9792 11.8185 14.9446 12.0368C14.9101 12.2551 14.7902 12.4508 14.6114 12.5807C14.4326 12.7107 14.2095 12.7643 13.9912 12.7297C13.7729 12.6952 13.5772 12.5754 13.4473 12.3966L11.9773 10.3741C11.8488 10.195 11.7965 9.97231 11.8318 9.75475C11.867 9.5372 11.9871 9.34248 12.1656 9.21322Z" fill="white"/>
<path d="M7.31812 24.1199C7.24984 23.9097 7.26784 23.681 7.36817 23.4841C7.4685 23.2872 7.64294 23.1382 7.85312 23.0699L10.2306 22.2974C10.336 22.2578 10.4483 22.24 10.5608 22.245C10.6733 22.25 10.7836 22.2777 10.885 22.3265C10.9865 22.3754 11.077 22.4442 11.1511 22.529C11.2252 22.6137 11.2814 22.7126 11.3162 22.8197C11.351 22.9268 11.3638 23.0398 11.3537 23.1519C11.3437 23.2641 11.311 23.373 11.2577 23.4722C11.2043 23.5713 11.1315 23.6586 11.0435 23.7289C10.9555 23.7991 10.8541 23.8507 10.7456 23.8807L8.36812 24.6532C8.15815 24.7216 7.92964 24.7038 7.73277 24.6038C7.5359 24.5038 7.38676 24.3298 7.31812 24.1199Z" fill="white"/>
<path d="M25.1498 27.8982C25.0147 27.8982 24.8816 27.865 24.7623 27.8016L19.9989 25.3016L15.2356 27.8016C15.0981 27.8736 14.9432 27.9058 14.7883 27.8945C14.6335 27.8832 14.4848 27.8289 14.3592 27.7377C14.2336 27.6465 14.1359 27.5219 14.0773 27.3782C14.0186 27.2344 14.0013 27.0771 14.0273 26.9241L14.9373 21.6199L11.0823 17.8649C10.9709 17.7564 10.892 17.6188 10.8547 17.4679C10.8174 17.3169 10.8231 17.1585 10.8711 17.0105C10.9192 16.8626 11.0076 16.7311 11.1265 16.6308C11.2454 16.5306 11.39 16.4656 11.5439 16.4432L16.8689 15.6699L19.2506 10.8449C19.327 10.7147 19.4361 10.6068 19.5671 10.5318C19.6981 10.4569 19.8464 10.4174 19.9973 10.4174C20.1482 10.4174 20.2965 10.4569 20.4275 10.5318C20.5584 10.6068 20.6675 10.7147 20.7439 10.8449L23.1256 15.6699L28.4506 16.4432C28.6045 16.4656 28.7491 16.5306 28.868 16.6308C28.9869 16.7311 29.0754 16.8626 29.1234 17.0105C29.1715 17.1585 29.1772 17.3169 29.1398 17.4679C29.1025 17.6188 29.0237 17.7564 28.9123 17.8649L25.059 21.6199L25.969 26.9241C25.9895 27.0436 25.9836 27.1662 25.9518 27.2833C25.92 27.4004 25.863 27.5091 25.7849 27.6019C25.7067 27.6946 25.6092 27.7692 25.4992 27.8204C25.3893 27.8716 25.2694 27.8982 25.1481 27.8982H25.1498Z" fill="white"/>
</g>
</g>
</g>
<defs>
<clipPath id="clip0_5251_114632">
<rect width="40" height="40" fill="white"/>
</clipPath>
</defs>
</svg>
