<svg width="24" height="24" viewBox="0 0 24 24" fill="none" xmlns="http://www.w3.org/2000/svg">
<g clip-path="url(#clip0_58_71)">
<path d="M20.4481 4.3218C18.8987 3.94893 16.4005 3.44466 15.7026 5.17932C13.5695 9.57348 12.3449 14.1724 11.4231 16.1456C11.5199 16.2121 15.7685 19.1439 16.0691 19.3173C17.0242 19.8686 18.6189 19.6205 19.2982 18.1633C21.1827 14.1209 20.7037 15.1733 22.706 11.0486C24 8.38303 22.3822 4.78718 20.4481 4.3218Z" fill="#EA4335"/>
<path d="M7.04302 22.1608C6.00266 20.7453 5.23949 17.9133 6.15365 16.3272C8.8242 10.8257 10.962 7.49533 12.6434 4.15707C13.5349 4.76931 17.1071 7.17923 17.345 7.42754C18.1431 8.26021 18.8042 9.85127 18.0828 11.2796C16.0816 15.2419 15.2604 17.0351 13.2263 21.2254C11.9321 23.8916 8.34272 23.9292 7.04302 22.1608Z" fill="#FDBD00"/>
<path d="M16.6219 1.51717C14.5407 0.0707473 13.471 0.260314 12.3517 0.473794C11.3342 0.776312 9.95837 1.65577 9.37841 2.78563C7.91532 5.63574 6.52953 8.45603 4.7343 12.2779C4.18137 13.455 4.5918 14.9012 5.10207 15.4751C5.44788 15.8642 7.99233 17.5339 8.4618 17.7739C9.1259 18.1135 10.1207 17.8773 10.7208 17.1427C10.8865 16.9397 14.6823 9.18539 15.7513 6.89828C16.2025 5.93315 16.6089 5.39905 17.2837 4.88421C18.5872 4.07069 19.6049 3.96575 21.1637 4.64368C21.1637 4.64368 17.771 2.3048 16.6219 1.51717Z" fill="#2DA94F"/>
<path d="M3.2309 19.7154C1.137 18.2949 0.740139 17.0983 0.33596 15.8387C0.0475394 14.6395 6.16607e-06 12.7826 0.53273 11.6202C1.87664 8.68833 1.86698 8.67347 3.7523 4.91336C4.33295 3.7553 5.59126 3.45499 6.26434 3.69354C6.72054 3.85513 9.20848 5.6411 9.61802 6.00468C10.1974 6.51893 10.5227 7.66167 10.2879 8.64712C10.223 8.91922 7.84465 13.8835 6.71391 16.1282C6.23662 17.0755 6.05098 17.7611 6.0135 18.7134C6.07284 20.4628 6.50523 21.5635 7.77838 22.8303C7.77838 22.8303 4.37892 20.5051 3.2309 19.7154Z" fill="#297AEC"/>
</g>
<defs>
<clipPath id="clip0_58_71">
<rect width="24" height="24" fill="white"/>
</clipPath>
</defs>
</svg>
