<svg width="16" height="16" viewBox="0 0 16 16" fill="none" xmlns="http://www.w3.org/2000/svg">
<g id="Group 483478">
<circle id="Ellipse 15" cx="8" cy="8" r="8" fill="#43A833"/>
<path id="Vector" d="M10.4887 4.79883H6.22784C6.0395 4.79883 5.85887 4.87365 5.72569 5.00682C5.59251 5.14 5.5177 5.32063 5.5177 5.50897C5.5177 5.69731 5.59251 5.87794 5.72569 6.01112C5.85887 6.14429 6.0395 6.21911 6.22784 6.21911H8.7744L5.01563 9.97789C4.9478 10.0434 4.8937 10.1218 4.85648 10.2084C4.81926 10.295 4.79967 10.3882 4.79885 10.4825C4.79804 10.5768 4.816 10.6703 4.85171 10.7576C4.88742 10.8449 4.94015 10.9242 5.00682 10.9908C5.0735 11.0575 5.15279 11.1102 5.24006 11.1459C5.32734 11.1817 5.42085 11.1996 5.51514 11.1988C5.60943 11.198 5.70262 11.1784 5.78926 11.1412C5.8759 11.104 5.95426 11.0499 6.01977 10.982L9.77854 7.22325V9.76982C9.77854 9.95816 9.85336 10.1388 9.98654 10.272C10.1197 10.4051 10.3003 10.48 10.4887 10.48C10.677 10.48 10.8577 10.4051 10.9908 10.272C11.124 10.1388 11.1988 9.95816 11.1988 9.76982V5.50897C11.1988 5.32063 11.124 5.14 10.9908 5.00682C10.8577 4.87365 10.677 4.79883 10.4887 4.79883Z" fill="white"/>
</g>
</svg>
