<svg width="16" height="16" viewBox="0 0 16 16" fill="none" xmlns="http://www.w3.org/2000/svg">
<path d="M15.184 5.36555C14.8694 4.5732 14.3287 3.89089 13.6293 3.40355C14.0108 4.14253 14.2755 4.93617 14.414 5.75622V5.76955C13.5373 3.58421 12.0513 2.70288 10.8373 0.784881C10.776 0.688214 10.7146 0.590881 10.6546 0.488214C10.6253 0.435548 10.6 0.382214 10.5706 0.327548C10.5202 0.230418 10.4812 0.127721 10.4546 0.0215477C10.455 0.0189551 10.4548 0.0163139 10.4542 0.0137842C10.4535 0.0112545 10.4523 0.00888925 10.4507 0.00683187C10.449 0.0047745 10.447 0.00306794 10.4447 0.00181579C10.4424 0.000563633 10.4399 -0.000208013 10.4373 -0.000452316C10.435 -0.00144259 10.4325 -0.00195312 10.43 -0.00195312C10.4274 -0.00195313 10.4249 -0.00144259 10.4226 -0.000452316H10.4186H10.4133H10.4166C9.72563 0.424232 9.13393 0.992399 8.68156 1.6656C8.2292 2.33879 7.92673 3.10131 7.79462 3.90155C7.26306 3.9324 6.74243 4.06549 6.26129 4.29355C6.21762 4.31557 6.18353 4.35283 6.16547 4.39828C6.14741 4.44373 6.14664 4.49423 6.16329 4.54021C6.17168 4.56439 6.18475 4.58667 6.20176 4.60579C6.21876 4.62491 6.23937 4.64049 6.26241 4.65163C6.28544 4.66278 6.31045 4.66927 6.33599 4.67074C6.36154 4.67222 6.38713 4.66864 6.41129 4.66021L6.42795 4.65355C6.84839 4.45503 7.30213 4.33657 7.76595 4.30421H7.81129C7.87795 4.30421 7.93862 4.29821 8.00262 4.29755C8.37899 4.295 8.75376 4.34687 9.11529 4.45155L9.17795 4.47155C9.23795 4.49021 9.29729 4.50955 9.35662 4.53088C9.39995 4.54688 9.44262 4.56421 9.48529 4.58155L9.58862 4.62421C9.64195 4.64821 9.69462 4.67288 9.74662 4.69888L9.81862 4.73488C9.86929 4.76155 9.91929 4.78955 9.96929 4.81821L10.0646 4.87555C10.6258 5.2222 11.0917 5.7034 11.42 6.27555C10.8753 5.89862 10.2102 5.73688 9.55329 5.82155C10.2028 6.17365 10.7108 6.73916 10.9915 7.42252C11.2722 8.10588 11.3084 8.8652 11.0939 9.57216C10.8795 10.2791 10.4276 10.8904 9.81452 11.3027C9.20148 11.7149 8.46492 11.9029 7.72929 11.8349C7.3852 11.821 7.04516 11.7554 6.72062 11.6402C6.64395 11.6115 6.56795 11.5802 6.49329 11.5475C6.44929 11.5275 6.40529 11.5069 6.35995 11.4849C5.86852 11.2482 5.44401 10.8925 5.125 10.4501C4.80598 10.0077 4.60259 9.49257 4.53329 8.95155C4.53329 8.95155 4.89129 7.61822 7.09595 7.61822C7.49734 7.44974 7.8274 7.14655 8.02929 6.76088C7.36956 6.44423 6.73949 6.06918 6.14662 5.64021C5.86529 5.36288 5.73195 5.22955 5.61329 5.12955C5.54923 5.07553 5.48248 5.0248 5.41329 4.97755C5.23641 4.35936 5.22881 3.70501 5.39129 3.08288C4.67593 3.42911 4.04028 3.92014 3.52462 4.52488H3.52129C3.21395 4.13621 3.23595 2.85155 3.25462 2.58355C3.16385 2.62019 3.07716 2.66622 2.99595 2.72088C2.72462 2.91427 2.47117 3.13159 2.23862 3.37021C1.97342 3.6383 1.73123 3.92821 1.51462 4.23688C1.0155 4.94371 0.661352 5.74242 0.47262 6.58688C0.47262 6.59555 0.399287 6.91088 0.34662 7.30155C0.337287 7.36222 0.329287 7.42288 0.321287 7.48355C0.303287 7.60088 0.289287 7.72888 0.275953 7.92755V7.95088C0.27062 8.03688 0.265287 8.12288 0.26062 8.20888C0.26062 8.22155 0.26062 8.23488 0.26062 8.24821C0.263928 10.1881 0.994403 12.0563 2.30784 13.484C3.62127 14.9116 5.42222 15.795 7.35514 15.9597C9.28806 16.1244 11.2125 15.5584 12.7485 14.3735C14.2845 13.1886 15.3205 11.4709 15.652 9.55955C15.6653 9.46088 15.6753 9.35955 15.6873 9.26088C15.8471 7.94078 15.6741 6.60166 15.184 5.36555Z" fill="#FDA237"/>
</svg>
