<svg width="20" height="20" viewBox="0 0 20 20" fill="none" xmlns="http://www.w3.org/2000/svg">
<path fill-rule="evenodd" clip-rule="evenodd" d="M2 4C1.63181 4 1.33333 4.29848 1.33333 4.66667C1.33333 5.03485 1.63181 5.33333 2 5.33333H18C18.3681 5.33333 18.6667 5.03485 18.6667 4.66667C18.6667 4.29848 18.3681 4 18 4H2ZM1.33333 10C1.33333 9.63181 1.63181 9.33333 2 9.33333H18C18.3681 9.33333 18.6667 9.63181 18.6667 10C18.6667 10.3682 18.3681 10.6667 18 10.6667H2C1.63181 10.6667 1.33333 10.3682 1.33333 10ZM1.33333 15.3333C1.33333 14.9652 1.63181 14.6667 2 14.6667H18C18.3681 14.6667 18.6667 14.9652 18.6667 15.3333C18.6667 15.7015 18.3681 16 18 16H2C1.63181 16 1.33333 15.7015 1.33333 15.3333Z" fill="#121212"/>
</svg>
