<svg width="16" height="16" viewBox="0 0 16 16" fill="none" xmlns="http://www.w3.org/2000/svg">
<g id="control-panel 1" clip-path="url(#clip0_5251_114527)">
<g id="Group">
<path id="Vector" d="M10.3 1.33601C9.554 1.11301 8.779 0.999007 8 1.00001C3.586 0.996007 0.004 4.57201 0 8.98601C0 9.76501 0.112 10.54 0.336 11.286C0.462 11.71 0.852 12 1.294 12H4.348C4.283 11.406 4.217 10.723 4.152 10H2.085C2.028 9.67001 2 9.33501 2 9.00001C2 5.68601 4.686 3.00001 8 3.00001C11.314 3.00001 14 5.68601 14 9.00001C14 9.33501 13.972 9.67001 13.915 10H10.408C10.885 10.91 11.251 11.659 11.35 11.984C11.352 11.989 11.352 11.994 11.353 12H14.706C15.148 12 15.538 11.71 15.664 11.286C16.93 7.05701 14.529 2.60201 10.3 1.33601Z" fill="#E85C51"/>
<path id="Vector_2" d="M9.91541 12.4183C9.66641 11.5963 6.60741 6.18933 6.25941 5.57533C6.14541 5.37333 5.90941 5.27633 5.67941 5.34333C5.45541 5.41133 5.30941 5.62533 5.32541 5.85833C5.37741 6.56233 5.83841 12.7573 6.08741 13.5793C6.34941 14.4413 7.14441 14.9983 8.00241 14.9983C8.19441 14.9983 8.38941 14.9703 8.58241 14.9123C9.63741 14.5923 10.2344 13.4743 9.91541 12.4183Z" fill="#E85C51"/>
</g>
</g>
<defs>
<clipPath id="clip0_5251_114527">
<rect width="16" height="16" fill="white"/>
</clipPath>
</defs>
</svg>
