<svg width="25" height="22" viewBox="0 0 25 22" fill="none" xmlns="http://www.w3.org/2000/svg">
<path d="M8.90625 0.58751C10.0719 0.239073 11.2828 0.0609477 12.5 0.0625102C19.3969 0.0562602 24.9937 5.64376 25 12.5406C25 13.7578 24.825 14.9688 24.475 16.1344C24.2781 16.7969 23.6687 17.25 22.9781 17.25H18.2062C18.3078 16.3219 18.4109 15.2547 18.5125 14.125H21.7422C21.8312 13.6094 21.875 13.0859 21.875 12.5625C21.875 7.38438 17.6781 3.18751 12.5 3.18751C7.32187 3.18751 3.12499 7.38438 3.12499 12.5625C3.12499 13.0859 3.16875 13.6094 3.25781 14.125H8.7375C7.99218 15.5469 7.42031 16.7172 7.26562 17.225C7.2625 17.2328 7.2625 17.2406 7.26093 17.25H2.02187C1.33124 17.25 0.72187 16.7969 0.524996 16.1344C-1.45313 9.52657 2.29843 2.56563 8.90625 0.58751Z" fill="#FF1717"/>
<path d="M9.50985 17.904C9.89891 16.6196 14.6786 8.17119 15.2224 7.21182C15.4005 6.89619 15.7692 6.74463 16.1286 6.84932C16.4786 6.95557 16.7067 7.28994 16.6817 7.654C16.6005 8.754 15.8802 18.4337 15.4911 19.7181C15.0817 21.0649 13.8395 21.9353 12.4989 21.9353C12.1989 21.9353 11.8942 21.8915 11.5927 21.8009C9.94422 21.3009 9.01141 19.554 9.50985 17.904Z" fill="#FF1717"/>
</svg>
