<svg width="16" height="16" viewBox="0 0 16 16" fill="none" xmlns="http://www.w3.org/2000/svg">
<g id="control-panel 1" clip-path="url(#clip0_5251_114493)">
<g id="Group">
<path id="Vector" d="M5.7 1.33601C6.446 1.11301 7.221 0.999007 8 1.00001C12.414 0.996007 15.996 4.57201 16 8.98601C16 9.76501 15.888 10.54 15.664 11.286C15.538 11.71 15.148 12 14.706 12H11.652C11.717 11.406 11.783 10.723 11.848 10H13.915C13.972 9.67001 14 9.33501 14 9.00001C14 5.68601 11.314 3.00001 8 3.00001C4.686 3.00001 2 5.68601 2 9.00001C2 9.33501 2.028 9.67001 2.085 10H5.592C5.115 10.91 4.749 11.659 4.65 11.984C4.648 11.989 4.648 11.994 4.647 12H1.294C0.851999 12 0.462001 11.71 0.336 11.286C-0.93 7.05701 1.471 2.60201 5.7 1.33601Z" fill="#43A833"/>
<path id="Vector_2" d="M6.08459 12.4183C6.33359 11.5963 9.39259 6.18933 9.74059 5.57533C9.85459 5.37333 10.0906 5.27633 10.3206 5.34333C10.5446 5.41133 10.6906 5.62533 10.6746 5.85833C10.6226 6.56233 10.1616 12.7573 9.91259 13.5793C9.65059 14.4413 8.85559 14.9983 7.99759 14.9983C7.80559 14.9983 7.61059 14.9703 7.41759 14.9123C6.36259 14.5923 5.76559 13.4743 6.08459 12.4183Z" fill="#43A833"/>
</g>
</g>
<defs>
<clipPath id="clip0_5251_114493">
<rect width="16" height="16" fill="white" transform="matrix(-1 0 0 1 16 0)"/>
</clipPath>
</defs>
</svg>
