<svg width="20" height="20" viewBox="0 0 20 20" fill="none" xmlns="http://www.w3.org/2000/svg">
<g id="india 1">
<g id="Group">
<path id="Vector" d="M20 7.5H0V3.33333C0 2.87292 0.372917 2.5 0.833333 2.5H19.1667C19.6271 2.5 20 2.87292 20 3.33333V7.5Z" fill="#FD9840"/>
<path id="Vector_2" d="M20 7.5H0V12.5H20V7.5Z" fill="#E6E6E6"/>
<path id="Vector_3" d="M20 16.6667C20 17.1271 19.6271 17.5 19.1667 17.5H0.833333C0.372917 17.5 0 17.1271 0 16.6667V12.5H20V16.6667Z" fill="#1B8717"/>
<path id="Vector_4" d="M9.9987 8.3335C9.07828 8.3335 8.33203 9.07975 8.33203 10.0002C8.33203 10.9206 9.07828 11.6668 9.9987 11.6668C10.9191 11.6668 11.6654 10.9206 11.6654 10.0002C11.6654 9.07975 10.9191 8.3335 9.9987 8.3335ZM9.9987 10.8335C9.5387 10.8335 9.16536 10.4606 9.16536 10.0002C9.16536 9.53975 9.5387 9.16683 9.9987 9.16683C10.4587 9.16683 10.832 9.53975 10.832 10.0002C10.832 10.4606 10.4587 10.8335 9.9987 10.8335Z" fill="#11188A"/>
</g>
</g>
</svg>
