<svg width="300" height="70" viewBox="0 0 300 70" fill="none" xmlns="http://www.w3.org/2000/svg">
<path d="M30.1741 12.652V49.016H23.5867V12.652H30.1741ZM43.4509 33.036V49.016H37.0234V21.743H43.1668V26.377H43.4864C44.1138 24.85 45.114 23.637 46.4871 22.737C47.8721 21.838 49.5825 21.388 51.6185 21.388C53.5006 21.388 55.1401 21.79 56.5369 22.595C57.9455 23.4 59.0345 24.566 59.8039 26.093C60.5851 27.62 60.9699 29.473 60.958 31.651V49.016H54.5305V32.645C54.5305 30.822 54.057 29.396 53.11 28.366C52.1749 27.336 50.8787 26.821 49.2215 26.821C48.097 26.821 47.0968 27.07 46.2208 27.567C45.3567 28.052 44.6761 28.757 44.1789 29.68C43.6936 30.603 43.4509 31.722 43.4509 33.036ZM90.8761 21.743L81.1641 49.016H74.0621L64.3494 21.743H71.203L77.4711 42.002H77.7551L84.0401 21.743H90.8761ZM106.47 49.549C103.736 49.549 101.374 48.98 99.3861 47.844C97.4091 46.696 95.8881 45.074 94.8221 42.979C93.7571 40.872 93.2241 38.392 93.2241 35.539C93.2241 32.734 93.7571 30.272 94.8221 28.153C95.9001 26.022 97.4031 24.365 99.3321 23.181C101.262 21.986 103.529 21.388 106.133 21.388C107.814 21.388 109.4 21.66 110.891 22.205C112.395 22.737 113.72 23.566 114.869 24.691C116.029 25.815 116.94 27.247 117.603 28.987C118.266 30.716 118.597 32.775 118.597 35.166V37.137H96.2431V32.805H112.436C112.424 31.574 112.158 30.479 111.637 29.52C111.116 28.549 110.388 27.786 109.453 27.23C108.53 26.673 107.453 26.395 106.222 26.395C104.908 26.395 103.754 26.715 102.759 27.354C101.765 27.981 100.99 28.81 100.433 29.84C99.8891 30.858 99.6111 31.976 99.5991 33.196V36.978C99.5991 38.564 99.8891 39.925 100.469 41.061C101.049 42.186 101.86 43.05 102.901 43.654C103.943 44.246 105.162 44.541 106.559 44.541C107.494 44.541 108.34 44.411 109.098 44.151C109.856 43.879 110.513 43.482 111.069 42.961C111.625 42.44 112.045 41.795 112.33 41.026L118.331 41.701C117.952 43.287 117.23 44.672 116.165 45.855C115.111 47.027 113.762 47.939 112.116 48.59C110.471 49.229 108.589 49.549 106.47 49.549ZM145.59 28.952L139.731 29.591C139.565 28.999 139.275 28.443 138.861 27.922C138.459 27.401 137.914 26.981 137.227 26.661C136.541 26.342 135.7 26.182 134.706 26.182C133.369 26.182 132.244 26.472 131.333 27.052C130.433 27.632 129.989 28.384 130.001 29.307C129.989 30.1 130.279 30.745 130.871 31.242C131.475 31.74 132.469 32.148 133.854 32.468L138.506 33.462C141.086 34.018 143.004 34.9 144.259 36.107C145.525 37.315 146.164 38.895 146.176 40.848C146.164 42.565 145.661 44.08 144.667 45.394C143.685 46.696 142.317 47.714 140.566 48.448C138.814 49.182 136.801 49.549 134.529 49.549C131.191 49.549 128.503 48.85 126.468 47.453C124.432 46.045 123.218 44.086 122.828 41.576L129.095 40.973C129.379 42.204 129.983 43.133 130.906 43.76C131.83 44.388 133.031 44.701 134.511 44.701C136.038 44.701 137.263 44.388 138.186 43.76C139.121 43.133 139.589 42.357 139.589 41.434C139.589 40.653 139.287 40.008 138.683 39.499C138.092 38.99 137.168 38.599 135.914 38.327L131.262 37.35C128.646 36.806 126.71 35.889 125.455 34.598C124.201 33.296 123.579 31.651 123.591 29.662C123.579 27.981 124.035 26.525 124.958 25.294C125.893 24.051 127.19 23.093 128.847 22.418C130.516 21.731 132.439 21.388 134.617 21.388C137.813 21.388 140.329 22.069 142.164 23.43C144.01 24.791 145.152 26.632 145.59 28.952ZM165.095 21.743V26.715H149.417V21.743H165.095ZM153.287 15.209H159.715V40.813C159.715 41.677 159.845 42.34 160.106 42.801C160.378 43.251 160.733 43.559 161.171 43.725C161.609 43.89 162.094 43.973 162.627 43.973C163.029 43.973 163.396 43.944 163.728 43.884C164.071 43.825 164.331 43.772 164.509 43.725L165.592 48.75C165.249 48.868 164.758 48.998 164.118 49.14C163.491 49.282 162.722 49.365 161.81 49.389C160.2 49.436 158.75 49.193 157.46 48.661C156.17 48.116 155.146 47.276 154.388 46.139C153.643 45.003 153.276 43.583 153.287 41.878V15.209ZM189.3 33.036V49.016H182.873V21.743H189.016V26.377H189.336C189.963 24.85 190.964 23.637 192.337 22.737C193.722 21.838 195.432 21.388 197.468 21.388C199.35 21.388 200.99 21.79 202.386 22.595C203.795 23.4 204.884 24.566 205.653 26.093C206.435 27.62 206.819 29.473 206.808 31.651V49.016H200.38V32.645C200.38 30.822 199.906 29.396 198.96 28.366C198.024 27.336 196.728 26.821 195.071 26.821C193.946 26.821 192.946 27.07 192.07 27.567C191.206 28.052 190.526 28.757 190.028 29.68C189.543 30.603 189.3 31.722 189.3 33.036ZM225.238 49.549C222.575 49.549 220.266 48.963 218.313 47.791C216.36 46.619 214.845 44.979 213.768 42.872C212.702 40.765 212.17 38.303 212.17 35.486C212.17 32.669 212.702 30.201 213.768 28.082C214.845 25.963 216.36 24.318 218.313 23.146C220.266 21.974 222.575 21.388 225.238 21.388C227.901 21.388 230.21 21.974 232.163 23.146C234.116 24.318 235.625 25.963 236.69 28.082C237.768 30.201 238.306 32.669 238.306 35.486C238.306 38.303 237.768 40.765 236.69 42.872C235.625 44.979 234.116 46.619 232.163 47.791C230.21 48.963 227.901 49.549 225.238 49.549ZM225.273 44.399C226.718 44.399 227.925 44.003 228.896 43.21C229.866 42.405 230.588 41.328 231.062 39.978C231.547 38.629 231.79 37.125 231.79 35.468C231.79 33.799 231.547 32.29 231.062 30.941C230.588 29.579 229.866 28.496 228.896 27.691C227.925 26.886 226.718 26.484 225.273 26.484C223.794 26.484 222.563 26.886 221.58 27.691C220.61 28.496 219.882 29.579 219.396 30.941C218.923 32.29 218.686 33.799 218.686 35.468C218.686 37.125 218.923 38.629 219.396 39.978C219.882 41.328 220.61 42.405 221.58 43.21C222.563 44.003 223.794 44.399 225.273 44.399ZM248.609 49.016L240.903 21.743H247.455L252.249 40.919H252.497L257.398 21.743H263.879L268.779 40.813H269.046L273.769 21.743H280.338L272.615 49.016H265.921L260.807 30.585H260.434L255.32 49.016H248.609ZM285.075 49.406C283.997 49.406 283.074 49.028 282.305 48.27C281.535 47.513 281.156 46.589 281.168 45.5C281.156 44.435 281.535 43.523 282.305 42.766C283.074 42.008 283.997 41.63 285.075 41.63C286.116 41.63 287.022 42.008 287.791 42.766C288.572 43.523 288.969 44.435 288.981 45.5C288.969 46.222 288.78 46.879 288.413 47.471C288.058 48.063 287.584 48.536 286.992 48.892C286.412 49.235 285.773 49.406 285.075 49.406Z" fill="white"/>
<path d="M5.3215 9.03201L300 0L294.679 63.978L0 70L5.3215 9.03201Z" fill="url(#paint0_linear_1437_229)"/>
<defs>
<linearGradient id="paint0_linear_1437_229" x1="-3.62625e-08" y1="53.065" x2="306.821" y2="48.062" gradientUnits="userSpaceOnUse">
<stop stop-color="#E4EDFC" stop-opacity="0"/>
<stop offset="0.515625" stop-color="#C6DDFF" stop-opacity="0.25"/>
<stop offset="1" stop-color="#E6EFFD" stop-opacity="0.72"/>
</linearGradient>
</defs>
</svg>
