<svg width="16" height="16" viewBox="0 0 16 16" fill="none" xmlns="http://www.w3.org/2000/svg">
<path fill-rule="evenodd" clip-rule="evenodd" d="M6.38164 12.315C6.35044 12.439 5.57052 15.36 1.28053 15.36C0.927101 15.36 0.64059 15.0734 0.64059 14.7199C0.64059 10.4293 3.56111 9.6492 3.6851 9.618C4.02815 9.53228 4.37572 9.74093 4.46143 10.084C4.54713 10.4271 4.33852 10.7748 3.99547 10.8605C3.92348 10.8805 2.20204 11.3837 1.95087 14.0495C4.61621 13.7983 5.12016 12.0798 5.14096 11.9997C5.22932 11.6571 5.57868 11.4509 5.92129 11.5393C6.26389 11.6277 6.47 11.9771 6.38164 12.3198V12.315ZM13.8209 6.92263L13.4394 7.30425V11.9709C13.4413 12.3118 13.3064 12.6392 13.065 12.8798L10.3197 15.624C10.0805 15.8648 9.75513 16.0002 9.41575 16C9.27708 16 9.13932 15.9775 9.00779 15.9336C8.54712 15.7812 8.21286 15.3805 8.14547 14.8999L7.71591 11.8205L4.17945 8.28351L1.10215 7.85389C0.621048 7.7864 0.219627 7.45231 0.0658484 6.99141C-0.0879297 6.53052 0.0324495 6.02227 0.376616 5.67935L3.12035 2.93358C3.36091 2.69211 3.68825 2.55724 4.02907 2.55916H8.69502L9.07658 2.17753C11.2108 0.0437982 13.7825 -0.0482075 14.7888 0.0117963C15.4346 0.0510436 15.9495 0.566043 15.9887 1.21187C16.0471 2.21593 15.9543 4.7881 13.8209 6.92263ZM1.28053 6.58661L4.25224 7.00104L7.41514 3.83924H4.02907L1.28053 6.58661ZM5.38574 7.67948L8.31986 10.6141L12.9154 6.01777C14.1684 4.77303 14.8223 3.04735 14.7088 1.28468C12.9475 1.17544 11.2245 1.83052 9.9805 3.08239L5.38574 7.67948ZM12.1595 8.58433L8.99739 11.7469L9.41335 14.7199L12.1595 11.9709V8.58433Z" fill="#0037B7"/>
</svg>
