<svg width="40" height="40" viewBox="0 0 40 40" fill="none" xmlns="http://www.w3.org/2000/svg">
<g id="Jewelry">
<g id="Layer_2">
<path id="Vector" d="M14.2833 20C14.2666 20.0167 14.2666 20.05 14.2666 20.0667V20H14.2833Z" fill="#E1E1FF"/>
<path id="Vector_2" d="M14.2666 20V20.0667C14.2666 20.05 14.2666 20.0167 14.2833 20H14.2666Z" fill="#E1E1FF"/>
<path id="Vector_3" d="M25.8664 20.0833V20.1C25.8664 20.1667 25.8664 20.25 25.8498 20.3167C25.8498 20.3667 25.8331 20.4333 25.8164 20.4833C25.8164 20.5 25.7998 20.5333 25.7998 20.55L25.7664 20.6333L25.4664 21.7667L24.1664 26.35L23.7331 27.8833L22.6164 31.8333V31.85L21.5998 35.45C21.5664 35.5333 21.5498 35.6333 21.4998 35.7C21.4664 35.7833 21.4164 35.8667 21.3664 35.95C21.3498 35.9833 21.3164 36.0333 21.2831 36.0667C21.2498 36.1 21.2331 36.1167 21.1998 36.15C21.1498 36.2 21.1164 36.25 21.0498 36.2833C20.9664 36.35 20.8831 36.4167 20.7831 36.4667L20.7664 36.4833C20.7498 36.4833 20.7331 36.4998 20.6998 36.5167C20.5998 36.55 20.4998 36.6 20.3831 36.6167C20.3664 36.6333 20.3664 36.6333 20.3498 36.6333C20.2331 36.65 20.1164 36.6667 19.9998 36.6667C19.8831 36.6667 19.7664 36.65 19.6498 36.6333C19.6333 36.6333 19.6164 36.6167 19.5998 36.6167C19.4998 36.6 19.3998 36.5667 19.3164 36.5167C19.2831 36.5 19.2498 36.5 19.2331 36.4833C19.2166 36.4833 19.2166 36.4667 19.2166 36.4667C19.1999 36.4667 19.1833 36.45 19.1833 36.45C19.0666 36.4 18.9666 36.3167 18.8833 36.2333C18.8666 36.2167 18.8499 36.2167 18.8333 36.2C18.8166 36.1833 18.7999 36.15 18.7833 36.1333L18.7333 36.0833C18.6999 36.0333 18.6666 36 18.6166 35.9333C18.5999 35.9 18.5833 35.8667 18.5666 35.8333C18.4999 35.7333 18.4499 35.6167 18.4166 35.5C18.4166 35.4833 18.3999 35.45 18.3999 35.4333V35.4167L18.3499 35.2L17.4333 31.9L17.3666 31.65L16.3666 28L14.6499 21.7667L14.3166 20.5333C14.3166 20.5167 14.2999 20.4833 14.2999 20.4667C14.2833 20.35 14.2666 20.2333 14.2666 20.1333C14.2666 20.1168 14.2666 20.1 14.2666 20.1C14.2666 20.0833 14.2666 20.0833 14.2666 20.0667C14.2666 20.05 14.2666 20.0167 14.2833 20H25.8499C25.8664 20.0333 25.8664 20.05 25.8664 20.0833Z" fill="#E1E1FF"/>
<path id="Vector_4" d="M14.2666 20V20.0667C14.2666 20.05 14.2666 20.0167 14.2833 20H14.2666Z" fill="#8E8EEF"/>
<path id="Vector_5" d="M17.2835 11.6665C16.4835 11.6665 15.8002 12.2332 15.6502 12.9998L15.5835 13.3332L15.2502 14.9998L14.5668 18.4332L14.3002 19.7665C14.3002 19.7832 14.2835 19.8165 14.2835 19.8498C14.2835 19.8998 14.2668 19.9498 14.2668 19.9998H6.68351C6.66684 19.1665 6.88351 18.3832 7.30018 17.6998L9.25018 14.4498C10.2835 12.7332 12.1668 11.6665 14.1668 11.6665H17.2835Z" fill="#E1E1FF"/>
<path id="Vector_6" d="M18.6169 35.9333L15.6336 32.3333L7.56693 22.6167C7.03359 21.85 6.75026 21.0833 6.70026 20.3167C6.68359 20.2667 6.68359 20.2 6.68359 20.15V20H14.2669V20.0667C14.2669 20.0833 14.2669 20.0833 14.2669 20.1C14.2669 20.1 14.2669 20.1167 14.2669 20.1333C14.2669 20.2335 14.2836 20.35 14.3003 20.4667C14.3003 20.4833 14.3169 20.5167 14.3169 20.5333L14.6503 21.7667L16.3669 28L17.3669 31.65L17.4336 31.9L18.3503 35.2L18.4003 35.4167V35.4333C18.4003 35.4498 18.4169 35.4833 18.4169 35.5C18.4503 35.6167 18.5003 35.7333 18.5669 35.8333C18.5836 35.8667 18.6003 35.9 18.6169 35.9333Z" fill="#B6B6FF"/>
<path id="Vector_7" d="M25.8673 20V20.0833C25.8673 20.05 25.8673 20.0333 25.8506 20H25.8673Z" fill="#E1E1FF"/>
<path id="Vector_8" d="M25.8505 19.9998C25.8671 20.0332 25.8671 20.0498 25.8671 20.0832V19.9998H25.8505ZM33.3171 19.9998H25.8671C25.8671 19.8998 25.8505 19.8165 25.8171 19.7165C25.8171 19.6665 25.8005 19.6165 25.7838 19.5665L25.5171 18.4332L24.7338 14.9998L24.3338 13.3332L24.2505 12.9498C24.0838 12.1998 23.4171 11.6665 22.6338 11.6665H25.8338C26.7171 11.6665 27.5671 11.8665 28.3338 12.2665C29.3171 12.7332 30.1671 13.4998 30.7505 14.4665L32.7005 17.6998C33.1171 18.3832 33.3338 19.1665 33.3171 19.9998Z" fill="#E1E1FF"/>
<path id="Vector_9" d="M25.8506 20C25.8673 20.0333 25.8673 20.05 25.8673 20.0833V20H25.8506Z" fill="#B6B6FF"/>
<path id="Vector_10" d="M33.3166 19.9998V20.1498C33.3166 20.1998 33.3166 20.2665 33.2999 20.3165C33.2999 20.3832 33.2833 20.4498 33.2666 20.5165C33.1999 21.2165 32.9333 21.8998 32.5166 22.4998L21.3666 35.9498C21.4166 35.8665 21.4666 35.7832 21.4999 35.6998C21.5499 35.6332 21.5666 35.5332 21.5999 35.4498L22.6166 31.8498V31.8332L23.7333 27.8832L24.1666 26.3498L25.4666 21.7665L25.7666 20.6332L25.7999 20.5498C25.7999 20.5333 25.8166 20.4998 25.8166 20.4832C25.8333 20.4332 25.8499 20.3665 25.8499 20.3165C25.8666 20.2498 25.8666 20.1665 25.8666 20.0998V19.9998H33.3166ZM25.8666 19.9998H14.2666C14.2666 19.9498 14.2833 19.8998 14.2833 19.8498C14.2833 19.8165 14.2999 19.7832 14.2999 19.7665L14.5666 18.4332L15.2499 14.9998L15.5833 13.3332L15.6499 12.9998C15.7999 12.2332 16.4833 11.6665 17.2833 11.6665H22.6333C23.4166 11.6665 24.0833 12.1998 24.2499 12.9498L24.3333 13.3332L24.7333 14.9998L25.5166 18.4332L25.7833 19.5665C25.7999 19.6165 25.8166 19.6665 25.8166 19.7165C25.8499 19.8165 25.8666 19.8998 25.8666 19.9998Z" fill="#B6B6FF"/>
<path id="Vector_11" d="M14.2666 20V20.0667C14.2666 20.05 14.2666 20.0167 14.2833 20H14.2666ZM25.8499 20C25.8666 20.0333 25.8666 20.05 25.8666 20.0833V20H25.8499Z" fill="black"/>
<g id="Group">
<path id="Vector_12" d="M20.0007 8.33325C19.0795 8.33325 18.334 7.58775 18.334 6.66659V4.99992C18.334 4.07875 19.0795 3.33325 20.0007 3.33325C20.9218 3.33325 21.6673 4.07875 21.6673 4.99992V6.66659C21.6673 7.58775 20.9218 8.33325 20.0007 8.33325Z" fill="#B6B6FF"/>
</g>
<g id="Group_2">
<path id="Vector_13" d="M31.1839 7.85002L29.5172 9.51668C29.1839 9.83335 28.7673 10 28.3339 10C27.9006 10 27.4839 9.83335 27.1506 9.51668C26.5006 8.86668 26.5006 7.80002 27.1506 7.15002L28.8173 5.48335C29.4673 4.83335 30.5339 4.83335 31.1839 5.48335C31.8339 6.13335 31.8339 7.20002 31.1839 7.85002Z" fill="#B6B6FF"/>
</g>
<g id="Group_3">
<path id="Vector_14" d="M11.6672 9.9999C11.2407 9.9999 10.8144 9.83707 10.4889 9.51157L8.82223 7.8449C8.17123 7.1939 8.17123 6.13924 8.82223 5.48807C9.47323 4.8369 10.5279 4.83707 11.1791 5.48807L12.8457 7.15474C13.4967 7.80574 13.4967 8.8604 12.8457 9.51157C12.5201 9.83707 12.0937 9.9999 11.6672 9.9999Z" fill="#B6B6FF"/>
</g>
<path id="Vector_15" opacity="0.11" d="M29.5171 9.51668C29.1838 9.83335 28.7671 10 28.3338 10V5.96668L28.8171 5.48335C29.4671 4.83335 30.5338 4.83335 31.1838 5.48335C31.8338 6.13335 31.8338 7.20002 31.1838 7.85002L29.5171 9.51668ZM33.3171 20V20.15C33.3171 20.2 33.3171 20.2667 33.3005 20.3167C33.3005 20.3833 33.2838 20.45 33.2671 20.5167C33.2005 21.2167 32.9338 21.9 32.5171 22.5L21.3671 35.95C21.3505 35.9833 21.3171 36.0333 21.2838 36.0667C21.2505 36.1 21.2338 36.1167 21.2005 36.15C21.1505 36.2 21.1171 36.25 21.0505 36.2833C20.9671 36.35 20.8838 36.4167 20.7838 36.4667L20.7671 36.4833C20.7505 36.4833 20.7338 36.4998 20.7005 36.5167C20.6005 36.55 20.5005 36.6 20.3838 36.6167C20.3671 36.6333 20.3671 36.6333 20.3505 36.6333C20.2338 36.65 20.1171 36.6667 20.0005 36.6667C19.8838 36.6667 19.7671 36.65 19.6505 36.6333C19.634 36.6333 19.6171 36.6167 19.6005 36.6167C19.5005 36.6 19.4005 36.5667 19.3171 36.5167C19.2838 36.5 19.2505 36.5 19.2338 36.4833C19.2173 36.4833 19.2173 36.4667 19.2173 36.4667C19.2006 36.4667 19.184 36.45 19.184 36.45C19.0673 36.4 18.9673 36.3167 18.884 36.2333C18.8673 36.2167 18.8506 36.2167 18.834 36.2C18.8173 36.1833 18.8006 36.15 18.784 36.1334L18.734 36.0833C18.7006 36.0333 18.6673 36 18.6173 35.9333L15.6338 32.3333C16.2171 32.1333 16.8005 31.9002 17.3671 31.65C20.0338 30.4333 22.3505 28.6 24.1671 26.35C25.6838 24.5 26.8338 22.35 27.5338 20C28.0505 18.2833 28.3338 16.4667 28.3338 14.5833V12.2667C29.3171 12.7333 30.1671 13.5 30.7505 14.4667L32.7005 17.7C33.1171 18.3833 33.3338 19.1667 33.3171 20Z" fill="black"/>
</g>
</g>
</svg>
