<svg width="40" height="40" viewBox="0 0 40 40" fill="none" xmlns="http://www.w3.org/2000/svg">
<path d="M38.4413 24.9442C38.0322 24.5271 37.4999 24.2527 36.9229 24.1615C36.3459 24.0703 35.7549 24.167 35.2371 24.4375L28.1296 27.9875C27.8605 28.8042 27.3556 29.5229 26.6786 30.0531C26.0016 30.5832 25.1828 30.9011 24.3254 30.9667L15.0754 31.6275H15.0146C14.7936 31.6352 14.5786 31.5549 14.4168 31.4041C14.2551 31.2532 14.1598 31.0444 14.1521 30.8233C14.1444 30.6023 14.2248 30.3873 14.3756 30.2255C14.5264 30.0638 14.7353 29.9686 14.9563 29.9608L15.0154 29.9567L24.1888 29.4792C24.8654 29.4299 25.4982 29.1264 25.9602 28.6296C26.4221 28.1328 26.6789 27.4796 26.6789 26.8013C26.6789 26.1229 26.4221 25.4697 25.9602 24.9729C25.4982 24.4761 24.8654 24.1726 24.1888 24.1233L15.6054 22.5633C15.2137 22.4922 14.8291 22.3862 14.4563 22.2467L9.84294 20.5167C8.86157 20.1485 7.80721 20.0169 6.76544 20.1325L1.59128 20.7075C1.38737 20.7301 1.19895 20.8271 1.0621 20.9799C0.925256 21.1327 0.849595 21.3307 0.849609 21.5358V31.6192C0.849609 31.8402 0.937407 32.0521 1.09369 32.2084C1.24997 32.3647 1.46193 32.4525 1.68294 32.4525H2.38128C3.56167 32.4526 4.72088 32.766 5.74044 33.3608L11.9646 37C13.3925 37.8328 15.0788 38.1054 16.6963 37.765L28.5788 35.265C29.5317 35.0646 30.4291 34.6578 31.2079 34.0733L38.1046 28.8958C38.4038 28.6709 38.6522 28.3854 38.8336 28.0579C39.0149 27.7304 39.125 27.3683 39.1568 26.9953C39.1886 26.6223 39.1413 26.2468 39.018 25.8934C38.8947 25.5399 38.6982 25.2165 38.4413 24.9442Z" fill="#EEBC99"/>
<path d="M24.1667 19.1663C29.2293 19.1663 33.3333 15.0623 33.3333 9.99967C33.3333 4.93706 29.2293 0.833008 24.1667 0.833008C19.1041 0.833008 15 4.93706 15 9.99967C15 15.0623 19.1041 19.1663 24.1667 19.1663Z" fill="#EFD358"/>
<path d="M24.166 17.5C22.6827 17.5 21.2326 17.0601 19.9992 16.236C18.7659 15.4119 17.8046 14.2406 17.2369 12.8701C16.6693 11.4997 16.5207 9.99168 16.8101 8.53683C17.0995 7.08197 17.8138 5.7456 18.8627 4.6967C19.9116 3.64781 21.248 2.9335 22.7028 2.64411C24.1577 2.35472 25.6657 2.50325 27.0361 3.07091C28.4066 3.63856 29.5779 4.59986 30.402 5.83323C31.2262 7.0666 31.666 8.51664 31.666 10C31.6638 11.9884 30.8729 13.8948 29.4669 15.3009C28.0608 16.7069 26.1545 17.4978 24.166 17.5Z" fill="#D8BC48"/>
<path d="M24.1654 15.8327C23.0116 15.8327 21.8838 15.4906 20.9245 14.8496C19.9653 14.2086 19.2176 13.2976 18.7761 12.2317C18.3346 11.1658 18.219 9.99288 18.4441 8.86132C18.6692 7.72977 19.2248 6.69037 20.0406 5.87456C20.8564 5.05876 21.8958 4.50318 23.0273 4.2781C24.1589 4.05302 25.3318 4.16854 26.3977 4.61005C27.4636 5.05157 28.3746 5.79924 29.0156 6.75853C29.6566 7.71781 29.9987 8.84563 29.9987 9.99935C29.9969 11.5459 29.3818 13.0286 28.2882 14.1222C27.1946 15.2158 25.7119 15.8309 24.1654 15.8327Z" fill="#EFD358"/>
<path d="M24.1671 13.3335C23.9461 13.3334 23.7342 13.2456 23.578 13.0893L21.078 10.5893C20.9217 10.433 20.834 10.2211 20.834 10.0001C20.834 9.77918 20.9217 9.56725 21.078 9.41098L23.578 6.91098C23.7342 6.75476 23.9462 6.66699 24.1671 6.66699C24.3881 6.66699 24.6 6.75476 24.7563 6.91098L27.2563 9.41098C27.4125 9.56725 27.5003 9.77918 27.5003 10.0001C27.5003 10.2211 27.4125 10.433 27.2563 10.5893L24.7563 13.0893C24.6001 13.2456 24.3881 13.3334 24.1671 13.3335Z" fill="#D8BC48"/>
</svg>
