<svg width="14" height="14" viewBox="0 0 14 14" fill="none" xmlns="http://www.w3.org/2000/svg">
<g id="lock 2">
<g id="Group">
<g id="Group_2">
<path id="Vector" d="M10.0625 4.8125H9.1875V3.0625C9.1875 1.85456 8.20794 0.875 7 0.875C5.79206 0.875 4.8125 1.85456 4.8125 3.0625V4.8125H3.9375V3.0625C3.9375 1.37112 5.30862 0 7 0C8.69137 0 10.0625 1.37112 10.0625 3.0625V4.8125Z" fill="#212121"/>
<path id="Vector_2" d="M11.5938 5.6875H2.40625C1.80206 5.6875 1.3125 6.17706 1.3125 6.78125V12.9062C1.3125 13.5104 1.80206 14 2.40625 14H11.5938C12.1979 14 12.6875 13.5104 12.6875 12.9062V6.78125C12.6875 6.17706 12.1979 5.6875 11.5938 5.6875ZM7.4375 10.8754V11.8125C7.4375 12.054 7.2415 12.25 7 12.25C6.7585 12.25 6.5625 12.054 6.5625 11.8125V10.8754C5.62669 10.6339 5.06406 9.67925 5.30556 8.74344C5.54706 7.80763 6.50169 7.245 7.4375 7.4865C8.37331 7.728 8.93594 8.68263 8.69444 9.61844C8.53519 10.2349 8.05394 10.7161 7.4375 10.8754Z" fill="#212121"/>
</g>
</g>
</g>
</svg>
