<svg width="40" height="36" viewBox="0 0 40 36" fill="none" xmlns="http://www.w3.org/2000/svg">
<path d="M25.75 1.34002C23.885 0.782516 21.9475 0.497516 20 0.500016C8.965 0.490016 0.01 9.43002 0 20.465C0 22.4125 0.28 24.35 0.84 26.215C1.155 27.275 2.13 28 3.235 28H10.87C10.7075 26.515 10.5425 24.8075 10.38 23H5.2125C5.07 22.175 5 21.3375 5 20.5C5 12.215 11.715 5.50002 20 5.50002C28.285 5.50002 35 12.215 35 20.5C35 21.3375 34.93 22.175 34.7875 23H26.02C27.2125 25.275 28.1275 27.1475 28.375 27.96C28.38 27.9725 28.38 27.985 28.3825 28H36.765C37.87 28 38.845 27.275 39.16 26.215C42.325 15.6425 36.3225 4.50502 25.75 1.34002Z" fill="#43A833"/>
<path d="M24.7827 29.0478C24.1602 26.9928 16.5127 13.4753 15.6427 11.9403C15.3577 11.4353 14.7677 11.1928 14.1927 11.3603C13.6327 11.5303 13.2677 12.0653 13.3077 12.6478C13.4377 14.4078 14.5902 29.8953 15.2127 31.9503C15.8677 34.1053 17.8552 35.4978 20.0002 35.4978C20.4802 35.4978 20.9677 35.4278 21.4502 35.2828C24.0877 34.4828 25.5802 31.6878 24.7827 29.0478Z" fill="#43A833"/>
</svg>
