<svg width="40" height="40" viewBox="0 0 40 40" fill="none" xmlns="http://www.w3.org/2000/svg">
<g id="medicine 1" clip-path="url(#clip0_5251_114483)">
<g id="Group">
<g id="Group_2">
<path id="Vector" d="M15.1832 3.51852C16.9062 1.81847 19.2317 0.868896 21.6522 0.877005C24.0727 0.885114 26.3917 1.85025 28.1033 3.56181C29.8148 5.27337 30.78 7.59241 30.7881 10.0129C30.7962 12.4334 29.8466 14.7589 28.1466 16.4819L16.4799 28.1485C14.7569 29.8486 12.4315 30.7982 10.011 30.79C7.59046 30.7819 5.27141 29.8168 3.55985 28.1052C1.84829 26.3937 0.883161 24.0746 0.875052 21.6541C0.866943 19.2336 1.81652 16.9082 3.51657 15.1852L15.1832 3.51852Z" fill="#F888C0"/>
<path id="Vector_2" d="M28.1482 3.51869C26.4292 1.7997 24.0976 0.833984 21.6666 0.833984C19.2355 0.833984 16.904 1.7997 15.1849 3.51869L9.35156 9.35203L22.3149 22.3154L28.1482 16.482C29.8672 14.763 30.8329 12.4314 30.8329 10.0004C30.8329 7.56928 29.8672 5.23777 28.1482 3.51869Z" fill="#FFE699"/>
<path id="Vector_3" d="M28.3333 39.1667C34.3164 39.1667 39.1667 34.3164 39.1667 28.3333C39.1667 22.3502 34.3164 17.5 28.3333 17.5C22.3502 17.5 17.5 22.3502 17.5 28.3333C17.5 34.3164 22.3502 39.1667 28.3333 39.1667Z" fill="#E3E3E3"/>
<path id="Vector_4" d="M5.28245 27.2137C5.17298 27.214 5.06454 27.1925 4.9634 27.1506C4.86227 27.1087 4.77046 27.0471 4.69329 26.9695C3.28878 25.5619 2.5 23.6546 2.5 21.6662C2.5 19.6777 3.28878 17.7704 4.69329 16.3628C4.85046 16.211 5.06096 16.127 5.27945 16.1289C5.49795 16.1308 5.70696 16.2185 5.86147 16.373C6.01598 16.5275 6.10362 16.7365 6.10552 16.955C6.10741 17.1735 6.02342 17.384 5.87162 17.5412C4.77936 18.6361 4.16597 20.1196 4.16597 21.6662C4.16597 23.2128 4.77936 24.6962 5.87162 25.7912C5.98813 25.9077 6.06747 26.0562 6.09961 26.2178C6.13175 26.3794 6.11524 26.547 6.05218 26.6992C5.98913 26.8515 5.88234 26.9816 5.74534 27.0732C5.60833 27.1647 5.44724 27.2136 5.28245 27.2137Z" fill="#FDDDED"/>
<path id="Vector_5" d="M22.4972 35.0008C22.3324 35.0008 22.1713 34.9519 22.0343 34.8603C21.8973 34.7688 21.7905 34.6386 21.7275 34.4864C21.6644 34.3341 21.6479 34.1666 21.6801 34.005C21.7122 33.8433 21.7915 33.6949 21.9081 33.5783L33.5747 21.9117C33.7319 21.7599 33.9424 21.6759 34.1609 21.6778C34.3794 21.6797 34.5884 21.7673 34.7429 21.9218C34.8974 22.0763 34.985 22.2853 34.9869 22.5038C34.9888 22.7223 34.9049 22.9328 34.7531 23.09L23.0864 34.7567C22.9301 34.913 22.7182 35.0008 22.4972 35.0008Z" fill="#C8C8C8"/>
</g>
</g>
</g>
<defs>
<clipPath id="clip0_5251_114483">
<rect width="40" height="40" fill="white"/>
</clipPath>
</defs>
</svg>
