<svg width="18" height="20" viewBox="0 0 18 20" fill="none" xmlns="http://www.w3.org/2000/svg">
<path d="M7.2915 17.5674C7.49644 17.9259 7.79179 18.2243 8.14808 18.4331C8.50437 18.6418 8.90915 18.7535 9.32206 18.7569C9.73498 18.7604 10.1416 18.6556 10.5013 18.4529C10.8611 18.2502 11.1614 17.9567 11.3724 17.6018" stroke="#666666" stroke-width="1.4" stroke-miterlimit="10" stroke-linecap="square"/>
<path d="M15.0892 9.51536V7.14712C15.0892 4.08575 12.4033 1.42871 9.31307 1.42871C7.79176 1.46255 6.34214 2.08197 5.26615 3.15796C4.19015 4.23396 3.57073 5.68357 3.53689 7.20489V9.51536C3.53689 12.1435 1.42859 12.5478 1.42859 14.0208C1.42859 15.3493 4.46108 16.389 9.31307 16.389C14.1651 16.389 17.1975 15.3493 17.1975 14.0208C17.1975 12.5478 15.0892 12.1435 15.0892 9.51536Z" stroke="#666666" stroke-width="1.4" stroke-miterlimit="10" stroke-linecap="square"/>
</svg>
