<svg width="14" height="12" viewBox="0 0 14 12" fill="none" xmlns="http://www.w3.org/2000/svg">
<path d="M4.2827 5.01807L4.8042 5.2794L5.46628 3.95523L8.99428 6.47523C9.05779 6.52099 9.12996 6.55333 9.20638 6.57028C9.28281 6.58723 9.36188 6.58843 9.43878 6.57382C9.51557 6.55973 9.58874 6.53037 9.65397 6.48749C9.7192 6.4446 9.77516 6.38906 9.81853 6.32415L13.3185 1.07415C13.4044 0.945432 13.4356 0.787876 13.4053 0.636144C13.375 0.484411 13.2857 0.350931 13.1569 0.265067C13.0282 0.179203 12.8707 0.147989 12.7189 0.178292C12.5672 0.208595 12.4337 0.297932 12.3479 0.42665L9.18212 5.17557L5.58878 2.6089C5.52016 2.55988 5.44173 2.52632 5.35889 2.51053C5.27605 2.49474 5.19077 2.4971 5.10893 2.51745C5.02709 2.5378 4.95063 2.57565 4.88483 2.6284C4.81903 2.68115 4.76545 2.74753 4.72778 2.82298L3.71045 4.85823C3.90886 4.87879 4.10235 4.93284 4.2827 5.01807Z" fill="#0037B7"/>
<path d="M3.08692 8.33398H1.97275L0.644501 10.9899C0.610259 11.0585 0.589856 11.1331 0.584458 11.2095C0.579059 11.286 0.588771 11.3627 0.613038 11.4354C0.637305 11.5081 0.675652 11.5753 0.72589 11.6332C0.776128 11.6911 0.837273 11.7385 0.905834 11.7727C0.974395 11.807 1.04903 11.8274 1.12548 11.8328C1.20192 11.8382 1.27868 11.8285 1.35138 11.8042C1.42407 11.7799 1.49127 11.7416 1.54914 11.6913C1.60701 11.6411 1.65443 11.58 1.68867 11.5114L3.23917 8.40982L3.08692 8.33398Z" fill="#0037B7"/>
<path d="M9.33325 10.0833C9.24278 10.0832 9.15355 10.0623 9.0725 10.0221L3.36225 7.16667H1.16659C1.01188 7.16667 0.863503 7.10521 0.754106 6.99581C0.64471 6.88642 0.583252 6.73804 0.583252 6.58333C0.583252 6.42862 0.64471 6.28025 0.754106 6.17085C0.863503 6.06146 1.01188 6 1.16659 6H3.49992C3.59041 5.99992 3.67968 6.02088 3.76067 6.06125L9.29125 8.82683L12.5095 6.68133C12.5732 6.63882 12.6447 6.60927 12.7199 6.59438C12.795 6.57949 12.8724 6.57955 12.9475 6.59456C13.0226 6.60956 13.0941 6.63922 13.1577 6.68183C13.2214 6.72445 13.2761 6.77918 13.3186 6.84292C13.3611 6.90665 13.3906 6.97814 13.4055 7.05329C13.4204 7.12844 13.4204 7.20579 13.4054 7.28092C13.3904 7.35605 13.3607 7.42749 13.3181 7.49116C13.2755 7.55483 13.2207 7.60948 13.157 7.652L9.657 9.98533C9.56113 10.0493 9.44848 10.0834 9.33325 10.0833Z" fill="#0037B7"/>
</svg>
