<svg width="20" height="21" viewBox="0 0 20 21" fill="none" xmlns="http://www.w3.org/2000/svg">
<g id="organic-2 1" clip-path="url(#clip0_5251_114644)">
<g id="Group">
<g id="Group_2">
<path id="Vector" d="M9.16797 13.3333V19.1667C10.5906 19.1667 11.9993 18.8865 13.3137 18.342C14.6281 17.7976 15.8223 16.9996 16.8283 15.9937C17.8343 14.9877 18.6322 13.7934 19.1767 12.4791C19.7211 11.1647 20.0013 9.75599 20.0013 8.33333V2.5C17.1281 2.5 14.3726 3.64137 12.341 5.67301C10.3093 7.70465 9.16797 10.4602 9.16797 13.3333Z" fill="white"/>
<path id="Vector_2" d="M0 8.33398V11.6673C0 13.6564 0.790176 15.5641 2.1967 16.9706C3.60322 18.3771 5.51088 19.1673 7.5 19.1673V15.834C7.5 13.8449 6.70982 11.9372 5.3033 10.5307C3.89678 9.12416 1.98912 8.33398 0 8.33398Z" fill="white"/>
</g>
</g>
</g>
<defs>
<clipPath id="clip0_5251_114644">
<rect width="20" height="20" fill="white" transform="translate(0 0.833984)"/>
</clipPath>
</defs>
</svg>
