<svg width="24" height="24" viewBox="0 0 24 24" fill="none" xmlns="http://www.w3.org/2000/svg">
<g clip-path="url(#clip0_60_77)">
<path d="M23.919 7.08169C23.7011 5.09557 23.1074 3.66935 22.4101 3.66935H22.3955C21.9422 3.66935 21.5337 4.27088 21.2429 5.23669C20.9516 4.27088 20.543 3.66935 20.0902 3.66935H20.0756C19.6771 3.66935 19.3129 4.13465 19.0331 4.90455V4.51302C19.0235 4.12302 18.9229 3.81659 18.7987 3.81659H17.7291C17.5982 3.81659 17.4926 4.15363 17.4926 4.5721V23.0943C17.4926 23.5131 17.5983 23.8499 17.7291 23.8499H18.7987C18.9179 23.8499 19.0161 23.5658 19.0317 23.1984L19.0312 9.90169C19.0312 9.85516 19.0317 9.812 19.0332 9.76853C19.0503 9.17496 19.1866 8.68731 19.4021 8.62608H19.5993C19.6893 8.6518 19.7653 8.75282 19.8251 8.90527C19.9183 9.14098 19.97 9.50373 19.97 9.90169L19.974 23.1329C19.974 23.5517 20.0802 23.8903 20.2105 23.8903H21.2801C21.4064 23.8903 21.5091 23.5694 21.5151 23.17L21.5146 9.88425C21.5142 9.44771 21.5775 9.05312 21.6887 8.81894C21.7435 8.70659 21.8095 8.63129 21.8854 8.60863H22.0826C22.314 8.67292 22.4539 9.23282 22.4534 9.88425L22.4575 23.0977C22.4575 23.5165 22.5636 23.8532 22.6939 23.8532H23.7635C23.8938 23.8532 24 23.5162 24 23.0977V8.88659C24 7.91741 23.9658 7.50506 23.919 7.08169ZM16.6777 3.86496H16.0659V0.694755C16.0659 0.314551 15.9693 0.0065918 15.8501 0.0065918C15.836 0.0065918 15.8224 0.0130204 15.8093 0.0209796C15.131 0.614551 15.2669 3.60996 14.0288 3.86496H13.9085C13.8903 3.86496 13.8732 3.87292 13.8566 3.88424H13.8557L13.8566 3.88578C13.7509 3.96108 13.6714 4.25955 13.6714 4.61894V8.03006C13.6714 8.44547 13.7776 8.78404 13.9084 8.78404H14.5539L14.5529 23.2474C14.5529 23.6598 14.6576 23.9934 14.7869 23.9934H15.8444C15.9732 23.9934 16.0779 23.6598 16.0779 23.2474L16.0784 8.78404H16.6776C16.8079 8.78404 16.914 8.44547 16.914 8.03006V4.61924C16.9142 4.20353 16.8081 3.86496 16.6777 3.86496Z" fill="#54C1F0"/>
<path d="M12.8292 3.86496H11.7596C11.6293 3.86496 11.5236 4.20353 11.5236 4.61894V11.6717C11.5212 12.1082 11.4105 12.4578 11.2731 12.4578H10.8253C10.6865 12.4578 10.5743 12.1018 10.5743 11.6588L10.5703 4.61894C10.5703 4.20353 10.4641 3.86496 10.3338 3.86496H9.2641C9.13325 3.86496 9.02765 4.20353 9.02765 4.61894V12.3488C9.02765 15.2849 9.68419 17.3784 10.6054 17.3784C10.6054 17.3784 11.2967 17.3784 11.3178 17.3913C11.4426 17.4363 11.5397 17.77 11.5397 18.1808C11.5397 18.5867 11.4445 18.9188 11.3213 18.9684C11.3152 18.9715 11.3097 18.9764 11.3031 18.9798L9.73891 18.9975C9.60806 18.9975 9.50246 19.3361 9.50246 19.7515V23.1608C9.50246 23.578 9.60816 23.9148 9.73891 23.9148H11.4877C12.4094 23.9148 13.0655 21.8227 13.0655 18.8852V4.61925C13.0657 4.20353 12.9601 3.86496 12.8292 3.86496ZM2.56992 3.86435H0.231936C0.10368 3.86435 0 4.19619 0 4.60394V7.94588C0 7.95231 0.00048 7.95874 0.00048 7.96517C0.00048 7.98108 0 7.99731 0 8.0117V23.1372C0 23.548 0.096576 23.8832 0.216384 23.8927H1.30618C1.43645 23.8927 1.54262 23.5557 1.54262 23.1387L1.54666 17.9552H2.57002C3.42634 17.9552 4.02307 16.0606 4.02307 13.3186V8.50731C4.02298 5.76537 3.42624 3.86435 2.56992 3.86435ZM2.47584 12.2197C2.47584 12.6608 2.36362 13.0202 2.22528 13.0202L1.54656 13.0217V8.80394H2.22528C2.36362 8.80394 2.47584 9.15996 2.47584 9.60292V12.2197ZM6.7439 3.88364H5.25974C5.12842 3.88364 5.02224 4.20139 5.02224 4.59108V5.91782C5.02224 5.92578 5.02272 5.93557 5.02272 5.94353C5.02272 5.95302 5.02224 5.96282 5.02224 5.97231V7.79006C5.02224 8.20241 5.13494 8.53915 5.27376 8.53915H6.68707C6.79872 8.59517 6.88733 8.85506 6.8999 9.26098V9.70057C6.88733 10.0872 6.79978 10.3695 6.69312 10.4016H5.99328C5.06246 10.4016 4.39939 12.3733 4.39939 15.1425V19.1083C4.39939 21.8613 4.96944 23.8202 5.89363 23.8202H7.83322C8.18141 23.8202 8.46365 22.9796 8.46365 21.9446V9.00323C8.46365 5.86517 7.95648 3.88364 6.7439 3.88364ZM6.91402 18.655C6.91402 18.6984 6.912 18.7401 6.90998 18.7802C6.90747 18.8178 6.9041 18.8549 6.8999 18.891C6.86669 19.1895 6.77309 19.4059 6.66192 19.4059H6.21667C6.07786 19.4059 5.96458 19.0688 5.96458 18.655V18.0115C5.96458 18.0035 5.9641 17.9956 5.9641 17.9873L5.96458 16.2755V15.7398L5.96506 15.7349C5.96554 15.3225 6.07776 14.9888 6.21658 14.9888H6.66182C6.80122 14.9888 6.91392 15.324 6.91392 15.7398V18.655H6.91402Z" fill="#233266"/>
</g>
<defs>
<clipPath id="clip0_60_77">
<rect width="24" height="24" fill="white"/>
</clipPath>
</defs>
</svg>