<svg width="10" height="10" viewBox="0 0 10 10" fill="none" xmlns="http://www.w3.org/2000/svg">
<g id="pen 2" clip-path="url(#clip0_1261_49403)">
<g id="Group">
<g id="Group_2">
<path id="Vector" d="M5.5129 2.23047L0.954566 6.78797C0.90856 6.83486 0.874295 6.89197 0.854566 6.95464L0.0212331 9.45464C0.00102859 9.51704 -0.0041553 9.58334 0.00610329 9.64813C0.0163619 9.71292 0.0417731 9.77438 0.0802688 9.82749C0.118765 9.8806 0.169257 9.92388 0.227637 9.95379C0.286018 9.98371 0.350636 9.99941 0.416233 9.99964C0.461026 9.99984 0.505534 9.99251 0.5479 9.97797L3.0479 9.14464C3.11056 9.12491 3.16767 9.09064 3.21457 9.04464L7.77207 4.4863L5.5129 2.23047Z" fill="#666666"/>
<path id="Vector_2" d="M9.87829 1.7881L8.21163 0.121435C8.17292 0.0826322 8.12694 0.0518465 8.07632 0.0308411C8.0257 0.00983578 7.97143 -0.000976563 7.91663 -0.000976562C7.86182 -0.000976562 7.80755 0.00983578 7.75693 0.0308411C7.70631 0.0518465 7.66033 0.0826322 7.62163 0.121435L6.39746 1.34644L8.65329 3.60227L9.87829 2.3781C9.9171 2.3394 9.94788 2.29342 9.96889 2.2428C9.98989 2.19218 10.0007 2.13791 10.0007 2.0831C10.0007 2.0283 9.98989 1.97403 9.96889 1.92341C9.94788 1.87279 9.9171 1.82681 9.87829 1.7881Z" fill="#666666"/>
</g>
</g>
</g>
<defs>
<clipPath id="clip0_1261_49403">
<rect width="10" height="10" fill="white"/>
</clipPath>
</defs>
</svg>
