<svg width="20" height="20" viewBox="0 0 20 20" fill="none" xmlns="http://www.w3.org/2000/svg">
<g id="percent-sign 3">
<g id="Group">
<g id="Group_2">
<path id="Vector" d="M14.7143 1.05548L3.55859 17.7891L5.29203 18.9447L16.4477 2.2111L14.7143 1.05548Z" fill="white"/>
<path id="Vector_2" d="M5.20964 8.95833C4.38555 8.95833 3.57997 8.71396 2.89476 8.25612C2.20956 7.79828 1.6755 7.14754 1.36014 6.38618C1.04477 5.62482 0.96226 4.78705 1.12303 3.97879C1.2838 3.17054 1.68064 2.42811 2.26336 1.84539C2.84608 1.26267 3.58851 0.865835 4.39676 0.705063C5.20502 0.544291 6.04279 0.626805 6.80415 0.94217C7.56551 1.25754 8.21625 1.79159 8.67409 2.47679C9.13193 3.162 9.3763 3.96758 9.3763 4.79167C9.37509 5.89636 8.93571 6.95547 8.15457 7.73661C7.37344 8.51774 6.31433 8.95712 5.20964 8.95833ZM5.20964 2.70833C4.79759 2.70833 4.3948 2.83052 4.0522 3.05944C3.7096 3.28836 3.44257 3.61373 3.28489 3.99441C3.12721 4.37509 3.08595 4.79398 3.16633 5.19811C3.24672 5.60223 3.44514 5.97345 3.7365 6.26481C4.02786 6.55617 4.39907 6.75459 4.8032 6.83497C5.20733 6.91536 5.62621 6.8741 6.00689 6.71642C6.38757 6.55873 6.71295 6.29171 6.94187 5.94911C7.17078 5.6065 7.29297 5.20371 7.29297 4.79167C7.29231 4.23934 7.0726 3.70982 6.68205 3.31926C6.29149 2.9287 5.76197 2.709 5.20964 2.70833Z" fill="white"/>
<path id="Vector_3" d="M14.7917 19.3744C13.9676 19.3744 13.162 19.13 12.4768 18.6721C11.7916 18.2143 11.2575 17.5636 10.9422 16.8022C10.6268 16.0408 10.5443 15.2031 10.7051 14.3948C10.8658 13.5866 11.2627 12.8441 11.8454 12.2614C12.4281 11.6787 13.1705 11.2819 13.9788 11.1211C14.787 10.9603 15.6248 11.0428 16.3862 11.3582C17.1475 11.6736 17.7983 12.2076 18.2561 12.8928C18.714 13.578 18.9583 14.3836 18.9583 15.2077C18.9571 16.3124 18.5177 17.3715 17.7366 18.1526C16.9555 18.9338 15.8964 19.3731 14.7917 19.3744ZM14.7917 13.1244C14.3796 13.1244 13.9768 13.2465 13.6342 13.4755C13.2916 13.7044 13.0246 14.0297 12.8669 14.4104C12.7092 14.7911 12.668 15.21 12.7484 15.6141C12.8288 16.0182 13.0272 16.3895 13.3185 16.6808C13.6099 16.9722 13.9811 17.1706 14.3852 17.251C14.7894 17.3314 15.2082 17.2901 15.5889 17.1324C15.9696 16.9748 16.295 16.7077 16.5239 16.3651C16.7528 16.0225 16.875 15.6197 16.875 15.2077C16.8743 14.6554 16.6546 14.1258 16.2641 13.7353C15.8735 13.3447 15.344 13.125 14.7917 13.1244Z" fill="white"/>
</g>
</g>
</g>
</svg>
