<svg width="24" height="24" viewBox="0 0 24 24" fill="none" xmlns="http://www.w3.org/2000/svg">
<g clip-path="url(#clip0_57_38)">
<path d="M23.6766 14.7574C25.1994 8.30858 21.206 1.84631 14.7572 0.323529C8.30832 -1.19925 1.84605 2.79411 0.323271 9.24295C-1.19951 15.6918 2.79385 22.1541 9.24269 23.6768C15.6915 25.1996 22.1538 21.2062 23.6766 14.7574Z" fill="#5F259F"/>
<path d="M17.4452 8.86889C17.4452 8.39977 17.0432 7.99735 16.5741 7.99735H14.9652L11.279 3.77466C10.9437 3.37261 10.4075 3.23846 9.87136 3.37261L8.59777 3.77466C8.39658 3.84169 8.3295 4.11 8.46361 4.24374L12.4855 8.06442H6.38606C6.18483 8.06442 6.05072 8.19853 6.05072 8.39977V9.06971C6.05072 9.5392 6.45314 9.9412 6.92222 9.9412H7.86042V13.1587C7.86042 15.5716 9.13402 16.9789 11.2791 16.9789C11.949 16.9789 12.4856 16.9118 13.1555 16.644V18.7886C13.1555 19.3919 13.625 19.8614 14.2282 19.8614H15.1664C15.3676 19.8614 15.5685 19.6602 15.5685 19.4589V9.87413H17.1103C17.3115 9.87413 17.4452 9.74002 17.4452 9.53921V8.86889H17.4452ZM13.1555 14.633C12.7535 14.8342 12.2173 14.9012 11.8153 14.9012C10.7425 14.9012 10.2063 14.3651 10.2063 13.1586V9.94116H13.1555V14.633Z" fill="white"/>
</g>
<defs>
<clipPath id="clip0_57_38">
<rect width="24" height="24" fill="white"/>
</clipPath>
</defs>
</svg>
