<svg width="20" height="20" viewBox="0 0 20 20" fill="none" xmlns="http://www.w3.org/2000/svg">
<path d="M7.82739 1.55995C7.82739 0.698278 7.12688 0 6.262 0H1.56493C0.700507 0 0 0.698278 0 1.55995V6.24252C0 7.1042 0.700507 7.80248 1.56493 7.80248H6.26245C7.12688 7.80248 7.82784 7.1042 7.82784 6.24252L7.82739 1.55995ZM6.42184 6.21589C6.42184 6.31836 6.33853 6.40096 6.23574 6.40096H1.55995C1.45716 6.40096 1.37385 6.3179 1.37385 6.21589V1.55454C1.37385 1.45208 1.45716 1.36947 1.55995 1.36947H6.23619C6.33898 1.36947 6.4223 1.45253 6.4223 1.55454L6.42184 6.21589Z" fill="#666666"/>
<path d="M5.39944 2.38867H2.39636V5.38219H5.39944V2.38867Z" fill="#666666"/>
<path d="M7.82739 13.7577C7.82739 12.8965 7.12688 12.1982 6.262 12.1982H1.56493C0.700507 12.1982 0 12.8965 0 13.7577V18.4408C0 19.302 0.700507 20.0003 1.56493 20.0003H6.26245C7.12688 20.0003 7.82784 19.302 7.82784 18.4408L7.82739 13.7577ZM6.42184 18.4381C6.42184 18.5405 6.34577 18.6312 6.24298 18.6312H1.55814C1.45535 18.6312 1.37385 18.5405 1.37385 18.4381V13.7672C1.37385 13.6648 1.45535 13.5673 1.55814 13.5673H6.24343C6.34577 13.5673 6.4223 13.6652 6.4223 13.7672L6.42184 18.4381Z" fill="#666666"/>
<path d="M5.39944 14.5859H2.39636V17.6115H5.39944V14.5859Z" fill="#666666"/>
<path d="M20 1.55995C20 0.698278 19.2995 0 18.435 0H13.7375C12.8731 0 12.1721 0.698278 12.1721 1.55995V6.24252C12.1721 7.1042 12.8726 7.80248 13.7375 7.80248H18.435C19.2995 7.80248 20 7.1042 20 6.24252V1.55995ZM18.5949 6.21589C18.5949 6.31836 18.5111 6.40096 18.4083 6.40096H13.7321C13.6293 6.40096 13.5464 6.3179 13.5464 6.21589V1.55454C13.5464 1.45208 13.6297 1.36947 13.7321 1.36947H18.4079C18.5111 1.36947 18.5944 1.45253 18.5944 1.55454L18.5949 6.21589Z" fill="#666666"/>
<path d="M17.6037 2.38867H14.5685V5.38219H17.6037V2.38867Z" fill="#666666"/>
<path d="M1.78267 8.69381C1.55672 8.69381 1.37378 8.87617 1.37378 9.1014V10.1337C1.37378 10.3589 1.55672 10.5408 1.78267 10.5408H2.74762V10.5788C2.74762 10.8044 2.93056 10.9868 3.15652 10.9868H5.49532V11.0247C5.49532 11.2504 5.67825 11.4323 5.90421 11.4323H6.9398C7.16576 11.4323 7.34869 11.2504 7.34869 11.0247V10.0249C7.34869 9.79968 7.16576 9.61732 6.9398 9.61732H6.42223V9.10095C6.42223 8.87572 6.23929 8.69336 6.01334 8.69336H5.45637C5.23042 8.69336 5.04748 8.87572 5.04748 9.10095V9.61732H3.22716V9.10095C3.22716 8.87572 3.04422 8.69336 2.81826 8.69336L1.78267 8.69381Z" fill="#666666"/>
<path d="M9.39277 6.69499C9.39277 6.92022 9.57571 7.10258 9.80166 7.10258H11.2842C11.5101 7.10258 11.6926 6.92022 11.6926 6.69499V5.66269C11.6926 5.43746 11.5101 5.2551 11.2842 5.2551H10.7666V2.07019H10.8364C11.0628 2.07019 11.2452 1.88784 11.2452 1.6626V1.10876C11.2452 0.883528 11.0628 0.701172 10.8364 0.701172H8.8752C8.64925 0.701172 8.46631 0.883528 8.46631 1.10876V1.66305C8.46631 1.88829 8.64925 2.07065 8.8752 2.07065H9.39277V3.53581H8.8752C8.64925 3.53581 8.46631 3.71817 8.46631 3.9434V4.02014C8.46631 4.24537 8.64925 4.42773 8.8752 4.42773H9.39277V6.69499Z" fill="#666666"/>
<path d="M10.5751 8.1781C10.5751 7.95286 10.3921 7.77051 10.1662 7.77051H9.13057C8.90462 7.77051 8.72168 7.95286 8.72168 8.1781V9.2104C8.72168 9.43563 8.90462 9.61799 9.13057 9.61799H10.1662C10.3921 9.61799 10.5751 9.43563 10.5751 9.2104V8.1781Z" fill="#666666"/>
<path d="M17.9233 12.8338H17.4062C17.1798 12.8338 16.9973 13.0162 16.9973 13.2414V15.1656C16.9973 15.3904 17.1798 15.5728 17.4062 15.5728H19.3678C19.5942 15.5728 19.7767 15.3904 19.7767 15.1656V9.10095C19.7767 8.87572 19.5942 8.69336 19.3678 8.69336H18.3322C18.1067 8.69336 17.9238 8.87572 17.9238 9.10095L17.9233 12.8338Z" fill="#666666"/>
<path d="M13.2911 11.3379H13.3612C13.5872 11.3379 13.7701 11.156 13.7701 10.9303V9.93005C13.7701 9.70482 13.5872 9.52246 13.3612 9.52246H12.3257C12.0997 9.52246 11.9168 9.70482 11.9168 9.93005V10.4464H10.0253C9.79939 10.4464 9.61646 10.6288 9.61646 10.854V13.2237C9.61646 13.449 9.79939 13.6313 10.0253 13.6313H12.8822C13.1077 13.6313 13.2906 13.449 13.2906 13.2237V11.3379H13.2911Z" fill="#666666"/>
<path d="M16.9969 9.17201V8.65564C16.9969 8.4304 16.8139 8.24805 16.588 8.24805H16.4793C16.2538 8.24805 16.0709 8.4304 16.0709 8.65564V9.17201H15.1059C14.8795 9.17201 14.697 9.35437 14.697 9.5796V11.0263C14.697 11.251 14.8795 11.4334 15.1059 11.4334H16.588C16.8139 11.4334 16.9969 11.251 16.9969 11.0263V9.17201Z" fill="#666666"/>
<path d="M14.2492 14.203H13.2843C13.0583 14.203 12.8754 14.3854 12.8754 14.6106V15.1658C12.8754 15.3906 13.0583 15.5729 13.2843 15.5729H14.2492V19.142C14.2492 19.3672 14.4322 19.5496 14.6581 19.5496H15.6615C15.8875 19.5496 16.0704 19.3672 16.0704 19.142V12.764C16.0704 12.5388 15.8875 12.3564 15.6615 12.3564H14.6581C14.4322 12.3564 14.2492 12.5388 14.2492 12.764V14.203Z" fill="#666666"/>
<path d="M9.64868 19.142C9.64868 19.3672 9.83162 19.5491 10.0576 19.5491H11.5396C11.7661 19.5491 11.9485 19.3672 11.9485 19.142V15.0566C11.9485 14.8318 11.7661 14.6494 11.5396 14.6494H10.0576C9.83162 14.6494 9.64868 14.8318 9.64868 15.0566V19.142Z" fill="#666666"/>
<path d="M16.6772 19.1422C16.6772 19.3675 16.8602 19.5494 17.0857 19.5494H18.4414C18.6669 19.5494 18.8499 19.3675 18.8499 19.1422V18.1415C18.8499 17.9167 18.6669 17.7344 18.4414 17.7344H17.0857C16.8602 17.7344 16.6772 17.9167 16.6772 18.1415V19.1422Z" fill="#666666"/>
</svg>
