<svg width="14" height="14" viewBox="0 0 14 14" fill="none" xmlns="http://www.w3.org/2000/svg">
<g id="ranking 2">
<g id="Group">
<g id="Group_2">
<path id="Vector" d="M4.28319 6.01807L4.80469 6.2794L5.46677 4.95523L8.99477 7.47523C9.05828 7.52099 9.13045 7.55333 9.20687 7.57028C9.28329 7.58723 9.36237 7.58843 9.43927 7.57382C9.51605 7.55973 9.58923 7.53037 9.65446 7.48749C9.71969 7.4446 9.77565 7.38906 9.81902 7.32415L13.319 2.07415C13.4049 1.94543 13.4361 1.78788 13.4058 1.63614C13.3755 1.48441 13.2862 1.35093 13.1574 1.26507C13.0287 1.1792 12.8712 1.14799 12.7194 1.17829C12.5677 1.20859 12.4342 1.29793 12.3484 1.42665L9.1826 6.17557L5.58927 3.6089C5.52065 3.55988 5.44222 3.52632 5.35938 3.51053C5.27654 3.49474 5.19126 3.4971 5.10942 3.51745C5.02758 3.5378 4.95112 3.57565 4.88532 3.6284C4.81952 3.68115 4.76594 3.74753 4.72827 3.82298L3.71094 5.85823C3.90935 5.87879 4.10284 5.93284 4.28319 6.01807Z" fill="#666666"/>
<path id="Vector_2" d="M3.08692 9.33398H1.97275L0.644501 11.9899C0.610259 12.0585 0.589856 12.1331 0.584458 12.2095C0.579059 12.286 0.588771 12.3627 0.613038 12.4354C0.637305 12.5081 0.675652 12.5753 0.72589 12.6332C0.776128 12.6911 0.837273 12.7385 0.905834 12.7727C0.974395 12.807 1.04903 12.8274 1.12548 12.8328C1.20192 12.8382 1.27868 12.8285 1.35138 12.8042C1.42407 12.7799 1.49127 12.7416 1.54914 12.6913C1.60701 12.6411 1.65443 12.58 1.68867 12.5114L3.23917 9.40982L3.08692 9.33398Z" fill="#666666"/>
<path id="Vector_3" d="M9.33301 11.0833C9.24254 11.0832 9.15331 11.0623 9.07226 11.0221L3.36201 8.16667H1.16634C1.01163 8.16667 0.863258 8.10521 0.753862 7.99581C0.644466 7.88642 0.583008 7.73804 0.583008 7.58333C0.583008 7.42862 0.644466 7.28025 0.753862 7.17085C0.863258 7.06146 1.01163 7 1.16634 7H3.49967C3.59017 6.99992 3.67944 7.02088 3.76042 7.06125L9.29101 9.82683L12.5093 7.68133C12.573 7.63882 12.6445 7.60927 12.7196 7.59438C12.7948 7.57949 12.8721 7.57955 12.9473 7.59456C13.0224 7.60956 13.0938 7.63922 13.1575 7.68183C13.2212 7.72445 13.2758 7.77918 13.3183 7.84292C13.3609 7.90665 13.3904 7.97814 13.4053 8.05329C13.4202 8.12844 13.4201 8.20579 13.4051 8.28092C13.3901 8.35605 13.3605 8.42749 13.3178 8.49116C13.2752 8.55483 13.2205 8.60948 13.1568 8.652L9.65676 10.9853C9.56089 11.0493 9.44823 11.0834 9.33301 11.0833Z" fill="#666666"/>
</g>
</g>
</g>
</svg>
