<svg width="210" height="20" viewBox="0 0 210 20" fill="none" xmlns="http://www.w3.org/2000/svg">
<rect x="0.995117" width="209.005" height="20" fill="#D34645"/>
<g clip-path="url(#clip0_1261_5197)">
<rect width="2" height="28" fill="#D34645"/>
<rect width="2" height="28" fill="white" fill-opacity="0.2"/>
<rect x="4" width="2" height="28" fill="#D34645"/>
<rect x="4" width="2" height="28" fill="white" fill-opacity="0.2"/>
<rect x="8" width="2" height="28" fill="#D34645"/>
<rect x="8" width="2" height="28" fill="white" fill-opacity="0.2"/>
<rect x="12" width="2" height="28" fill="#D34645"/>
<rect x="12" width="2" height="28" fill="white" fill-opacity="0.2"/>
<rect x="16" width="2" height="28" fill="#D34645"/>
<rect x="16" width="2" height="28" fill="white" fill-opacity="0.2"/>
<rect x="20" width="2" height="28" fill="#D34645"/>
<rect x="20" width="2" height="28" fill="white" fill-opacity="0.2"/>
<rect x="24" width="2" height="28" fill="#D34645"/>
<rect x="24" width="2" height="28" fill="white" fill-opacity="0.2"/>
<rect x="28" width="2" height="28" fill="#D34645"/>
<rect x="28" width="2" height="28" fill="white" fill-opacity="0.2"/>
<rect x="32" width="2" height="28" fill="#D34645"/>
<rect x="32" width="2" height="28" fill="white" fill-opacity="0.2"/>
<rect x="36" width="2" height="28" fill="#D34645"/>
<rect x="36" width="2" height="28" fill="white" fill-opacity="0.2"/>
<rect x="40" width="2" height="28" fill="#D34645"/>
<rect x="40" width="2" height="28" fill="white" fill-opacity="0.2"/>
<rect x="44" width="2" height="28" fill="#D34645"/>
<rect x="44" width="2" height="28" fill="white" fill-opacity="0.2"/>
<rect x="48" width="2" height="28" fill="#D34645"/>
<rect x="48" width="2" height="28" fill="white" fill-opacity="0.2"/>
<rect x="52" width="2" height="28" fill="#D34645"/>
<rect x="52" width="2" height="28" fill="white" fill-opacity="0.2"/>
<rect x="56" width="2" height="28" fill="#D34645"/>
<rect x="56" width="2" height="28" fill="white" fill-opacity="0.2"/>
<rect x="60" width="2" height="28" fill="#D34645"/>
<rect x="60" width="2" height="28" fill="white" fill-opacity="0.2"/>
<rect x="64" width="2" height="28" fill="#D34645"/>
<rect x="64" width="2" height="28" fill="white" fill-opacity="0.2"/>
<rect x="68" width="2" height="28" fill="#D34645"/>
<rect x="68" width="2" height="28" fill="white" fill-opacity="0.2"/>
<rect x="72" width="2" height="28" fill="#D34645"/>
<rect x="72" width="2" height="28" fill="white" fill-opacity="0.2"/>
<rect x="76" width="2" height="28" fill="#D34645"/>
<rect x="76" width="2" height="28" fill="white" fill-opacity="0.2"/>
<rect x="80" width="2" height="28" fill="#D34645"/>
<rect x="80" width="2" height="28" fill="white" fill-opacity="0.2"/>
<rect x="84" width="2" height="28" fill="#D34645"/>
<rect x="84" width="2" height="28" fill="white" fill-opacity="0.2"/>
<rect x="88" width="2" height="28" fill="#D34645"/>
<rect x="88" width="2" height="28" fill="white" fill-opacity="0.2"/>
<rect x="92" width="2" height="28" fill="#D34645"/>
<rect x="92" width="2" height="28" fill="white" fill-opacity="0.2"/>
<rect x="96" width="2" height="28" fill="#D34645"/>
<rect x="96" width="2" height="28" fill="white" fill-opacity="0.2"/>
<rect x="100" width="2" height="28" fill="#D34645"/>
<rect x="100" width="2" height="28" fill="white" fill-opacity="0.2"/>
<rect x="104" width="2" height="28" fill="#D34645"/>
<rect x="104" width="2" height="28" fill="white" fill-opacity="0.2"/>
<rect x="108" width="2" height="28" fill="#D34645"/>
<rect x="108" width="2" height="28" fill="white" fill-opacity="0.2"/>
<rect x="112" width="2" height="28" fill="#D34645"/>
<rect x="112" width="2" height="28" fill="white" fill-opacity="0.2"/>
<rect x="116" width="2" height="28" fill="#D34645"/>
<rect x="116" width="2" height="28" fill="white" fill-opacity="0.2"/>
<rect x="120" width="2" height="28" fill="#D34645"/>
<rect x="120" width="2" height="28" fill="white" fill-opacity="0.2"/>
<rect x="124" width="2" height="28" fill="#D34645"/>
<rect x="124" width="2" height="28" fill="white" fill-opacity="0.2"/>
<rect x="128" width="2" height="28" fill="#D34645"/>
<rect x="128" width="2" height="28" fill="white" fill-opacity="0.2"/>
<rect x="132" width="2" height="28" fill="#D34645"/>
<rect x="132" width="2" height="28" fill="white" fill-opacity="0.2"/>
<rect x="136" width="2" height="28" fill="#D34645"/>
<rect x="136" width="2" height="28" fill="white" fill-opacity="0.2"/>
<rect x="140" width="2" height="28" fill="#D34645"/>
<rect x="140" width="2" height="28" fill="white" fill-opacity="0.2"/>
<rect x="144" width="2" height="28" fill="#D34645"/>
<rect x="144" width="2" height="28" fill="white" fill-opacity="0.2"/>
<rect x="148" width="2" height="28" fill="#D34645"/>
<rect x="148" width="2" height="28" fill="white" fill-opacity="0.2"/>
<rect x="152" width="2" height="28" fill="#D34645"/>
<rect x="152" width="2" height="28" fill="white" fill-opacity="0.2"/>
<rect x="156" width="2" height="28" fill="#D34645"/>
<rect x="156" width="2" height="28" fill="white" fill-opacity="0.2"/>
<rect x="160" width="2" height="28" fill="#D34645"/>
<rect x="160" width="2" height="28" fill="white" fill-opacity="0.2"/>
<rect x="164" width="2" height="28" fill="#D34645"/>
<rect x="164" width="2" height="28" fill="white" fill-opacity="0.2"/>
<rect x="168" width="2" height="28" fill="#D34645"/>
<rect x="168" width="2" height="28" fill="white" fill-opacity="0.2"/>
<rect x="172" width="2" height="28" fill="#D34645"/>
<rect x="172" width="2" height="28" fill="white" fill-opacity="0.2"/>
<rect x="176" width="2" height="28" fill="#D34645"/>
<rect x="176" width="2" height="28" fill="white" fill-opacity="0.2"/>
<rect x="180" width="2" height="28" fill="#D34645"/>
<rect x="180" width="2" height="28" fill="white" fill-opacity="0.2"/>
<rect x="184" width="2" height="28" fill="#D34645"/>
<rect x="184" width="2" height="28" fill="white" fill-opacity="0.2"/>
<rect x="188" width="2" height="28" fill="#D34645"/>
<rect x="188" width="2" height="28" fill="white" fill-opacity="0.2"/>
<rect x="192" width="2" height="28" fill="#D34645"/>
<rect x="192" width="2" height="28" fill="white" fill-opacity="0.2"/>
<rect x="196" width="2" height="28" fill="#D34645"/>
<rect x="196" width="2" height="28" fill="white" fill-opacity="0.2"/>
<rect x="200" width="2" height="28" fill="#D34645"/>
<rect x="200" width="2" height="28" fill="white" fill-opacity="0.2"/>
<rect x="204" width="2" height="28" fill="#D34645"/>
<rect x="204" width="2" height="28" fill="white" fill-opacity="0.2"/>
<rect x="208" width="2" height="28" fill="#D34645"/>
<rect x="208" width="2" height="28" fill="white" fill-opacity="0.2"/>
</g>
<defs>
<clipPath id="clip0_1261_5197">
<rect width="210" height="20" fill="white"/>
</clipPath>
</defs>
</svg>
