<svg width="93" height="20" viewBox="0 0 93 20" fill="none" xmlns="http://www.w3.org/2000/svg">
<rect x="0.5" y="0.5" width="92" height="19" fill="#3FA965" stroke="#3FA965"/>
<g clip-path="url(#clip0_1261_5150)">
<rect x="1.05078" width="1" height="20" fill="#3FA965"/>
<rect x="1.05078" width="1" height="20" fill="white" fill-opacity="0.2"/>
<rect x="4.05078" width="2.02273" height="28" fill="#3FA965"/>
<rect x="4.05078" width="2.02273" height="28" fill="white" fill-opacity="0.2"/>
<rect x="8.07324" width="2.02273" height="28" fill="#3FA965"/>
<rect x="8.07324" width="2.02273" height="28" fill="white" fill-opacity="0.2"/>
<rect x="12.0967" width="2.02273" height="28" fill="#3FA965"/>
<rect x="12.0967" width="2.02273" height="28" fill="white" fill-opacity="0.2"/>
<rect x="16.1191" width="2.02273" height="28" fill="#3FA965"/>
<rect x="16.1191" width="2.02273" height="28" fill="white" fill-opacity="0.2"/>
<rect x="20.1416" width="2.02273" height="28" fill="#3FA965"/>
<rect x="20.1416" width="2.02273" height="28" fill="white" fill-opacity="0.2"/>
<rect x="24.1641" width="2.02273" height="28" fill="#3FA965"/>
<rect x="24.1641" width="2.02273" height="28" fill="white" fill-opacity="0.2"/>
<rect x="28.1875" width="2.02273" height="28" fill="#3FA965"/>
<rect x="28.1875" width="2.02273" height="28" fill="white" fill-opacity="0.2"/>
<rect x="32.21" width="2.02273" height="28" fill="#3FA965"/>
<rect x="32.21" width="2.02273" height="28" fill="white" fill-opacity="0.2"/>
<rect x="36.2324" width="2.02273" height="28" fill="#3FA965"/>
<rect x="36.2324" width="2.02273" height="28" fill="white" fill-opacity="0.2"/>
<rect x="40.2549" width="2.02273" height="28" fill="#3FA965"/>
<rect x="40.2549" width="2.02273" height="28" fill="white" fill-opacity="0.2"/>
<rect x="44.2783" width="2.02273" height="28" fill="#3FA965"/>
<rect x="44.2783" width="2.02273" height="28" fill="white" fill-opacity="0.2"/>
<rect x="48.3008" width="2.02273" height="28" fill="#3FA965"/>
<rect x="48.3008" width="2.02273" height="28" fill="white" fill-opacity="0.2"/>
<rect x="52.3232" width="2.02273" height="28" fill="#3FA965"/>
<rect x="52.3232" width="2.02273" height="28" fill="white" fill-opacity="0.2"/>
<rect x="56.3467" width="2.02273" height="28" fill="#3FA965"/>
<rect x="56.3467" width="2.02273" height="28" fill="white" fill-opacity="0.2"/>
<rect x="60.3691" width="2.02273" height="28" fill="#3FA965"/>
<rect x="60.3691" width="2.02273" height="28" fill="white" fill-opacity="0.2"/>
<rect x="64.3916" width="2.02273" height="28" fill="#3FA965"/>
<rect x="64.3916" width="2.02273" height="28" fill="white" fill-opacity="0.2"/>
<rect x="68.4141" width="2.02273" height="28" fill="#3FA965"/>
<rect x="68.4141" width="2.02273" height="28" fill="white" fill-opacity="0.2"/>
<rect x="72.4375" width="2.02273" height="28" fill="#3FA965"/>
<rect x="72.4375" width="2.02273" height="28" fill="white" fill-opacity="0.2"/>
<rect x="76.46" width="2.02273" height="28" fill="#3FA965"/>
<rect x="76.46" width="2.02273" height="28" fill="white" fill-opacity="0.2"/>
<rect x="80.4824" width="2.02273" height="28" fill="#3FA965"/>
<rect x="80.4824" width="2.02273" height="28" fill="white" fill-opacity="0.2"/>
<rect x="84.5049" width="2.02273" height="28" fill="#3FA965"/>
<rect x="84.5049" width="2.02273" height="28" fill="white" fill-opacity="0.2"/>
<rect x="88.5283" width="2.02273" height="28" fill="#3FA965"/>
<rect x="88.5283" width="2.02273" height="28" fill="white" fill-opacity="0.2"/>
<rect x="92.5508" width="2.02273" height="28" fill="#3FA965"/>
<rect x="92.5508" width="2.02273" height="28" fill="white" fill-opacity="0.2"/>
</g>
<defs>
<clipPath id="clip0_1261_5150">
<rect width="91.9492" height="20" fill="white" transform="translate(1.05078)"/>
</clipPath>
</defs>
</svg>
