<svg width="14" height="14" viewBox="0 0 14 14" fill="none" xmlns="http://www.w3.org/2000/svg">
<g id="reload 1" clip-path="url(#clip0_6363_43240)">
<g id="Group">
<g id="Group_2">
<path id="Vector" d="M11.6113 1.45117L11.9834 4.41006L9.07812 3.60054" stroke="#666666" stroke-width="1.4" stroke-miterlimit="10" stroke-linecap="square"/>
<path id="Vector_2" d="M11.9855 4.41065C11.406 3.29436 10.4685 2.40496 9.32331 1.88503C8.17809 1.36509 6.89146 1.24474 5.66967 1.54325C4.44789 1.84177 3.36172 2.54187 2.58528 3.53132C1.80885 4.52077 1.38712 5.74227 1.3877 6.99999" stroke="#666666" stroke-width="1.4" stroke-miterlimit="10"/>
<path id="Vector_3" d="M2.3887 12.5487L2.0166 9.58984L4.92189 10.3994" stroke="#666666" stroke-width="1.4" stroke-miterlimit="10" stroke-linecap="square"/>
<path id="Vector_4" d="M2.0166 9.58934C2.59571 10.7063 3.53321 11.5964 4.67871 12.1168C5.82421 12.6372 7.1113 12.7578 8.33353 12.4592C9.55576 12.1606 10.6423 11.4602 11.4188 10.4702C12.1953 9.48026 12.6168 8.25817 12.6157 7" stroke="#666666" stroke-width="1.4" stroke-miterlimit="10"/>
</g>
</g>
</g>
<defs>
<clipPath id="clip0_6363_43240">
<rect width="14" height="14" fill="white"/>
</clipPath>
</defs>
</svg>
