<svg width="40" height="40" viewBox="0 0 40 40" fill="none" xmlns="http://www.w3.org/2000/svg">
<g id="repeat 1" clip-path="url(#clip0_5074_23936)">
<g id="Group">
<g id="Group_2">
<path id="Vector" d="M19.9993 25.8334C23.221 25.8334 25.8327 23.2217 25.8327 20.0001C25.8327 16.7784 23.221 14.1667 19.9993 14.1667C16.7777 14.1667 14.166 16.7784 14.166 20.0001C14.166 23.2217 16.7777 25.8334 19.9993 25.8334Z" fill="#FF7163"/>
<path id="Vector_2" d="M4.16634 20C4.16384 17.1659 4.92281 14.3831 6.36388 11.9426C7.80496 9.50214 9.87521 7.49365 12.3582 6.12714C14.8412 4.76062 17.6457 4.08627 20.4785 4.17459C23.3113 4.26291 26.0683 5.11066 28.4613 6.6292L25.9372 8.77003C25.8217 8.86774 25.735 8.99504 25.6864 9.13829C25.6377 9.28153 25.629 9.4353 25.6611 9.58313C25.6932 9.73095 25.765 9.86724 25.8687 9.97739C25.9723 10.0875 26.1041 10.1674 26.2497 10.2084L35.3055 12.7317C35.3781 12.7524 35.4533 12.7627 35.5288 12.7625C35.7499 12.7625 35.9618 12.6747 36.1181 12.5185C36.2744 12.3622 36.3622 12.1502 36.3622 11.9292C36.3621 11.8944 36.3598 11.8596 36.3555 11.825L35.1997 2.60253C35.1811 2.4534 35.1225 2.31207 35.0301 2.19353C34.9377 2.07498 34.815 1.98363 34.6749 1.92914C34.5348 1.87465 34.3826 1.85906 34.2344 1.884C34.0862 1.90895 33.9475 1.97352 33.833 2.07087L31.1097 4.3817C28.2426 2.34221 24.8695 1.13128 21.3599 0.881583C17.8503 0.631891 14.3397 1.35308 11.2127 2.96612C8.08579 4.57916 5.4632 7.02181 3.63234 10.0264C1.80147 13.031 0.832988 16.4816 0.833008 20C0.833008 20.4421 1.0086 20.866 1.32116 21.1785C1.63372 21.4911 2.05765 21.6667 2.49967 21.6667C2.9417 21.6667 3.36563 21.4911 3.67819 21.1785C3.99075 20.866 4.16634 20.4421 4.16634 20Z" fill="#6D82EE"/>
<path id="Vector_3" d="M37.4994 18.3333C37.0574 18.3333 36.6335 18.5088 36.3209 18.8214C36.0084 19.134 35.8328 19.5579 35.8328 19.9999C35.8354 22.8341 35.0766 25.6169 33.6357 28.0574C32.1947 30.4979 30.1245 32.5064 27.6416 33.873C25.1586 35.2395 22.3541 35.9139 19.5214 35.8255C16.6886 35.7372 13.9316 34.8894 11.5386 33.3708L14.0619 31.2299C14.1774 31.1322 14.2641 31.0049 14.3128 30.8617C14.3614 30.7184 14.3701 30.5646 14.338 30.4168C14.3059 30.269 14.2341 30.1327 14.1305 30.0226C14.0268 29.9124 13.8951 29.8326 13.7494 29.7916L4.69028 27.2683C4.55802 27.2315 4.41873 27.228 4.28478 27.258C4.15084 27.288 4.02639 27.3507 3.92249 27.4404C3.81859 27.5301 3.73847 27.6441 3.68923 27.7723C3.64 27.9004 3.62318 28.0387 3.64028 28.1749L4.79944 37.3974C4.81816 37.5464 4.87678 37.6876 4.96912 37.806C5.06145 37.9244 5.18406 38.0156 5.32398 38.0701C5.46391 38.1246 5.61595 38.1402 5.76404 38.1154C5.91213 38.0906 6.05076 38.0262 6.16528 37.9291L8.88944 35.6183C11.7565 37.6577 15.1297 38.8687 18.6393 39.1184C22.1489 39.3681 25.6595 38.6469 28.7864 37.0338C31.9133 35.4208 34.5359 32.9781 36.3668 29.9736C38.1976 26.969 39.1661 23.5184 39.1661 19.9999C39.1661 19.5579 38.9905 19.134 38.678 18.8214C38.3654 18.5088 37.9415 18.3333 37.4994 18.3333Z" fill="#213597"/>
</g>
</g>
</g>
<defs>
<clipPath id="clip0_5074_23936">
<rect width="40" height="40" fill="white"/>
</clipPath>
</defs>
</svg>
