<svg width="8" height="11" viewBox="0 0 8 11" fill="none" xmlns="http://www.w3.org/2000/svg">
<path d="M7.029 3.25426L6.68099 4.45739H0.188093L0.531133 3.25426H7.029ZM3.90187 11L0.317354 6.63991L0.30244 5.71023H2.08227C2.53303 5.71023 2.91418 5.64228 3.22574 5.50639C3.5406 5.3705 3.77924 5.17164 3.94164 4.9098C4.10736 4.64796 4.19022 4.32315 4.19022 3.93537C4.19022 3.36198 4.01953 2.90956 3.67815 2.57812C3.33677 2.24337 2.80481 2.07599 2.08227 2.07599H0.188093L0.541076 0.818182H2.08227C2.90092 0.818182 3.57375 0.950757 4.10074 1.21591C4.63104 1.47775 5.02545 1.84067 5.28397 2.30469C5.5425 2.7687 5.67176 3.29901 5.67176 3.8956C5.67176 4.43253 5.56073 4.9214 5.33866 5.36222C5.11991 5.79972 4.77024 6.15601 4.28966 6.43111C3.80907 6.70289 3.17602 6.85369 2.39051 6.88352L2.34576 6.89347L5.63696 10.9155V11H3.90187ZM7.029 0.818182L6.68099 2.03125L1.51551 1.99645L1.86352 0.818182H7.029Z" fill="#666666"/>
</svg>
