<svg width="17" height="16" viewBox="0 0 17 16" fill="none" xmlns="http://www.w3.org/2000/svg">
<path fill-rule="evenodd" clip-rule="evenodd" d="M10.8333 6.75002C11.4615 6.74991 12.0729 6.54712 12.5766 6.17178C13.0803 5.79644 13.4494 5.26859 13.6292 4.66668H15.8333C16.0543 4.66668 16.2663 4.57889 16.4226 4.42261C16.5789 4.26633 16.6667 4.05436 16.6667 3.83335C16.6667 3.61234 16.5789 3.40038 16.4226 3.24409C16.2663 3.08781 16.0543 3.00002 15.8333 3.00002H13.6292C13.4491 2.39842 13.0799 1.87093 12.5762 1.49591C12.0725 1.12089 11.4613 0.918335 10.8333 0.918335C10.2054 0.918335 9.59416 1.12089 9.09048 1.49591C8.58681 1.87093 8.21753 2.39842 8.0375 3.00002H0.833333C0.61232 3.00002 0.400358 3.08781 0.244078 3.24409C0.0877973 3.40038 0 3.61234 0 3.83335C0 4.05436 0.0877973 4.26633 0.244078 4.42261C0.400358 4.57889 0.61232 4.66668 0.833333 4.66668H8.0375C8.21723 5.26859 8.58638 5.79644 9.09009 6.17178C9.59379 6.54712 10.2052 6.74991 10.8333 6.75002ZM0.833333 11.3334C0.61232 11.3334 0.400358 11.4211 0.244078 11.5774C0.0877973 11.7337 0 11.9457 0 12.1667C0 12.3877 0.0877973 12.5997 0.244078 12.7559C0.400358 12.9122 0.61232 13 0.833333 13H2.62083C2.80086 13.6016 3.17014 14.1291 3.67382 14.5041C4.1775 14.8791 4.78871 15.0817 5.41667 15.0817C6.04463 15.0817 6.65584 14.8791 7.15951 14.5041C7.66319 14.1291 8.03247 13.6016 8.2125 13H15.8333C16.0543 13 16.2663 12.9122 16.4226 12.7559C16.5789 12.5997 16.6667 12.3877 16.6667 12.1667C16.6667 11.9457 16.5789 11.7337 16.4226 11.5774C16.2663 11.4211 16.0543 11.3334 15.8333 11.3334H8.2125C8.03247 10.7317 7.66319 10.2043 7.15951 9.82924C6.65584 9.45422 6.04463 9.25167 5.41667 9.25167C4.78871 9.25167 4.1775 9.45422 3.67382 9.82924C3.17014 10.2043 2.80086 10.7317 2.62083 11.3334H0.833333Z" fill="#121212"/>
</svg>
