<svg width="24" height="24" viewBox="0 0 24 24" fill="none" xmlns="http://www.w3.org/2000/svg">
<rect width="24" height="24" rx="4" fill="#FF1717"/>
<path d="M11.8906 16.1406C11.1953 16.1406 10.5957 16.0273 10.0918 15.8008C9.58789 15.5742 9.19727 15.25 8.91992 14.8281C8.64648 14.4062 8.50391 13.8984 8.49219 13.3047H9.95703C9.97266 13.6406 10.0605 13.9258 10.2207 14.1602C10.3848 14.3945 10.6094 14.5723 10.8945 14.6934C11.1797 14.8145 11.5117 14.875 11.8906 14.875C12.2539 14.875 12.5723 14.8203 12.8457 14.7109C13.123 14.6016 13.3379 14.4492 13.4902 14.2539C13.6465 14.0586 13.7246 13.8301 13.7246 13.5684C13.7246 13.3457 13.6621 13.1562 13.5371 13C13.416 12.8438 13.2363 12.7109 12.998 12.6016C12.7598 12.4922 12.4609 12.3945 12.1016 12.3086L11.1289 12.0684C10.3281 11.877 9.72266 11.5898 9.3125 11.207C8.90234 10.8242 8.69727 10.3242 8.69727 9.70703C8.69727 9.19141 8.83203 8.74219 9.10156 8.35938C9.37109 7.97266 9.74414 7.67383 10.2207 7.46289C10.6973 7.24805 11.2461 7.14062 11.8672 7.14062C12.4961 7.14062 13.043 7.25 13.5078 7.46875C13.9766 7.6875 14.3418 7.99414 14.6035 8.38867C14.8691 8.7832 15.0098 9.24805 15.0254 9.7832H13.6016C13.5664 9.34961 13.3906 9.01172 13.0742 8.76953C12.7617 8.52734 12.3535 8.40625 11.8496 8.40625C11.5176 8.40625 11.2266 8.45898 10.9766 8.56445C10.7266 8.66602 10.5312 8.81055 10.3906 8.99805C10.25 9.18164 10.1797 9.39258 10.1797 9.63086C10.1797 9.79883 10.2168 9.94727 10.291 10.0762C10.3652 10.2012 10.4707 10.3125 10.6074 10.4102C10.748 10.5039 10.9141 10.5879 11.1055 10.6621C11.3008 10.7324 11.5156 10.7969 11.75 10.8555L12.6172 11.0664C13.0039 11.1562 13.3555 11.2695 13.6719 11.4062C13.9883 11.543 14.2598 11.7109 14.4863 11.9102C14.7168 12.1055 14.8926 12.3379 15.0137 12.6074C15.1387 12.873 15.2012 13.1797 15.2012 13.5273C15.2012 14.0469 15.0684 14.5039 14.8027 14.8984C14.5371 15.2891 14.1562 15.5938 13.6602 15.8125C13.168 16.0312 12.5781 16.1406 11.8906 16.1406Z" fill="white"/>
</svg>
