<svg width="40" height="40" viewBox="0 0 40 40" fill="none" xmlns="http://www.w3.org/2000/svg">
<path d="M14.4717 6.84928C14.2925 6.3111 14.1928 5.74962 14.1759 5.18262C10.766 6.38853 7.81293 8.6205 5.72235 11.572C3.63177 14.5235 2.50615 18.0499 2.50008 21.6668C2.49196 24.4025 3.13223 27.1013 4.36841 29.5418L4.74341 30.2868L6.23258 29.5368L5.85591 28.7934C4.7384 26.5845 4.15957 24.1423 4.16674 21.6668C4.17221 18.4417 5.16176 15.295 7.00317 12.6473C8.84457 9.99954 11.4501 7.97679 14.4717 6.84928Z" fill="#D37FF0"/>
<path d="M34.1325 28.8613L33.7159 29.5822C32.5668 31.5763 30.9962 33.2956 29.1138 34.6199C27.2314 35.9442 25.0827 36.8417 22.8176 37.2496C20.5524 37.6574 18.2256 37.5659 15.9995 36.9814C13.7734 36.3969 11.7017 35.3335 9.92919 33.8655C9.55224 34.2906 9.11477 34.6578 8.63086 34.9555C10.5816 36.628 12.877 37.85 15.3537 38.5345C17.8304 39.219 20.4275 39.3492 22.9602 38.9158C25.493 38.4824 27.899 37.4961 30.0072 36.027C32.1154 34.558 33.8739 32.6423 35.1575 30.4163L35.5742 29.6947L34.1325 28.8613Z" fill="#D37FF0"/>
<path d="M5.5651 34.1663C7.86629 34.1663 9.73177 32.3009 9.73177 29.9997C9.73177 27.6985 7.86629 25.833 5.5651 25.833C3.26392 25.833 1.39844 27.6985 1.39844 29.9997C1.39844 32.3009 3.26392 34.1663 5.5651 34.1663Z" fill="#645AED"/>
<path d="M35.8327 21.666C35.8298 22.5478 35.7537 23.4277 35.6052 24.2969C36.1613 24.4101 36.6978 24.6041 37.1977 24.8727C37.6734 22.3463 37.5858 19.7459 36.941 17.2573C36.2963 14.7686 35.1103 12.4528 33.4678 10.4751C31.8252 8.49746 29.7664 6.90662 27.4383 5.81606C25.1102 4.7255 22.5702 4.1621 19.9993 4.16604H19.166V5.8327H19.9993C24.1972 5.83733 28.2218 7.50697 31.1901 10.4753C34.1584 13.4436 35.828 17.4682 35.8327 21.666Z" fill="#D37FF0"/>
<path d="M34.4342 34.1663C36.7354 34.1663 38.6009 32.3009 38.6009 29.9997C38.6009 27.6985 36.7354 25.833 34.4342 25.833C32.1331 25.833 30.2676 27.6985 30.2676 29.9997C30.2676 32.3009 32.1331 34.1663 34.4342 34.1663Z" fill="#645AED"/>
<path d="M19.9987 9.16634C22.2999 9.16634 24.1654 7.30086 24.1654 4.99967C24.1654 2.69849 22.2999 0.833008 19.9987 0.833008C17.6975 0.833008 15.832 2.69849 15.832 4.99967C15.832 7.30086 17.6975 9.16634 19.9987 9.16634Z" fill="#645AED"/>
</svg>
