<svg width="8" height="8" viewBox="0 0 8 8" fill="none" xmlns="http://www.w3.org/2000/svg">
<g id="triangle-down 1">
<g id="Group">
<g id="Group_2">
<path id="Vector" d="M7.66653 1.33398H0.333198C0.272491 1.33401 0.212942 1.35061 0.16098 1.382C0.109017 1.41339 0.0666131 1.45838 0.0383443 1.5121C0.0100756 1.56582 -0.00298468 1.62625 0.000572972 1.68685C0.00413063 1.74746 0.0241711 1.80594 0.0585317 1.85598L3.7252 7.18932C3.75583 7.23387 3.79684 7.2703 3.84469 7.29547C3.89254 7.32064 3.9458 7.33379 3.99987 7.33379C4.05393 7.33379 4.10719 7.32064 4.15504 7.29547C4.20289 7.2703 4.2439 7.23387 4.27453 7.18932L7.9412 1.85598C7.97556 1.80594 7.9956 1.74746 7.99916 1.68685C8.00272 1.62625 7.98965 1.56582 7.96139 1.5121C7.93312 1.45838 7.89071 1.41339 7.83875 1.382C7.78679 1.35061 7.72724 1.33401 7.66653 1.33398Z" fill="#666666"/>
</g>
</g>
</g>
</svg>
