<svg width="14" height="10" viewBox="0 0 14 10" fill="none" xmlns="http://www.w3.org/2000/svg">
<rect width="14" height="10" rx="5" fill="#FFB038"/>
<path d="M4.25 6C4.80228 6 5.25 5.55228 5.25 5C5.25 4.44772 4.80228 4 4.25 4C3.69772 4 3.25 4.44772 3.25 5C3.25 5.55228 3.69772 6 4.25 6Z" fill="white"/>
<path d="M7.25 6C7.80228 6 8.25 5.55228 8.25 5C8.25 4.44772 7.80228 4 7.25 4C6.69772 4 6.25 4.44772 6.25 5C6.25 5.55228 6.69772 6 7.25 6Z" fill="white"/>
<path d="M10.25 6C10.8023 6 11.25 5.55228 11.25 5C11.25 4.44772 10.8023 4 10.25 4C9.69772 4 9.25 4.44772 9.25 5C9.25 5.55228 9.69772 6 10.25 6Z" fill="white"/>
</svg>
