<svg width="88" height="88" viewBox="0 0 88 88" fill="none" xmlns="http://www.w3.org/2000/svg">
<g id="white-house 1">
<g id="Group">
<g id="Group_2">
<path id="Vector" d="M64.1641 82.5003V49.5003C64.1641 49.0141 64.3572 48.5478 64.701 48.204C65.0448 47.8601 65.5112 47.667 65.9974 47.667H82.4974C82.9836 47.667 83.4499 47.8601 83.7938 48.204C84.1376 48.5478 84.3307 49.0141 84.3307 49.5003V82.5003C84.3307 82.9866 84.1376 83.4529 83.7938 83.7967C83.4499 84.1405 82.9836 84.3337 82.4974 84.3337H65.9974C65.5112 84.3337 65.0448 84.1405 64.701 83.7967C64.3572 83.4529 64.1641 82.9866 64.1641 82.5003Z" fill="#B3B3B3"/>
<path id="Vector_2" d="M21.9974 84.3337H5.4974C5.01117 84.3337 4.54485 84.1405 4.20103 83.7967C3.85722 83.4529 3.66406 82.9866 3.66406 82.5003V49.5003C3.66406 49.0141 3.85722 48.5478 4.20103 48.204C4.54485 47.8601 5.01117 47.667 5.4974 47.667H21.9974C22.4836 47.667 22.9499 47.8601 23.2938 48.204C23.6376 48.5478 23.8307 49.0141 23.8307 49.5003V82.5003C23.8307 82.9866 23.6376 83.4529 23.2938 83.7967C22.9499 84.1405 22.4836 84.3337 21.9974 84.3337Z" fill="#B3B3B3"/>
<path id="Vector_3" d="M65.9974 84.3333H21.9974C21.5112 84.3333 21.0449 84.1402 20.701 83.7964C20.3572 83.4525 20.1641 82.9862 20.1641 82.5V40.3333C20.1641 39.8471 20.3572 39.3808 20.701 39.037C21.0449 38.6932 21.5112 38.5 21.9974 38.5H65.9974C66.4836 38.5 66.9499 38.6932 67.2938 39.037C67.6376 39.3808 67.8307 39.8471 67.8307 40.3333V82.5C67.8307 82.9862 67.6376 83.4525 67.2938 83.7964C66.9499 84.1402 66.4836 84.3333 65.9974 84.3333Z" fill="#B3B3B3"/>
<path id="Vector_4" d="M43.9974 25.6667C43.5112 25.6667 43.0448 25.4735 42.701 25.1297C42.3572 24.7859 42.1641 24.3196 42.1641 23.8333V1.83333C42.1641 1.3471 42.3572 0.880787 42.701 0.536971C43.0448 0.193154 43.5112 0 43.9974 0C44.4836 0 44.9499 0.193154 45.2938 0.536971C45.6376 0.880787 45.8307 1.3471 45.8307 1.83333V23.8333C45.8307 24.3196 45.6376 24.7859 45.2938 25.1297C44.9499 25.4735 44.4836 25.6667 43.9974 25.6667Z" fill="#4C4C4C"/>
<path id="Vector_5" d="M60.4987 16.5003H45.832V3.66699H60.4987C60.9849 3.66699 61.4512 3.86015 61.7951 4.20396C62.1389 4.54778 62.332 5.0141 62.332 5.50033V14.667C62.332 15.1532 62.1389 15.6195 61.7951 15.9634C61.4512 16.3072 60.9849 16.5003 60.4987 16.5003Z" fill="#F74B3B"/>
<path id="Vector_6" d="M73.3302 42.167H14.6635C14.2656 42.1666 13.8786 42.0367 13.561 41.797C13.2433 41.5573 13.0123 41.2208 12.9028 40.8382C12.7933 40.4556 12.8112 40.0478 12.9539 39.6763C13.0966 39.3049 13.3563 38.9899 13.6937 38.779L43.027 20.4457C43.3184 20.2636 43.6551 20.167 43.9987 20.167C44.3423 20.167 44.679 20.2636 44.9704 20.4457L74.3037 38.779C74.6414 38.9901 74.9012 39.3054 75.0438 39.6772C75.1864 40.049 75.2041 40.4572 75.0941 40.84C74.9841 41.2227 74.7525 41.5593 74.4342 41.7987C74.116 42.0381 73.7285 42.1674 73.3302 42.167Z" fill="#E3E3E3"/>
<path id="Vector_7" d="M25.6654 42.167H18.332V84.3337H25.6654V42.167Z" fill="#E3E3E3"/>
<path id="Vector_8" d="M69.6654 42.167H62.332V84.3337H69.6654V42.167Z" fill="#E3E3E3"/>
<path id="Vector_9" d="M40.3333 42.167H33V84.3337H40.3333V42.167Z" fill="#E3E3E3"/>
<path id="Vector_10" d="M54.9974 42.167H47.6641V84.3337H54.9974V42.167Z" fill="#E3E3E3"/>
<path id="Vector_11" d="M69.6654 80.667H18.332V84.3337H69.6654V80.667Z" fill="#E3E3E3"/>
<path id="Vector_12" d="M26.2411 84.3338C27.0736 82.5944 27.5035 80.6897 27.4987 78.7614C27.4939 76.833 27.0545 74.9305 26.2134 73.1953C25.3722 71.46 24.1508 69.9367 22.6399 68.7384C21.129 67.5401 19.3675 66.6977 17.4863 66.2738C15.6051 65.85 13.6526 65.8555 11.7738 66.29C9.89501 66.7245 8.1383 67.5768 6.63421 68.7836C5.13012 69.9903 3.91732 71.5206 3.08595 73.2605C2.25458 75.0005 1.82601 76.9054 1.8321 78.8338C1.83393 80.7382 2.26374 82.6178 3.08976 84.3338H26.2411Z" fill="#49C549"/>
<path id="Vector_13" d="M61.7577 84.3329C60.8213 82.3767 60.396 80.215 60.5215 78.0499C60.647 75.8847 61.3191 73.7866 62.4752 71.9516C63.6312 70.1166 65.2335 68.6046 67.1323 67.5566C69.0311 66.5086 71.1645 65.959 73.3333 65.959C75.5021 65.959 77.6356 66.5086 79.5344 67.5566C81.4332 68.6046 83.0354 70.1166 84.1915 71.9516C85.3475 73.7866 86.0197 75.8847 86.1452 78.0499C86.2706 80.215 85.8453 82.3767 84.909 84.3329H61.7577Z" fill="#49C549"/>
<path id="Vector_14" d="M25.6654 42.167H18.332V47.667H25.6654V42.167Z" fill="#C8C8C8"/>
<path id="Vector_15" d="M40.3333 42.167H33V47.667H40.3333V42.167Z" fill="#C8C8C8"/>
<path id="Vector_16" d="M54.9974 42.167H47.6641V47.667H54.9974V42.167Z" fill="#C8C8C8"/>
<path id="Vector_17" d="M32.9974 42.167H25.6641V47.667H32.9974V42.167Z" fill="#949494"/>
<path id="Vector_18" d="M47.6654 42.167H40.332V47.667H47.6654V42.167Z" fill="#949494"/>
<path id="Vector_19" d="M62.3333 42.167H55V47.667H62.3333V42.167Z" fill="#949494"/>
<path id="Vector_20" d="M69.6654 42.167H62.332V47.667H69.6654V42.167Z" fill="#C8C8C8"/>
</g>
</g>
</g>
</svg>
