<svg width="172" height="82" viewBox="0 0 172 82" fill="none" xmlns="http://www.w3.org/2000/svg">
<path d="M51.2 39.6C51.5 46.9 55.1 50.2 61.4 50.2C66 50.2 69.7 47.4 70.4 44.8H80.5C77.3 54.6 70.4 58.8 61 58.8C47.9 58.8 39.7 49.8 39.7 36.9C39.7 24.4 48.3 14.9 61 14.9C75.3 14.8 82.1 26.7 81.3 39.6H51.2ZM69.8 32.3C68.7 26.5 66.2 23.4 60.7 23.4C53.4 23.4 51.3 29 51.2 32.3H69.8Z" fill="#0037B7"/>
<path d="M37.4 22.2L0 10.2V20.7L25.9 29L0 37.4V38.3V47.8V47.9L26.7 39.3L37.4 35.9V22.3V22.2Z" fill="#0037B7"/>
<path d="M37.3 47.9H0V57.6H37.3V47.9Z" fill="#0037B7"/>
<path d="M108.5 14.8C103.3 14.8 98.2 16.7 95.4 21H95.2V0L83.8 3.7V57.6H94.7V52.3H94.9C97.4 56.9 102.5 58.8 108.6 58.8C116.9 58.8 125.9 52.1 125.9 36.8C125.8 21.5 116.8 14.8 108.5 14.8ZM104.6 50.1C97.8 50.1 94.8 43.7 94.8 36.8C94.8 29.8 97.8 23.4 104.6 23.4C111.4 23.4 114.4 29.8 114.4 36.8C114.3 43.8 111.4 50.1 104.6 50.1Z" fill="#0037B7"/>
<path d="M155.9 37.8C155.9 46.3 153.2 49.7 147 49.7C141.7 49.7 139.7 46.3 139.7 39.5V15.9L128.2 19.6V41.6C128.2 51.9 131.3 58.8 143.4 58.8C148.2 58.8 153.2 56.5 156.1 51.9H156.3V57.7H167.2V15.9L155.7 19.6L155.9 37.8Z" fill="#0037B7"/>
<path d="M0.200012 69.5H5.60001C7.10001 69.5 8.20001 69.9 9.00001 70.7C9.70001 71.4 10 72.3 10 73.4C10 75.3 9.00001 76.5 7.50001 77L10.4 81.2H7.40001L4.90001 77.4H2.90001V81.2H0.300012L0.200012 69.5ZM5.40001 75.2C6.70001 75.2 7.40001 74.5 7.40001 73.5C7.40001 72.4 6.60001 71.8 5.40001 71.8H2.80001V75.2H5.40001Z" fill="#0037B7"/>
<path d="M12.3 69.5H21.2V71.8H14.9V74.1H20.4V76.4H14.9V78.9H21.3V81.2H12.3V69.5Z" fill="#0037B7"/>
<path d="M23.6 69.5H26.1V78.8H32V81.2H23.6V69.5Z" fill="#0037B7"/>
<path d="M36.6 69.5H34V81.2H36.6V69.5Z" fill="#0037B7"/>
<path d="M43.6 69.4H46L51 81.2H48.3L47.2 78.6H42.2L41.1 81.2H38.5L43.6 69.4ZM46.3 76.3L44.7 72.5L43.1 76.3H46.3Z" fill="#0037B7"/>
<path d="M52.8 69.5H58.2C59.5 69.5 60.6 69.9 61.3 70.5C61.8 71 62.1 71.7 62.1 72.5C62.1 73.8 61.4 74.6 60.6 75C62 75.5 62.8 76.3 62.8 77.9C62.8 80 61.1 81.1 58.4 81.1H52.8V69.5ZM57.7 74.2C58.8 74.2 59.6 73.8 59.6 73C59.6 72.2 59 71.8 57.9 71.8H55.4V74.3L57.7 74.2ZM58.4 78.9C59.5 78.9 60.2 78.5 60.2 77.6C60.2 76.8 59.6 76.3 58.3 76.3H55.3V78.9H58.4Z" fill="#0037B7"/>
<path d="M64.9 69.5H67.5V78.8H73.3V81.2H64.9V69.5Z" fill="#0037B7"/>
<path d="M75.2 69.5H84.1V71.8H77.8V74.1H83.3V76.4H77.8V78.9H84.2V81.2H75.2V69.5Z" fill="#0037B7"/>
<path d="M88.8 78.5H86.1V81.2H88.8V78.5Z" fill="#0037B7"/>
<path d="M100.3 69.4H102.7L107.7 81.2H105L103.9 78.6H98.9L97.8 81.2H95.2L100.3 69.4ZM103 76.3L101.4 72.5L99.8 76.3H103Z" fill="#0037B7"/>
<path d="M109.5 69.5H112.1V78.8H117.9V81.2H109.5V69.5Z" fill="#0037B7"/>
<path d="M117.3 69.5H120.1L122.5 77.4L125.1 69.4H127.3L130 77.4L132.4 69.5H135.1L131.1 81.3H128.8L126.2 73.6L123.5 81.3H121.3L117.3 69.5Z" fill="#0037B7"/>
<path d="M139.5 69.4H141.9L146.9 81.2H144.2L143.1 78.6H138.1L137 81.2H134.4L139.5 69.4ZM142.2 76.3L140.6 72.5L139 76.3H142.2Z" fill="#0037B7"/>
<path d="M150.2 76.6L145.7 69.5H148.7L151.5 74.2L154.3 69.5H157.3L152.8 76.5V81.2H150.2V76.6Z" fill="#0037B7"/>
<path d="M157.5 79.5L159 77.7C160.1 78.6 161.2 79.1 162.5 79.1C163.6 79.1 164.2 78.7 164.2 78C164.2 77.3 163.8 77 161.8 76.5C159.4 75.9 157.9 75.2 157.9 72.9C157.9 70.8 159.6 69.4 162 69.4C163.7 69.4 165.2 69.9 166.4 70.9L165.1 72.7C164.1 72 163 71.5 162.1 71.5C161.2 71.5 160.6 72 160.6 72.5C160.6 73.3 161.1 73.5 163.1 74C165.5 74.6 166.8 75.5 166.8 77.5C166.8 79.8 165 81.1 162.5 81.1C160.7 81.4 158.9 80.7 157.5 79.5Z" fill="#0037B7"/>
<path d="M171.3 78.5H168.6V81.2H171.3V78.5Z" fill="#0037B7"/>
</svg>