<svg width="24" height="25" viewBox="0 0 24 25" fill="none" xmlns="http://www.w3.org/2000/svg">
<g clip-path="url(#clip0_361_1058)">
<path fill-rule="evenodd" clip-rule="evenodd" d="M12.75 11.75V17C12.75 17.4142 12.4142 17.75 12 17.75C11.5858 17.75 11.25 17.4142 11.25 17V11.75C11.25 11.3358 11.5858 11 12 11C12.4142 11 12.75 11.3358 12.75 11.75ZM22.4869 9.69781L21.1875 19.4487C21.0879 20.1941 20.4517 20.7505 19.6997 20.75H4.30031C3.54831 20.7505 2.91214 20.1941 2.8125 19.4487L1.51219 9.69875C1.45486 9.2699 1.5855 8.83719 1.87056 8.51171C2.15562 8.18624 2.56734 7.9997 3 8H6.40969L11.4375 2.25594C11.5799 2.0945 11.7847 2.00202 12 2.00202C12.2153 2.00202 12.4201 2.0945 12.5625 2.25594L17.5903 8H21C21.4321 8.00028 21.8432 8.18692 22.1278 8.51211C22.4124 8.8373 22.5429 9.26944 22.4859 9.69781H22.4869ZM8.40281 8H15.5972L12 3.88906L8.40281 8ZM21 9.5H3L4.30031 19.25H19.6997L21 9.5ZM16.2038 11.675L15.6788 16.925C15.6578 17.1235 15.7169 17.3222 15.8428 17.4771C15.9688 17.6319 16.1514 17.7301 16.35 17.75C16.3753 17.7514 16.4006 17.7514 16.4259 17.75C16.8108 17.7495 17.1328 17.4579 17.1712 17.075L17.6963 11.825C17.7377 11.4129 17.4371 11.0452 17.025 11.0037C16.6129 10.9623 16.2452 11.2629 16.2038 11.675ZM7.79625 11.675C7.75483 11.2629 7.38714 10.9623 6.975 11.0037C6.56286 11.0452 6.26233 11.4129 6.30375 11.825L6.82875 17.075C6.86741 17.4597 7.19214 17.7519 7.57875 17.75C7.60404 17.7514 7.62939 17.7514 7.65469 17.75C7.85261 17.7301 8.03452 17.6324 8.1604 17.4784C8.28629 17.3244 8.34583 17.1267 8.32594 16.9287L7.79625 11.675Z" fill="#141414"/>
</g>
<defs>
<clipPath id="clip0_361_1058">
<rect width="24" height="24" fill="white" transform="translate(0 0.5)"/>
</clipPath>
</defs>
</svg>
