<svg width="13" height="14" viewBox="0 0 13 14" fill="none" xmlns="http://www.w3.org/2000/svg">
<g clip-path="url(#clip0_550_3039)">
<path d="M9.75 2.66667H8.66667V1.58333H4.33333V2.66667H3.25V1.04167C3.25 0.898008 3.30707 0.760233 3.40865 0.65865C3.51023 0.557068 3.64801 0.5 3.79167 0.5H9.20833C9.35199 0.5 9.48977 0.557068 9.59135 0.65865C9.69293 0.760233 9.75 0.898008 9.75 1.04167V2.66667Z" fill="#148564"/>
<path d="M4.33333 8.08333V7.54167C4.33333 7.39801 4.3904 7.26023 4.49198 7.15865C4.59357 7.05707 4.73134 7 4.875 7H8.125C8.26866 7 8.40643 7.05707 8.50802 7.15865C8.6096 7.26023 8.66667 7.39801 8.66667 7.54167V8.08333H13V4.83333C13 4.54602 12.8859 4.27047 12.6827 4.0673C12.4795 3.86414 12.204 3.75 11.9167 3.75H1.08333C0.796016 3.75 0.520465 3.86414 0.317301 4.0673C0.114137 4.27047 0 4.54602 0 4.83333L0 8.08333H4.33333Z" fill="#148564"/>
<path d="M8.66667 9.16666V9.70832C8.66667 9.85198 8.6096 9.98976 8.50802 10.0913C8.40643 10.1929 8.26866 10.25 8.125 10.25H4.875C4.73134 10.25 4.59357 10.1929 4.49198 10.0913C4.3904 9.98976 4.33333 9.85198 4.33333 9.70832V9.16666H0V12.4167C0 12.704 0.114137 12.9795 0.317301 13.1827C0.520465 13.3859 0.796016 13.5 1.08333 13.5H11.9167C12.204 13.5 12.4795 13.3859 12.6827 13.1827C12.8859 12.9795 13 12.704 13 12.4167V9.16666H8.66667Z" fill="#148564"/>
</g>
<defs>
<clipPath id="clip0_550_3039">
<rect width="13" height="13" fill="white" transform="translate(0 0.5)"/>
</clipPath>
</defs>
</svg>
