<svg width="40" height="40" viewBox="0 0 40 40" fill="none" xmlns="http://www.w3.org/2000/svg">
<path d="M35.0007 2.5H20.834V19.1667H37.5007V5C37.5007 4.33696 37.2373 3.70107 36.7684 3.23223C36.2996 2.76339 35.6637 2.5 35.0007 2.5ZM32.6732 13.1608C32.7527 13.2377 32.8162 13.3297 32.8599 13.4313C32.9036 13.533 32.9266 13.6424 32.9275 13.753C32.9285 13.8636 32.9074 13.9734 32.8655 14.0758C32.8236 14.1782 32.7617 14.2713 32.6835 14.3495C32.6052 14.4277 32.5122 14.4896 32.4098 14.5315C32.3074 14.5734 32.1976 14.5945 32.087 14.5935C31.9763 14.5926 31.867 14.5696 31.7653 14.5259C31.6636 14.4822 31.5717 14.4188 31.4948 14.3392L29.1673 12.0117L26.8398 14.3392C26.6826 14.491 26.4721 14.575 26.2537 14.5731C26.0352 14.5712 25.8261 14.4835 25.6716 14.329C25.5171 14.1745 25.4295 13.9655 25.4276 13.747C25.4257 13.5285 25.5097 13.318 25.6615 13.1608L27.989 10.8333L25.6615 8.50583C25.5097 8.34866 25.4257 8.13816 25.4276 7.91967C25.4295 7.70117 25.5171 7.49216 25.6716 7.33765C25.8261 7.18314 26.0352 7.0955 26.2537 7.09361C26.4721 7.09171 26.6826 7.1757 26.8398 7.3275L29.1673 9.655L31.4948 7.3275C31.652 7.1757 31.8625 7.09171 32.081 7.09361C32.2995 7.0955 32.5085 7.18314 32.663 7.33765C32.8175 7.49216 32.9051 7.70117 32.907 7.91967C32.9089 8.13816 32.8249 8.34866 32.6732 8.50583L30.3457 10.8333L32.6732 13.1608Z" fill="#0037B7"/>
<path d="M5 2.5C4.33696 2.5 3.70107 2.76339 3.23223 3.23223C2.76339 3.70107 2.5 4.33696 2.5 5V19.1667H19.1667V2.5H5ZM14.1667 11.6667H7.5C7.27899 11.6667 7.06702 11.5789 6.91074 11.4226C6.75446 11.2663 6.66667 11.0543 6.66667 10.8333C6.66667 10.6123 6.75446 10.4004 6.91074 10.2441C7.06702 10.0878 7.27899 10 7.5 10H14.1667C14.3877 10 14.5996 10.0878 14.7559 10.2441C14.9122 10.4004 15 10.6123 15 10.8333C15 11.0543 14.9122 11.2663 14.7559 11.4226C14.5996 11.5789 14.3877 11.6667 14.1667 11.6667Z" fill="#E7E7E7"/>
<path d="M20.834 20.834V37.5007H35.0007C35.6637 37.5007 36.2996 37.2373 36.7684 36.7684C37.2373 36.2996 37.5007 35.6637 37.5007 35.0007V20.834H20.834ZM32.5007 31.6673H25.834C25.613 31.6673 25.401 31.5795 25.2447 31.4232C25.0884 31.267 25.0007 31.055 25.0007 30.834C25.0007 30.613 25.0884 30.401 25.2447 30.2447C25.401 30.0884 25.613 30.0007 25.834 30.0007H32.5007C32.7217 30.0007 32.9336 30.0884 33.0899 30.2447C33.2462 30.401 33.334 30.613 33.334 30.834C33.334 31.055 33.2462 31.267 33.0899 31.4232C32.9336 31.5795 32.7217 31.6673 32.5007 31.6673ZM32.5007 28.334H25.834C25.613 28.334 25.401 28.2462 25.2447 28.0899C25.0884 27.9336 25.0007 27.7217 25.0007 27.5007C25.0007 27.2796 25.0884 27.0677 25.2447 26.9114C25.401 26.7551 25.613 26.6673 25.834 26.6673H32.5007C32.7217 26.6673 32.9336 26.7551 33.0899 26.9114C33.2462 27.0677 33.334 27.2796 33.334 27.5007C33.334 27.7217 33.2462 27.9336 33.0899 28.0899C32.9336 28.2462 32.7217 28.334 32.5007 28.334Z" fill="#666666"/>
<path d="M2.5 20.834V35.0007C2.5 35.6637 2.76339 36.2996 3.23223 36.7684C3.70107 37.2373 4.33696 37.5007 5 37.5007H19.1667V20.834H2.5ZM14.1667 30.0007H11.6667V32.5007C11.6667 32.7217 11.5789 32.9336 11.4226 33.0899C11.2663 33.2462 11.0543 33.334 10.8333 33.334C10.6123 33.334 10.4004 33.2462 10.2441 33.0899C10.0878 32.9336 10 32.7217 10 32.5007V30.0007H7.5C7.27899 30.0007 7.06702 29.9129 6.91074 29.7566C6.75446 29.6003 6.66667 29.3883 6.66667 29.1673C6.66667 28.9463 6.75446 28.7343 6.91074 28.5781C7.06702 28.4218 7.27899 28.334 7.5 28.334H10V25.834C10 25.613 10.0878 25.401 10.2441 25.2447C10.4004 25.0884 10.6123 25.0007 10.8333 25.0007C11.0543 25.0007 11.2663 25.0884 11.4226 25.2447C11.5789 25.401 11.6667 25.613 11.6667 25.834V28.334H14.1667C14.3877 28.334 14.5996 28.4218 14.7559 28.5781C14.9122 28.7343 15 28.9463 15 29.1673C15 29.3883 14.9122 29.6003 14.7559 29.7566C14.5996 29.9129 14.3877 30.0007 14.1667 30.0007Z" fill="#0037B7" fill-opacity="0.5"/>
</svg>
