<svg width="14" height="14" viewBox="0 0 14 14" fill="none" xmlns="http://www.w3.org/2000/svg">
<path d="M11.8553 3.15342L11.4048 4.71082H3L3.44405 3.15342H11.8553ZM7.80735 13.18L3.16732 7.53603L3.14802 6.33258H5.45194C6.03543 6.33258 6.52883 6.24463 6.93212 6.06872C7.3397 5.89282 7.64861 5.63539 7.85884 5.29646C8.07336 4.95752 8.18062 4.53706 8.18062 4.03509C8.18062 3.29286 7.95966 2.70722 7.51775 2.27818C7.07585 1.84486 6.38724 1.62819 5.45194 1.62819H3L3.45692 0H5.45194C6.51166 0 7.38261 0.171614 8.06478 0.514843C8.75123 0.853782 9.26179 1.32358 9.59644 1.92423C9.93108 2.52488 10.0984 3.21134 10.0984 3.9836C10.0984 4.67864 9.95468 5.31147 9.66723 5.88209C9.38406 6.44842 8.93143 6.90963 8.30933 7.26573C7.68722 7.61754 6.86776 7.81276 5.85095 7.85137L5.79303 7.86424L10.0534 13.0706V13.18H7.80735ZM11.8553 0L11.4048 1.57027L4.71829 1.52522L5.16878 0H11.8553Z" fill="#F9CD6C"/>
</svg>
