<svg width="40" height="40" viewBox="0 0 40 40" fill="none" xmlns="http://www.w3.org/2000/svg">
<path d="M39.9997 23.0039H0V34.317H39.9997V23.0039Z" fill="#74CBB4"/>
<path d="M39.9997 5.68359H0V25.2368H39.9997V5.68359Z" fill="#82DCC7"/>
<path d="M4.21836 25.2359H0V21.0176C2.32953 21.0176 4.21836 22.9054 4.21836 25.2359Z" fill="#74CBB4"/>
<path d="M0 5.68359H4.21836C4.21836 8.01312 2.32953 9.90195 0 9.90195V5.68359Z" fill="#74CBB4"/>
<path d="M39.9996 5.68359V9.90195C37.6691 9.90195 35.7812 8.01312 35.7812 5.68359H39.9996Z" fill="#74CBB4"/>
<path d="M39.9996 21.0176V25.2359H35.7812C35.7813 22.9054 37.6691 21.0176 39.9996 21.0176Z" fill="#74CBB4"/>
<path d="M19.9996 22.1591C22.9323 22.1591 25.3098 19.1596 25.3098 15.4595C25.3098 11.7593 22.9323 8.75977 19.9996 8.75977C17.0669 8.75977 14.6895 11.7593 14.6895 15.4595C14.6895 19.1596 17.0669 22.1591 19.9996 22.1591Z" fill="#74CBB4"/>
<path d="M37.5682 13.6719H27.9404V15.1607H37.5682V13.6719Z" fill="#74CBB4"/>
<path d="M11.6629 13.6719H2.03516V15.1607H11.6629V13.6719Z" fill="#74CBB4"/>
<path d="M37.5676 16.4766H31.6123V17.9654H37.5676V16.4766Z" fill="#74CBB4"/>
<path d="M7.99047 16.4766H2.03516V17.9654H7.99047V16.4766Z" fill="#74CBB4"/>
<path d="M39.9997 30.5449H0V32.0338H39.9997V30.5449Z" fill="#82DCC7"/>
<path d="M39.9997 27.5176H0V29.0064H39.9997V27.5176Z" fill="#82DCC7"/>
<path d="M21.163 12.947H22.7722L23.3594 11.9531H17.6966L17.1094 12.947H19.2845C19.7641 13.0884 20.154 13.3724 20.3696 13.7329H17.6966L17.1094 14.7268H20.5022C20.301 15.4055 19.5228 15.9114 18.5929 15.9114H17.433V16.8071L20.7242 19.5951H22.1573V19.2485L19.1498 16.7582C20.4118 16.7082 21.4429 15.8445 21.6317 14.7268H22.7722L23.3594 13.7329H21.573C21.4891 13.4461 21.3484 13.1809 21.163 12.947Z" fill="#82DCC7"/>
</svg>
