<svg width="40" height="40" viewBox="0 0 40 40" fill="none" xmlns="http://www.w3.org/2000/svg">
<g clip-path="url(#clip0_301_1935)">
<path d="M0 38.75V35L3.75 32.5L7.5 35V38.75C7.5 39.0815 7.3683 39.3995 7.13388 39.6339C6.89946 39.8683 6.58152 40 6.25 40H1.25C0.918479 40 0.600537 39.8683 0.366117 39.6339C0.131696 39.3995 0 39.0815 0 38.75Z" fill="#2E65F6"/>
<path d="M16.25 38.75V35L20 32.5L23.75 35V38.75C23.75 39.0815 23.6183 39.3995 23.3839 39.6339C23.1495 39.8683 22.8315 40 22.5 40H17.5C17.1685 40 16.8505 39.8683 16.6161 39.6339C16.3817 39.3995 16.25 39.0815 16.25 38.75Z" fill="#2E65F6"/>
<path d="M32.5 38.75V35L36.25 32.5L40 35V38.75C40 39.0815 39.8683 39.3995 39.6339 39.6339C39.3995 39.8683 39.0815 40 38.75 40H33.75C33.4185 40 33.1005 39.8683 32.8661 39.6339C32.6317 39.3995 32.5 39.0815 32.5 38.75Z" fill="#2E65F6"/>
<path d="M4.375 27.1875V9.0625C4.375 8.19956 3.67544 7.5 2.8125 7.5C1.94956 7.5 1.25 8.19956 1.25 9.0625V27.1875C1.25 28.0504 1.94956 28.75 2.8125 28.75C3.67544 28.75 4.375 28.0504 4.375 27.1875Z" fill="black"/>
<path d="M19.375 27.1875V11.5625C19.375 10.6996 18.6754 10 17.8125 10C16.9496 10 16.25 10.6996 16.25 11.5625V27.1875C16.25 28.0504 16.9496 28.75 17.8125 28.75C18.6754 28.75 19.375 28.0504 19.375 27.1875Z" fill="black"/>
<path d="M34.375 27.1875V4.0625C34.375 3.19956 33.6754 2.5 32.8125 2.5C31.9496 2.5 31.25 3.19956 31.25 4.0625V27.1875C31.25 28.0504 31.9496 28.75 32.8125 28.75C33.6754 28.75 34.375 28.0504 34.375 27.1875Z" fill="black"/>
<path d="M39.375 27.1875V1.5625C39.375 0.699555 38.6754 0 37.8125 0C36.9496 0 36.25 0.699555 36.25 1.5625V27.1875C36.25 28.0504 36.9496 28.75 37.8125 28.75C38.6754 28.75 39.375 28.0504 39.375 27.1875Z" fill="black"/>
<path d="M9.375 27.1875V1.5625C9.375 0.699555 8.67544 0 7.8125 0C6.94956 0 6.25 0.699555 6.25 1.5625V27.1875C6.25 28.0504 6.94956 28.75 7.8125 28.75C8.67544 28.75 9.375 28.0504 9.375 27.1875Z" fill="black"/>
<path d="M14.375 27.1875V17.8125C14.375 16.9496 13.6754 16.25 12.8125 16.25C11.9496 16.25 11.25 16.9496 11.25 17.8125V27.1875C11.25 28.0504 11.9496 28.75 12.8125 28.75C13.6754 28.75 14.375 28.0504 14.375 27.1875Z" fill="black"/>
<path d="M24.375 27.1875V1.5625C24.375 0.699555 23.6754 0 22.8125 0C21.9496 0 21.25 0.699555 21.25 1.5625V27.1875C21.25 28.0504 21.9496 28.75 22.8125 28.75C23.6754 28.75 24.375 28.0504 24.375 27.1875Z" fill="black"/>
<path d="M29.375 27.1875V11.5625C29.375 10.6996 28.6754 10 27.8125 10C26.9496 10 26.25 10.6996 26.25 11.5625V27.1875C26.25 28.0504 26.9496 28.75 27.8125 28.75C28.6754 28.75 29.375 28.0504 29.375 27.1875Z" fill="black"/>
</g>
<defs>
<clipPath id="clip0_301_1935">
<rect width="40" height="40" fill="white"/>
</clipPath>
</defs>
</svg>
