<svg width="40" height="40" viewBox="0 0 40 40" fill="none" xmlns="http://www.w3.org/2000/svg">
<g clip-path="url(#clip0_1484_1642)">
<path d="M19.9999 39.3749C9.29945 39.3749 0.625 30.7004 0.625 19.9999C0.625 9.29945 9.29953 0.625 20 0.625" fill="#027EA8"/>
<path d="M20 0.625C30.7005 0.625 39.375 9.29953 39.375 20C39.375 30.7005 30.7005 39.375 20 39.375" fill="#F14507"/>
<path d="M19.9994 39.375C26.1729 39.375 31.1775 30.7005 31.1775 20C31.1775 9.29948 26.1729 0.625 19.9994 0.625C13.8259 0.625 8.82129 9.29948 8.82129 20C8.82129 30.7005 13.8259 39.375 19.9994 39.375Z" fill="#84DCCF"/>
<path d="M20 0.625C26.1734 0.625 31.1779 9.29953 31.1779 20C31.1779 30.7005 26.1734 39.375 20 39.375" fill="#FBA218"/>
<path d="M34.142 5.85781C30.3646 2.08039 25.3421 0 19.9999 0C14.6577 0 9.63523 2.08039 5.85773 5.85789C2.08039 9.63531 0 14.6577 0 19.9999C0 25.3421 2.08039 30.3645 5.85789 34.142C9.63539 37.9195 14.6578 39.9999 20.0001 39.9999C25.3423 39.9999 30.3648 37.9195 34.1422 34.142C37.9197 30.3645 40 25.3421 40 19.9999C40 14.6577 37.9196 9.63531 34.142 5.85781ZM33.2583 6.74172C36.6638 10.1473 38.5972 14.6325 38.7405 19.4253H31.7977C31.7145 14.3568 30.5319 9.60391 28.4454 5.98734C27.4745 4.30445 26.3569 2.95141 25.1386 1.96C28.1777 2.82094 30.9633 4.44672 33.2583 6.74172ZM19.3433 1.28758V19.4253H9.45258C9.53492 14.5741 10.6581 10.0428 12.6374 6.61203C14.473 3.43047 16.8334 1.56547 19.3433 1.28758ZM19.3433 20.6566V38.7122C16.8334 38.4343 14.473 36.5693 12.6374 33.3877C10.6693 29.9762 9.54789 25.4767 9.4543 20.6564L19.3433 20.6566ZM20.5745 38.7212V20.6566H30.5457C30.4521 25.4767 29.3307 29.9763 27.3626 33.3878C25.507 36.6041 23.115 38.4753 20.5745 38.7212ZM20.5745 19.4253V1.27875C23.115 1.52461 25.507 3.39586 27.3625 6.61211C29.3418 10.043 30.465 14.5741 30.5473 19.4254L20.5745 19.4253ZM6.7418 6.74172C9.03687 4.44672 11.8223 2.82094 14.8616 1.96008C13.6432 2.95148 12.5256 4.30453 11.5548 5.98742C9.46828 9.60398 8.28562 14.3569 8.20242 19.4254H1.25961C1.40289 14.6324 3.33609 10.1473 6.7418 6.74172ZM6.7418 33.2582C3.3557 29.8721 1.42547 25.4187 1.26266 20.6566H8.20414C8.29875 25.6944 9.47961 30.4155 11.5548 34.0125C12.5256 35.6954 13.6432 37.0484 14.8616 38.0398C11.8223 37.1789 9.03672 35.5532 6.7418 33.2582ZM33.2583 33.2582C30.9633 35.5532 28.1777 37.179 25.1385 38.0398C26.3569 37.0485 27.4745 35.6955 28.4453 34.0125C30.5205 30.4155 31.7014 25.6943 31.7959 20.6566H38.7374C38.5745 25.4187 36.6444 29.8721 33.2583 33.2582Z" fill="black"/>
</g>
<defs>
<clipPath id="clip0_1484_1642">
<rect width="40" height="40" fill="white"/>
</clipPath>
</defs>
</svg>
