<svg width="40" height="40" viewBox="0 0 40 40" fill="none" xmlns="http://www.w3.org/2000/svg">
<path d="M17.2874 20H2.71258L0 31.1111H20L17.2874 20Z" fill="#FED159"/>
<path d="M37.2874 20H22.7126L20 31.1111H40L37.2874 20Z" fill="#FED159"/>
<path d="M27.2874 8.88867H12.7126L10 19.9998H30L27.2874 8.88867Z" fill="#FED159"/>
<path d="M12.7126 8.88867L10 19.9998H13.0555L15.7681 8.88867H12.7126Z" fill="#F6C454"/>
<path d="M2.71258 20L0 31.1111H3.05555L5.76813 20H2.71258Z" fill="#F6C454"/>
<path d="M22.7126 20L20 31.1111H23.0555L25.7681 20H22.7126Z" fill="#F6C454"/>
<path d="M27.287 8.88867L29.9996 19.9998H26.944L24.2314 8.88867H27.287Z" fill="#FFE4A9"/>
<path d="M37.287 20L39.9996 31.1111H36.944L34.2314 20H37.287Z" fill="#FFE4A9"/>
<path d="M17.287 20L19.9996 31.1111H16.944L14.2314 20H17.287Z" fill="#FFE4A9"/>
</svg>
