<svg width="40" height="40" viewBox="0 0 40 40" fill="none" xmlns="http://www.w3.org/2000/svg">
<g clip-path="url(#clip0_301_1925)">
<path d="M20 8.8125C19.9963 7.51375 20.2188 6.2225 20.6562 5H5C2.23875 5 0 7.23875 0 10V35C0 37.7612 2.23875 40 5 40H30C32.7612 40 35 37.7612 35 35V19.3438C33.7962 19.775 32.5288 19.9975 31.25 20C25.0538 20.0175 20.0175 15.0087 20 8.8125ZM32.5 35C32.5 36.3813 31.3813 37.5 30 37.5H5C3.61875 37.5 2.5 36.3813 2.5 35V31.25H32.5V35Z" fill="black"/>
<path d="M31.25 0C26.4175 0 22.5 3.9175 22.5 8.75C22.5 13.5825 26.4175 17.5 31.25 17.5C36.0825 17.5 40 13.5825 40 8.75C40 3.9175 36.0825 0 31.25 0ZM36.875 10H32.5V14.375C32.5 14.72 32.22 15 31.875 15H30.625C30.28 15 30 14.72 30 14.375V10H25.625C25.28 10 25 9.72 25 9.375V8.125C25 7.78 25.28 7.5 25.625 7.5H30V3.125C30 2.78 30.28 2.5 30.625 2.5H31.875C32.22 2.5 32.5 2.78 32.5 3.125V7.5H36.875C37.22 7.5 37.5 7.78 37.5 8.125V9.375C37.5 9.72 37.22 10 36.875 10Z" fill="#834EDA"/>
</g>
<defs>
<clipPath id="clip0_301_1925">
<rect width="40" height="40" fill="white"/>
</clipPath>
</defs>
</svg>
