<svg width="36" height="26" viewBox="0 0 36 26" fill="none" xmlns="http://www.w3.org/2000/svg">
<path fill-rule="evenodd" clip-rule="evenodd" d="M34.3281 12.6266L26.9893 15.8883H6.91113C6.69012 15.8883 6.47816 15.9761 6.32188 16.1324C6.1656 16.2886 6.0778 16.5006 6.0778 16.7216C6.0778 16.9426 6.1656 17.1546 6.32188 17.3109C6.47816 17.4672 6.69012 17.5549 6.91113 17.5549H27.1667C27.2833 17.555 27.3986 17.5307 27.5052 17.4834L35.0052 14.15C35.1053 14.1056 35.1956 14.0419 35.271 13.9625C35.3464 13.8832 35.4055 13.7897 35.4448 13.6876C35.4841 13.5854 35.5028 13.4765 35.5 13.367C35.4972 13.2576 35.4729 13.1498 35.4284 13.0498C35.3839 12.9497 35.3202 12.8594 35.2409 12.784C35.1615 12.7086 35.0681 12.6495 34.9659 12.6102C34.8638 12.5709 34.7548 12.5522 34.6454 12.555C34.536 12.5578 34.4282 12.5821 34.3281 12.6266ZM1.33333 15.8883C1.11232 15.8883 0.900357 15.9761 0.744077 16.1324C0.587797 16.2886 0.5 16.5006 0.5 16.7216C0.5 16.9426 0.587797 17.1546 0.744077 17.3109C0.900357 17.4672 1.11232 17.5549 1.33333 17.5549H3.56478C3.78579 17.5549 3.99775 17.4672 4.15403 17.3109C4.31032 17.1546 4.39811 16.9426 4.39811 16.7216C4.39811 16.5006 4.31032 16.2886 4.15403 16.1324C3.99775 15.9761 3.78579 15.8883 3.56478 15.8883H1.33333Z" fill="#0037B7" fill-opacity="0.5"/>
<path fill-rule="evenodd" clip-rule="evenodd" d="M34.3281 16.7926L26.9893 20.0543H1.33333C1.11232 20.0543 0.900357 20.1421 0.744077 20.2984C0.587797 20.4547 0.5 20.6666 0.5 20.8876C0.5 21.1086 0.587797 21.3206 0.744077 21.4769C0.900357 21.6332 1.11232 21.721 1.33333 21.721H27.1667C27.2833 21.721 27.3986 21.6967 27.5052 21.6494L35.0052 18.3161C35.1053 18.2716 35.1956 18.2079 35.271 18.1285C35.3464 18.0492 35.4055 17.9558 35.4448 17.8536C35.4841 17.7514 35.5028 17.6425 35.5 17.5331C35.4972 17.4236 35.4729 17.3158 35.4284 17.2158C35.384 17.1157 35.3202 17.0254 35.2409 16.95C35.1615 16.8746 35.0681 16.8155 34.9659 16.7762C34.8638 16.7369 34.7548 16.7182 34.6454 16.721C34.536 16.7238 34.4281 16.7481 34.3281 16.7926Z" fill="#666666"/>
<path fill-rule="evenodd" clip-rule="evenodd" d="M34.3281 8.46054L26.9893 11.7223H1.33333C1.11232 11.7223 0.900357 11.8101 0.744077 11.9663C0.587797 12.1226 0.5 12.3346 0.5 12.5556C0.5 12.7766 0.587797 12.9886 0.744077 13.1449C0.900357 13.3011 1.11232 13.3889 1.33333 13.3889H27.1667C27.2833 13.389 27.3986 13.3646 27.5052 13.3174L35.0052 9.98402C35.1053 9.93959 35.1956 9.87587 35.271 9.79652C35.3464 9.71717 35.4055 9.62373 35.4448 9.52156C35.4841 9.41938 35.5028 9.31046 35.5 9.20102C35.4972 9.09158 35.4729 8.98379 35.4284 8.88376C35.384 8.78371 35.3202 8.6934 35.2409 8.61798C35.1615 8.54256 35.0681 8.48351 34.9659 8.44421C34.8638 8.40491 34.7548 8.38614 34.6454 8.38895C34.536 8.39176 34.4281 8.41605 34.3281 8.46054Z" fill="#666666"/>
<path fill-rule="evenodd" clip-rule="evenodd" d="M34.3281 4.29257L26.9893 7.55429H1.33333C1.11232 7.55429 0.900357 7.64209 0.744077 7.79838C0.587797 7.95466 0.5 8.16661 0.5 8.38762C0.5 8.60863 0.587797 8.82061 0.744077 8.97689C0.900357 9.13317 1.11232 9.22095 1.33333 9.22095H27.1667C27.2833 9.22104 27.3986 9.19667 27.5052 9.14939L35.0052 5.81606C35.1053 5.77162 35.1956 5.7079 35.271 5.62855C35.3464 5.5492 35.4055 5.45576 35.4448 5.35359C35.4841 5.25141 35.5028 5.14249 35.5 5.03305C35.4972 4.92361 35.4729 4.81582 35.4284 4.71579C35.384 4.61574 35.3202 4.52543 35.2409 4.45001C35.1615 4.37459 35.0681 4.31554 34.9659 4.27624C34.8638 4.23694 34.7548 4.21817 34.6454 4.22098C34.536 4.22379 34.4281 4.24808 34.3281 4.29257Z" fill="#666666"/>
<path fill-rule="evenodd" clip-rule="evenodd" d="M1.33301 4.22201L8.83301 0.888672H34.6663L27.1663 4.22201C18.5552 4.22201 9.94412 4.22201 1.33301 4.22201Z" fill="#0037B7"/>
<path fill-rule="evenodd" clip-rule="evenodd" d="M34.3281 20.9605L26.9893 24.2223H25.4935C25.2725 24.2223 25.0605 24.3101 24.9042 24.4663C24.748 24.6226 24.6602 24.8346 24.6602 25.0556C24.6602 25.2766 24.748 25.4886 24.9042 25.6449C25.0605 25.8011 25.2725 25.8889 25.4935 25.8889H27.1667C27.2833 25.889 27.3986 25.8646 27.5052 25.8174L35.0052 22.484C35.1053 22.4396 35.1956 22.3759 35.271 22.2965C35.3464 22.2172 35.4055 22.1237 35.4448 22.0216C35.4841 21.9194 35.5028 21.8105 35.5 21.701C35.4972 21.5916 35.4729 21.4838 35.4284 21.3838C35.384 21.2837 35.3202 21.1934 35.2409 21.118C35.1615 21.0426 35.0681 20.9835 34.9659 20.9442C34.8638 20.9049 34.7548 20.8861 34.6454 20.8889C34.536 20.8918 34.4281 20.916 34.3281 20.9605ZM1.33333 24.2223C1.11232 24.2223 0.900357 24.3101 0.744077 24.4663C0.587797 24.6226 0.5 24.8346 0.5 25.0556C0.5 25.2766 0.587797 25.4886 0.744077 25.6449C0.900357 25.8011 1.11232 25.8889 1.33333 25.8889H21.9795C22.2005 25.8889 22.4125 25.8011 22.5687 25.6449C22.725 25.4886 22.8128 25.2766 22.8128 25.0556C22.8128 24.8346 22.725 24.6226 22.5687 24.4663C22.4125 24.3101 22.2005 24.2223 21.9795 24.2223H1.33333Z" fill="#666666"/>
</svg>
