<svg width="40" height="40" viewBox="0 0 40 40" fill="none" xmlns="http://www.w3.org/2000/svg">
<path d="M37.5917 23.2775C37.1826 22.8605 36.6503 22.5861 36.0733 22.4948C35.4963 22.4036 34.9053 22.5003 34.3875 22.7708L27.28 26.3208C27.0108 27.1375 26.506 27.8562 25.829 28.3864C25.152 28.9165 24.3332 29.2344 23.4758 29.3L14.2258 29.9608H14.165C13.944 29.9686 13.729 29.8882 13.5672 29.7374C13.4055 29.5866 13.3102 29.3777 13.3025 29.1567C13.2948 28.9356 13.3751 28.7206 13.526 28.5589C13.6768 28.3971 13.8857 28.3019 14.1067 28.2942L14.1658 28.29L23.3392 27.8125C24.0157 27.7632 24.6486 27.4597 25.1105 26.9629C25.5725 26.4662 25.8293 25.8129 25.8293 25.1346C25.8293 24.4562 25.5725 23.803 25.1105 23.3062C24.6486 22.8094 24.0157 22.5059 23.3392 22.4567L14.7558 20.8967C14.3641 20.8255 13.9795 20.7195 13.6067 20.58L8.99333 18.85C8.01196 18.4818 6.9576 18.3502 5.91583 18.4658L0.741667 19.0408C0.53776 19.0634 0.349343 19.1604 0.212495 19.3132C0.0756471 19.4661 -1.4033e-05 19.664 1.95223e-09 19.8692V29.9525C1.95223e-09 30.1735 0.0877974 30.3855 0.244078 30.5417C0.400358 30.698 0.61232 30.7858 0.833333 30.7858H1.53167C2.71206 30.7859 3.87127 31.0993 4.89083 31.6942L11.115 35.3333C12.5428 36.1661 14.2291 36.4387 15.8467 36.0983L27.7292 33.5983C28.6821 33.3979 29.5795 32.9911 30.3583 32.4067L37.255 27.2292C37.5542 27.0042 37.8026 26.7187 37.9839 26.3912C38.1653 26.0637 38.2754 25.7016 38.3072 25.3286C38.339 24.9556 38.2917 24.5801 38.1684 24.2267C38.0451 23.8732 37.8485 23.5498 37.5917 23.2775Z" fill="black"/>
<path d="M23.3167 0C21.6686 0 20.0574 0.488742 18.687 1.40442C17.3166 2.3201 16.2485 3.62159 15.6177 5.1443C14.987 6.66702 14.822 8.34258 15.1435 9.95909C15.4651 11.5756 16.2587 13.0605 17.4242 14.2259C18.5896 15.3913 20.0745 16.185 21.691 16.5065C23.3075 16.8281 24.983 16.6631 26.5058 16.0323C28.0285 15.4016 29.33 14.3335 30.2457 12.9631C31.1613 11.5927 31.6501 9.98151 31.6501 8.33333C31.6476 6.12394 30.7689 4.00573 29.2066 2.44346C27.6443 0.881179 25.5261 0.00242633 23.3167 0ZM26.4059 8.9225L23.9059 11.4225C23.7496 11.5787 23.5377 11.6665 23.3167 11.6665C23.0958 11.6665 22.8838 11.5787 22.7276 11.4225L20.2276 8.9225C20.0713 8.76623 19.9836 8.5543 19.9836 8.33333C19.9836 8.11236 20.0713 7.90044 20.2276 7.74417L22.7276 5.24417C22.8838 5.08794 23.0958 5.00018 23.3167 5.00018C23.5377 5.00018 23.7496 5.08794 23.9059 5.24417L26.4059 7.74417C26.5621 7.90044 26.6499 8.11236 26.6499 8.33333C26.6499 8.5543 26.5621 8.76623 26.4059 8.9225Z" fill="#1AB700"/>
</svg>
