<svg width="40" height="40" viewBox="0 0 40 40" fill="none" xmlns="http://www.w3.org/2000/svg">
<path d="M13.75 11.25V8.75H6.25V1.25C6.25 0.55875 5.69 0 5 0C4.31 0 3.75 0.55875 3.75 1.25V35C3.75 35.6912 4.31 36.25 5 36.25H13.75V33.75H6.25V23.75H13.75V21.25H6.25V11.25H13.75Z" fill="#F05D0B"/>
<path d="M35 15H17.5C16.81 15 16.25 14.4412 16.25 13.75V6.25C16.25 5.55875 16.81 5 17.5 5H35C35.69 5 36.25 5.55875 36.25 6.25V13.75C36.25 14.4412 35.69 15 35 15Z" fill="black"/>
<path d="M35 40H17.5C16.81 40 16.25 39.4412 16.25 38.75V31.25C16.25 30.5588 16.81 30 17.5 30H35C35.69 30 36.25 30.5588 36.25 31.25V38.75C36.25 39.4412 35.69 40 35 40Z" fill="black"/>
<path d="M35 27.5H17.5C16.81 27.5 16.25 26.9412 16.25 26.25V18.75C16.25 18.0588 16.81 17.5 17.5 17.5H35C35.69 17.5 36.25 18.0588 36.25 18.75V26.25C36.25 26.9412 35.69 27.5 35 27.5Z" fill="black"/>
</svg>
