<svg width="50" height="50" viewBox="0 0 50 50" fill="none" xmlns="http://www.w3.org/2000/svg">
<path fill-rule="evenodd" clip-rule="evenodd" d="M33 20.0098C42.3889 20.0098 50 25.6027 50 32.5019C49.9991 36.3731 47.5558 40.0253 43.3848 42.3901C44.8419 45.5956 46.6086 47.6009 49 49.9908C49 49.9908 42.9626 48.1773 39.3321 44.0863C37.3196 44.6831 35.1702 44.9912 33 44.994C23.6112 44.994 16 39.4011 16 32.5019C16 25.6027 23.6112 20.0098 33 20.0098Z" fill="#0037B7" fill-opacity="0.5"/>
<path fill-rule="evenodd" clip-rule="evenodd" d="M30.833 30.3281C25.5429 30.3397 20.3873 31.4866 16.0723 33.6118C16.8365 39.9911 24.1211 44.9937 33.001 44.9937C35.1712 44.9912 37.3191 44.6847 39.3315 44.0879C42.9621 48.1789 48.9995 49.9912 48.9995 49.9912C46.608 47.6013 44.8414 45.5966 43.3843 42.3911C46.3267 40.7228 48.406 38.4129 49.3779 35.8384C46.9833 34.0974 44.1054 32.7115 40.9181 31.7645C37.7307 30.8174 34.2999 30.3288 30.833 30.3281Z" fill="#0037B7"/>
<path fill-rule="evenodd" clip-rule="evenodd" d="M22.5 -0.00390625C10.0736 -0.00390625 0 7.69205 0 17.1855C0.0011875 22.5124 3.23499 27.538 8.75546 30.792C6.82689 35.2029 4.4887 37.9621 1.32354 41.2507C1.32354 41.2507 9.31427 38.7553 14.1194 33.126C16.783 33.9472 19.6277 34.3711 22.5 34.3749C34.9264 34.3749 45 26.679 45 17.1855C45 7.69205 34.9264 -0.00390625 22.5 -0.00390625Z" fill="#E7E7E7"/>
<path fill-rule="evenodd" clip-rule="evenodd" d="M16.6211 0.59375C7.04692 2.56914 0 9.24661 0 17.1855C0.0011875 22.5125 3.23441 27.5375 8.75488 30.7915C6.82631 35.2024 4.4884 37.9619 1.32324 41.2505C1.32324 41.2505 9.31355 38.7548 14.1187 33.1255C16.7822 33.9467 19.6277 34.3717 22.5 34.3755C26.1173 34.3755 29.5329 33.7178 32.561 32.5591C35.4824 29.1481 37.0211 25.2989 37.0288 21.3823C37.027 16.9905 35.1001 12.6924 31.4799 9.00462C27.8597 5.31683 22.7001 2.39623 16.6211 0.59375Z" fill="#F3F3F3"/>
</svg>
