<svg width="24" height="25" viewBox="0 0 24 25" fill="none" xmlns="http://www.w3.org/2000/svg">
<g clip-path="url(#clip0_361_1050)">
<path fill-rule="evenodd" clip-rule="evenodd" d="M2.25 12.5C2.25413 8.77379 5.27379 5.75413 9 5.75H19.1897L18.2194 4.78062C17.9263 4.48757 17.9263 4.01243 18.2194 3.71937C18.5124 3.42632 18.9876 3.42632 19.2806 3.71937L21.5306 5.96938C21.6715 6.11005 21.7506 6.30094 21.7506 6.5C21.7506 6.69906 21.6715 6.88995 21.5306 7.03062L19.2806 9.28063C18.9876 9.57368 18.5124 9.57368 18.2194 9.28063C17.9263 8.98757 17.9263 8.51243 18.2194 8.21938L19.1897 7.25H9C6.10179 7.2531 3.7531 9.60179 3.75 12.5C3.75 12.9142 3.41421 13.25 3 13.25C2.58579 13.25 2.25 12.9142 2.25 12.5ZM21 11.75C20.5858 11.75 20.25 12.0858 20.25 12.5C20.2469 15.3982 17.8982 17.7469 15 17.75H4.81031L5.78062 16.7806C5.9702 16.5911 6.04424 16.3147 5.97485 16.0558C5.90546 15.7968 5.70319 15.5945 5.44422 15.5252C5.18526 15.4558 4.90895 15.5298 4.71938 15.7194L2.46937 17.9694C2.32854 18.1101 2.24941 18.3009 2.24941 18.5C2.24941 18.6991 2.32854 18.8899 2.46937 19.0306L4.71938 21.2806C4.90895 21.4702 5.18526 21.5442 5.44422 21.4748C5.70319 21.4055 5.90546 21.2032 5.97485 20.9442C6.04424 20.6853 5.9702 20.4089 5.78062 20.2194L4.81031 19.25H15C18.7262 19.2459 21.7459 16.2262 21.75 12.5C21.75 12.0858 21.4142 11.75 21 11.75Z" fill="#141414"/>
</g>
<defs>
<clipPath id="clip0_361_1050">
<rect width="24" height="24" fill="white" transform="translate(0 0.5)"/>
</clipPath>
</defs>
</svg>
