<svg width="40" height="40" viewBox="0 0 40 40" fill="none" xmlns="http://www.w3.org/2000/svg">
<g id="factory 1" clip-path="url(#clip0_5251_107334)">
<g id="Group">
<g id="Group_2">
<path id="Vector" d="M38.7137 12.5916C38.4354 12.4483 38.1009 12.4728 37.8478 12.6551L27.4987 20.0468V13.333C27.4987 13.0302 27.3343 12.7511 27.069 12.6038C26.8053 12.4581 26.4806 12.4646 26.2235 12.6266L13.6103 20.5099L9.04655 12.9041C8.896 12.6534 8.625 12.4996 8.33203 12.4996H1.66536C1.20476 12.4996 0.832031 12.8723 0.832031 13.333V38.333C0.832031 38.7936 1.20476 39.1663 1.66536 39.1663H38.332C38.7926 39.1663 39.1654 38.7936 39.1654 38.333V13.333C39.1654 13.0205 38.9912 12.7348 38.7137 12.5916Z" fill="#444444"/>
<path id="Vector_2" d="M33.3333 27.5H28.3333C27.8727 27.5 27.5 27.8727 27.5 28.3333V33.3333C27.5 33.7939 27.8727 34.1667 28.3333 34.1667H33.3333C33.7939 34.1667 34.1667 33.7939 34.1667 33.3333V28.3333C34.1667 27.8727 33.7939 27.5 33.3333 27.5Z" fill="#BADEFC"/>
<path id="Vector_3" d="M23.3333 27.5H18.3333C17.8727 27.5 17.5 27.8727 17.5 28.3333V33.3333C17.5 33.7939 17.8727 34.1667 18.3333 34.1667H23.3333C23.7939 34.1667 24.1667 33.7939 24.1667 33.3333V28.3333C24.1667 27.8727 23.7939 27.5 23.3333 27.5Z" fill="#BADEFC"/>
<path id="Vector_4" d="M18.332 2.46468C16.8786 2.46468 15.4829 3.0197 14.4176 3.98893C13.0228 2.01709 10.7824 0.833008 8.33203 0.833008C4.19629 0.833008 0.832031 4.19727 0.832031 8.33301C0.832031 8.79362 1.20476 9.16634 1.66536 9.16634H23.3288C23.7674 9.16634 24.1263 8.8278 24.1597 8.39811C24.1629 8.36475 24.1654 8.3265 24.1654 8.29802C24.1654 5.08187 21.5482 2.46468 18.332 2.46468Z" fill="#B3B3B3"/>
</g>
</g>
</g>
<defs>
<clipPath id="clip0_5251_107334">
<rect width="40" height="40" fill="white"/>
</clipPath>
</defs>
</svg>
