<svg width="40" height="40" viewBox="0 0 40 40" fill="none" xmlns="http://www.w3.org/2000/svg">
<g id="fuel-electric 1">
<g id="Group">
<g id="Group_2">
<path id="Vector" d="M31.2474 32.5C28.7201 32.5 26.6641 30.4439 26.6641 27.9167V25C26.6641 24.5398 27.0372 24.1667 27.4974 24.1667C27.9576 24.1667 28.3307 24.5398 28.3307 25V27.9167C28.3307 29.5247 29.6393 30.8333 31.2474 30.8333C32.8555 30.8333 34.1641 29.5247 34.1641 27.9167V18.3333C34.1641 17.8731 34.5372 17.5 34.9974 17.5C35.4576 17.5 35.8307 17.8731 35.8307 18.3333V27.9167C35.8307 30.4439 33.7747 32.5 31.2474 32.5Z" fill="#223E49"/>
<path id="Vector_2" d="M37.4974 12.4997C37.0372 12.4997 36.6641 12.1265 36.6641 11.6663V9.16634C36.6641 8.70613 37.0372 8.33301 37.4974 8.33301C37.9576 8.33301 38.3307 8.70613 38.3307 9.16634V11.6663C38.3307 12.1265 37.9576 12.4997 37.4974 12.4997Z" fill="#223E49"/>
<path id="Vector_3" d="M32.4974 12.4997C32.0372 12.4997 31.6641 12.1265 31.6641 11.6663V9.16634C31.6641 8.70613 32.0372 8.33301 32.4974 8.33301C32.9576 8.33301 33.3307 8.70613 33.3307 9.16634V11.6663C33.3307 12.1265 32.9576 12.4997 32.4974 12.4997Z" fill="#223E49"/>
<path id="Vector_4" d="M24.1654 2.5H7.4987C5.20133 2.5 3.33203 4.3693 3.33203 6.66667V36.6667C3.33203 37.1269 3.70516 37.5 4.16536 37.5H27.4987C27.9589 37.5 28.332 37.1269 28.332 36.6667V6.66667C28.332 4.3693 26.4627 2.5 24.1654 2.5Z" fill="#335262"/>
<path id="Vector_5" d="M29.9987 37.4997H1.66536C1.20516 37.4997 0.832031 37.1265 0.832031 36.6663C0.832031 36.2061 1.20516 35.833 1.66536 35.833H29.9987C30.4589 35.833 30.832 36.2061 30.832 36.6663C30.832 37.1265 30.4589 37.4997 29.9987 37.4997Z" fill="#5A7A84"/>
<path id="Vector_6" d="M14.1637 28.3337C14.0151 28.3337 13.8658 28.2943 13.7315 28.2125C13.3893 28.005 13.2433 27.5826 13.3836 27.2078L15.4617 21.6671H9.99741C9.66822 21.6671 9.36996 21.4734 9.2361 21.1727C9.10223 20.872 9.15797 20.5208 9.37811 20.2763L16.8781 11.943C17.1463 11.6447 17.5877 11.5804 17.9299 11.7883C18.2721 11.9958 18.4182 12.4182 18.2778 12.793L16.1998 18.3337H21.6641C21.9933 18.3337 22.2915 18.5274 22.4254 18.8281C22.5592 19.1288 22.5035 19.48 22.2834 19.7245L14.7834 28.0579C14.6206 28.2389 14.3936 28.3337 14.1637 28.3337Z" fill="#7CD36E"/>
<path id="Vector_7" d="M38.332 10.833H31.6654C31.2052 10.833 30.832 11.2061 30.832 11.6663V14.9997C30.832 17.297 32.7013 19.1663 34.9987 19.1663C37.2961 19.1663 39.1654 17.297 39.1654 14.9997V11.6663C39.1654 11.2061 38.7922 10.833 38.332 10.833Z" fill="#5A7A84"/>
</g>
</g>
</g>
</svg>
