<svg width="40" height="40" viewBox="0 0 40 40" fill="none" xmlns="http://www.w3.org/2000/svg">
<g id="magnet 1">
<g id="Group">
<g id="Group_2">
<path id="Vector" d="M20.1834 28.0649C19.0834 29.1649 17.6193 29.7707 16.0593 29.7707C14.4993 29.7707 13.0343 29.1649 11.9343 28.0649C10.8343 26.9649 10.2284 25.4999 10.2284 23.9399C10.2284 22.3799 10.8343 20.9157 11.9343 19.8157L19.1293 12.6207L13.3409 6.62402L6.04094 13.9232C0.517604 19.4465 0.517604 28.4349 6.04094 33.9582C8.8026 36.719 12.4309 38.1007 16.0584 38.1007C19.6868 38.1007 23.3143 36.7199 26.0759 33.9582L33.2451 26.789L27.3784 20.8707L20.1834 28.0649Z" fill="#444444"/>
<path id="Vector_2" d="M23.7193 8.0296C23.8759 7.87293 23.9634 7.6621 23.9634 7.44043C23.9634 7.21876 23.8759 7.0071 23.7193 6.85126L19.0051 2.13793C18.6793 1.8121 18.1526 1.8121 17.8268 2.13793L12.8984 7.06626L18.7909 12.9588L23.7193 8.0296Z" fill="#E6E6E6"/>
<path id="Vector_3" d="M37.8599 20.9925L33.1466 16.2783C32.9899 16.1217 32.7791 16.0342 32.5574 16.0342C32.3357 16.0342 32.1241 16.1217 31.9682 16.2783L27.0391 21.2075L32.9316 27.1L37.8599 22.1717C38.1849 21.8458 38.1849 21.3183 37.8599 20.9925Z" fill="#E6E6E6"/>
</g>
</g>
</g>
</svg>
